G04 #@! TF.GenerationSoftware,KiCad,Pcbnew,(5.0.1-3-g963ef8bb5)*
G04 #@! TF.CreationDate,2019-11-20T19:59:20+01:00*
G04 #@! TF.ProjectId,RushBox2,52757368426F78322E6B696361645F70,rev?*
G04 #@! TF.SameCoordinates,Original*
G04 #@! TF.FileFunction,Legend,Top*
G04 #@! TF.FilePolarity,Positive*
%FSLAX46Y46*%
G04 Gerber Fmt 4.6, Leading zero omitted, Abs format (unit mm)*
G04 Created by KiCad (PCBNEW (5.0.1-3-g963ef8bb5)) date 2019 November 20, Wednesday 19:59:20*
%MOMM*%
%LPD*%
G01*
G04 APERTURE LIST*
%ADD10C,0.300000*%
%ADD11C,0.120000*%
%ADD12C,0.150000*%
%ADD13C,0.010000*%
G04 APERTURE END LIST*
D10*
X130895571Y-59733571D02*
X130395571Y-59019285D01*
X130038428Y-59733571D02*
X130038428Y-58233571D01*
X130609857Y-58233571D01*
X130752714Y-58305000D01*
X130824142Y-58376428D01*
X130895571Y-58519285D01*
X130895571Y-58733571D01*
X130824142Y-58876428D01*
X130752714Y-58947857D01*
X130609857Y-59019285D01*
X130038428Y-59019285D01*
X132181285Y-58733571D02*
X132181285Y-59733571D01*
X131538428Y-58733571D02*
X131538428Y-59519285D01*
X131609857Y-59662142D01*
X131752714Y-59733571D01*
X131966999Y-59733571D01*
X132109857Y-59662142D01*
X132181285Y-59590714D01*
X132824142Y-59662142D02*
X132966999Y-59733571D01*
X133252714Y-59733571D01*
X133395571Y-59662142D01*
X133466999Y-59519285D01*
X133466999Y-59447857D01*
X133395571Y-59305000D01*
X133252714Y-59233571D01*
X133038428Y-59233571D01*
X132895571Y-59162142D01*
X132824142Y-59019285D01*
X132824142Y-58947857D01*
X132895571Y-58805000D01*
X133038428Y-58733571D01*
X133252714Y-58733571D01*
X133395571Y-58805000D01*
X134109857Y-59733571D02*
X134109857Y-58233571D01*
X134752714Y-59733571D02*
X134752714Y-58947857D01*
X134681285Y-58805000D01*
X134538428Y-58733571D01*
X134324142Y-58733571D01*
X134181285Y-58805000D01*
X134109857Y-58876428D01*
X135967000Y-58947857D02*
X136181285Y-59019285D01*
X136252714Y-59090714D01*
X136324142Y-59233571D01*
X136324142Y-59447857D01*
X136252714Y-59590714D01*
X136181285Y-59662142D01*
X136038428Y-59733571D01*
X135467000Y-59733571D01*
X135467000Y-58233571D01*
X135967000Y-58233571D01*
X136109857Y-58305000D01*
X136181285Y-58376428D01*
X136252714Y-58519285D01*
X136252714Y-58662142D01*
X136181285Y-58805000D01*
X136109857Y-58876428D01*
X135967000Y-58947857D01*
X135467000Y-58947857D01*
X137181285Y-59733571D02*
X137038428Y-59662142D01*
X136967000Y-59590714D01*
X136895571Y-59447857D01*
X136895571Y-59019285D01*
X136967000Y-58876428D01*
X137038428Y-58805000D01*
X137181285Y-58733571D01*
X137395571Y-58733571D01*
X137538428Y-58805000D01*
X137609857Y-58876428D01*
X137681285Y-59019285D01*
X137681285Y-59447857D01*
X137609857Y-59590714D01*
X137538428Y-59662142D01*
X137395571Y-59733571D01*
X137181285Y-59733571D01*
X138181285Y-59733571D02*
X138967000Y-58733571D01*
X138181285Y-58733571D02*
X138967000Y-59733571D01*
X140538428Y-58733571D02*
X140895571Y-59733571D01*
X141252714Y-58733571D01*
X141824142Y-59590714D02*
X141895571Y-59662142D01*
X141824142Y-59733571D01*
X141752714Y-59662142D01*
X141824142Y-59590714D01*
X141824142Y-59733571D01*
X143609857Y-58376428D02*
X143681285Y-58305000D01*
X143824142Y-58233571D01*
X144181285Y-58233571D01*
X144324142Y-58305000D01*
X144395571Y-58376428D01*
X144467000Y-58519285D01*
X144467000Y-58662142D01*
X144395571Y-58876428D01*
X143538428Y-59733571D01*
X144467000Y-59733571D01*
X145109857Y-59590714D02*
X145181285Y-59662142D01*
X145109857Y-59733571D01*
X145038428Y-59662142D01*
X145109857Y-59590714D01*
X145109857Y-59733571D01*
X146109857Y-58233571D02*
X146252714Y-58233571D01*
X146395571Y-58305000D01*
X146467000Y-58376428D01*
X146538428Y-58519285D01*
X146609857Y-58805000D01*
X146609857Y-59162142D01*
X146538428Y-59447857D01*
X146467000Y-59590714D01*
X146395571Y-59662142D01*
X146252714Y-59733571D01*
X146109857Y-59733571D01*
X145967000Y-59662142D01*
X145895571Y-59590714D01*
X145824142Y-59447857D01*
X145752714Y-59162142D01*
X145752714Y-58805000D01*
X145824142Y-58519285D01*
X145895571Y-58376428D01*
X145967000Y-58305000D01*
X146109857Y-58233571D01*
X148395571Y-59733571D02*
X148395571Y-58233571D01*
X148395571Y-58805000D02*
X148538428Y-58733571D01*
X148824142Y-58733571D01*
X148967000Y-58805000D01*
X149038428Y-58876428D01*
X149109857Y-59019285D01*
X149109857Y-59447857D01*
X149038428Y-59590714D01*
X148967000Y-59662142D01*
X148824142Y-59733571D01*
X148538428Y-59733571D01*
X148395571Y-59662142D01*
X149609857Y-58733571D02*
X149967000Y-59733571D01*
X150324142Y-58733571D02*
X149967000Y-59733571D01*
X149824142Y-60090714D01*
X149752714Y-60162142D01*
X149609857Y-60233571D01*
X152467000Y-60233571D02*
X152109857Y-60233571D01*
X152109857Y-58090714D01*
X152467000Y-58090714D01*
X154824142Y-59733571D02*
X154824142Y-58947857D01*
X154752714Y-58805000D01*
X154609857Y-58733571D01*
X154324142Y-58733571D01*
X154181285Y-58805000D01*
X154824142Y-59662142D02*
X154681285Y-59733571D01*
X154324142Y-59733571D01*
X154181285Y-59662142D01*
X154109857Y-59519285D01*
X154109857Y-59376428D01*
X154181285Y-59233571D01*
X154324142Y-59162142D01*
X154681285Y-59162142D01*
X154824142Y-59090714D01*
X156681285Y-58733571D02*
X156681285Y-59733571D01*
X156681285Y-58876428D02*
X156752714Y-58805000D01*
X156895571Y-58733571D01*
X157109857Y-58733571D01*
X157252714Y-58805000D01*
X157324142Y-58947857D01*
X157324142Y-59733571D01*
X159038428Y-58733571D02*
X159395571Y-59733571D01*
X159752714Y-58733571D02*
X159395571Y-59733571D01*
X159252714Y-60090714D01*
X159181285Y-60162142D01*
X159038428Y-60233571D01*
X161466999Y-59733571D02*
X161466999Y-58733571D01*
X161466999Y-58876428D02*
X161538428Y-58805000D01*
X161681285Y-58733571D01*
X161895571Y-58733571D01*
X162038428Y-58805000D01*
X162109857Y-58947857D01*
X162109857Y-59733571D01*
X162109857Y-58947857D02*
X162181285Y-58805000D01*
X162324142Y-58733571D01*
X162538428Y-58733571D01*
X162681285Y-58805000D01*
X162752714Y-58947857D01*
X162752714Y-59733571D01*
X165252714Y-59733571D02*
X165252714Y-58947857D01*
X165181285Y-58805000D01*
X165038428Y-58733571D01*
X164752714Y-58733571D01*
X164609857Y-58805000D01*
X165252714Y-59662142D02*
X165109857Y-59733571D01*
X164752714Y-59733571D01*
X164609857Y-59662142D01*
X164538428Y-59519285D01*
X164538428Y-59376428D01*
X164609857Y-59233571D01*
X164752714Y-59162142D01*
X165109857Y-59162142D01*
X165252714Y-59090714D01*
X166967000Y-60233571D02*
X167324142Y-60233571D01*
X167324142Y-58090714D01*
X166967000Y-58090714D01*
D11*
G04 #@! TO.C,C1*
X257332267Y-99062000D02*
X256989733Y-99062000D01*
X257332267Y-98042000D02*
X256989733Y-98042000D01*
G04 #@! TO.C,C2*
X256368733Y-81282000D02*
X256711267Y-81282000D01*
X256368733Y-80262000D02*
X256711267Y-80262000D01*
G04 #@! TO.C,C3*
X98126733Y-104646000D02*
X98469267Y-104646000D01*
X98126733Y-105666000D02*
X98469267Y-105666000D01*
G04 #@! TO.C,C4*
X98469267Y-109980000D02*
X98126733Y-109980000D01*
X98469267Y-111000000D02*
X98126733Y-111000000D01*
G04 #@! TO.C,C5*
X254820267Y-100332000D02*
X254477733Y-100332000D01*
X254820267Y-99312000D02*
X254477733Y-99312000D01*
G04 #@! TO.C,C6*
X251631267Y-88644000D02*
X251288733Y-88644000D01*
X251631267Y-89664000D02*
X251288733Y-89664000D01*
G04 #@! TO.C,C7*
X123272733Y-104900000D02*
X123615267Y-104900000D01*
X123272733Y-105920000D02*
X123615267Y-105920000D01*
G04 #@! TO.C,C8*
X123615267Y-109726000D02*
X123272733Y-109726000D01*
X123615267Y-110746000D02*
X123272733Y-110746000D01*
G04 #@! TO.C,C9*
X148813733Y-104646000D02*
X149156267Y-104646000D01*
X148813733Y-105666000D02*
X149156267Y-105666000D01*
G04 #@! TO.C,C10*
X149410267Y-109726000D02*
X149067733Y-109726000D01*
X149410267Y-110746000D02*
X149067733Y-110746000D01*
G04 #@! TO.C,C11*
X174467733Y-104646000D02*
X174810267Y-104646000D01*
X174467733Y-105666000D02*
X174810267Y-105666000D01*
G04 #@! TO.C,C12*
X174923267Y-111000000D02*
X174580733Y-111000000D01*
X174923267Y-109980000D02*
X174580733Y-109980000D01*
G04 #@! TO.C,C13*
X86329733Y-64010000D02*
X86672267Y-64010000D01*
X86329733Y-62990000D02*
X86672267Y-62990000D01*
G04 #@! TO.C,C14*
X72867733Y-104646000D02*
X73210267Y-104646000D01*
X72867733Y-105666000D02*
X73210267Y-105666000D01*
G04 #@! TO.C,C15*
X73210267Y-109980000D02*
X72867733Y-109980000D01*
X73210267Y-111000000D02*
X72867733Y-111000000D01*
G04 #@! TO.C,C16*
X150112000Y-64433267D02*
X150112000Y-64090733D01*
X151132000Y-64433267D02*
X151132000Y-64090733D01*
G04 #@! TO.C,C17*
X109980000Y-64433267D02*
X109980000Y-64090733D01*
X111000000Y-64433267D02*
X111000000Y-64090733D01*
G04 #@! TO.C,C18*
X71122000Y-64433267D02*
X71122000Y-64090733D01*
X70102000Y-64433267D02*
X70102000Y-64090733D01*
G04 #@! TO.C,C19*
X71122000Y-83648733D02*
X71122000Y-83991267D01*
X70102000Y-83648733D02*
X70102000Y-83991267D01*
G04 #@! TO.C,C20*
X260344000Y-93994000D02*
X255959000Y-93994000D01*
X260344000Y-97014000D02*
X260344000Y-93994000D01*
X255959000Y-97014000D02*
X260344000Y-97014000D01*
G04 #@! TO.C,C21*
X109980000Y-83648733D02*
X109980000Y-83991267D01*
X111000000Y-83648733D02*
X111000000Y-83991267D01*
G04 #@! TO.C,C22*
X56611733Y-64772000D02*
X56954267Y-64772000D01*
X56611733Y-63752000D02*
X56954267Y-63752000D01*
G04 #@! TO.C,C23*
X149604000Y-83902733D02*
X149604000Y-84245267D01*
X150624000Y-83902733D02*
X150624000Y-84245267D01*
G04 #@! TO.C,C24*
X189736000Y-83648733D02*
X189736000Y-83991267D01*
X190756000Y-83648733D02*
X190756000Y-83991267D01*
G04 #@! TO.C,C25*
X159510000Y-90849267D02*
X159510000Y-90506733D01*
X160530000Y-90849267D02*
X160530000Y-90506733D01*
G04 #@! TO.C,C26*
X256060000Y-85584000D02*
X260445000Y-85584000D01*
X260445000Y-85584000D02*
X260445000Y-82564000D01*
X260445000Y-82564000D02*
X256060000Y-82564000D01*
G04 #@! TO.C,C27*
X109730000Y-90736267D02*
X109730000Y-90393733D01*
X108710000Y-90736267D02*
X108710000Y-90393733D01*
G04 #@! TO.C,C28*
X84471000Y-124796733D02*
X84471000Y-125139267D01*
X83451000Y-124796733D02*
X83451000Y-125139267D01*
G04 #@! TO.C,C29*
X134251000Y-124542733D02*
X134251000Y-124885267D01*
X135271000Y-124542733D02*
X135271000Y-124885267D01*
G04 #@! TO.C,C30*
X183644000Y-124429733D02*
X183644000Y-124772267D01*
X182624000Y-124429733D02*
X182624000Y-124772267D01*
G04 #@! TO.C,CLEAR1*
X264870000Y-76786000D02*
X264870000Y-77436000D01*
X264870000Y-77436000D02*
X258370000Y-77436000D01*
X258370000Y-77436000D02*
X258370000Y-76786000D01*
X264870000Y-71286000D02*
X264870000Y-70636000D01*
X264870000Y-70636000D02*
X258370000Y-70636000D01*
X258370000Y-70636000D02*
X258370000Y-71286000D01*
X264870000Y-72786000D02*
X264870000Y-75286000D01*
X258370000Y-72786000D02*
X258370000Y-75286000D01*
G04 #@! TO.C,COPY1*
X230430000Y-72786000D02*
X230430000Y-75286000D01*
X236930000Y-72786000D02*
X236930000Y-75286000D01*
X230430000Y-70636000D02*
X230430000Y-71286000D01*
X236930000Y-70636000D02*
X230430000Y-70636000D01*
X236930000Y-71286000D02*
X236930000Y-70636000D01*
X230430000Y-77436000D02*
X230430000Y-76786000D01*
X236930000Y-77436000D02*
X230430000Y-77436000D01*
X236930000Y-76786000D02*
X236930000Y-77436000D01*
G04 #@! TO.C,D1*
X187550000Y-66122000D02*
X193450000Y-66122000D01*
X187550000Y-70022000D02*
X193450000Y-70022000D01*
X193450000Y-70022000D02*
X193450000Y-68947000D01*
G04 #@! TO.C,D2*
X173456568Y-70022000D02*
X173456568Y-68947000D01*
X167556568Y-70022000D02*
X173456568Y-70022000D01*
X167556568Y-66122000D02*
X173456568Y-66122000D01*
G04 #@! TO.C,D3*
X153463140Y-70022000D02*
X153463140Y-68947000D01*
X147563140Y-70022000D02*
X153463140Y-70022000D01*
X147563140Y-66122000D02*
X153463140Y-66122000D01*
G04 #@! TO.C,D4*
X133469712Y-70022000D02*
X133469712Y-68947000D01*
X127569712Y-70022000D02*
X133469712Y-70022000D01*
X127569712Y-66122000D02*
X133469712Y-66122000D01*
G04 #@! TO.C,D5*
X113476284Y-70022000D02*
X113476284Y-68947000D01*
X107576284Y-70022000D02*
X113476284Y-70022000D01*
X107576284Y-66122000D02*
X113476284Y-66122000D01*
G04 #@! TO.C,D6*
X87582856Y-66122000D02*
X93482856Y-66122000D01*
X87582856Y-70022000D02*
X93482856Y-70022000D01*
X93482856Y-70022000D02*
X93482856Y-68947000D01*
G04 #@! TO.C,D7*
X73489428Y-70022000D02*
X73489428Y-68947000D01*
X67589428Y-70022000D02*
X73489428Y-70022000D01*
X67589428Y-66122000D02*
X73489428Y-66122000D01*
G04 #@! TO.C,D8*
X47596000Y-66122000D02*
X53496000Y-66122000D01*
X47596000Y-70022000D02*
X53496000Y-70022000D01*
X53496000Y-70022000D02*
X53496000Y-68947000D01*
G04 #@! TO.C,D9*
X53524000Y-81960000D02*
X47624000Y-81960000D01*
X53524000Y-78060000D02*
X47624000Y-78060000D01*
X47624000Y-78060000D02*
X47624000Y-79135000D01*
G04 #@! TO.C,D10*
X67617428Y-78060000D02*
X67617428Y-79135000D01*
X73517428Y-78060000D02*
X67617428Y-78060000D01*
X73517428Y-81960000D02*
X67617428Y-81960000D01*
G04 #@! TO.C,D11*
X93510856Y-81960000D02*
X87610856Y-81960000D01*
X93510856Y-78060000D02*
X87610856Y-78060000D01*
X87610856Y-78060000D02*
X87610856Y-79135000D01*
G04 #@! TO.C,D12*
X113504284Y-81960000D02*
X107604284Y-81960000D01*
X113504284Y-78060000D02*
X107604284Y-78060000D01*
X107604284Y-78060000D02*
X107604284Y-79135000D01*
G04 #@! TO.C,D13*
X127597712Y-78060000D02*
X127597712Y-79135000D01*
X133497712Y-78060000D02*
X127597712Y-78060000D01*
X133497712Y-81960000D02*
X127597712Y-81960000D01*
G04 #@! TO.C,D14*
X153491140Y-81960000D02*
X147591140Y-81960000D01*
X153491140Y-78060000D02*
X147591140Y-78060000D01*
X147591140Y-78060000D02*
X147591140Y-79135000D01*
G04 #@! TO.C,D15*
X167584568Y-78060000D02*
X167584568Y-79135000D01*
X173484568Y-78060000D02*
X167584568Y-78060000D01*
X173484568Y-81960000D02*
X167584568Y-81960000D01*
G04 #@! TO.C,D16*
X193478000Y-81960000D02*
X187578000Y-81960000D01*
X193478000Y-78060000D02*
X187578000Y-78060000D01*
X187578000Y-78060000D02*
X187578000Y-79135000D01*
G04 #@! TO.C,D17*
X188144000Y-96325000D02*
X188144000Y-95250000D01*
X182244000Y-96325000D02*
X188144000Y-96325000D01*
X182244000Y-92425000D02*
X188144000Y-92425000D01*
G04 #@! TO.C,D18*
X156816000Y-92792000D02*
X162716000Y-92792000D01*
X156816000Y-96692000D02*
X162716000Y-96692000D01*
X162716000Y-96692000D02*
X162716000Y-95617000D01*
G04 #@! TO.C,D19*
X137824000Y-96438000D02*
X137824000Y-95363000D01*
X131924000Y-96438000D02*
X137824000Y-96438000D01*
X131924000Y-92538000D02*
X137824000Y-92538000D01*
G04 #@! TO.C,D20*
X106242000Y-92425000D02*
X112142000Y-92425000D01*
X106242000Y-96325000D02*
X112142000Y-96325000D01*
X112142000Y-96325000D02*
X112142000Y-95250000D01*
G04 #@! TO.C,D21*
X86262000Y-96438000D02*
X86262000Y-95363000D01*
X80362000Y-96438000D02*
X86262000Y-96438000D01*
X80362000Y-92538000D02*
X86262000Y-92538000D01*
G04 #@! TO.C,D22*
X86798000Y-123200045D02*
X80898000Y-123200045D01*
X86798000Y-119300045D02*
X80898000Y-119300045D01*
X80898000Y-119300045D02*
X80898000Y-120375045D01*
G04 #@! TO.C,D23*
X106354500Y-119300045D02*
X106354500Y-120375045D01*
X112254500Y-119300045D02*
X106354500Y-119300045D01*
X112254500Y-123200045D02*
X106354500Y-123200045D01*
G04 #@! TO.C,D24*
X137711000Y-123200045D02*
X131811000Y-123200045D01*
X137711000Y-119300045D02*
X131811000Y-119300045D01*
X131811000Y-119300045D02*
X131811000Y-120375045D01*
G04 #@! TO.C,D25*
X157267500Y-119300045D02*
X157267500Y-120375045D01*
X163167500Y-119300045D02*
X157267500Y-119300045D01*
X163167500Y-123200045D02*
X157267500Y-123200045D01*
G04 #@! TO.C,D26*
X188624000Y-123200045D02*
X182724000Y-123200045D01*
X188624000Y-119300045D02*
X182724000Y-119300045D01*
X182724000Y-119300045D02*
X182724000Y-120375045D01*
G04 #@! TO.C,ENTER1*
X264870000Y-128226000D02*
X264870000Y-128876000D01*
X264870000Y-128876000D02*
X258370000Y-128876000D01*
X258370000Y-128876000D02*
X258370000Y-128226000D01*
X264870000Y-122726000D02*
X264870000Y-122076000D01*
X264870000Y-122076000D02*
X258370000Y-122076000D01*
X258370000Y-122076000D02*
X258370000Y-122726000D01*
X264870000Y-124226000D02*
X264870000Y-126726000D01*
X258370000Y-124226000D02*
X258370000Y-126726000D01*
G04 #@! TO.C,R1*
X52630000Y-61959748D02*
X52630000Y-62482252D01*
X54050000Y-61959748D02*
X54050000Y-62482252D01*
G04 #@! TO.C,R2*
X52630000Y-58690252D02*
X52630000Y-58167748D01*
X54050000Y-58690252D02*
X54050000Y-58167748D01*
G04 #@! TO.C,R3*
X48312000Y-59437748D02*
X48312000Y-59960252D01*
X49732000Y-59437748D02*
X49732000Y-59960252D01*
G04 #@! TO.C,R4*
X249190252Y-99366000D02*
X248667748Y-99366000D01*
X249190252Y-100786000D02*
X248667748Y-100786000D01*
G04 #@! TO.C,R5*
X248667748Y-93166000D02*
X249190252Y-93166000D01*
X248667748Y-91746000D02*
X249190252Y-91746000D01*
G04 #@! TO.C,R6*
X96214000Y-60976252D02*
X96214000Y-60453748D01*
X94794000Y-60976252D02*
X94794000Y-60453748D01*
G04 #@! TO.C,R7*
X92762000Y-60976252D02*
X92762000Y-60453748D01*
X94182000Y-60976252D02*
X94182000Y-60453748D01*
G04 #@! TO.C,R8*
X57098000Y-73413252D02*
X57098000Y-72890748D01*
X55678000Y-73413252D02*
X55678000Y-72890748D01*
G04 #@! TO.C,R9*
X75744000Y-73413252D02*
X75744000Y-72890748D01*
X77164000Y-73413252D02*
X77164000Y-72890748D01*
G04 #@! TO.C,R10*
X96976000Y-73413252D02*
X96976000Y-72890748D01*
X95556000Y-73413252D02*
X95556000Y-72890748D01*
G04 #@! TO.C,R11*
X103176000Y-73667252D02*
X103176000Y-73144748D01*
X104596000Y-73667252D02*
X104596000Y-73144748D01*
G04 #@! TO.C,R12*
X137108000Y-73413252D02*
X137108000Y-72890748D01*
X135688000Y-73413252D02*
X135688000Y-72890748D01*
G04 #@! TO.C,R13*
X156008000Y-73413252D02*
X156008000Y-72890748D01*
X157428000Y-73413252D02*
X157428000Y-72890748D01*
G04 #@! TO.C,R14*
X163120000Y-73413252D02*
X163120000Y-72890748D01*
X164540000Y-73413252D02*
X164540000Y-72890748D01*
G04 #@! TO.C,R15*
X185114000Y-73404252D02*
X185114000Y-72881748D01*
X183694000Y-73404252D02*
X183694000Y-72881748D01*
G04 #@! TO.C,R16*
X265446252Y-120090000D02*
X264923748Y-120090000D01*
X265446252Y-118670000D02*
X264923748Y-118670000D01*
G04 #@! TO.C,R17*
X240486000Y-124467252D02*
X240486000Y-123944748D01*
X239066000Y-124467252D02*
X239066000Y-123944748D01*
G04 #@! TO.C,R18*
X239320000Y-72905252D02*
X239320000Y-72382748D01*
X240740000Y-72905252D02*
X240740000Y-72382748D01*
G04 #@! TO.C,R19*
X253983748Y-71426000D02*
X254506252Y-71426000D01*
X253983748Y-72846000D02*
X254506252Y-72846000D01*
G04 #@! TO.C,R20*
X45718252Y-74878000D02*
X45195748Y-74878000D01*
X45718252Y-73458000D02*
X45195748Y-73458000D01*
G04 #@! TO.C,R21*
X240521748Y-86562000D02*
X241044252Y-86562000D01*
X240521748Y-85142000D02*
X241044252Y-85142000D01*
G04 #@! TO.C,R22*
X240521748Y-87682000D02*
X241044252Y-87682000D01*
X240521748Y-89102000D02*
X241044252Y-89102000D01*
G04 #@! TO.C,RV1*
X203526000Y-131734000D02*
X212526000Y-131734000D01*
X212526000Y-131734000D02*
X212526000Y-56734000D01*
X212526000Y-56734000D02*
X203526000Y-56734000D01*
X203526000Y-56734000D02*
X203526000Y-131734000D01*
X209026000Y-129734000D02*
G75*
G03X209026000Y-129734000I-1000000J0D01*
G01*
X209026000Y-58734000D02*
G75*
G03X209026000Y-58734000I-1000000J0D01*
G01*
X207026000Y-128034000D02*
X207226000Y-128234000D01*
X207226000Y-128234000D02*
X208826000Y-128234000D01*
X208826000Y-128234000D02*
X209026000Y-128034000D01*
X209026000Y-128034000D02*
X209026000Y-60434000D01*
X209026000Y-60434000D02*
X208826000Y-60234000D01*
X208826000Y-60234000D02*
X207226000Y-60234000D01*
X207226000Y-60234000D02*
X207026000Y-60434000D01*
X207026000Y-60434000D02*
X207026000Y-128034000D01*
G04 #@! TO.C,START1*
X230430000Y-124226000D02*
X230430000Y-126726000D01*
X236930000Y-124226000D02*
X236930000Y-126726000D01*
X230430000Y-122076000D02*
X230430000Y-122726000D01*
X236930000Y-122076000D02*
X230430000Y-122076000D01*
X236930000Y-122726000D02*
X236930000Y-122076000D01*
X230430000Y-128876000D02*
X230430000Y-128226000D01*
X236930000Y-128876000D02*
X230430000Y-128876000D01*
X236930000Y-128226000D02*
X236930000Y-128876000D01*
G04 #@! TO.C,SW1*
X53730000Y-76786000D02*
X53730000Y-77436000D01*
X53730000Y-77436000D02*
X47230000Y-77436000D01*
X47230000Y-77436000D02*
X47230000Y-76786000D01*
X53730000Y-71286000D02*
X53730000Y-70636000D01*
X53730000Y-70636000D02*
X47230000Y-70636000D01*
X47230000Y-70636000D02*
X47230000Y-71286000D01*
X53730000Y-72786000D02*
X53730000Y-75286000D01*
X47230000Y-72786000D02*
X47230000Y-75286000D01*
G04 #@! TO.C,SW2*
X112100000Y-107838500D02*
G75*
G03X112100000Y-107838500I-3000000J0D01*
G01*
X110900000Y-101538500D02*
X115800000Y-101538500D01*
X115800000Y-101538500D02*
X115800000Y-114138500D01*
X115800000Y-114138500D02*
X110900000Y-114138500D01*
X107300000Y-114138500D02*
X102400000Y-114138500D01*
X102400000Y-114138500D02*
X102400000Y-111338500D01*
X107200000Y-101538500D02*
X102400000Y-101538500D01*
X102400000Y-101538500D02*
X102400000Y-104038500D01*
X101600000Y-104038500D02*
X101300000Y-103738500D01*
X101300000Y-103738500D02*
X101900000Y-103738500D01*
X101900000Y-103738500D02*
X101600000Y-104038500D01*
X109100000Y-107338500D02*
X109100000Y-108338500D01*
X108600000Y-107838500D02*
X109600000Y-107838500D01*
G04 #@! TO.C,SW3*
X67230000Y-72786000D02*
X67230000Y-75286000D01*
X73730000Y-72786000D02*
X73730000Y-75286000D01*
X67230000Y-70636000D02*
X67230000Y-71286000D01*
X73730000Y-70636000D02*
X67230000Y-70636000D01*
X73730000Y-71286000D02*
X73730000Y-70636000D01*
X67230000Y-77436000D02*
X67230000Y-76786000D01*
X73730000Y-77436000D02*
X67230000Y-77436000D01*
X73730000Y-76786000D02*
X73730000Y-77436000D01*
G04 #@! TO.C,SW4*
X87230000Y-72786000D02*
X87230000Y-75286000D01*
X93730000Y-72786000D02*
X93730000Y-75286000D01*
X87230000Y-70636000D02*
X87230000Y-71286000D01*
X93730000Y-70636000D02*
X87230000Y-70636000D01*
X93730000Y-71286000D02*
X93730000Y-70636000D01*
X87230000Y-77436000D02*
X87230000Y-76786000D01*
X93730000Y-77436000D02*
X87230000Y-77436000D01*
X93730000Y-76786000D02*
X93730000Y-77436000D01*
G04 #@! TO.C,SW5*
X261000000Y-107838500D02*
X262000000Y-107838500D01*
X261500000Y-107338500D02*
X261500000Y-108338500D01*
X254300000Y-103738500D02*
X254000000Y-104038500D01*
X253700000Y-103738500D02*
X254300000Y-103738500D01*
X254000000Y-104038500D02*
X253700000Y-103738500D01*
X254800000Y-101538500D02*
X254800000Y-104038500D01*
X259600000Y-101538500D02*
X254800000Y-101538500D01*
X254800000Y-114138500D02*
X254800000Y-111338500D01*
X259700000Y-114138500D02*
X254800000Y-114138500D01*
X268200000Y-114138500D02*
X263300000Y-114138500D01*
X268200000Y-101538500D02*
X268200000Y-114138500D01*
X263300000Y-101538500D02*
X268200000Y-101538500D01*
X264500000Y-107838500D02*
G75*
G03X264500000Y-107838500I-3000000J0D01*
G01*
G04 #@! TO.C,SW6*
X134000000Y-107838500D02*
X135000000Y-107838500D01*
X134500000Y-107338500D02*
X134500000Y-108338500D01*
X127300000Y-103738500D02*
X127000000Y-104038500D01*
X126700000Y-103738500D02*
X127300000Y-103738500D01*
X127000000Y-104038500D02*
X126700000Y-103738500D01*
X127800000Y-101538500D02*
X127800000Y-104038500D01*
X132600000Y-101538500D02*
X127800000Y-101538500D01*
X127800000Y-114138500D02*
X127800000Y-111338500D01*
X132700000Y-114138500D02*
X127800000Y-114138500D01*
X141200000Y-114138500D02*
X136300000Y-114138500D01*
X141200000Y-101538500D02*
X141200000Y-114138500D01*
X136300000Y-101538500D02*
X141200000Y-101538500D01*
X137500000Y-107838500D02*
G75*
G03X137500000Y-107838500I-3000000J0D01*
G01*
G04 #@! TO.C,SW7*
X133730000Y-76786000D02*
X133730000Y-77436000D01*
X133730000Y-77436000D02*
X127230000Y-77436000D01*
X127230000Y-77436000D02*
X127230000Y-76786000D01*
X133730000Y-71286000D02*
X133730000Y-70636000D01*
X133730000Y-70636000D02*
X127230000Y-70636000D01*
X127230000Y-70636000D02*
X127230000Y-71286000D01*
X133730000Y-72786000D02*
X133730000Y-75286000D01*
X127230000Y-72786000D02*
X127230000Y-75286000D01*
G04 #@! TO.C,SW8*
X107230000Y-72786000D02*
X107230000Y-75286000D01*
X113730000Y-72786000D02*
X113730000Y-75286000D01*
X107230000Y-70636000D02*
X107230000Y-71286000D01*
X113730000Y-70636000D02*
X107230000Y-70636000D01*
X113730000Y-71286000D02*
X113730000Y-70636000D01*
X107230000Y-77436000D02*
X107230000Y-76786000D01*
X113730000Y-77436000D02*
X107230000Y-77436000D01*
X113730000Y-76786000D02*
X113730000Y-77436000D01*
G04 #@! TO.C,SW9*
X162900000Y-107838500D02*
G75*
G03X162900000Y-107838500I-3000000J0D01*
G01*
X161700000Y-101538500D02*
X166600000Y-101538500D01*
X166600000Y-101538500D02*
X166600000Y-114138500D01*
X166600000Y-114138500D02*
X161700000Y-114138500D01*
X158100000Y-114138500D02*
X153200000Y-114138500D01*
X153200000Y-114138500D02*
X153200000Y-111338500D01*
X158000000Y-101538500D02*
X153200000Y-101538500D01*
X153200000Y-101538500D02*
X153200000Y-104038500D01*
X152400000Y-104038500D02*
X152100000Y-103738500D01*
X152100000Y-103738500D02*
X152700000Y-103738500D01*
X152700000Y-103738500D02*
X152400000Y-104038500D01*
X159900000Y-107338500D02*
X159900000Y-108338500D01*
X159400000Y-107838500D02*
X160400000Y-107838500D01*
G04 #@! TO.C,SW10*
X184800000Y-107838500D02*
X185800000Y-107838500D01*
X185300000Y-107338500D02*
X185300000Y-108338500D01*
X178100000Y-103738500D02*
X177800000Y-104038500D01*
X177500000Y-103738500D02*
X178100000Y-103738500D01*
X177800000Y-104038500D02*
X177500000Y-103738500D01*
X178600000Y-101538500D02*
X178600000Y-104038500D01*
X183400000Y-101538500D02*
X178600000Y-101538500D01*
X178600000Y-114138500D02*
X178600000Y-111338500D01*
X183500000Y-114138500D02*
X178600000Y-114138500D01*
X192000000Y-114138500D02*
X187100000Y-114138500D01*
X192000000Y-101538500D02*
X192000000Y-114138500D01*
X187100000Y-101538500D02*
X192000000Y-101538500D01*
X188300000Y-107838500D02*
G75*
G03X188300000Y-107838500I-3000000J0D01*
G01*
G04 #@! TO.C,SW11*
X153730000Y-76786000D02*
X153730000Y-77436000D01*
X153730000Y-77436000D02*
X147230000Y-77436000D01*
X147230000Y-77436000D02*
X147230000Y-76786000D01*
X153730000Y-71286000D02*
X153730000Y-70636000D01*
X153730000Y-70636000D02*
X147230000Y-70636000D01*
X147230000Y-70636000D02*
X147230000Y-71286000D01*
X153730000Y-72786000D02*
X153730000Y-75286000D01*
X147230000Y-72786000D02*
X147230000Y-75286000D01*
G04 #@! TO.C,SW12*
X86700000Y-107838500D02*
G75*
G03X86700000Y-107838500I-3000000J0D01*
G01*
X85500000Y-101538500D02*
X90400000Y-101538500D01*
X90400000Y-101538500D02*
X90400000Y-114138500D01*
X90400000Y-114138500D02*
X85500000Y-114138500D01*
X81900000Y-114138500D02*
X77000000Y-114138500D01*
X77000000Y-114138500D02*
X77000000Y-111338500D01*
X81800000Y-101538500D02*
X77000000Y-101538500D01*
X77000000Y-101538500D02*
X77000000Y-104038500D01*
X76200000Y-104038500D02*
X75900000Y-103738500D01*
X75900000Y-103738500D02*
X76500000Y-103738500D01*
X76500000Y-103738500D02*
X76200000Y-104038500D01*
X83700000Y-107338500D02*
X83700000Y-108338500D01*
X83200000Y-107838500D02*
X84200000Y-107838500D01*
G04 #@! TO.C,SW13*
X167230000Y-72786000D02*
X167230000Y-75286000D01*
X173730000Y-72786000D02*
X173730000Y-75286000D01*
X167230000Y-70636000D02*
X167230000Y-71286000D01*
X173730000Y-70636000D02*
X167230000Y-70636000D01*
X173730000Y-71286000D02*
X173730000Y-70636000D01*
X167230000Y-77436000D02*
X167230000Y-76786000D01*
X173730000Y-77436000D02*
X167230000Y-77436000D01*
X173730000Y-76786000D02*
X173730000Y-77436000D01*
G04 #@! TO.C,SW14*
X193730000Y-76786000D02*
X193730000Y-77436000D01*
X193730000Y-77436000D02*
X187230000Y-77436000D01*
X187230000Y-77436000D02*
X187230000Y-76786000D01*
X193730000Y-71286000D02*
X193730000Y-70636000D01*
X193730000Y-70636000D02*
X187230000Y-70636000D01*
X187230000Y-70636000D02*
X187230000Y-71286000D01*
X193730000Y-72786000D02*
X193730000Y-75286000D01*
X187230000Y-72786000D02*
X187230000Y-75286000D01*
G04 #@! TO.C,U1*
X261244000Y-93326000D02*
X261244000Y-92066000D01*
X261244000Y-86506000D02*
X261244000Y-87766000D01*
X257484000Y-93326000D02*
X261244000Y-93326000D01*
X255234000Y-86506000D02*
X261244000Y-86506000D01*
D12*
G04 #@! TO.C,U2*
X90373000Y-62392000D02*
X90373000Y-62342000D01*
X86223000Y-62392000D02*
X86223000Y-62247000D01*
X86223000Y-57242000D02*
X86223000Y-57387000D01*
X90373000Y-57242000D02*
X90373000Y-57387000D01*
X90373000Y-62392000D02*
X86223000Y-62392000D01*
X90373000Y-57242000D02*
X86223000Y-57242000D01*
X90373000Y-62342000D02*
X91773000Y-62342000D01*
G04 #@! TO.C,U3*
X61003000Y-63231000D02*
X62403000Y-63231000D01*
X61003000Y-58131000D02*
X56853000Y-58131000D01*
X61003000Y-63281000D02*
X56853000Y-63281000D01*
X61003000Y-58131000D02*
X61003000Y-58276000D01*
X56853000Y-58131000D02*
X56853000Y-58276000D01*
X56853000Y-63281000D02*
X56853000Y-63136000D01*
X61003000Y-63281000D02*
X61003000Y-63231000D01*
G04 #@! TO.C,J1*
X250480000Y-102196000D02*
X213480000Y-102196000D01*
X213480000Y-102196000D02*
X213480000Y-114196000D01*
X213480000Y-114196000D02*
X251480000Y-114196000D01*
X251480000Y-114196000D02*
X251480000Y-102196000D01*
X251480000Y-102196000D02*
X250480000Y-102196000D01*
X246480000Y-113196000D02*
X246480000Y-103196000D01*
X246480000Y-103196000D02*
X221480000Y-103196000D01*
X221480000Y-103196000D02*
X221480000Y-112196000D01*
X221480000Y-112196000D02*
X221480000Y-113196000D01*
X221480000Y-113196000D02*
X246480000Y-113196000D01*
D13*
G04 #@! TO.C,G\002A\002A\002A*
G36*
X136300148Y-129010263D02*
X136396032Y-129058522D01*
X136398000Y-129069222D01*
X136327136Y-129142146D01*
X136228667Y-129159000D01*
X136166971Y-129166544D01*
X136122414Y-129204942D01*
X136092214Y-129297842D01*
X136073589Y-129468893D01*
X136063756Y-129741743D01*
X136059934Y-130140039D01*
X136059334Y-130598333D01*
X136060221Y-131122750D01*
X136064738Y-131501485D01*
X136075668Y-131758184D01*
X136095792Y-131916498D01*
X136127891Y-132000073D01*
X136174750Y-132032559D01*
X136228667Y-132037667D01*
X136366247Y-132073123D01*
X136398000Y-132122333D01*
X136326636Y-132169779D01*
X136160608Y-132200492D01*
X135972018Y-132209340D01*
X135832964Y-132191190D01*
X135803268Y-132164667D01*
X135802477Y-132070470D01*
X135801535Y-131834451D01*
X135800521Y-131484123D01*
X135799516Y-131046996D01*
X135798643Y-130577167D01*
X135796083Y-129032000D01*
X136097042Y-129005722D01*
X136300148Y-129010263D01*
X136300148Y-129010263D01*
G37*
X136300148Y-129010263D02*
X136396032Y-129058522D01*
X136398000Y-129069222D01*
X136327136Y-129142146D01*
X136228667Y-129159000D01*
X136166971Y-129166544D01*
X136122414Y-129204942D01*
X136092214Y-129297842D01*
X136073589Y-129468893D01*
X136063756Y-129741743D01*
X136059934Y-130140039D01*
X136059334Y-130598333D01*
X136060221Y-131122750D01*
X136064738Y-131501485D01*
X136075668Y-131758184D01*
X136095792Y-131916498D01*
X136127891Y-132000073D01*
X136174750Y-132032559D01*
X136228667Y-132037667D01*
X136366247Y-132073123D01*
X136398000Y-132122333D01*
X136326636Y-132169779D01*
X136160608Y-132200492D01*
X135972018Y-132209340D01*
X135832964Y-132191190D01*
X135803268Y-132164667D01*
X135802477Y-132070470D01*
X135801535Y-131834451D01*
X135800521Y-131484123D01*
X135799516Y-131046996D01*
X135798643Y-130577167D01*
X135796083Y-129032000D01*
X136097042Y-129005722D01*
X136300148Y-129010263D01*
G36*
X159173334Y-132207000D02*
X158877000Y-132207000D01*
X158681133Y-132185734D01*
X158583226Y-132133445D01*
X158580667Y-132122333D01*
X158651579Y-132053543D01*
X158750000Y-132037667D01*
X158811696Y-132030122D01*
X158856253Y-131991724D01*
X158886453Y-131898824D01*
X158905078Y-131727773D01*
X158914911Y-131454924D01*
X158918733Y-131056627D01*
X158919334Y-130598333D01*
X158919334Y-129159000D01*
X158693556Y-129159000D01*
X158529242Y-129148347D01*
X158528295Y-129118588D01*
X158686234Y-129073025D01*
X158855834Y-129039395D01*
X159173334Y-128981993D01*
X159173334Y-132207000D01*
X159173334Y-132207000D01*
G37*
X159173334Y-132207000D02*
X158877000Y-132207000D01*
X158681133Y-132185734D01*
X158583226Y-132133445D01*
X158580667Y-132122333D01*
X158651579Y-132053543D01*
X158750000Y-132037667D01*
X158811696Y-132030122D01*
X158856253Y-131991724D01*
X158886453Y-131898824D01*
X158905078Y-131727773D01*
X158914911Y-131454924D01*
X158918733Y-131056627D01*
X158919334Y-130598333D01*
X158919334Y-129159000D01*
X158693556Y-129159000D01*
X158529242Y-129148347D01*
X158528295Y-129118588D01*
X158686234Y-129073025D01*
X158855834Y-129039395D01*
X159173334Y-128981993D01*
X159173334Y-132207000D01*
G36*
X147572777Y-129835630D02*
X147574000Y-129864941D01*
X147536452Y-130016197D01*
X147436567Y-130275685D01*
X147293486Y-130603195D01*
X147126348Y-130958515D01*
X146954293Y-131301435D01*
X146796462Y-131591744D01*
X146671994Y-131789231D01*
X146638393Y-131830549D01*
X146471382Y-131950728D01*
X146269230Y-132024911D01*
X146086189Y-132043032D01*
X145976511Y-131995026D01*
X145965334Y-131955421D01*
X146038164Y-131880346D01*
X146215321Y-131808585D01*
X146233528Y-131803679D01*
X146450600Y-131728323D01*
X146572453Y-131622063D01*
X146601211Y-131458300D01*
X146538995Y-131210433D01*
X146387931Y-130851866D01*
X146320916Y-130708862D01*
X146132956Y-130302118D01*
X146020442Y-130024464D01*
X145978923Y-129855692D01*
X146003945Y-129775595D01*
X146091054Y-129763965D01*
X146113500Y-129767682D01*
X146231505Y-129856333D01*
X146392908Y-130064678D01*
X146573597Y-130357116D01*
X146749460Y-130698046D01*
X146762131Y-130725333D01*
X146832965Y-130743288D01*
X146945043Y-130643703D01*
X147070858Y-130463788D01*
X147182901Y-130240751D01*
X147237492Y-130082318D01*
X147321166Y-129887471D01*
X147428188Y-129766389D01*
X147523684Y-129741599D01*
X147572777Y-129835630D01*
X147572777Y-129835630D01*
G37*
X147572777Y-129835630D02*
X147574000Y-129864941D01*
X147536452Y-130016197D01*
X147436567Y-130275685D01*
X147293486Y-130603195D01*
X147126348Y-130958515D01*
X146954293Y-131301435D01*
X146796462Y-131591744D01*
X146671994Y-131789231D01*
X146638393Y-131830549D01*
X146471382Y-131950728D01*
X146269230Y-132024911D01*
X146086189Y-132043032D01*
X145976511Y-131995026D01*
X145965334Y-131955421D01*
X146038164Y-131880346D01*
X146215321Y-131808585D01*
X146233528Y-131803679D01*
X146450600Y-131728323D01*
X146572453Y-131622063D01*
X146601211Y-131458300D01*
X146538995Y-131210433D01*
X146387931Y-130851866D01*
X146320916Y-130708862D01*
X146132956Y-130302118D01*
X146020442Y-130024464D01*
X145978923Y-129855692D01*
X146003945Y-129775595D01*
X146091054Y-129763965D01*
X146113500Y-129767682D01*
X146231505Y-129856333D01*
X146392908Y-130064678D01*
X146573597Y-130357116D01*
X146749460Y-130698046D01*
X146762131Y-130725333D01*
X146832965Y-130743288D01*
X146945043Y-130643703D01*
X147070858Y-130463788D01*
X147182901Y-130240751D01*
X147237492Y-130082318D01*
X147321166Y-129887471D01*
X147428188Y-129766389D01*
X147523684Y-129741599D01*
X147572777Y-129835630D01*
G36*
X139504131Y-129799119D02*
X139687754Y-129972804D01*
X139777641Y-130287030D01*
X139787360Y-130463289D01*
X139813877Y-130760038D01*
X139878932Y-130995738D01*
X139914360Y-131059015D01*
X140022986Y-131235076D01*
X140006236Y-131337748D01*
X139911667Y-131390951D01*
X139700593Y-131404685D01*
X139564814Y-131278016D01*
X139530667Y-131104199D01*
X139498279Y-130801578D01*
X139394444Y-130639200D01*
X139242208Y-130598333D01*
X139032999Y-130652556D01*
X138896949Y-130783781D01*
X138852426Y-130944837D01*
X138917798Y-131088556D01*
X139027327Y-131150146D01*
X139152304Y-131232306D01*
X139168862Y-131304018D01*
X139059790Y-131407749D01*
X138874086Y-131418380D01*
X138674825Y-131338500D01*
X138604540Y-131280873D01*
X138458223Y-131049589D01*
X138471659Y-130829173D01*
X138635661Y-130642008D01*
X138918273Y-130516564D01*
X139156357Y-130439777D01*
X139333735Y-130363940D01*
X139352504Y-130352900D01*
X139434560Y-130231636D01*
X139386888Y-130103139D01*
X139239204Y-130017199D01*
X139145269Y-130005667D01*
X138986317Y-129971059D01*
X138962107Y-129893158D01*
X139059322Y-129810845D01*
X139227184Y-129766487D01*
X139504131Y-129799119D01*
X139504131Y-129799119D01*
G37*
X139504131Y-129799119D02*
X139687754Y-129972804D01*
X139777641Y-130287030D01*
X139787360Y-130463289D01*
X139813877Y-130760038D01*
X139878932Y-130995738D01*
X139914360Y-131059015D01*
X140022986Y-131235076D01*
X140006236Y-131337748D01*
X139911667Y-131390951D01*
X139700593Y-131404685D01*
X139564814Y-131278016D01*
X139530667Y-131104199D01*
X139498279Y-130801578D01*
X139394444Y-130639200D01*
X139242208Y-130598333D01*
X139032999Y-130652556D01*
X138896949Y-130783781D01*
X138852426Y-130944837D01*
X138917798Y-131088556D01*
X139027327Y-131150146D01*
X139152304Y-131232306D01*
X139168862Y-131304018D01*
X139059790Y-131407749D01*
X138874086Y-131418380D01*
X138674825Y-131338500D01*
X138604540Y-131280873D01*
X138458223Y-131049589D01*
X138471659Y-130829173D01*
X138635661Y-130642008D01*
X138918273Y-130516564D01*
X139156357Y-130439777D01*
X139333735Y-130363940D01*
X139352504Y-130352900D01*
X139434560Y-130231636D01*
X139386888Y-130103139D01*
X139239204Y-130017199D01*
X139145269Y-130005667D01*
X138986317Y-129971059D01*
X138962107Y-129893158D01*
X139059322Y-129810845D01*
X139227184Y-129766487D01*
X139504131Y-129799119D01*
G36*
X143515047Y-129846240D02*
X143671624Y-130005176D01*
X143746027Y-130281394D01*
X143764000Y-130672633D01*
X143746447Y-131056632D01*
X143692365Y-131286991D01*
X143644538Y-131354077D01*
X143527524Y-131409290D01*
X143461394Y-131350183D01*
X143425025Y-131212965D01*
X143398730Y-130968569D01*
X143390356Y-130766352D01*
X143353412Y-130382514D01*
X143249347Y-130140802D01*
X143067165Y-130023581D01*
X142916025Y-130005667D01*
X142757974Y-130027336D01*
X142657719Y-130112195D01*
X142602878Y-130290022D01*
X142581069Y-130590592D01*
X142578667Y-130816925D01*
X142573407Y-131112191D01*
X142549635Y-131276006D01*
X142495368Y-131346122D01*
X142406156Y-131360333D01*
X142325255Y-131349612D01*
X142276203Y-131296068D01*
X142252871Y-131167632D01*
X142249130Y-130932233D01*
X142257990Y-130585070D01*
X142282334Y-129809807D01*
X142852594Y-129779497D01*
X143250602Y-129779407D01*
X143515047Y-129846240D01*
X143515047Y-129846240D01*
G37*
X143515047Y-129846240D02*
X143671624Y-130005176D01*
X143746027Y-130281394D01*
X143764000Y-130672633D01*
X143746447Y-131056632D01*
X143692365Y-131286991D01*
X143644538Y-131354077D01*
X143527524Y-131409290D01*
X143461394Y-131350183D01*
X143425025Y-131212965D01*
X143398730Y-130968569D01*
X143390356Y-130766352D01*
X143353412Y-130382514D01*
X143249347Y-130140802D01*
X143067165Y-130023581D01*
X142916025Y-130005667D01*
X142757974Y-130027336D01*
X142657719Y-130112195D01*
X142602878Y-130290022D01*
X142581069Y-130590592D01*
X142578667Y-130816925D01*
X142573407Y-131112191D01*
X142549635Y-131276006D01*
X142495368Y-131346122D01*
X142406156Y-131360333D01*
X142325255Y-131349612D01*
X142276203Y-131296068D01*
X142252871Y-131167632D01*
X142249130Y-130932233D01*
X142257990Y-130585070D01*
X142282334Y-129809807D01*
X142852594Y-129779497D01*
X143250602Y-129779407D01*
X143515047Y-129846240D01*
G36*
X155675464Y-129799119D02*
X155859088Y-129972804D01*
X155948975Y-130287030D01*
X155958693Y-130463289D01*
X155985210Y-130760038D01*
X156050265Y-130995738D01*
X156085693Y-131059015D01*
X156194072Y-131234414D01*
X156176464Y-131337232D01*
X156072269Y-131395069D01*
X155888416Y-131391554D01*
X155752237Y-131255153D01*
X155700704Y-131032466D01*
X155673470Y-130819463D01*
X155627629Y-130696759D01*
X155490173Y-130615003D01*
X155297716Y-130631956D01*
X155122708Y-130734837D01*
X155075647Y-130794138D01*
X155034082Y-130927600D01*
X155115301Y-131053306D01*
X155179292Y-131109272D01*
X155302297Y-131248498D01*
X155322796Y-131357419D01*
X155322462Y-131357968D01*
X155185704Y-131439352D01*
X154986390Y-131413562D01*
X154785125Y-131289637D01*
X154770667Y-131275667D01*
X154623389Y-131049097D01*
X154639816Y-130838214D01*
X154814406Y-130653316D01*
X155141615Y-130504706D01*
X155194000Y-130488898D01*
X155445256Y-130395346D01*
X155559260Y-130289662D01*
X155575000Y-130213610D01*
X155517724Y-130078249D01*
X155337147Y-130020725D01*
X155166879Y-129964945D01*
X155143207Y-129878519D01*
X155257303Y-129798013D01*
X155398517Y-129766487D01*
X155675464Y-129799119D01*
X155675464Y-129799119D01*
G37*
X155675464Y-129799119D02*
X155859088Y-129972804D01*
X155948975Y-130287030D01*
X155958693Y-130463289D01*
X155985210Y-130760038D01*
X156050265Y-130995738D01*
X156085693Y-131059015D01*
X156194072Y-131234414D01*
X156176464Y-131337232D01*
X156072269Y-131395069D01*
X155888416Y-131391554D01*
X155752237Y-131255153D01*
X155700704Y-131032466D01*
X155673470Y-130819463D01*
X155627629Y-130696759D01*
X155490173Y-130615003D01*
X155297716Y-130631956D01*
X155122708Y-130734837D01*
X155075647Y-130794138D01*
X155034082Y-130927600D01*
X155115301Y-131053306D01*
X155179292Y-131109272D01*
X155302297Y-131248498D01*
X155322796Y-131357419D01*
X155322462Y-131357968D01*
X155185704Y-131439352D01*
X154986390Y-131413562D01*
X154785125Y-131289637D01*
X154770667Y-131275667D01*
X154623389Y-131049097D01*
X154639816Y-130838214D01*
X154814406Y-130653316D01*
X155141615Y-130504706D01*
X155194000Y-130488898D01*
X155445256Y-130395346D01*
X155559260Y-130289662D01*
X155575000Y-130213610D01*
X155517724Y-130078249D01*
X155337147Y-130020725D01*
X155166879Y-129964945D01*
X155143207Y-129878519D01*
X155257303Y-129798013D01*
X155398517Y-129766487D01*
X155675464Y-129799119D01*
G36*
X150106684Y-129833486D02*
X150144091Y-130016348D01*
X150147879Y-130331665D01*
X150134933Y-130619500D01*
X150110569Y-130977899D01*
X150081533Y-131198953D01*
X150039162Y-131314604D01*
X149974796Y-131356795D01*
X149934049Y-131360333D01*
X149858532Y-131344949D01*
X149811536Y-131277549D01*
X149786445Y-131126256D01*
X149776642Y-130859198D01*
X149775334Y-130595676D01*
X149780937Y-130216405D01*
X149801132Y-129975006D01*
X149840993Y-129840288D01*
X149905595Y-129781058D01*
X149908025Y-129780100D01*
X150029910Y-129761823D01*
X150106684Y-129833486D01*
X150106684Y-129833486D01*
G37*
X150106684Y-129833486D02*
X150144091Y-130016348D01*
X150147879Y-130331665D01*
X150134933Y-130619500D01*
X150110569Y-130977899D01*
X150081533Y-131198953D01*
X150039162Y-131314604D01*
X149974796Y-131356795D01*
X149934049Y-131360333D01*
X149858532Y-131344949D01*
X149811536Y-131277549D01*
X149786445Y-131126256D01*
X149776642Y-130859198D01*
X149775334Y-130595676D01*
X149780937Y-130216405D01*
X149801132Y-129975006D01*
X149840993Y-129840288D01*
X149905595Y-129781058D01*
X149908025Y-129780100D01*
X150029910Y-129761823D01*
X150106684Y-129833486D01*
G36*
X150829072Y-129774465D02*
X151022662Y-129826793D01*
X151061483Y-129844976D01*
X151266266Y-129893256D01*
X151422251Y-129838518D01*
X151638177Y-129776218D01*
X151896012Y-129766322D01*
X151896571Y-129766375D01*
X152124139Y-129831703D01*
X152276296Y-129990722D01*
X152363822Y-130265386D01*
X152397499Y-130677645D01*
X152398752Y-130788833D01*
X152394543Y-131093494D01*
X152373023Y-131265755D01*
X152323368Y-131342427D01*
X152234751Y-131360319D01*
X152230667Y-131360333D01*
X152138626Y-131342998D01*
X152087525Y-131265928D01*
X152065669Y-131091526D01*
X152061334Y-130816047D01*
X152032690Y-130415014D01*
X151940598Y-130159653D01*
X151775813Y-130035216D01*
X151563856Y-130022237D01*
X151435540Y-130050907D01*
X151365935Y-130127918D01*
X151333247Y-130297137D01*
X151319719Y-130513667D01*
X151299427Y-130813651D01*
X151271619Y-131069904D01*
X151254606Y-131169833D01*
X151162204Y-131326243D01*
X151019023Y-131356392D01*
X150932445Y-131303889D01*
X150903161Y-131195695D01*
X150882758Y-130969538D01*
X150876000Y-130707284D01*
X150870509Y-130409681D01*
X150841702Y-130231395D01*
X150771082Y-130122477D01*
X150640150Y-130032980D01*
X150622535Y-130022895D01*
X150452054Y-129909385D01*
X150369862Y-129822255D01*
X150368535Y-129815167D01*
X150439994Y-129765984D01*
X150614177Y-129753306D01*
X150829072Y-129774465D01*
X150829072Y-129774465D01*
G37*
X150829072Y-129774465D02*
X151022662Y-129826793D01*
X151061483Y-129844976D01*
X151266266Y-129893256D01*
X151422251Y-129838518D01*
X151638177Y-129776218D01*
X151896012Y-129766322D01*
X151896571Y-129766375D01*
X152124139Y-129831703D01*
X152276296Y-129990722D01*
X152363822Y-130265386D01*
X152397499Y-130677645D01*
X152398752Y-130788833D01*
X152394543Y-131093494D01*
X152373023Y-131265755D01*
X152323368Y-131342427D01*
X152234751Y-131360319D01*
X152230667Y-131360333D01*
X152138626Y-131342998D01*
X152087525Y-131265928D01*
X152065669Y-131091526D01*
X152061334Y-130816047D01*
X152032690Y-130415014D01*
X151940598Y-130159653D01*
X151775813Y-130035216D01*
X151563856Y-130022237D01*
X151435540Y-130050907D01*
X151365935Y-130127918D01*
X151333247Y-130297137D01*
X151319719Y-130513667D01*
X151299427Y-130813651D01*
X151271619Y-131069904D01*
X151254606Y-131169833D01*
X151162204Y-131326243D01*
X151019023Y-131356392D01*
X150932445Y-131303889D01*
X150903161Y-131195695D01*
X150882758Y-130969538D01*
X150876000Y-130707284D01*
X150870509Y-130409681D01*
X150841702Y-130231395D01*
X150771082Y-130122477D01*
X150640150Y-130032980D01*
X150622535Y-130022895D01*
X150452054Y-129909385D01*
X150369862Y-129822255D01*
X150368535Y-129815167D01*
X150439994Y-129765984D01*
X150614177Y-129753306D01*
X150829072Y-129774465D01*
G04 #@! TO.C,REF\002A\002A*
G36*
X68246814Y-123960931D02*
X68330635Y-124405555D01*
X68639920Y-124533053D01*
X68949206Y-124660551D01*
X69320246Y-124408246D01*
X69424157Y-124337996D01*
X69518087Y-124275272D01*
X69597652Y-124222938D01*
X69658470Y-124183857D01*
X69696157Y-124160893D01*
X69706421Y-124155942D01*
X69724910Y-124168676D01*
X69764420Y-124203882D01*
X69820522Y-124257062D01*
X69888787Y-124323718D01*
X69964786Y-124399354D01*
X70044092Y-124479472D01*
X70122275Y-124559574D01*
X70194907Y-124635164D01*
X70257559Y-124701745D01*
X70305803Y-124754818D01*
X70335210Y-124789887D01*
X70342241Y-124801623D01*
X70332123Y-124823260D01*
X70303759Y-124870662D01*
X70260129Y-124939193D01*
X70204218Y-125024215D01*
X70139006Y-125121093D01*
X70101219Y-125176350D01*
X70032343Y-125277248D01*
X69971140Y-125368299D01*
X69920578Y-125444970D01*
X69883628Y-125502728D01*
X69863258Y-125537043D01*
X69860197Y-125544254D01*
X69867136Y-125564748D01*
X69886051Y-125612513D01*
X69914087Y-125680832D01*
X69948391Y-125762989D01*
X69986109Y-125852270D01*
X70024387Y-125941958D01*
X70060370Y-126025338D01*
X70091206Y-126095694D01*
X70114039Y-126146310D01*
X70126017Y-126170471D01*
X70126724Y-126171422D01*
X70145531Y-126176036D01*
X70195618Y-126186328D01*
X70271793Y-126201287D01*
X70368865Y-126219901D01*
X70481643Y-126241159D01*
X70547442Y-126253418D01*
X70667950Y-126276362D01*
X70776797Y-126298195D01*
X70868476Y-126317722D01*
X70937481Y-126333748D01*
X70978304Y-126345079D01*
X70986511Y-126348674D01*
X70994548Y-126373006D01*
X71001033Y-126427959D01*
X71005970Y-126507108D01*
X71009364Y-126604026D01*
X71011218Y-126712287D01*
X71011538Y-126825465D01*
X71010327Y-126937135D01*
X71007590Y-127040868D01*
X71003331Y-127130241D01*
X70997555Y-127198826D01*
X70990267Y-127240197D01*
X70985895Y-127248810D01*
X70959764Y-127259133D01*
X70904393Y-127273892D01*
X70827107Y-127291352D01*
X70735230Y-127309780D01*
X70703158Y-127315741D01*
X70548524Y-127344066D01*
X70426375Y-127366876D01*
X70332673Y-127385080D01*
X70263384Y-127399583D01*
X70214471Y-127411292D01*
X70181897Y-127421115D01*
X70161628Y-127429956D01*
X70149626Y-127438724D01*
X70147947Y-127440457D01*
X70131184Y-127468371D01*
X70105614Y-127522695D01*
X70073788Y-127596777D01*
X70038260Y-127683965D01*
X70001583Y-127777608D01*
X69966311Y-127871052D01*
X69934996Y-127957647D01*
X69910193Y-128030740D01*
X69894454Y-128083678D01*
X69890332Y-128109811D01*
X69890676Y-128110726D01*
X69904641Y-128132086D01*
X69936322Y-128179084D01*
X69982391Y-128246827D01*
X70039518Y-128330423D01*
X70104373Y-128424982D01*
X70122843Y-128451854D01*
X70188699Y-128549275D01*
X70246650Y-128638163D01*
X70293538Y-128713412D01*
X70326207Y-128769920D01*
X70341500Y-128802581D01*
X70342241Y-128806593D01*
X70329392Y-128827684D01*
X70293888Y-128869464D01*
X70240293Y-128927445D01*
X70173171Y-128997135D01*
X70097087Y-129074045D01*
X70016604Y-129153683D01*
X69936287Y-129231561D01*
X69860699Y-129303186D01*
X69794405Y-129364070D01*
X69741969Y-129409721D01*
X69707955Y-129435650D01*
X69698545Y-129439883D01*
X69676643Y-129429912D01*
X69631800Y-129403020D01*
X69571321Y-129363736D01*
X69524789Y-129332117D01*
X69440475Y-129274098D01*
X69340626Y-129205784D01*
X69240473Y-129137579D01*
X69186627Y-129101075D01*
X69004371Y-128977800D01*
X68851381Y-129060520D01*
X68781682Y-129096759D01*
X68722414Y-129124926D01*
X68682311Y-129140991D01*
X68672103Y-129143226D01*
X68659829Y-129126722D01*
X68635613Y-129080082D01*
X68601263Y-129007609D01*
X68558588Y-128913606D01*
X68509394Y-128802374D01*
X68455490Y-128678215D01*
X68398684Y-128545432D01*
X68340782Y-128408327D01*
X68283593Y-128271202D01*
X68228924Y-128138358D01*
X68178584Y-128014098D01*
X68134380Y-127902725D01*
X68098119Y-127808539D01*
X68071609Y-127735844D01*
X68056658Y-127688941D01*
X68054254Y-127672833D01*
X68073311Y-127652286D01*
X68115036Y-127618933D01*
X68170706Y-127579702D01*
X68175378Y-127576599D01*
X68319264Y-127461423D01*
X68435283Y-127327053D01*
X68522430Y-127177784D01*
X68579699Y-127017913D01*
X68606086Y-126851737D01*
X68600585Y-126683552D01*
X68562190Y-126517655D01*
X68489895Y-126358342D01*
X68468626Y-126323487D01*
X68357996Y-126182737D01*
X68227302Y-126069714D01*
X68081064Y-125985003D01*
X67923808Y-125929194D01*
X67760057Y-125902874D01*
X67594333Y-125906630D01*
X67431162Y-125941050D01*
X67275065Y-126006723D01*
X67130567Y-126104235D01*
X67085869Y-126143813D01*
X66972112Y-126267703D01*
X66889218Y-126398124D01*
X66832356Y-126544315D01*
X66800687Y-126689088D01*
X66792869Y-126851860D01*
X66818938Y-127015440D01*
X66876245Y-127174298D01*
X66962144Y-127322906D01*
X67073986Y-127455735D01*
X67209123Y-127567256D01*
X67226883Y-127579011D01*
X67283150Y-127617508D01*
X67325923Y-127650863D01*
X67346372Y-127672160D01*
X67346669Y-127672833D01*
X67342279Y-127695871D01*
X67324876Y-127748157D01*
X67296268Y-127825390D01*
X67258265Y-127923268D01*
X67212674Y-128037491D01*
X67161303Y-128163758D01*
X67105962Y-128297767D01*
X67048458Y-128435218D01*
X66990601Y-128571808D01*
X66934198Y-128703237D01*
X66881058Y-128825205D01*
X66832990Y-128933409D01*
X66791801Y-129023549D01*
X66759301Y-129091323D01*
X66737297Y-129132430D01*
X66728436Y-129143226D01*
X66701360Y-129134819D01*
X66650697Y-129112272D01*
X66585183Y-129079613D01*
X66549159Y-129060520D01*
X66396168Y-128977800D01*
X66213912Y-129101075D01*
X66120875Y-129164228D01*
X66019015Y-129233727D01*
X65923562Y-129299165D01*
X65875750Y-129332117D01*
X65808505Y-129377273D01*
X65751564Y-129413057D01*
X65712354Y-129434938D01*
X65699619Y-129439563D01*
X65681083Y-129427085D01*
X65640059Y-129392252D01*
X65580525Y-129338678D01*
X65506458Y-129269983D01*
X65421835Y-129189781D01*
X65368315Y-129138286D01*
X65274681Y-129046286D01*
X65193759Y-128963999D01*
X65128823Y-128894945D01*
X65083142Y-128842644D01*
X65059989Y-128810616D01*
X65057768Y-128804116D01*
X65068076Y-128779394D01*
X65096561Y-128729405D01*
X65140063Y-128659212D01*
X65195423Y-128573875D01*
X65259480Y-128478456D01*
X65277697Y-128451854D01*
X65344073Y-128355167D01*
X65403622Y-128268117D01*
X65453016Y-128195595D01*
X65488925Y-128142493D01*
X65508019Y-128113703D01*
X65509864Y-128110726D01*
X65507105Y-128087782D01*
X65492462Y-128037336D01*
X65468487Y-127966041D01*
X65437734Y-127880547D01*
X65402756Y-127787507D01*
X65366107Y-127693574D01*
X65330339Y-127605399D01*
X65298006Y-127529634D01*
X65271662Y-127472931D01*
X65253858Y-127441943D01*
X65252593Y-127440457D01*
X65241706Y-127431601D01*
X65223318Y-127422843D01*
X65193394Y-127413277D01*
X65147897Y-127401996D01*
X65082791Y-127388093D01*
X64994039Y-127370663D01*
X64877607Y-127348798D01*
X64729458Y-127321591D01*
X64697382Y-127315741D01*
X64602314Y-127297374D01*
X64519435Y-127279405D01*
X64456070Y-127263569D01*
X64419542Y-127251600D01*
X64414644Y-127248810D01*
X64406573Y-127224072D01*
X64400013Y-127168790D01*
X64394967Y-127089389D01*
X64391441Y-126992296D01*
X64389439Y-126883938D01*
X64388964Y-126770740D01*
X64390023Y-126659128D01*
X64392618Y-126555529D01*
X64396754Y-126466368D01*
X64402437Y-126398072D01*
X64409669Y-126357066D01*
X64414029Y-126348674D01*
X64438302Y-126340208D01*
X64493574Y-126326435D01*
X64574338Y-126308550D01*
X64675088Y-126287748D01*
X64790317Y-126265223D01*
X64853098Y-126253418D01*
X64972213Y-126231151D01*
X65078435Y-126210979D01*
X65166573Y-126193915D01*
X65231434Y-126180969D01*
X65267826Y-126173155D01*
X65273816Y-126171422D01*
X65283939Y-126151890D01*
X65305338Y-126104843D01*
X65335161Y-126037003D01*
X65370555Y-125955091D01*
X65408668Y-125865828D01*
X65446647Y-125775935D01*
X65481640Y-125692135D01*
X65510794Y-125621147D01*
X65531257Y-125569694D01*
X65540177Y-125544497D01*
X65540343Y-125543396D01*
X65530231Y-125523519D01*
X65501883Y-125477777D01*
X65458277Y-125410717D01*
X65402394Y-125326884D01*
X65337213Y-125230826D01*
X65299321Y-125175650D01*
X65230275Y-125074481D01*
X65168950Y-124982630D01*
X65118337Y-124904744D01*
X65081429Y-124845469D01*
X65061218Y-124809451D01*
X65058299Y-124801377D01*
X65070847Y-124782584D01*
X65105537Y-124742457D01*
X65157937Y-124685493D01*
X65223616Y-124616185D01*
X65298144Y-124539031D01*
X65377087Y-124458525D01*
X65456017Y-124379163D01*
X65530500Y-124305440D01*
X65596106Y-124241852D01*
X65648404Y-124192894D01*
X65682961Y-124163061D01*
X65694522Y-124155942D01*
X65713346Y-124165953D01*
X65758369Y-124194078D01*
X65825213Y-124237454D01*
X65909501Y-124293218D01*
X66006856Y-124358506D01*
X66080293Y-124408246D01*
X66451333Y-124660551D01*
X67069905Y-124405555D01*
X67153725Y-123960931D01*
X67237546Y-123516307D01*
X68162994Y-123516307D01*
X68246814Y-123960931D01*
X68246814Y-123960931D01*
G37*
X68246814Y-123960931D02*
X68330635Y-124405555D01*
X68639920Y-124533053D01*
X68949206Y-124660551D01*
X69320246Y-124408246D01*
X69424157Y-124337996D01*
X69518087Y-124275272D01*
X69597652Y-124222938D01*
X69658470Y-124183857D01*
X69696157Y-124160893D01*
X69706421Y-124155942D01*
X69724910Y-124168676D01*
X69764420Y-124203882D01*
X69820522Y-124257062D01*
X69888787Y-124323718D01*
X69964786Y-124399354D01*
X70044092Y-124479472D01*
X70122275Y-124559574D01*
X70194907Y-124635164D01*
X70257559Y-124701745D01*
X70305803Y-124754818D01*
X70335210Y-124789887D01*
X70342241Y-124801623D01*
X70332123Y-124823260D01*
X70303759Y-124870662D01*
X70260129Y-124939193D01*
X70204218Y-125024215D01*
X70139006Y-125121093D01*
X70101219Y-125176350D01*
X70032343Y-125277248D01*
X69971140Y-125368299D01*
X69920578Y-125444970D01*
X69883628Y-125502728D01*
X69863258Y-125537043D01*
X69860197Y-125544254D01*
X69867136Y-125564748D01*
X69886051Y-125612513D01*
X69914087Y-125680832D01*
X69948391Y-125762989D01*
X69986109Y-125852270D01*
X70024387Y-125941958D01*
X70060370Y-126025338D01*
X70091206Y-126095694D01*
X70114039Y-126146310D01*
X70126017Y-126170471D01*
X70126724Y-126171422D01*
X70145531Y-126176036D01*
X70195618Y-126186328D01*
X70271793Y-126201287D01*
X70368865Y-126219901D01*
X70481643Y-126241159D01*
X70547442Y-126253418D01*
X70667950Y-126276362D01*
X70776797Y-126298195D01*
X70868476Y-126317722D01*
X70937481Y-126333748D01*
X70978304Y-126345079D01*
X70986511Y-126348674D01*
X70994548Y-126373006D01*
X71001033Y-126427959D01*
X71005970Y-126507108D01*
X71009364Y-126604026D01*
X71011218Y-126712287D01*
X71011538Y-126825465D01*
X71010327Y-126937135D01*
X71007590Y-127040868D01*
X71003331Y-127130241D01*
X70997555Y-127198826D01*
X70990267Y-127240197D01*
X70985895Y-127248810D01*
X70959764Y-127259133D01*
X70904393Y-127273892D01*
X70827107Y-127291352D01*
X70735230Y-127309780D01*
X70703158Y-127315741D01*
X70548524Y-127344066D01*
X70426375Y-127366876D01*
X70332673Y-127385080D01*
X70263384Y-127399583D01*
X70214471Y-127411292D01*
X70181897Y-127421115D01*
X70161628Y-127429956D01*
X70149626Y-127438724D01*
X70147947Y-127440457D01*
X70131184Y-127468371D01*
X70105614Y-127522695D01*
X70073788Y-127596777D01*
X70038260Y-127683965D01*
X70001583Y-127777608D01*
X69966311Y-127871052D01*
X69934996Y-127957647D01*
X69910193Y-128030740D01*
X69894454Y-128083678D01*
X69890332Y-128109811D01*
X69890676Y-128110726D01*
X69904641Y-128132086D01*
X69936322Y-128179084D01*
X69982391Y-128246827D01*
X70039518Y-128330423D01*
X70104373Y-128424982D01*
X70122843Y-128451854D01*
X70188699Y-128549275D01*
X70246650Y-128638163D01*
X70293538Y-128713412D01*
X70326207Y-128769920D01*
X70341500Y-128802581D01*
X70342241Y-128806593D01*
X70329392Y-128827684D01*
X70293888Y-128869464D01*
X70240293Y-128927445D01*
X70173171Y-128997135D01*
X70097087Y-129074045D01*
X70016604Y-129153683D01*
X69936287Y-129231561D01*
X69860699Y-129303186D01*
X69794405Y-129364070D01*
X69741969Y-129409721D01*
X69707955Y-129435650D01*
X69698545Y-129439883D01*
X69676643Y-129429912D01*
X69631800Y-129403020D01*
X69571321Y-129363736D01*
X69524789Y-129332117D01*
X69440475Y-129274098D01*
X69340626Y-129205784D01*
X69240473Y-129137579D01*
X69186627Y-129101075D01*
X69004371Y-128977800D01*
X68851381Y-129060520D01*
X68781682Y-129096759D01*
X68722414Y-129124926D01*
X68682311Y-129140991D01*
X68672103Y-129143226D01*
X68659829Y-129126722D01*
X68635613Y-129080082D01*
X68601263Y-129007609D01*
X68558588Y-128913606D01*
X68509394Y-128802374D01*
X68455490Y-128678215D01*
X68398684Y-128545432D01*
X68340782Y-128408327D01*
X68283593Y-128271202D01*
X68228924Y-128138358D01*
X68178584Y-128014098D01*
X68134380Y-127902725D01*
X68098119Y-127808539D01*
X68071609Y-127735844D01*
X68056658Y-127688941D01*
X68054254Y-127672833D01*
X68073311Y-127652286D01*
X68115036Y-127618933D01*
X68170706Y-127579702D01*
X68175378Y-127576599D01*
X68319264Y-127461423D01*
X68435283Y-127327053D01*
X68522430Y-127177784D01*
X68579699Y-127017913D01*
X68606086Y-126851737D01*
X68600585Y-126683552D01*
X68562190Y-126517655D01*
X68489895Y-126358342D01*
X68468626Y-126323487D01*
X68357996Y-126182737D01*
X68227302Y-126069714D01*
X68081064Y-125985003D01*
X67923808Y-125929194D01*
X67760057Y-125902874D01*
X67594333Y-125906630D01*
X67431162Y-125941050D01*
X67275065Y-126006723D01*
X67130567Y-126104235D01*
X67085869Y-126143813D01*
X66972112Y-126267703D01*
X66889218Y-126398124D01*
X66832356Y-126544315D01*
X66800687Y-126689088D01*
X66792869Y-126851860D01*
X66818938Y-127015440D01*
X66876245Y-127174298D01*
X66962144Y-127322906D01*
X67073986Y-127455735D01*
X67209123Y-127567256D01*
X67226883Y-127579011D01*
X67283150Y-127617508D01*
X67325923Y-127650863D01*
X67346372Y-127672160D01*
X67346669Y-127672833D01*
X67342279Y-127695871D01*
X67324876Y-127748157D01*
X67296268Y-127825390D01*
X67258265Y-127923268D01*
X67212674Y-128037491D01*
X67161303Y-128163758D01*
X67105962Y-128297767D01*
X67048458Y-128435218D01*
X66990601Y-128571808D01*
X66934198Y-128703237D01*
X66881058Y-128825205D01*
X66832990Y-128933409D01*
X66791801Y-129023549D01*
X66759301Y-129091323D01*
X66737297Y-129132430D01*
X66728436Y-129143226D01*
X66701360Y-129134819D01*
X66650697Y-129112272D01*
X66585183Y-129079613D01*
X66549159Y-129060520D01*
X66396168Y-128977800D01*
X66213912Y-129101075D01*
X66120875Y-129164228D01*
X66019015Y-129233727D01*
X65923562Y-129299165D01*
X65875750Y-129332117D01*
X65808505Y-129377273D01*
X65751564Y-129413057D01*
X65712354Y-129434938D01*
X65699619Y-129439563D01*
X65681083Y-129427085D01*
X65640059Y-129392252D01*
X65580525Y-129338678D01*
X65506458Y-129269983D01*
X65421835Y-129189781D01*
X65368315Y-129138286D01*
X65274681Y-129046286D01*
X65193759Y-128963999D01*
X65128823Y-128894945D01*
X65083142Y-128842644D01*
X65059989Y-128810616D01*
X65057768Y-128804116D01*
X65068076Y-128779394D01*
X65096561Y-128729405D01*
X65140063Y-128659212D01*
X65195423Y-128573875D01*
X65259480Y-128478456D01*
X65277697Y-128451854D01*
X65344073Y-128355167D01*
X65403622Y-128268117D01*
X65453016Y-128195595D01*
X65488925Y-128142493D01*
X65508019Y-128113703D01*
X65509864Y-128110726D01*
X65507105Y-128087782D01*
X65492462Y-128037336D01*
X65468487Y-127966041D01*
X65437734Y-127880547D01*
X65402756Y-127787507D01*
X65366107Y-127693574D01*
X65330339Y-127605399D01*
X65298006Y-127529634D01*
X65271662Y-127472931D01*
X65253858Y-127441943D01*
X65252593Y-127440457D01*
X65241706Y-127431601D01*
X65223318Y-127422843D01*
X65193394Y-127413277D01*
X65147897Y-127401996D01*
X65082791Y-127388093D01*
X64994039Y-127370663D01*
X64877607Y-127348798D01*
X64729458Y-127321591D01*
X64697382Y-127315741D01*
X64602314Y-127297374D01*
X64519435Y-127279405D01*
X64456070Y-127263569D01*
X64419542Y-127251600D01*
X64414644Y-127248810D01*
X64406573Y-127224072D01*
X64400013Y-127168790D01*
X64394967Y-127089389D01*
X64391441Y-126992296D01*
X64389439Y-126883938D01*
X64388964Y-126770740D01*
X64390023Y-126659128D01*
X64392618Y-126555529D01*
X64396754Y-126466368D01*
X64402437Y-126398072D01*
X64409669Y-126357066D01*
X64414029Y-126348674D01*
X64438302Y-126340208D01*
X64493574Y-126326435D01*
X64574338Y-126308550D01*
X64675088Y-126287748D01*
X64790317Y-126265223D01*
X64853098Y-126253418D01*
X64972213Y-126231151D01*
X65078435Y-126210979D01*
X65166573Y-126193915D01*
X65231434Y-126180969D01*
X65267826Y-126173155D01*
X65273816Y-126171422D01*
X65283939Y-126151890D01*
X65305338Y-126104843D01*
X65335161Y-126037003D01*
X65370555Y-125955091D01*
X65408668Y-125865828D01*
X65446647Y-125775935D01*
X65481640Y-125692135D01*
X65510794Y-125621147D01*
X65531257Y-125569694D01*
X65540177Y-125544497D01*
X65540343Y-125543396D01*
X65530231Y-125523519D01*
X65501883Y-125477777D01*
X65458277Y-125410717D01*
X65402394Y-125326884D01*
X65337213Y-125230826D01*
X65299321Y-125175650D01*
X65230275Y-125074481D01*
X65168950Y-124982630D01*
X65118337Y-124904744D01*
X65081429Y-124845469D01*
X65061218Y-124809451D01*
X65058299Y-124801377D01*
X65070847Y-124782584D01*
X65105537Y-124742457D01*
X65157937Y-124685493D01*
X65223616Y-124616185D01*
X65298144Y-124539031D01*
X65377087Y-124458525D01*
X65456017Y-124379163D01*
X65530500Y-124305440D01*
X65596106Y-124241852D01*
X65648404Y-124192894D01*
X65682961Y-124163061D01*
X65694522Y-124155942D01*
X65713346Y-124165953D01*
X65758369Y-124194078D01*
X65825213Y-124237454D01*
X65909501Y-124293218D01*
X66006856Y-124358506D01*
X66080293Y-124408246D01*
X66451333Y-124660551D01*
X67069905Y-124405555D01*
X67153725Y-123960931D01*
X67237546Y-123516307D01*
X68162994Y-123516307D01*
X68246814Y-123960931D01*
G04 #@! TO.C,C1*
D12*
X256994333Y-100339142D02*
X256946714Y-100386761D01*
X256803857Y-100434380D01*
X256708619Y-100434380D01*
X256565761Y-100386761D01*
X256470523Y-100291523D01*
X256422904Y-100196285D01*
X256375285Y-100005809D01*
X256375285Y-99862952D01*
X256422904Y-99672476D01*
X256470523Y-99577238D01*
X256565761Y-99482000D01*
X256708619Y-99434380D01*
X256803857Y-99434380D01*
X256946714Y-99482000D01*
X256994333Y-99529619D01*
X257946714Y-100434380D02*
X257375285Y-100434380D01*
X257661000Y-100434380D02*
X257661000Y-99434380D01*
X257565761Y-99577238D01*
X257470523Y-99672476D01*
X257375285Y-99720095D01*
G04 #@! TO.C,C2*
X256373333Y-79699142D02*
X256325714Y-79746761D01*
X256182857Y-79794380D01*
X256087619Y-79794380D01*
X255944761Y-79746761D01*
X255849523Y-79651523D01*
X255801904Y-79556285D01*
X255754285Y-79365809D01*
X255754285Y-79222952D01*
X255801904Y-79032476D01*
X255849523Y-78937238D01*
X255944761Y-78842000D01*
X256087619Y-78794380D01*
X256182857Y-78794380D01*
X256325714Y-78842000D01*
X256373333Y-78889619D01*
X256754285Y-78889619D02*
X256801904Y-78842000D01*
X256897142Y-78794380D01*
X257135238Y-78794380D01*
X257230476Y-78842000D01*
X257278095Y-78889619D01*
X257325714Y-78984857D01*
X257325714Y-79080095D01*
X257278095Y-79222952D01*
X256706666Y-79794380D01*
X257325714Y-79794380D01*
G04 #@! TO.C,C3*
X98131333Y-104083142D02*
X98083714Y-104130761D01*
X97940857Y-104178380D01*
X97845619Y-104178380D01*
X97702761Y-104130761D01*
X97607523Y-104035523D01*
X97559904Y-103940285D01*
X97512285Y-103749809D01*
X97512285Y-103606952D01*
X97559904Y-103416476D01*
X97607523Y-103321238D01*
X97702761Y-103226000D01*
X97845619Y-103178380D01*
X97940857Y-103178380D01*
X98083714Y-103226000D01*
X98131333Y-103273619D01*
X98464666Y-103178380D02*
X99083714Y-103178380D01*
X98750380Y-103559333D01*
X98893238Y-103559333D01*
X98988476Y-103606952D01*
X99036095Y-103654571D01*
X99083714Y-103749809D01*
X99083714Y-103987904D01*
X99036095Y-104083142D01*
X98988476Y-104130761D01*
X98893238Y-104178380D01*
X98607523Y-104178380D01*
X98512285Y-104130761D01*
X98464666Y-104083142D01*
G04 #@! TO.C,C4*
X98131333Y-112277142D02*
X98083714Y-112324761D01*
X97940857Y-112372380D01*
X97845619Y-112372380D01*
X97702761Y-112324761D01*
X97607523Y-112229523D01*
X97559904Y-112134285D01*
X97512285Y-111943809D01*
X97512285Y-111800952D01*
X97559904Y-111610476D01*
X97607523Y-111515238D01*
X97702761Y-111420000D01*
X97845619Y-111372380D01*
X97940857Y-111372380D01*
X98083714Y-111420000D01*
X98131333Y-111467619D01*
X98988476Y-111705714D02*
X98988476Y-112372380D01*
X98750380Y-111324761D02*
X98512285Y-112039047D01*
X99131333Y-112039047D01*
G04 #@! TO.C,C5*
X252944333Y-98655142D02*
X252896714Y-98702761D01*
X252753857Y-98750380D01*
X252658619Y-98750380D01*
X252515761Y-98702761D01*
X252420523Y-98607523D01*
X252372904Y-98512285D01*
X252325285Y-98321809D01*
X252325285Y-98178952D01*
X252372904Y-97988476D01*
X252420523Y-97893238D01*
X252515761Y-97798000D01*
X252658619Y-97750380D01*
X252753857Y-97750380D01*
X252896714Y-97798000D01*
X252944333Y-97845619D01*
X253849095Y-97750380D02*
X253372904Y-97750380D01*
X253325285Y-98226571D01*
X253372904Y-98178952D01*
X253468142Y-98131333D01*
X253706238Y-98131333D01*
X253801476Y-98178952D01*
X253849095Y-98226571D01*
X253896714Y-98321809D01*
X253896714Y-98559904D01*
X253849095Y-98655142D01*
X253801476Y-98702761D01*
X253706238Y-98750380D01*
X253468142Y-98750380D01*
X253372904Y-98702761D01*
X253325285Y-98655142D01*
G04 #@! TO.C,C6*
X251293333Y-90941142D02*
X251245714Y-90988761D01*
X251102857Y-91036380D01*
X251007619Y-91036380D01*
X250864761Y-90988761D01*
X250769523Y-90893523D01*
X250721904Y-90798285D01*
X250674285Y-90607809D01*
X250674285Y-90464952D01*
X250721904Y-90274476D01*
X250769523Y-90179238D01*
X250864761Y-90084000D01*
X251007619Y-90036380D01*
X251102857Y-90036380D01*
X251245714Y-90084000D01*
X251293333Y-90131619D01*
X252150476Y-90036380D02*
X251960000Y-90036380D01*
X251864761Y-90084000D01*
X251817142Y-90131619D01*
X251721904Y-90274476D01*
X251674285Y-90464952D01*
X251674285Y-90845904D01*
X251721904Y-90941142D01*
X251769523Y-90988761D01*
X251864761Y-91036380D01*
X252055238Y-91036380D01*
X252150476Y-90988761D01*
X252198095Y-90941142D01*
X252245714Y-90845904D01*
X252245714Y-90607809D01*
X252198095Y-90512571D01*
X252150476Y-90464952D01*
X252055238Y-90417333D01*
X251864761Y-90417333D01*
X251769523Y-90464952D01*
X251721904Y-90512571D01*
X251674285Y-90607809D01*
G04 #@! TO.C,C7*
X123277333Y-104337142D02*
X123229714Y-104384761D01*
X123086857Y-104432380D01*
X122991619Y-104432380D01*
X122848761Y-104384761D01*
X122753523Y-104289523D01*
X122705904Y-104194285D01*
X122658285Y-104003809D01*
X122658285Y-103860952D01*
X122705904Y-103670476D01*
X122753523Y-103575238D01*
X122848761Y-103480000D01*
X122991619Y-103432380D01*
X123086857Y-103432380D01*
X123229714Y-103480000D01*
X123277333Y-103527619D01*
X123610666Y-103432380D02*
X124277333Y-103432380D01*
X123848761Y-104432380D01*
G04 #@! TO.C,C8*
X123277333Y-112023142D02*
X123229714Y-112070761D01*
X123086857Y-112118380D01*
X122991619Y-112118380D01*
X122848761Y-112070761D01*
X122753523Y-111975523D01*
X122705904Y-111880285D01*
X122658285Y-111689809D01*
X122658285Y-111546952D01*
X122705904Y-111356476D01*
X122753523Y-111261238D01*
X122848761Y-111166000D01*
X122991619Y-111118380D01*
X123086857Y-111118380D01*
X123229714Y-111166000D01*
X123277333Y-111213619D01*
X123848761Y-111546952D02*
X123753523Y-111499333D01*
X123705904Y-111451714D01*
X123658285Y-111356476D01*
X123658285Y-111308857D01*
X123705904Y-111213619D01*
X123753523Y-111166000D01*
X123848761Y-111118380D01*
X124039238Y-111118380D01*
X124134476Y-111166000D01*
X124182095Y-111213619D01*
X124229714Y-111308857D01*
X124229714Y-111356476D01*
X124182095Y-111451714D01*
X124134476Y-111499333D01*
X124039238Y-111546952D01*
X123848761Y-111546952D01*
X123753523Y-111594571D01*
X123705904Y-111642190D01*
X123658285Y-111737428D01*
X123658285Y-111927904D01*
X123705904Y-112023142D01*
X123753523Y-112070761D01*
X123848761Y-112118380D01*
X124039238Y-112118380D01*
X124134476Y-112070761D01*
X124182095Y-112023142D01*
X124229714Y-111927904D01*
X124229714Y-111737428D01*
X124182095Y-111642190D01*
X124134476Y-111594571D01*
X124039238Y-111546952D01*
G04 #@! TO.C,C9*
X148818333Y-104083142D02*
X148770714Y-104130761D01*
X148627857Y-104178380D01*
X148532619Y-104178380D01*
X148389761Y-104130761D01*
X148294523Y-104035523D01*
X148246904Y-103940285D01*
X148199285Y-103749809D01*
X148199285Y-103606952D01*
X148246904Y-103416476D01*
X148294523Y-103321238D01*
X148389761Y-103226000D01*
X148532619Y-103178380D01*
X148627857Y-103178380D01*
X148770714Y-103226000D01*
X148818333Y-103273619D01*
X149294523Y-104178380D02*
X149485000Y-104178380D01*
X149580238Y-104130761D01*
X149627857Y-104083142D01*
X149723095Y-103940285D01*
X149770714Y-103749809D01*
X149770714Y-103368857D01*
X149723095Y-103273619D01*
X149675476Y-103226000D01*
X149580238Y-103178380D01*
X149389761Y-103178380D01*
X149294523Y-103226000D01*
X149246904Y-103273619D01*
X149199285Y-103368857D01*
X149199285Y-103606952D01*
X149246904Y-103702190D01*
X149294523Y-103749809D01*
X149389761Y-103797428D01*
X149580238Y-103797428D01*
X149675476Y-103749809D01*
X149723095Y-103702190D01*
X149770714Y-103606952D01*
G04 #@! TO.C,C10*
X149596142Y-112308857D02*
X149643761Y-112356476D01*
X149691380Y-112499333D01*
X149691380Y-112594571D01*
X149643761Y-112737428D01*
X149548523Y-112832666D01*
X149453285Y-112880285D01*
X149262809Y-112927904D01*
X149119952Y-112927904D01*
X148929476Y-112880285D01*
X148834238Y-112832666D01*
X148739000Y-112737428D01*
X148691380Y-112594571D01*
X148691380Y-112499333D01*
X148739000Y-112356476D01*
X148786619Y-112308857D01*
X149691380Y-111356476D02*
X149691380Y-111927904D01*
X149691380Y-111642190D02*
X148691380Y-111642190D01*
X148834238Y-111737428D01*
X148929476Y-111832666D01*
X148977095Y-111927904D01*
X148691380Y-110737428D02*
X148691380Y-110642190D01*
X148739000Y-110546952D01*
X148786619Y-110499333D01*
X148881857Y-110451714D01*
X149072333Y-110404095D01*
X149310428Y-110404095D01*
X149500904Y-110451714D01*
X149596142Y-110499333D01*
X149643761Y-110546952D01*
X149691380Y-110642190D01*
X149691380Y-110737428D01*
X149643761Y-110832666D01*
X149596142Y-110880285D01*
X149500904Y-110927904D01*
X149310428Y-110975523D01*
X149072333Y-110975523D01*
X148881857Y-110927904D01*
X148786619Y-110880285D01*
X148739000Y-110832666D01*
X148691380Y-110737428D01*
G04 #@! TO.C,C11*
X173996142Y-104083142D02*
X173948523Y-104130761D01*
X173805666Y-104178380D01*
X173710428Y-104178380D01*
X173567571Y-104130761D01*
X173472333Y-104035523D01*
X173424714Y-103940285D01*
X173377095Y-103749809D01*
X173377095Y-103606952D01*
X173424714Y-103416476D01*
X173472333Y-103321238D01*
X173567571Y-103226000D01*
X173710428Y-103178380D01*
X173805666Y-103178380D01*
X173948523Y-103226000D01*
X173996142Y-103273619D01*
X174948523Y-104178380D02*
X174377095Y-104178380D01*
X174662809Y-104178380D02*
X174662809Y-103178380D01*
X174567571Y-103321238D01*
X174472333Y-103416476D01*
X174377095Y-103464095D01*
X175900904Y-104178380D02*
X175329476Y-104178380D01*
X175615190Y-104178380D02*
X175615190Y-103178380D01*
X175519952Y-103321238D01*
X175424714Y-103416476D01*
X175329476Y-103464095D01*
G04 #@! TO.C,C12*
X174109142Y-112277142D02*
X174061523Y-112324761D01*
X173918666Y-112372380D01*
X173823428Y-112372380D01*
X173680571Y-112324761D01*
X173585333Y-112229523D01*
X173537714Y-112134285D01*
X173490095Y-111943809D01*
X173490095Y-111800952D01*
X173537714Y-111610476D01*
X173585333Y-111515238D01*
X173680571Y-111420000D01*
X173823428Y-111372380D01*
X173918666Y-111372380D01*
X174061523Y-111420000D01*
X174109142Y-111467619D01*
X175061523Y-112372380D02*
X174490095Y-112372380D01*
X174775809Y-112372380D02*
X174775809Y-111372380D01*
X174680571Y-111515238D01*
X174585333Y-111610476D01*
X174490095Y-111658095D01*
X175442476Y-111467619D02*
X175490095Y-111420000D01*
X175585333Y-111372380D01*
X175823428Y-111372380D01*
X175918666Y-111420000D01*
X175966285Y-111467619D01*
X176013904Y-111562857D01*
X176013904Y-111658095D01*
X175966285Y-111800952D01*
X175394857Y-112372380D01*
X176013904Y-112372380D01*
G04 #@! TO.C,C13*
X84701142Y-65508142D02*
X84653523Y-65555761D01*
X84510666Y-65603380D01*
X84415428Y-65603380D01*
X84272571Y-65555761D01*
X84177333Y-65460523D01*
X84129714Y-65365285D01*
X84082095Y-65174809D01*
X84082095Y-65031952D01*
X84129714Y-64841476D01*
X84177333Y-64746238D01*
X84272571Y-64651000D01*
X84415428Y-64603380D01*
X84510666Y-64603380D01*
X84653523Y-64651000D01*
X84701142Y-64698619D01*
X85653523Y-65603380D02*
X85082095Y-65603380D01*
X85367809Y-65603380D02*
X85367809Y-64603380D01*
X85272571Y-64746238D01*
X85177333Y-64841476D01*
X85082095Y-64889095D01*
X85986857Y-64603380D02*
X86605904Y-64603380D01*
X86272571Y-64984333D01*
X86415428Y-64984333D01*
X86510666Y-65031952D01*
X86558285Y-65079571D01*
X86605904Y-65174809D01*
X86605904Y-65412904D01*
X86558285Y-65508142D01*
X86510666Y-65555761D01*
X86415428Y-65603380D01*
X86129714Y-65603380D01*
X86034476Y-65555761D01*
X85986857Y-65508142D01*
G04 #@! TO.C,C14*
X72396142Y-104083142D02*
X72348523Y-104130761D01*
X72205666Y-104178380D01*
X72110428Y-104178380D01*
X71967571Y-104130761D01*
X71872333Y-104035523D01*
X71824714Y-103940285D01*
X71777095Y-103749809D01*
X71777095Y-103606952D01*
X71824714Y-103416476D01*
X71872333Y-103321238D01*
X71967571Y-103226000D01*
X72110428Y-103178380D01*
X72205666Y-103178380D01*
X72348523Y-103226000D01*
X72396142Y-103273619D01*
X73348523Y-104178380D02*
X72777095Y-104178380D01*
X73062809Y-104178380D02*
X73062809Y-103178380D01*
X72967571Y-103321238D01*
X72872333Y-103416476D01*
X72777095Y-103464095D01*
X74205666Y-103511714D02*
X74205666Y-104178380D01*
X73967571Y-103130761D02*
X73729476Y-103845047D01*
X74348523Y-103845047D01*
G04 #@! TO.C,C15*
X72396142Y-112277142D02*
X72348523Y-112324761D01*
X72205666Y-112372380D01*
X72110428Y-112372380D01*
X71967571Y-112324761D01*
X71872333Y-112229523D01*
X71824714Y-112134285D01*
X71777095Y-111943809D01*
X71777095Y-111800952D01*
X71824714Y-111610476D01*
X71872333Y-111515238D01*
X71967571Y-111420000D01*
X72110428Y-111372380D01*
X72205666Y-111372380D01*
X72348523Y-111420000D01*
X72396142Y-111467619D01*
X73348523Y-112372380D02*
X72777095Y-112372380D01*
X73062809Y-112372380D02*
X73062809Y-111372380D01*
X72967571Y-111515238D01*
X72872333Y-111610476D01*
X72777095Y-111658095D01*
X74253285Y-111372380D02*
X73777095Y-111372380D01*
X73729476Y-111848571D01*
X73777095Y-111800952D01*
X73872333Y-111753333D01*
X74110428Y-111753333D01*
X74205666Y-111800952D01*
X74253285Y-111848571D01*
X74300904Y-111943809D01*
X74300904Y-112181904D01*
X74253285Y-112277142D01*
X74205666Y-112324761D01*
X74110428Y-112372380D01*
X73872333Y-112372380D01*
X73777095Y-112324761D01*
X73729476Y-112277142D01*
G04 #@! TO.C,C16*
X149549142Y-64904857D02*
X149596761Y-64952476D01*
X149644380Y-65095333D01*
X149644380Y-65190571D01*
X149596761Y-65333428D01*
X149501523Y-65428666D01*
X149406285Y-65476285D01*
X149215809Y-65523904D01*
X149072952Y-65523904D01*
X148882476Y-65476285D01*
X148787238Y-65428666D01*
X148692000Y-65333428D01*
X148644380Y-65190571D01*
X148644380Y-65095333D01*
X148692000Y-64952476D01*
X148739619Y-64904857D01*
X149644380Y-63952476D02*
X149644380Y-64523904D01*
X149644380Y-64238190D02*
X148644380Y-64238190D01*
X148787238Y-64333428D01*
X148882476Y-64428666D01*
X148930095Y-64523904D01*
X148644380Y-63095333D02*
X148644380Y-63285809D01*
X148692000Y-63381047D01*
X148739619Y-63428666D01*
X148882476Y-63523904D01*
X149072952Y-63571523D01*
X149453904Y-63571523D01*
X149549142Y-63523904D01*
X149596761Y-63476285D01*
X149644380Y-63381047D01*
X149644380Y-63190571D01*
X149596761Y-63095333D01*
X149549142Y-63047714D01*
X149453904Y-63000095D01*
X149215809Y-63000095D01*
X149120571Y-63047714D01*
X149072952Y-63095333D01*
X149025333Y-63190571D01*
X149025333Y-63381047D01*
X149072952Y-63476285D01*
X149120571Y-63523904D01*
X149215809Y-63571523D01*
G04 #@! TO.C,C17*
X110847142Y-64650857D02*
X110894761Y-64698476D01*
X110942380Y-64841333D01*
X110942380Y-64936571D01*
X110894761Y-65079428D01*
X110799523Y-65174666D01*
X110704285Y-65222285D01*
X110513809Y-65269904D01*
X110370952Y-65269904D01*
X110180476Y-65222285D01*
X110085238Y-65174666D01*
X109990000Y-65079428D01*
X109942380Y-64936571D01*
X109942380Y-64841333D01*
X109990000Y-64698476D01*
X110037619Y-64650857D01*
X110942380Y-63698476D02*
X110942380Y-64269904D01*
X110942380Y-63984190D02*
X109942380Y-63984190D01*
X110085238Y-64079428D01*
X110180476Y-64174666D01*
X110228095Y-64269904D01*
X109942380Y-63365142D02*
X109942380Y-62698476D01*
X110942380Y-63127047D01*
G04 #@! TO.C,C18*
X69539142Y-64904857D02*
X69586761Y-64952476D01*
X69634380Y-65095333D01*
X69634380Y-65190571D01*
X69586761Y-65333428D01*
X69491523Y-65428666D01*
X69396285Y-65476285D01*
X69205809Y-65523904D01*
X69062952Y-65523904D01*
X68872476Y-65476285D01*
X68777238Y-65428666D01*
X68682000Y-65333428D01*
X68634380Y-65190571D01*
X68634380Y-65095333D01*
X68682000Y-64952476D01*
X68729619Y-64904857D01*
X69634380Y-63952476D02*
X69634380Y-64523904D01*
X69634380Y-64238190D02*
X68634380Y-64238190D01*
X68777238Y-64333428D01*
X68872476Y-64428666D01*
X68920095Y-64523904D01*
X69062952Y-63381047D02*
X69015333Y-63476285D01*
X68967714Y-63523904D01*
X68872476Y-63571523D01*
X68824857Y-63571523D01*
X68729619Y-63523904D01*
X68682000Y-63476285D01*
X68634380Y-63381047D01*
X68634380Y-63190571D01*
X68682000Y-63095333D01*
X68729619Y-63047714D01*
X68824857Y-63000095D01*
X68872476Y-63000095D01*
X68967714Y-63047714D01*
X69015333Y-63095333D01*
X69062952Y-63190571D01*
X69062952Y-63381047D01*
X69110571Y-63476285D01*
X69158190Y-63523904D01*
X69253428Y-63571523D01*
X69443904Y-63571523D01*
X69539142Y-63523904D01*
X69586761Y-63476285D01*
X69634380Y-63381047D01*
X69634380Y-63190571D01*
X69586761Y-63095333D01*
X69539142Y-63047714D01*
X69443904Y-63000095D01*
X69253428Y-63000095D01*
X69158190Y-63047714D01*
X69110571Y-63095333D01*
X69062952Y-63190571D01*
G04 #@! TO.C,C19*
X73001142Y-84716857D02*
X73048761Y-84764476D01*
X73096380Y-84907333D01*
X73096380Y-85002571D01*
X73048761Y-85145428D01*
X72953523Y-85240666D01*
X72858285Y-85288285D01*
X72667809Y-85335904D01*
X72524952Y-85335904D01*
X72334476Y-85288285D01*
X72239238Y-85240666D01*
X72144000Y-85145428D01*
X72096380Y-85002571D01*
X72096380Y-84907333D01*
X72144000Y-84764476D01*
X72191619Y-84716857D01*
X73096380Y-83764476D02*
X73096380Y-84335904D01*
X73096380Y-84050190D02*
X72096380Y-84050190D01*
X72239238Y-84145428D01*
X72334476Y-84240666D01*
X72382095Y-84335904D01*
X73096380Y-83288285D02*
X73096380Y-83097809D01*
X73048761Y-83002571D01*
X73001142Y-82954952D01*
X72858285Y-82859714D01*
X72667809Y-82812095D01*
X72286857Y-82812095D01*
X72191619Y-82859714D01*
X72144000Y-82907333D01*
X72096380Y-83002571D01*
X72096380Y-83193047D01*
X72144000Y-83288285D01*
X72191619Y-83335904D01*
X72286857Y-83383523D01*
X72524952Y-83383523D01*
X72620190Y-83335904D01*
X72667809Y-83288285D01*
X72715428Y-83193047D01*
X72715428Y-83002571D01*
X72667809Y-82907333D01*
X72620190Y-82859714D01*
X72524952Y-82812095D01*
G04 #@! TO.C,C20*
X261612142Y-96496142D02*
X261564523Y-96543761D01*
X261421666Y-96591380D01*
X261326428Y-96591380D01*
X261183571Y-96543761D01*
X261088333Y-96448523D01*
X261040714Y-96353285D01*
X260993095Y-96162809D01*
X260993095Y-96019952D01*
X261040714Y-95829476D01*
X261088333Y-95734238D01*
X261183571Y-95639000D01*
X261326428Y-95591380D01*
X261421666Y-95591380D01*
X261564523Y-95639000D01*
X261612142Y-95686619D01*
X261993095Y-95686619D02*
X262040714Y-95639000D01*
X262135952Y-95591380D01*
X262374047Y-95591380D01*
X262469285Y-95639000D01*
X262516904Y-95686619D01*
X262564523Y-95781857D01*
X262564523Y-95877095D01*
X262516904Y-96019952D01*
X261945476Y-96591380D01*
X262564523Y-96591380D01*
X263183571Y-95591380D02*
X263278809Y-95591380D01*
X263374047Y-95639000D01*
X263421666Y-95686619D01*
X263469285Y-95781857D01*
X263516904Y-95972333D01*
X263516904Y-96210428D01*
X263469285Y-96400904D01*
X263421666Y-96496142D01*
X263374047Y-96543761D01*
X263278809Y-96591380D01*
X263183571Y-96591380D01*
X263088333Y-96543761D01*
X263040714Y-96496142D01*
X262993095Y-96400904D01*
X262945476Y-96210428D01*
X262945476Y-95972333D01*
X262993095Y-95781857D01*
X263040714Y-95686619D01*
X263088333Y-95639000D01*
X263183571Y-95591380D01*
G04 #@! TO.C,C21*
X112277142Y-84462857D02*
X112324761Y-84510476D01*
X112372380Y-84653333D01*
X112372380Y-84748571D01*
X112324761Y-84891428D01*
X112229523Y-84986666D01*
X112134285Y-85034285D01*
X111943809Y-85081904D01*
X111800952Y-85081904D01*
X111610476Y-85034285D01*
X111515238Y-84986666D01*
X111420000Y-84891428D01*
X111372380Y-84748571D01*
X111372380Y-84653333D01*
X111420000Y-84510476D01*
X111467619Y-84462857D01*
X111467619Y-84081904D02*
X111420000Y-84034285D01*
X111372380Y-83939047D01*
X111372380Y-83700952D01*
X111420000Y-83605714D01*
X111467619Y-83558095D01*
X111562857Y-83510476D01*
X111658095Y-83510476D01*
X111800952Y-83558095D01*
X112372380Y-84129523D01*
X112372380Y-83510476D01*
X112372380Y-82558095D02*
X112372380Y-83129523D01*
X112372380Y-82843809D02*
X111372380Y-82843809D01*
X111515238Y-82939047D01*
X111610476Y-83034285D01*
X111658095Y-83129523D01*
G04 #@! TO.C,C22*
X55999142Y-66270142D02*
X55951523Y-66317761D01*
X55808666Y-66365380D01*
X55713428Y-66365380D01*
X55570571Y-66317761D01*
X55475333Y-66222523D01*
X55427714Y-66127285D01*
X55380095Y-65936809D01*
X55380095Y-65793952D01*
X55427714Y-65603476D01*
X55475333Y-65508238D01*
X55570571Y-65413000D01*
X55713428Y-65365380D01*
X55808666Y-65365380D01*
X55951523Y-65413000D01*
X55999142Y-65460619D01*
X56380095Y-65460619D02*
X56427714Y-65413000D01*
X56522952Y-65365380D01*
X56761047Y-65365380D01*
X56856285Y-65413000D01*
X56903904Y-65460619D01*
X56951523Y-65555857D01*
X56951523Y-65651095D01*
X56903904Y-65793952D01*
X56332476Y-66365380D01*
X56951523Y-66365380D01*
X57332476Y-65460619D02*
X57380095Y-65413000D01*
X57475333Y-65365380D01*
X57713428Y-65365380D01*
X57808666Y-65413000D01*
X57856285Y-65460619D01*
X57903904Y-65555857D01*
X57903904Y-65651095D01*
X57856285Y-65793952D01*
X57284857Y-66365380D01*
X57903904Y-66365380D01*
G04 #@! TO.C,C23*
X151901142Y-84716857D02*
X151948761Y-84764476D01*
X151996380Y-84907333D01*
X151996380Y-85002571D01*
X151948761Y-85145428D01*
X151853523Y-85240666D01*
X151758285Y-85288285D01*
X151567809Y-85335904D01*
X151424952Y-85335904D01*
X151234476Y-85288285D01*
X151139238Y-85240666D01*
X151044000Y-85145428D01*
X150996380Y-85002571D01*
X150996380Y-84907333D01*
X151044000Y-84764476D01*
X151091619Y-84716857D01*
X151091619Y-84335904D02*
X151044000Y-84288285D01*
X150996380Y-84193047D01*
X150996380Y-83954952D01*
X151044000Y-83859714D01*
X151091619Y-83812095D01*
X151186857Y-83764476D01*
X151282095Y-83764476D01*
X151424952Y-83812095D01*
X151996380Y-84383523D01*
X151996380Y-83764476D01*
X150996380Y-83431142D02*
X150996380Y-82812095D01*
X151377333Y-83145428D01*
X151377333Y-83002571D01*
X151424952Y-82907333D01*
X151472571Y-82859714D01*
X151567809Y-82812095D01*
X151805904Y-82812095D01*
X151901142Y-82859714D01*
X151948761Y-82907333D01*
X151996380Y-83002571D01*
X151996380Y-83288285D01*
X151948761Y-83383523D01*
X151901142Y-83431142D01*
G04 #@! TO.C,C24*
X192033142Y-84462857D02*
X192080761Y-84510476D01*
X192128380Y-84653333D01*
X192128380Y-84748571D01*
X192080761Y-84891428D01*
X191985523Y-84986666D01*
X191890285Y-85034285D01*
X191699809Y-85081904D01*
X191556952Y-85081904D01*
X191366476Y-85034285D01*
X191271238Y-84986666D01*
X191176000Y-84891428D01*
X191128380Y-84748571D01*
X191128380Y-84653333D01*
X191176000Y-84510476D01*
X191223619Y-84462857D01*
X191223619Y-84081904D02*
X191176000Y-84034285D01*
X191128380Y-83939047D01*
X191128380Y-83700952D01*
X191176000Y-83605714D01*
X191223619Y-83558095D01*
X191318857Y-83510476D01*
X191414095Y-83510476D01*
X191556952Y-83558095D01*
X192128380Y-84129523D01*
X192128380Y-83510476D01*
X191461714Y-82653333D02*
X192128380Y-82653333D01*
X191080761Y-82891428D02*
X191795047Y-83129523D01*
X191795047Y-82510476D01*
G04 #@! TO.C,C25*
X158947142Y-91320857D02*
X158994761Y-91368476D01*
X159042380Y-91511333D01*
X159042380Y-91606571D01*
X158994761Y-91749428D01*
X158899523Y-91844666D01*
X158804285Y-91892285D01*
X158613809Y-91939904D01*
X158470952Y-91939904D01*
X158280476Y-91892285D01*
X158185238Y-91844666D01*
X158090000Y-91749428D01*
X158042380Y-91606571D01*
X158042380Y-91511333D01*
X158090000Y-91368476D01*
X158137619Y-91320857D01*
X158137619Y-90939904D02*
X158090000Y-90892285D01*
X158042380Y-90797047D01*
X158042380Y-90558952D01*
X158090000Y-90463714D01*
X158137619Y-90416095D01*
X158232857Y-90368476D01*
X158328095Y-90368476D01*
X158470952Y-90416095D01*
X159042380Y-90987523D01*
X159042380Y-90368476D01*
X158042380Y-89463714D02*
X158042380Y-89939904D01*
X158518571Y-89987523D01*
X158470952Y-89939904D01*
X158423333Y-89844666D01*
X158423333Y-89606571D01*
X158470952Y-89511333D01*
X158518571Y-89463714D01*
X158613809Y-89416095D01*
X158851904Y-89416095D01*
X158947142Y-89463714D01*
X158994761Y-89511333D01*
X159042380Y-89606571D01*
X159042380Y-89844666D01*
X158994761Y-89939904D01*
X158947142Y-89987523D01*
G04 #@! TO.C,C26*
X261612142Y-84685142D02*
X261564523Y-84732761D01*
X261421666Y-84780380D01*
X261326428Y-84780380D01*
X261183571Y-84732761D01*
X261088333Y-84637523D01*
X261040714Y-84542285D01*
X260993095Y-84351809D01*
X260993095Y-84208952D01*
X261040714Y-84018476D01*
X261088333Y-83923238D01*
X261183571Y-83828000D01*
X261326428Y-83780380D01*
X261421666Y-83780380D01*
X261564523Y-83828000D01*
X261612142Y-83875619D01*
X261993095Y-83875619D02*
X262040714Y-83828000D01*
X262135952Y-83780380D01*
X262374047Y-83780380D01*
X262469285Y-83828000D01*
X262516904Y-83875619D01*
X262564523Y-83970857D01*
X262564523Y-84066095D01*
X262516904Y-84208952D01*
X261945476Y-84780380D01*
X262564523Y-84780380D01*
X263421666Y-83780380D02*
X263231190Y-83780380D01*
X263135952Y-83828000D01*
X263088333Y-83875619D01*
X262993095Y-84018476D01*
X262945476Y-84208952D01*
X262945476Y-84589904D01*
X262993095Y-84685142D01*
X263040714Y-84732761D01*
X263135952Y-84780380D01*
X263326428Y-84780380D01*
X263421666Y-84732761D01*
X263469285Y-84685142D01*
X263516904Y-84589904D01*
X263516904Y-84351809D01*
X263469285Y-84256571D01*
X263421666Y-84208952D01*
X263326428Y-84161333D01*
X263135952Y-84161333D01*
X263040714Y-84208952D01*
X262993095Y-84256571D01*
X262945476Y-84351809D01*
G04 #@! TO.C,C27*
X108147142Y-91207857D02*
X108194761Y-91255476D01*
X108242380Y-91398333D01*
X108242380Y-91493571D01*
X108194761Y-91636428D01*
X108099523Y-91731666D01*
X108004285Y-91779285D01*
X107813809Y-91826904D01*
X107670952Y-91826904D01*
X107480476Y-91779285D01*
X107385238Y-91731666D01*
X107290000Y-91636428D01*
X107242380Y-91493571D01*
X107242380Y-91398333D01*
X107290000Y-91255476D01*
X107337619Y-91207857D01*
X107337619Y-90826904D02*
X107290000Y-90779285D01*
X107242380Y-90684047D01*
X107242380Y-90445952D01*
X107290000Y-90350714D01*
X107337619Y-90303095D01*
X107432857Y-90255476D01*
X107528095Y-90255476D01*
X107670952Y-90303095D01*
X108242380Y-90874523D01*
X108242380Y-90255476D01*
X107242380Y-89922142D02*
X107242380Y-89255476D01*
X108242380Y-89684047D01*
G04 #@! TO.C,C28*
X85748142Y-125610857D02*
X85795761Y-125658476D01*
X85843380Y-125801333D01*
X85843380Y-125896571D01*
X85795761Y-126039428D01*
X85700523Y-126134666D01*
X85605285Y-126182285D01*
X85414809Y-126229904D01*
X85271952Y-126229904D01*
X85081476Y-126182285D01*
X84986238Y-126134666D01*
X84891000Y-126039428D01*
X84843380Y-125896571D01*
X84843380Y-125801333D01*
X84891000Y-125658476D01*
X84938619Y-125610857D01*
X84938619Y-125229904D02*
X84891000Y-125182285D01*
X84843380Y-125087047D01*
X84843380Y-124848952D01*
X84891000Y-124753714D01*
X84938619Y-124706095D01*
X85033857Y-124658476D01*
X85129095Y-124658476D01*
X85271952Y-124706095D01*
X85843380Y-125277523D01*
X85843380Y-124658476D01*
X85271952Y-124087047D02*
X85224333Y-124182285D01*
X85176714Y-124229904D01*
X85081476Y-124277523D01*
X85033857Y-124277523D01*
X84938619Y-124229904D01*
X84891000Y-124182285D01*
X84843380Y-124087047D01*
X84843380Y-123896571D01*
X84891000Y-123801333D01*
X84938619Y-123753714D01*
X85033857Y-123706095D01*
X85081476Y-123706095D01*
X85176714Y-123753714D01*
X85224333Y-123801333D01*
X85271952Y-123896571D01*
X85271952Y-124087047D01*
X85319571Y-124182285D01*
X85367190Y-124229904D01*
X85462428Y-124277523D01*
X85652904Y-124277523D01*
X85748142Y-124229904D01*
X85795761Y-124182285D01*
X85843380Y-124087047D01*
X85843380Y-123896571D01*
X85795761Y-123801333D01*
X85748142Y-123753714D01*
X85652904Y-123706095D01*
X85462428Y-123706095D01*
X85367190Y-123753714D01*
X85319571Y-123801333D01*
X85271952Y-123896571D01*
G04 #@! TO.C,C29*
X136548142Y-125356857D02*
X136595761Y-125404476D01*
X136643380Y-125547333D01*
X136643380Y-125642571D01*
X136595761Y-125785428D01*
X136500523Y-125880666D01*
X136405285Y-125928285D01*
X136214809Y-125975904D01*
X136071952Y-125975904D01*
X135881476Y-125928285D01*
X135786238Y-125880666D01*
X135691000Y-125785428D01*
X135643380Y-125642571D01*
X135643380Y-125547333D01*
X135691000Y-125404476D01*
X135738619Y-125356857D01*
X135738619Y-124975904D02*
X135691000Y-124928285D01*
X135643380Y-124833047D01*
X135643380Y-124594952D01*
X135691000Y-124499714D01*
X135738619Y-124452095D01*
X135833857Y-124404476D01*
X135929095Y-124404476D01*
X136071952Y-124452095D01*
X136643380Y-125023523D01*
X136643380Y-124404476D01*
X136643380Y-123928285D02*
X136643380Y-123737809D01*
X136595761Y-123642571D01*
X136548142Y-123594952D01*
X136405285Y-123499714D01*
X136214809Y-123452095D01*
X135833857Y-123452095D01*
X135738619Y-123499714D01*
X135691000Y-123547333D01*
X135643380Y-123642571D01*
X135643380Y-123833047D01*
X135691000Y-123928285D01*
X135738619Y-123975904D01*
X135833857Y-124023523D01*
X136071952Y-124023523D01*
X136167190Y-123975904D01*
X136214809Y-123928285D01*
X136262428Y-123833047D01*
X136262428Y-123642571D01*
X136214809Y-123547333D01*
X136167190Y-123499714D01*
X136071952Y-123452095D01*
G04 #@! TO.C,C30*
X181840142Y-125356857D02*
X181887761Y-125404476D01*
X181935380Y-125547333D01*
X181935380Y-125642571D01*
X181887761Y-125785428D01*
X181792523Y-125880666D01*
X181697285Y-125928285D01*
X181506809Y-125975904D01*
X181363952Y-125975904D01*
X181173476Y-125928285D01*
X181078238Y-125880666D01*
X180983000Y-125785428D01*
X180935380Y-125642571D01*
X180935380Y-125547333D01*
X180983000Y-125404476D01*
X181030619Y-125356857D01*
X180935380Y-125023523D02*
X180935380Y-124404476D01*
X181316333Y-124737809D01*
X181316333Y-124594952D01*
X181363952Y-124499714D01*
X181411571Y-124452095D01*
X181506809Y-124404476D01*
X181744904Y-124404476D01*
X181840142Y-124452095D01*
X181887761Y-124499714D01*
X181935380Y-124594952D01*
X181935380Y-124880666D01*
X181887761Y-124975904D01*
X181840142Y-125023523D01*
X180935380Y-123785428D02*
X180935380Y-123690190D01*
X180983000Y-123594952D01*
X181030619Y-123547333D01*
X181125857Y-123499714D01*
X181316333Y-123452095D01*
X181554428Y-123452095D01*
X181744904Y-123499714D01*
X181840142Y-123547333D01*
X181887761Y-123594952D01*
X181935380Y-123690190D01*
X181935380Y-123785428D01*
X181887761Y-123880666D01*
X181840142Y-123928285D01*
X181744904Y-123975904D01*
X181554428Y-124023523D01*
X181316333Y-124023523D01*
X181125857Y-123975904D01*
X181030619Y-123928285D01*
X180983000Y-123880666D01*
X180935380Y-123785428D01*
G04 #@! TO.C,CLEAR1*
X259667619Y-69893142D02*
X259620000Y-69940761D01*
X259477142Y-69988380D01*
X259381904Y-69988380D01*
X259239047Y-69940761D01*
X259143809Y-69845523D01*
X259096190Y-69750285D01*
X259048571Y-69559809D01*
X259048571Y-69416952D01*
X259096190Y-69226476D01*
X259143809Y-69131238D01*
X259239047Y-69036000D01*
X259381904Y-68988380D01*
X259477142Y-68988380D01*
X259620000Y-69036000D01*
X259667619Y-69083619D01*
X260572380Y-69988380D02*
X260096190Y-69988380D01*
X260096190Y-68988380D01*
X260905714Y-69464571D02*
X261239047Y-69464571D01*
X261381904Y-69988380D02*
X260905714Y-69988380D01*
X260905714Y-68988380D01*
X261381904Y-68988380D01*
X261762857Y-69702666D02*
X262239047Y-69702666D01*
X261667619Y-69988380D02*
X262000952Y-68988380D01*
X262334285Y-69988380D01*
X263239047Y-69988380D02*
X262905714Y-69512190D01*
X262667619Y-69988380D02*
X262667619Y-68988380D01*
X263048571Y-68988380D01*
X263143809Y-69036000D01*
X263191428Y-69083619D01*
X263239047Y-69178857D01*
X263239047Y-69321714D01*
X263191428Y-69416952D01*
X263143809Y-69464571D01*
X263048571Y-69512190D01*
X262667619Y-69512190D01*
X264191428Y-69988380D02*
X263620000Y-69988380D01*
X263905714Y-69988380D02*
X263905714Y-68988380D01*
X263810476Y-69131238D01*
X263715238Y-69226476D01*
X263620000Y-69274095D01*
G04 #@! TO.C,COPY1*
X232060952Y-69893142D02*
X232013333Y-69940761D01*
X231870476Y-69988380D01*
X231775238Y-69988380D01*
X231632380Y-69940761D01*
X231537142Y-69845523D01*
X231489523Y-69750285D01*
X231441904Y-69559809D01*
X231441904Y-69416952D01*
X231489523Y-69226476D01*
X231537142Y-69131238D01*
X231632380Y-69036000D01*
X231775238Y-68988380D01*
X231870476Y-68988380D01*
X232013333Y-69036000D01*
X232060952Y-69083619D01*
X232680000Y-68988380D02*
X232870476Y-68988380D01*
X232965714Y-69036000D01*
X233060952Y-69131238D01*
X233108571Y-69321714D01*
X233108571Y-69655047D01*
X233060952Y-69845523D01*
X232965714Y-69940761D01*
X232870476Y-69988380D01*
X232680000Y-69988380D01*
X232584761Y-69940761D01*
X232489523Y-69845523D01*
X232441904Y-69655047D01*
X232441904Y-69321714D01*
X232489523Y-69131238D01*
X232584761Y-69036000D01*
X232680000Y-68988380D01*
X233537142Y-69988380D02*
X233537142Y-68988380D01*
X233918095Y-68988380D01*
X234013333Y-69036000D01*
X234060952Y-69083619D01*
X234108571Y-69178857D01*
X234108571Y-69321714D01*
X234060952Y-69416952D01*
X234013333Y-69464571D01*
X233918095Y-69512190D01*
X233537142Y-69512190D01*
X234727619Y-69512190D02*
X234727619Y-69988380D01*
X234394285Y-68988380D02*
X234727619Y-69512190D01*
X235060952Y-68988380D01*
X235918095Y-69988380D02*
X235346666Y-69988380D01*
X235632380Y-69988380D02*
X235632380Y-68988380D01*
X235537142Y-69131238D01*
X235441904Y-69226476D01*
X235346666Y-69274095D01*
G04 #@! TO.C,D1*
X189761904Y-65774380D02*
X189761904Y-64774380D01*
X190000000Y-64774380D01*
X190142857Y-64822000D01*
X190238095Y-64917238D01*
X190285714Y-65012476D01*
X190333333Y-65202952D01*
X190333333Y-65345809D01*
X190285714Y-65536285D01*
X190238095Y-65631523D01*
X190142857Y-65726761D01*
X190000000Y-65774380D01*
X189761904Y-65774380D01*
X191285714Y-65774380D02*
X190714285Y-65774380D01*
X191000000Y-65774380D02*
X191000000Y-64774380D01*
X190904761Y-64917238D01*
X190809523Y-65012476D01*
X190714285Y-65060095D01*
X187285714Y-67649380D02*
X186714285Y-67649380D01*
X187000000Y-67649380D02*
X187000000Y-66649380D01*
X186904761Y-66792238D01*
X186809523Y-66887476D01*
X186714285Y-66935095D01*
G04 #@! TO.C,D2*
X169768472Y-65774380D02*
X169768472Y-64774380D01*
X170006568Y-64774380D01*
X170149425Y-64822000D01*
X170244663Y-64917238D01*
X170292282Y-65012476D01*
X170339901Y-65202952D01*
X170339901Y-65345809D01*
X170292282Y-65536285D01*
X170244663Y-65631523D01*
X170149425Y-65726761D01*
X170006568Y-65774380D01*
X169768472Y-65774380D01*
X170720853Y-64869619D02*
X170768472Y-64822000D01*
X170863710Y-64774380D01*
X171101806Y-64774380D01*
X171197044Y-64822000D01*
X171244663Y-64869619D01*
X171292282Y-64964857D01*
X171292282Y-65060095D01*
X171244663Y-65202952D01*
X170673234Y-65774380D01*
X171292282Y-65774380D01*
X167292282Y-67649380D02*
X166720853Y-67649380D01*
X167006568Y-67649380D02*
X167006568Y-66649380D01*
X166911329Y-66792238D01*
X166816091Y-66887476D01*
X166720853Y-66935095D01*
G04 #@! TO.C,D3*
X149775044Y-65774380D02*
X149775044Y-64774380D01*
X150013140Y-64774380D01*
X150155997Y-64822000D01*
X150251235Y-64917238D01*
X150298854Y-65012476D01*
X150346473Y-65202952D01*
X150346473Y-65345809D01*
X150298854Y-65536285D01*
X150251235Y-65631523D01*
X150155997Y-65726761D01*
X150013140Y-65774380D01*
X149775044Y-65774380D01*
X150679806Y-64774380D02*
X151298854Y-64774380D01*
X150965520Y-65155333D01*
X151108378Y-65155333D01*
X151203616Y-65202952D01*
X151251235Y-65250571D01*
X151298854Y-65345809D01*
X151298854Y-65583904D01*
X151251235Y-65679142D01*
X151203616Y-65726761D01*
X151108378Y-65774380D01*
X150822663Y-65774380D01*
X150727425Y-65726761D01*
X150679806Y-65679142D01*
X147298854Y-67649380D02*
X146727425Y-67649380D01*
X147013140Y-67649380D02*
X147013140Y-66649380D01*
X146917901Y-66792238D01*
X146822663Y-66887476D01*
X146727425Y-66935095D01*
G04 #@! TO.C,D4*
X129781616Y-65774380D02*
X129781616Y-64774380D01*
X130019712Y-64774380D01*
X130162569Y-64822000D01*
X130257807Y-64917238D01*
X130305426Y-65012476D01*
X130353045Y-65202952D01*
X130353045Y-65345809D01*
X130305426Y-65536285D01*
X130257807Y-65631523D01*
X130162569Y-65726761D01*
X130019712Y-65774380D01*
X129781616Y-65774380D01*
X131210188Y-65107714D02*
X131210188Y-65774380D01*
X130972092Y-64726761D02*
X130733997Y-65441047D01*
X131353045Y-65441047D01*
X127305426Y-67649380D02*
X126733997Y-67649380D01*
X127019712Y-67649380D02*
X127019712Y-66649380D01*
X126924473Y-66792238D01*
X126829235Y-66887476D01*
X126733997Y-66935095D01*
G04 #@! TO.C,D5*
X109788188Y-65774380D02*
X109788188Y-64774380D01*
X110026284Y-64774380D01*
X110169141Y-64822000D01*
X110264379Y-64917238D01*
X110311998Y-65012476D01*
X110359617Y-65202952D01*
X110359617Y-65345809D01*
X110311998Y-65536285D01*
X110264379Y-65631523D01*
X110169141Y-65726761D01*
X110026284Y-65774380D01*
X109788188Y-65774380D01*
X111264379Y-64774380D02*
X110788188Y-64774380D01*
X110740569Y-65250571D01*
X110788188Y-65202952D01*
X110883426Y-65155333D01*
X111121522Y-65155333D01*
X111216760Y-65202952D01*
X111264379Y-65250571D01*
X111311998Y-65345809D01*
X111311998Y-65583904D01*
X111264379Y-65679142D01*
X111216760Y-65726761D01*
X111121522Y-65774380D01*
X110883426Y-65774380D01*
X110788188Y-65726761D01*
X110740569Y-65679142D01*
X107311998Y-67649380D02*
X106740569Y-67649380D01*
X107026284Y-67649380D02*
X107026284Y-66649380D01*
X106931045Y-66792238D01*
X106835807Y-66887476D01*
X106740569Y-66935095D01*
G04 #@! TO.C,D6*
X89794760Y-65774380D02*
X89794760Y-64774380D01*
X90032856Y-64774380D01*
X90175713Y-64822000D01*
X90270951Y-64917238D01*
X90318570Y-65012476D01*
X90366189Y-65202952D01*
X90366189Y-65345809D01*
X90318570Y-65536285D01*
X90270951Y-65631523D01*
X90175713Y-65726761D01*
X90032856Y-65774380D01*
X89794760Y-65774380D01*
X91223332Y-64774380D02*
X91032856Y-64774380D01*
X90937617Y-64822000D01*
X90889998Y-64869619D01*
X90794760Y-65012476D01*
X90747141Y-65202952D01*
X90747141Y-65583904D01*
X90794760Y-65679142D01*
X90842379Y-65726761D01*
X90937617Y-65774380D01*
X91128094Y-65774380D01*
X91223332Y-65726761D01*
X91270951Y-65679142D01*
X91318570Y-65583904D01*
X91318570Y-65345809D01*
X91270951Y-65250571D01*
X91223332Y-65202952D01*
X91128094Y-65155333D01*
X90937617Y-65155333D01*
X90842379Y-65202952D01*
X90794760Y-65250571D01*
X90747141Y-65345809D01*
X87318570Y-67649380D02*
X86747141Y-67649380D01*
X87032856Y-67649380D02*
X87032856Y-66649380D01*
X86937617Y-66792238D01*
X86842379Y-66887476D01*
X86747141Y-66935095D01*
G04 #@! TO.C,D7*
X65936904Y-69667380D02*
X65936904Y-68667380D01*
X66175000Y-68667380D01*
X66317857Y-68715000D01*
X66413095Y-68810238D01*
X66460714Y-68905476D01*
X66508333Y-69095952D01*
X66508333Y-69238809D01*
X66460714Y-69429285D01*
X66413095Y-69524523D01*
X66317857Y-69619761D01*
X66175000Y-69667380D01*
X65936904Y-69667380D01*
X66841666Y-68667380D02*
X67508333Y-68667380D01*
X67079761Y-69667380D01*
X67325142Y-67649380D02*
X66753713Y-67649380D01*
X67039428Y-67649380D02*
X67039428Y-66649380D01*
X66944189Y-66792238D01*
X66848951Y-66887476D01*
X66753713Y-66935095D01*
G04 #@! TO.C,D8*
X45870904Y-69159380D02*
X45870904Y-68159380D01*
X46109000Y-68159380D01*
X46251857Y-68207000D01*
X46347095Y-68302238D01*
X46394714Y-68397476D01*
X46442333Y-68587952D01*
X46442333Y-68730809D01*
X46394714Y-68921285D01*
X46347095Y-69016523D01*
X46251857Y-69111761D01*
X46109000Y-69159380D01*
X45870904Y-69159380D01*
X47013761Y-68587952D02*
X46918523Y-68540333D01*
X46870904Y-68492714D01*
X46823285Y-68397476D01*
X46823285Y-68349857D01*
X46870904Y-68254619D01*
X46918523Y-68207000D01*
X47013761Y-68159380D01*
X47204238Y-68159380D01*
X47299476Y-68207000D01*
X47347095Y-68254619D01*
X47394714Y-68349857D01*
X47394714Y-68397476D01*
X47347095Y-68492714D01*
X47299476Y-68540333D01*
X47204238Y-68587952D01*
X47013761Y-68587952D01*
X46918523Y-68635571D01*
X46870904Y-68683190D01*
X46823285Y-68778428D01*
X46823285Y-68968904D01*
X46870904Y-69064142D01*
X46918523Y-69111761D01*
X47013761Y-69159380D01*
X47204238Y-69159380D01*
X47299476Y-69111761D01*
X47347095Y-69064142D01*
X47394714Y-68968904D01*
X47394714Y-68778428D01*
X47347095Y-68683190D01*
X47299476Y-68635571D01*
X47204238Y-68587952D01*
X47331714Y-67649380D02*
X46760285Y-67649380D01*
X47046000Y-67649380D02*
X47046000Y-66649380D01*
X46950761Y-66792238D01*
X46855523Y-66887476D01*
X46760285Y-66935095D01*
G04 #@! TO.C,D9*
X49835904Y-83212380D02*
X49835904Y-82212380D01*
X50074000Y-82212380D01*
X50216857Y-82260000D01*
X50312095Y-82355238D01*
X50359714Y-82450476D01*
X50407333Y-82640952D01*
X50407333Y-82783809D01*
X50359714Y-82974285D01*
X50312095Y-83069523D01*
X50216857Y-83164761D01*
X50074000Y-83212380D01*
X49835904Y-83212380D01*
X50883523Y-83212380D02*
X51074000Y-83212380D01*
X51169238Y-83164761D01*
X51216857Y-83117142D01*
X51312095Y-82974285D01*
X51359714Y-82783809D01*
X51359714Y-82402857D01*
X51312095Y-82307619D01*
X51264476Y-82260000D01*
X51169238Y-82212380D01*
X50978761Y-82212380D01*
X50883523Y-82260000D01*
X50835904Y-82307619D01*
X50788285Y-82402857D01*
X50788285Y-82640952D01*
X50835904Y-82736190D01*
X50883523Y-82783809D01*
X50978761Y-82831428D01*
X51169238Y-82831428D01*
X51264476Y-82783809D01*
X51312095Y-82736190D01*
X51359714Y-82640952D01*
X54359714Y-81337380D02*
X53788285Y-81337380D01*
X54074000Y-81337380D02*
X54074000Y-80337380D01*
X53978761Y-80480238D01*
X53883523Y-80575476D01*
X53788285Y-80623095D01*
G04 #@! TO.C,D10*
X73588714Y-79573380D02*
X73588714Y-78573380D01*
X73826809Y-78573380D01*
X73969666Y-78621000D01*
X74064904Y-78716238D01*
X74112523Y-78811476D01*
X74160142Y-79001952D01*
X74160142Y-79144809D01*
X74112523Y-79335285D01*
X74064904Y-79430523D01*
X73969666Y-79525761D01*
X73826809Y-79573380D01*
X73588714Y-79573380D01*
X75112523Y-79573380D02*
X74541095Y-79573380D01*
X74826809Y-79573380D02*
X74826809Y-78573380D01*
X74731571Y-78716238D01*
X74636333Y-78811476D01*
X74541095Y-78859095D01*
X75731571Y-78573380D02*
X75826809Y-78573380D01*
X75922047Y-78621000D01*
X75969666Y-78668619D01*
X76017285Y-78763857D01*
X76064904Y-78954333D01*
X76064904Y-79192428D01*
X76017285Y-79382904D01*
X75969666Y-79478142D01*
X75922047Y-79525761D01*
X75826809Y-79573380D01*
X75731571Y-79573380D01*
X75636333Y-79525761D01*
X75588714Y-79478142D01*
X75541095Y-79382904D01*
X75493476Y-79192428D01*
X75493476Y-78954333D01*
X75541095Y-78763857D01*
X75588714Y-78668619D01*
X75636333Y-78621000D01*
X75731571Y-78573380D01*
X74353142Y-81337380D02*
X73781713Y-81337380D01*
X74067428Y-81337380D02*
X74067428Y-80337380D01*
X73972189Y-80480238D01*
X73876951Y-80575476D01*
X73781713Y-80623095D01*
G04 #@! TO.C,D11*
X89346570Y-83212380D02*
X89346570Y-82212380D01*
X89584665Y-82212380D01*
X89727522Y-82260000D01*
X89822760Y-82355238D01*
X89870379Y-82450476D01*
X89917998Y-82640952D01*
X89917998Y-82783809D01*
X89870379Y-82974285D01*
X89822760Y-83069523D01*
X89727522Y-83164761D01*
X89584665Y-83212380D01*
X89346570Y-83212380D01*
X90870379Y-83212380D02*
X90298951Y-83212380D01*
X90584665Y-83212380D02*
X90584665Y-82212380D01*
X90489427Y-82355238D01*
X90394189Y-82450476D01*
X90298951Y-82498095D01*
X91822760Y-83212380D02*
X91251332Y-83212380D01*
X91537046Y-83212380D02*
X91537046Y-82212380D01*
X91441808Y-82355238D01*
X91346570Y-82450476D01*
X91251332Y-82498095D01*
X94346570Y-81337380D02*
X93775141Y-81337380D01*
X94060856Y-81337380D02*
X94060856Y-80337380D01*
X93965617Y-80480238D01*
X93870379Y-80575476D01*
X93775141Y-80623095D01*
G04 #@! TO.C,D12*
X113593714Y-79573380D02*
X113593714Y-78573380D01*
X113831809Y-78573380D01*
X113974666Y-78621000D01*
X114069904Y-78716238D01*
X114117523Y-78811476D01*
X114165142Y-79001952D01*
X114165142Y-79144809D01*
X114117523Y-79335285D01*
X114069904Y-79430523D01*
X113974666Y-79525761D01*
X113831809Y-79573380D01*
X113593714Y-79573380D01*
X115117523Y-79573380D02*
X114546095Y-79573380D01*
X114831809Y-79573380D02*
X114831809Y-78573380D01*
X114736571Y-78716238D01*
X114641333Y-78811476D01*
X114546095Y-78859095D01*
X115498476Y-78668619D02*
X115546095Y-78621000D01*
X115641333Y-78573380D01*
X115879428Y-78573380D01*
X115974666Y-78621000D01*
X116022285Y-78668619D01*
X116069904Y-78763857D01*
X116069904Y-78859095D01*
X116022285Y-79001952D01*
X115450857Y-79573380D01*
X116069904Y-79573380D01*
X114339998Y-81337380D02*
X113768569Y-81337380D01*
X114054284Y-81337380D02*
X114054284Y-80337380D01*
X113959045Y-80480238D01*
X113863807Y-80575476D01*
X113768569Y-80623095D01*
G04 #@! TO.C,D13*
X129333426Y-83212380D02*
X129333426Y-82212380D01*
X129571521Y-82212380D01*
X129714378Y-82260000D01*
X129809616Y-82355238D01*
X129857235Y-82450476D01*
X129904854Y-82640952D01*
X129904854Y-82783809D01*
X129857235Y-82974285D01*
X129809616Y-83069523D01*
X129714378Y-83164761D01*
X129571521Y-83212380D01*
X129333426Y-83212380D01*
X130857235Y-83212380D02*
X130285807Y-83212380D01*
X130571521Y-83212380D02*
X130571521Y-82212380D01*
X130476283Y-82355238D01*
X130381045Y-82450476D01*
X130285807Y-82498095D01*
X131190569Y-82212380D02*
X131809616Y-82212380D01*
X131476283Y-82593333D01*
X131619140Y-82593333D01*
X131714378Y-82640952D01*
X131761997Y-82688571D01*
X131809616Y-82783809D01*
X131809616Y-83021904D01*
X131761997Y-83117142D01*
X131714378Y-83164761D01*
X131619140Y-83212380D01*
X131333426Y-83212380D01*
X131238188Y-83164761D01*
X131190569Y-83117142D01*
X134333426Y-81337380D02*
X133761997Y-81337380D01*
X134047712Y-81337380D02*
X134047712Y-80337380D01*
X133952473Y-80480238D01*
X133857235Y-80575476D01*
X133761997Y-80623095D01*
G04 #@! TO.C,D14*
X153979714Y-79573380D02*
X153979714Y-78573380D01*
X154217809Y-78573380D01*
X154360666Y-78621000D01*
X154455904Y-78716238D01*
X154503523Y-78811476D01*
X154551142Y-79001952D01*
X154551142Y-79144809D01*
X154503523Y-79335285D01*
X154455904Y-79430523D01*
X154360666Y-79525761D01*
X154217809Y-79573380D01*
X153979714Y-79573380D01*
X155503523Y-79573380D02*
X154932095Y-79573380D01*
X155217809Y-79573380D02*
X155217809Y-78573380D01*
X155122571Y-78716238D01*
X155027333Y-78811476D01*
X154932095Y-78859095D01*
X156360666Y-78906714D02*
X156360666Y-79573380D01*
X156122571Y-78525761D02*
X155884476Y-79240047D01*
X156503523Y-79240047D01*
X154326854Y-81337380D02*
X153755425Y-81337380D01*
X154041140Y-81337380D02*
X154041140Y-80337380D01*
X153945901Y-80480238D01*
X153850663Y-80575476D01*
X153755425Y-80623095D01*
G04 #@! TO.C,D15*
X169320282Y-83212380D02*
X169320282Y-82212380D01*
X169558377Y-82212380D01*
X169701234Y-82260000D01*
X169796472Y-82355238D01*
X169844091Y-82450476D01*
X169891710Y-82640952D01*
X169891710Y-82783809D01*
X169844091Y-82974285D01*
X169796472Y-83069523D01*
X169701234Y-83164761D01*
X169558377Y-83212380D01*
X169320282Y-83212380D01*
X170844091Y-83212380D02*
X170272663Y-83212380D01*
X170558377Y-83212380D02*
X170558377Y-82212380D01*
X170463139Y-82355238D01*
X170367901Y-82450476D01*
X170272663Y-82498095D01*
X171748853Y-82212380D02*
X171272663Y-82212380D01*
X171225044Y-82688571D01*
X171272663Y-82640952D01*
X171367901Y-82593333D01*
X171605996Y-82593333D01*
X171701234Y-82640952D01*
X171748853Y-82688571D01*
X171796472Y-82783809D01*
X171796472Y-83021904D01*
X171748853Y-83117142D01*
X171701234Y-83164761D01*
X171605996Y-83212380D01*
X171367901Y-83212380D01*
X171272663Y-83164761D01*
X171225044Y-83117142D01*
X174320282Y-81337380D02*
X173748853Y-81337380D01*
X174034568Y-81337380D02*
X174034568Y-80337380D01*
X173939329Y-80480238D01*
X173844091Y-80575476D01*
X173748853Y-80623095D01*
G04 #@! TO.C,D16*
X193857714Y-79573380D02*
X193857714Y-78573380D01*
X194095809Y-78573380D01*
X194238666Y-78621000D01*
X194333904Y-78716238D01*
X194381523Y-78811476D01*
X194429142Y-79001952D01*
X194429142Y-79144809D01*
X194381523Y-79335285D01*
X194333904Y-79430523D01*
X194238666Y-79525761D01*
X194095809Y-79573380D01*
X193857714Y-79573380D01*
X195381523Y-79573380D02*
X194810095Y-79573380D01*
X195095809Y-79573380D02*
X195095809Y-78573380D01*
X195000571Y-78716238D01*
X194905333Y-78811476D01*
X194810095Y-78859095D01*
X196238666Y-78573380D02*
X196048190Y-78573380D01*
X195952952Y-78621000D01*
X195905333Y-78668619D01*
X195810095Y-78811476D01*
X195762476Y-79001952D01*
X195762476Y-79382904D01*
X195810095Y-79478142D01*
X195857714Y-79525761D01*
X195952952Y-79573380D01*
X196143428Y-79573380D01*
X196238666Y-79525761D01*
X196286285Y-79478142D01*
X196333904Y-79382904D01*
X196333904Y-79144809D01*
X196286285Y-79049571D01*
X196238666Y-79001952D01*
X196143428Y-78954333D01*
X195952952Y-78954333D01*
X195857714Y-79001952D01*
X195810095Y-79049571D01*
X195762476Y-79144809D01*
X194313714Y-81337380D02*
X193742285Y-81337380D01*
X194028000Y-81337380D02*
X194028000Y-80337380D01*
X193932761Y-80480238D01*
X193837523Y-80575476D01*
X193742285Y-80623095D01*
G04 #@! TO.C,D17*
X183979714Y-92077380D02*
X183979714Y-91077380D01*
X184217809Y-91077380D01*
X184360666Y-91125000D01*
X184455904Y-91220238D01*
X184503523Y-91315476D01*
X184551142Y-91505952D01*
X184551142Y-91648809D01*
X184503523Y-91839285D01*
X184455904Y-91934523D01*
X184360666Y-92029761D01*
X184217809Y-92077380D01*
X183979714Y-92077380D01*
X185503523Y-92077380D02*
X184932095Y-92077380D01*
X185217809Y-92077380D02*
X185217809Y-91077380D01*
X185122571Y-91220238D01*
X185027333Y-91315476D01*
X184932095Y-91363095D01*
X185836857Y-91077380D02*
X186503523Y-91077380D01*
X186074952Y-92077380D01*
X181979714Y-93952380D02*
X181408285Y-93952380D01*
X181694000Y-93952380D02*
X181694000Y-92952380D01*
X181598761Y-93095238D01*
X181503523Y-93190476D01*
X181408285Y-93238095D01*
G04 #@! TO.C,D18*
X153979714Y-96210380D02*
X153979714Y-95210380D01*
X154217809Y-95210380D01*
X154360666Y-95258000D01*
X154455904Y-95353238D01*
X154503523Y-95448476D01*
X154551142Y-95638952D01*
X154551142Y-95781809D01*
X154503523Y-95972285D01*
X154455904Y-96067523D01*
X154360666Y-96162761D01*
X154217809Y-96210380D01*
X153979714Y-96210380D01*
X155503523Y-96210380D02*
X154932095Y-96210380D01*
X155217809Y-96210380D02*
X155217809Y-95210380D01*
X155122571Y-95353238D01*
X155027333Y-95448476D01*
X154932095Y-95496095D01*
X156074952Y-95638952D02*
X155979714Y-95591333D01*
X155932095Y-95543714D01*
X155884476Y-95448476D01*
X155884476Y-95400857D01*
X155932095Y-95305619D01*
X155979714Y-95258000D01*
X156074952Y-95210380D01*
X156265428Y-95210380D01*
X156360666Y-95258000D01*
X156408285Y-95305619D01*
X156455904Y-95400857D01*
X156455904Y-95448476D01*
X156408285Y-95543714D01*
X156360666Y-95591333D01*
X156265428Y-95638952D01*
X156074952Y-95638952D01*
X155979714Y-95686571D01*
X155932095Y-95734190D01*
X155884476Y-95829428D01*
X155884476Y-96019904D01*
X155932095Y-96115142D01*
X155979714Y-96162761D01*
X156074952Y-96210380D01*
X156265428Y-96210380D01*
X156360666Y-96162761D01*
X156408285Y-96115142D01*
X156455904Y-96019904D01*
X156455904Y-95829428D01*
X156408285Y-95734190D01*
X156360666Y-95686571D01*
X156265428Y-95638952D01*
X156551714Y-94319380D02*
X155980285Y-94319380D01*
X156266000Y-94319380D02*
X156266000Y-93319380D01*
X156170761Y-93462238D01*
X156075523Y-93557476D01*
X155980285Y-93605095D01*
G04 #@! TO.C,D19*
X133659714Y-92190380D02*
X133659714Y-91190380D01*
X133897809Y-91190380D01*
X134040666Y-91238000D01*
X134135904Y-91333238D01*
X134183523Y-91428476D01*
X134231142Y-91618952D01*
X134231142Y-91761809D01*
X134183523Y-91952285D01*
X134135904Y-92047523D01*
X134040666Y-92142761D01*
X133897809Y-92190380D01*
X133659714Y-92190380D01*
X135183523Y-92190380D02*
X134612095Y-92190380D01*
X134897809Y-92190380D02*
X134897809Y-91190380D01*
X134802571Y-91333238D01*
X134707333Y-91428476D01*
X134612095Y-91476095D01*
X135659714Y-92190380D02*
X135850190Y-92190380D01*
X135945428Y-92142761D01*
X135993047Y-92095142D01*
X136088285Y-91952285D01*
X136135904Y-91761809D01*
X136135904Y-91380857D01*
X136088285Y-91285619D01*
X136040666Y-91238000D01*
X135945428Y-91190380D01*
X135754952Y-91190380D01*
X135659714Y-91238000D01*
X135612095Y-91285619D01*
X135564476Y-91380857D01*
X135564476Y-91618952D01*
X135612095Y-91714190D01*
X135659714Y-91761809D01*
X135754952Y-91809428D01*
X135945428Y-91809428D01*
X136040666Y-91761809D01*
X136088285Y-91714190D01*
X136135904Y-91618952D01*
X131659714Y-94065380D02*
X131088285Y-94065380D01*
X131374000Y-94065380D02*
X131374000Y-93065380D01*
X131278761Y-93208238D01*
X131183523Y-93303476D01*
X131088285Y-93351095D01*
G04 #@! TO.C,D20*
X103560714Y-95829380D02*
X103560714Y-94829380D01*
X103798809Y-94829380D01*
X103941666Y-94877000D01*
X104036904Y-94972238D01*
X104084523Y-95067476D01*
X104132142Y-95257952D01*
X104132142Y-95400809D01*
X104084523Y-95591285D01*
X104036904Y-95686523D01*
X103941666Y-95781761D01*
X103798809Y-95829380D01*
X103560714Y-95829380D01*
X104513095Y-94924619D02*
X104560714Y-94877000D01*
X104655952Y-94829380D01*
X104894047Y-94829380D01*
X104989285Y-94877000D01*
X105036904Y-94924619D01*
X105084523Y-95019857D01*
X105084523Y-95115095D01*
X105036904Y-95257952D01*
X104465476Y-95829380D01*
X105084523Y-95829380D01*
X105703571Y-94829380D02*
X105798809Y-94829380D01*
X105894047Y-94877000D01*
X105941666Y-94924619D01*
X105989285Y-95019857D01*
X106036904Y-95210333D01*
X106036904Y-95448428D01*
X105989285Y-95638904D01*
X105941666Y-95734142D01*
X105894047Y-95781761D01*
X105798809Y-95829380D01*
X105703571Y-95829380D01*
X105608333Y-95781761D01*
X105560714Y-95734142D01*
X105513095Y-95638904D01*
X105465476Y-95448428D01*
X105465476Y-95210333D01*
X105513095Y-95019857D01*
X105560714Y-94924619D01*
X105608333Y-94877000D01*
X105703571Y-94829380D01*
X105977714Y-93952380D02*
X105406285Y-93952380D01*
X105692000Y-93952380D02*
X105692000Y-92952380D01*
X105596761Y-93095238D01*
X105501523Y-93190476D01*
X105406285Y-93238095D01*
G04 #@! TO.C,D21*
X82097714Y-92190380D02*
X82097714Y-91190380D01*
X82335809Y-91190380D01*
X82478666Y-91238000D01*
X82573904Y-91333238D01*
X82621523Y-91428476D01*
X82669142Y-91618952D01*
X82669142Y-91761809D01*
X82621523Y-91952285D01*
X82573904Y-92047523D01*
X82478666Y-92142761D01*
X82335809Y-92190380D01*
X82097714Y-92190380D01*
X83050095Y-91285619D02*
X83097714Y-91238000D01*
X83192952Y-91190380D01*
X83431047Y-91190380D01*
X83526285Y-91238000D01*
X83573904Y-91285619D01*
X83621523Y-91380857D01*
X83621523Y-91476095D01*
X83573904Y-91618952D01*
X83002476Y-92190380D01*
X83621523Y-92190380D01*
X84573904Y-92190380D02*
X84002476Y-92190380D01*
X84288190Y-92190380D02*
X84288190Y-91190380D01*
X84192952Y-91333238D01*
X84097714Y-91428476D01*
X84002476Y-91476095D01*
X80097714Y-94065380D02*
X79526285Y-94065380D01*
X79812000Y-94065380D02*
X79812000Y-93065380D01*
X79716761Y-93208238D01*
X79621523Y-93303476D01*
X79526285Y-93351095D01*
G04 #@! TO.C,D22*
X87177714Y-120848380D02*
X87177714Y-119848380D01*
X87415809Y-119848380D01*
X87558666Y-119896000D01*
X87653904Y-119991238D01*
X87701523Y-120086476D01*
X87749142Y-120276952D01*
X87749142Y-120419809D01*
X87701523Y-120610285D01*
X87653904Y-120705523D01*
X87558666Y-120800761D01*
X87415809Y-120848380D01*
X87177714Y-120848380D01*
X88130095Y-119943619D02*
X88177714Y-119896000D01*
X88272952Y-119848380D01*
X88511047Y-119848380D01*
X88606285Y-119896000D01*
X88653904Y-119943619D01*
X88701523Y-120038857D01*
X88701523Y-120134095D01*
X88653904Y-120276952D01*
X88082476Y-120848380D01*
X88701523Y-120848380D01*
X89082476Y-119943619D02*
X89130095Y-119896000D01*
X89225333Y-119848380D01*
X89463428Y-119848380D01*
X89558666Y-119896000D01*
X89606285Y-119943619D01*
X89653904Y-120038857D01*
X89653904Y-120134095D01*
X89606285Y-120276952D01*
X89034857Y-120848380D01*
X89653904Y-120848380D01*
X87633714Y-122577425D02*
X87062285Y-122577425D01*
X87348000Y-122577425D02*
X87348000Y-121577425D01*
X87252761Y-121720283D01*
X87157523Y-121815521D01*
X87062285Y-121863140D01*
G04 #@! TO.C,D23*
X108090214Y-124452425D02*
X108090214Y-123452425D01*
X108328309Y-123452425D01*
X108471166Y-123500045D01*
X108566404Y-123595283D01*
X108614023Y-123690521D01*
X108661642Y-123880997D01*
X108661642Y-124023854D01*
X108614023Y-124214330D01*
X108566404Y-124309568D01*
X108471166Y-124404806D01*
X108328309Y-124452425D01*
X108090214Y-124452425D01*
X109042595Y-123547664D02*
X109090214Y-123500045D01*
X109185452Y-123452425D01*
X109423547Y-123452425D01*
X109518785Y-123500045D01*
X109566404Y-123547664D01*
X109614023Y-123642902D01*
X109614023Y-123738140D01*
X109566404Y-123880997D01*
X108994976Y-124452425D01*
X109614023Y-124452425D01*
X109947357Y-123452425D02*
X110566404Y-123452425D01*
X110233071Y-123833378D01*
X110375928Y-123833378D01*
X110471166Y-123880997D01*
X110518785Y-123928616D01*
X110566404Y-124023854D01*
X110566404Y-124261949D01*
X110518785Y-124357187D01*
X110471166Y-124404806D01*
X110375928Y-124452425D01*
X110090214Y-124452425D01*
X109994976Y-124404806D01*
X109947357Y-124357187D01*
X113090214Y-122577425D02*
X112518785Y-122577425D01*
X112804500Y-122577425D02*
X112804500Y-121577425D01*
X112709261Y-121720283D01*
X112614023Y-121815521D01*
X112518785Y-121863140D01*
G04 #@! TO.C,D24*
X138104714Y-120848380D02*
X138104714Y-119848380D01*
X138342809Y-119848380D01*
X138485666Y-119896000D01*
X138580904Y-119991238D01*
X138628523Y-120086476D01*
X138676142Y-120276952D01*
X138676142Y-120419809D01*
X138628523Y-120610285D01*
X138580904Y-120705523D01*
X138485666Y-120800761D01*
X138342809Y-120848380D01*
X138104714Y-120848380D01*
X139057095Y-119943619D02*
X139104714Y-119896000D01*
X139199952Y-119848380D01*
X139438047Y-119848380D01*
X139533285Y-119896000D01*
X139580904Y-119943619D01*
X139628523Y-120038857D01*
X139628523Y-120134095D01*
X139580904Y-120276952D01*
X139009476Y-120848380D01*
X139628523Y-120848380D01*
X140485666Y-120181714D02*
X140485666Y-120848380D01*
X140247571Y-119800761D02*
X140009476Y-120515047D01*
X140628523Y-120515047D01*
X138546714Y-122577425D02*
X137975285Y-122577425D01*
X138261000Y-122577425D02*
X138261000Y-121577425D01*
X138165761Y-121720283D01*
X138070523Y-121815521D01*
X137975285Y-121863140D01*
G04 #@! TO.C,D25*
X159003214Y-124452425D02*
X159003214Y-123452425D01*
X159241309Y-123452425D01*
X159384166Y-123500045D01*
X159479404Y-123595283D01*
X159527023Y-123690521D01*
X159574642Y-123880997D01*
X159574642Y-124023854D01*
X159527023Y-124214330D01*
X159479404Y-124309568D01*
X159384166Y-124404806D01*
X159241309Y-124452425D01*
X159003214Y-124452425D01*
X159955595Y-123547664D02*
X160003214Y-123500045D01*
X160098452Y-123452425D01*
X160336547Y-123452425D01*
X160431785Y-123500045D01*
X160479404Y-123547664D01*
X160527023Y-123642902D01*
X160527023Y-123738140D01*
X160479404Y-123880997D01*
X159907976Y-124452425D01*
X160527023Y-124452425D01*
X161431785Y-123452425D02*
X160955595Y-123452425D01*
X160907976Y-123928616D01*
X160955595Y-123880997D01*
X161050833Y-123833378D01*
X161288928Y-123833378D01*
X161384166Y-123880997D01*
X161431785Y-123928616D01*
X161479404Y-124023854D01*
X161479404Y-124261949D01*
X161431785Y-124357187D01*
X161384166Y-124404806D01*
X161288928Y-124452425D01*
X161050833Y-124452425D01*
X160955595Y-124404806D01*
X160907976Y-124357187D01*
X164003214Y-122577425D02*
X163431785Y-122577425D01*
X163717500Y-122577425D02*
X163717500Y-121577425D01*
X163622261Y-121720283D01*
X163527023Y-121815521D01*
X163431785Y-121863140D01*
G04 #@! TO.C,D26*
X184459714Y-124452425D02*
X184459714Y-123452425D01*
X184697809Y-123452425D01*
X184840666Y-123500045D01*
X184935904Y-123595283D01*
X184983523Y-123690521D01*
X185031142Y-123880997D01*
X185031142Y-124023854D01*
X184983523Y-124214330D01*
X184935904Y-124309568D01*
X184840666Y-124404806D01*
X184697809Y-124452425D01*
X184459714Y-124452425D01*
X185412095Y-123547664D02*
X185459714Y-123500045D01*
X185554952Y-123452425D01*
X185793047Y-123452425D01*
X185888285Y-123500045D01*
X185935904Y-123547664D01*
X185983523Y-123642902D01*
X185983523Y-123738140D01*
X185935904Y-123880997D01*
X185364476Y-124452425D01*
X185983523Y-124452425D01*
X186840666Y-123452425D02*
X186650190Y-123452425D01*
X186554952Y-123500045D01*
X186507333Y-123547664D01*
X186412095Y-123690521D01*
X186364476Y-123880997D01*
X186364476Y-124261949D01*
X186412095Y-124357187D01*
X186459714Y-124404806D01*
X186554952Y-124452425D01*
X186745428Y-124452425D01*
X186840666Y-124404806D01*
X186888285Y-124357187D01*
X186935904Y-124261949D01*
X186935904Y-124023854D01*
X186888285Y-123928616D01*
X186840666Y-123880997D01*
X186745428Y-123833378D01*
X186554952Y-123833378D01*
X186459714Y-123880997D01*
X186412095Y-123928616D01*
X186364476Y-124023854D01*
X189459714Y-122577425D02*
X188888285Y-122577425D01*
X189174000Y-122577425D02*
X189174000Y-121577425D01*
X189078761Y-121720283D01*
X188983523Y-121815521D01*
X188888285Y-121863140D01*
G04 #@! TO.C,ENTER1*
X256659380Y-120959571D02*
X256992714Y-120959571D01*
X257135571Y-121483380D02*
X256659380Y-121483380D01*
X256659380Y-120483380D01*
X257135571Y-120483380D01*
X257564142Y-121483380D02*
X257564142Y-120483380D01*
X258135571Y-121483380D01*
X258135571Y-120483380D01*
X258468904Y-120483380D02*
X259040333Y-120483380D01*
X258754619Y-121483380D02*
X258754619Y-120483380D01*
X259373666Y-120959571D02*
X259707000Y-120959571D01*
X259849857Y-121483380D02*
X259373666Y-121483380D01*
X259373666Y-120483380D01*
X259849857Y-120483380D01*
X260849857Y-121483380D02*
X260516523Y-121007190D01*
X260278428Y-121483380D02*
X260278428Y-120483380D01*
X260659380Y-120483380D01*
X260754619Y-120531000D01*
X260802238Y-120578619D01*
X260849857Y-120673857D01*
X260849857Y-120816714D01*
X260802238Y-120911952D01*
X260754619Y-120959571D01*
X260659380Y-121007190D01*
X260278428Y-121007190D01*
X261802238Y-121483380D02*
X261230809Y-121483380D01*
X261516523Y-121483380D02*
X261516523Y-120483380D01*
X261421285Y-120626238D01*
X261326047Y-120721476D01*
X261230809Y-120769095D01*
G04 #@! TO.C,R1*
X53919380Y-64936666D02*
X53443190Y-65270000D01*
X53919380Y-65508095D02*
X52919380Y-65508095D01*
X52919380Y-65127142D01*
X52967000Y-65031904D01*
X53014619Y-64984285D01*
X53109857Y-64936666D01*
X53252714Y-64936666D01*
X53347952Y-64984285D01*
X53395571Y-65031904D01*
X53443190Y-65127142D01*
X53443190Y-65508095D01*
X53919380Y-63984285D02*
X53919380Y-64555714D01*
X53919380Y-64270000D02*
X52919380Y-64270000D01*
X53062238Y-64365238D01*
X53157476Y-64460476D01*
X53205095Y-64555714D01*
G04 #@! TO.C,R2*
X55697380Y-57062666D02*
X55221190Y-57396000D01*
X55697380Y-57634095D02*
X54697380Y-57634095D01*
X54697380Y-57253142D01*
X54745000Y-57157904D01*
X54792619Y-57110285D01*
X54887857Y-57062666D01*
X55030714Y-57062666D01*
X55125952Y-57110285D01*
X55173571Y-57157904D01*
X55221190Y-57253142D01*
X55221190Y-57634095D01*
X54792619Y-56681714D02*
X54745000Y-56634095D01*
X54697380Y-56538857D01*
X54697380Y-56300761D01*
X54745000Y-56205523D01*
X54792619Y-56157904D01*
X54887857Y-56110285D01*
X54983095Y-56110285D01*
X55125952Y-56157904D01*
X55697380Y-56729333D01*
X55697380Y-56110285D01*
G04 #@! TO.C,R3*
X47696380Y-60110666D02*
X47220190Y-60444000D01*
X47696380Y-60682095D02*
X46696380Y-60682095D01*
X46696380Y-60301142D01*
X46744000Y-60205904D01*
X46791619Y-60158285D01*
X46886857Y-60110666D01*
X47029714Y-60110666D01*
X47124952Y-60158285D01*
X47172571Y-60205904D01*
X47220190Y-60301142D01*
X47220190Y-60682095D01*
X46696380Y-59777333D02*
X46696380Y-59158285D01*
X47077333Y-59491619D01*
X47077333Y-59348761D01*
X47124952Y-59253523D01*
X47172571Y-59205904D01*
X47267809Y-59158285D01*
X47505904Y-59158285D01*
X47601142Y-59205904D01*
X47648761Y-59253523D01*
X47696380Y-59348761D01*
X47696380Y-59634476D01*
X47648761Y-59729714D01*
X47601142Y-59777333D01*
G04 #@! TO.C,R4*
X248762333Y-102178380D02*
X248429000Y-101702190D01*
X248190904Y-102178380D02*
X248190904Y-101178380D01*
X248571857Y-101178380D01*
X248667095Y-101226000D01*
X248714714Y-101273619D01*
X248762333Y-101368857D01*
X248762333Y-101511714D01*
X248714714Y-101606952D01*
X248667095Y-101654571D01*
X248571857Y-101702190D01*
X248190904Y-101702190D01*
X249619476Y-101511714D02*
X249619476Y-102178380D01*
X249381380Y-101130761D02*
X249143285Y-101845047D01*
X249762333Y-101845047D01*
G04 #@! TO.C,R5*
X248762333Y-91258380D02*
X248429000Y-90782190D01*
X248190904Y-91258380D02*
X248190904Y-90258380D01*
X248571857Y-90258380D01*
X248667095Y-90306000D01*
X248714714Y-90353619D01*
X248762333Y-90448857D01*
X248762333Y-90591714D01*
X248714714Y-90686952D01*
X248667095Y-90734571D01*
X248571857Y-90782190D01*
X248190904Y-90782190D01*
X249667095Y-90258380D02*
X249190904Y-90258380D01*
X249143285Y-90734571D01*
X249190904Y-90686952D01*
X249286142Y-90639333D01*
X249524238Y-90639333D01*
X249619476Y-90686952D01*
X249667095Y-90734571D01*
X249714714Y-90829809D01*
X249714714Y-91067904D01*
X249667095Y-91163142D01*
X249619476Y-91210761D01*
X249524238Y-91258380D01*
X249286142Y-91258380D01*
X249190904Y-91210761D01*
X249143285Y-91163142D01*
G04 #@! TO.C,R6*
X95829380Y-57824666D02*
X95353190Y-58158000D01*
X95829380Y-58396095D02*
X94829380Y-58396095D01*
X94829380Y-58015142D01*
X94877000Y-57919904D01*
X94924619Y-57872285D01*
X95019857Y-57824666D01*
X95162714Y-57824666D01*
X95257952Y-57872285D01*
X95305571Y-57919904D01*
X95353190Y-58015142D01*
X95353190Y-58396095D01*
X94829380Y-56967523D02*
X94829380Y-57158000D01*
X94877000Y-57253238D01*
X94924619Y-57300857D01*
X95067476Y-57396095D01*
X95257952Y-57443714D01*
X95638904Y-57443714D01*
X95734142Y-57396095D01*
X95781761Y-57348476D01*
X95829380Y-57253238D01*
X95829380Y-57062761D01*
X95781761Y-56967523D01*
X95734142Y-56919904D01*
X95638904Y-56872285D01*
X95400809Y-56872285D01*
X95305571Y-56919904D01*
X95257952Y-56967523D01*
X95210333Y-57062761D01*
X95210333Y-57253238D01*
X95257952Y-57348476D01*
X95305571Y-57396095D01*
X95400809Y-57443714D01*
G04 #@! TO.C,R7*
X94051380Y-57824666D02*
X93575190Y-58158000D01*
X94051380Y-58396095D02*
X93051380Y-58396095D01*
X93051380Y-58015142D01*
X93099000Y-57919904D01*
X93146619Y-57872285D01*
X93241857Y-57824666D01*
X93384714Y-57824666D01*
X93479952Y-57872285D01*
X93527571Y-57919904D01*
X93575190Y-58015142D01*
X93575190Y-58396095D01*
X93051380Y-57491333D02*
X93051380Y-56824666D01*
X94051380Y-57253238D01*
G04 #@! TO.C,R8*
X58872380Y-73572666D02*
X58396190Y-73906000D01*
X58872380Y-74144095D02*
X57872380Y-74144095D01*
X57872380Y-73763142D01*
X57920000Y-73667904D01*
X57967619Y-73620285D01*
X58062857Y-73572666D01*
X58205714Y-73572666D01*
X58300952Y-73620285D01*
X58348571Y-73667904D01*
X58396190Y-73763142D01*
X58396190Y-74144095D01*
X58300952Y-73001238D02*
X58253333Y-73096476D01*
X58205714Y-73144095D01*
X58110476Y-73191714D01*
X58062857Y-73191714D01*
X57967619Y-73144095D01*
X57920000Y-73096476D01*
X57872380Y-73001238D01*
X57872380Y-72810761D01*
X57920000Y-72715523D01*
X57967619Y-72667904D01*
X58062857Y-72620285D01*
X58110476Y-72620285D01*
X58205714Y-72667904D01*
X58253333Y-72715523D01*
X58300952Y-72810761D01*
X58300952Y-73001238D01*
X58348571Y-73096476D01*
X58396190Y-73144095D01*
X58491428Y-73191714D01*
X58681904Y-73191714D01*
X58777142Y-73144095D01*
X58824761Y-73096476D01*
X58872380Y-73001238D01*
X58872380Y-72810761D01*
X58824761Y-72715523D01*
X58777142Y-72667904D01*
X58681904Y-72620285D01*
X58491428Y-72620285D01*
X58396190Y-72667904D01*
X58348571Y-72715523D01*
X58300952Y-72810761D01*
G04 #@! TO.C,R9*
X78811380Y-73445666D02*
X78335190Y-73779000D01*
X78811380Y-74017095D02*
X77811380Y-74017095D01*
X77811380Y-73636142D01*
X77859000Y-73540904D01*
X77906619Y-73493285D01*
X78001857Y-73445666D01*
X78144714Y-73445666D01*
X78239952Y-73493285D01*
X78287571Y-73540904D01*
X78335190Y-73636142D01*
X78335190Y-74017095D01*
X78811380Y-72969476D02*
X78811380Y-72779000D01*
X78763761Y-72683761D01*
X78716142Y-72636142D01*
X78573285Y-72540904D01*
X78382809Y-72493285D01*
X78001857Y-72493285D01*
X77906619Y-72540904D01*
X77859000Y-72588523D01*
X77811380Y-72683761D01*
X77811380Y-72874238D01*
X77859000Y-72969476D01*
X77906619Y-73017095D01*
X78001857Y-73064714D01*
X78239952Y-73064714D01*
X78335190Y-73017095D01*
X78382809Y-72969476D01*
X78430428Y-72874238D01*
X78430428Y-72683761D01*
X78382809Y-72588523D01*
X78335190Y-72540904D01*
X78239952Y-72493285D01*
G04 #@! TO.C,R10*
X98496380Y-73667857D02*
X98020190Y-74001190D01*
X98496380Y-74239285D02*
X97496380Y-74239285D01*
X97496380Y-73858333D01*
X97544000Y-73763095D01*
X97591619Y-73715476D01*
X97686857Y-73667857D01*
X97829714Y-73667857D01*
X97924952Y-73715476D01*
X97972571Y-73763095D01*
X98020190Y-73858333D01*
X98020190Y-74239285D01*
X98496380Y-72715476D02*
X98496380Y-73286904D01*
X98496380Y-73001190D02*
X97496380Y-73001190D01*
X97639238Y-73096428D01*
X97734476Y-73191666D01*
X97782095Y-73286904D01*
X97496380Y-72096428D02*
X97496380Y-72001190D01*
X97544000Y-71905952D01*
X97591619Y-71858333D01*
X97686857Y-71810714D01*
X97877333Y-71763095D01*
X98115428Y-71763095D01*
X98305904Y-71810714D01*
X98401142Y-71858333D01*
X98448761Y-71905952D01*
X98496380Y-72001190D01*
X98496380Y-72096428D01*
X98448761Y-72191666D01*
X98401142Y-72239285D01*
X98305904Y-72286904D01*
X98115428Y-72334523D01*
X97877333Y-72334523D01*
X97686857Y-72286904D01*
X97591619Y-72239285D01*
X97544000Y-72191666D01*
X97496380Y-72096428D01*
G04 #@! TO.C,R11*
X102688380Y-74048857D02*
X102212190Y-74382190D01*
X102688380Y-74620285D02*
X101688380Y-74620285D01*
X101688380Y-74239333D01*
X101736000Y-74144095D01*
X101783619Y-74096476D01*
X101878857Y-74048857D01*
X102021714Y-74048857D01*
X102116952Y-74096476D01*
X102164571Y-74144095D01*
X102212190Y-74239333D01*
X102212190Y-74620285D01*
X102688380Y-73096476D02*
X102688380Y-73667904D01*
X102688380Y-73382190D02*
X101688380Y-73382190D01*
X101831238Y-73477428D01*
X101926476Y-73572666D01*
X101974095Y-73667904D01*
X102688380Y-72144095D02*
X102688380Y-72715523D01*
X102688380Y-72429809D02*
X101688380Y-72429809D01*
X101831238Y-72525047D01*
X101926476Y-72620285D01*
X101974095Y-72715523D01*
G04 #@! TO.C,R12*
X138882380Y-73794857D02*
X138406190Y-74128190D01*
X138882380Y-74366285D02*
X137882380Y-74366285D01*
X137882380Y-73985333D01*
X137930000Y-73890095D01*
X137977619Y-73842476D01*
X138072857Y-73794857D01*
X138215714Y-73794857D01*
X138310952Y-73842476D01*
X138358571Y-73890095D01*
X138406190Y-73985333D01*
X138406190Y-74366285D01*
X138882380Y-72842476D02*
X138882380Y-73413904D01*
X138882380Y-73128190D02*
X137882380Y-73128190D01*
X138025238Y-73223428D01*
X138120476Y-73318666D01*
X138168095Y-73413904D01*
X137977619Y-72461523D02*
X137930000Y-72413904D01*
X137882380Y-72318666D01*
X137882380Y-72080571D01*
X137930000Y-71985333D01*
X137977619Y-71937714D01*
X138072857Y-71890095D01*
X138168095Y-71890095D01*
X138310952Y-71937714D01*
X138882380Y-72509142D01*
X138882380Y-71890095D01*
G04 #@! TO.C,R13*
X159075380Y-73794857D02*
X158599190Y-74128190D01*
X159075380Y-74366285D02*
X158075380Y-74366285D01*
X158075380Y-73985333D01*
X158123000Y-73890095D01*
X158170619Y-73842476D01*
X158265857Y-73794857D01*
X158408714Y-73794857D01*
X158503952Y-73842476D01*
X158551571Y-73890095D01*
X158599190Y-73985333D01*
X158599190Y-74366285D01*
X159075380Y-72842476D02*
X159075380Y-73413904D01*
X159075380Y-73128190D02*
X158075380Y-73128190D01*
X158218238Y-73223428D01*
X158313476Y-73318666D01*
X158361095Y-73413904D01*
X158075380Y-72509142D02*
X158075380Y-71890095D01*
X158456333Y-72223428D01*
X158456333Y-72080571D01*
X158503952Y-71985333D01*
X158551571Y-71937714D01*
X158646809Y-71890095D01*
X158884904Y-71890095D01*
X158980142Y-71937714D01*
X159027761Y-71985333D01*
X159075380Y-72080571D01*
X159075380Y-72366285D01*
X159027761Y-72461523D01*
X158980142Y-72509142D01*
G04 #@! TO.C,R14*
X162632380Y-73794857D02*
X162156190Y-74128190D01*
X162632380Y-74366285D02*
X161632380Y-74366285D01*
X161632380Y-73985333D01*
X161680000Y-73890095D01*
X161727619Y-73842476D01*
X161822857Y-73794857D01*
X161965714Y-73794857D01*
X162060952Y-73842476D01*
X162108571Y-73890095D01*
X162156190Y-73985333D01*
X162156190Y-74366285D01*
X162632380Y-72842476D02*
X162632380Y-73413904D01*
X162632380Y-73128190D02*
X161632380Y-73128190D01*
X161775238Y-73223428D01*
X161870476Y-73318666D01*
X161918095Y-73413904D01*
X161965714Y-71985333D02*
X162632380Y-71985333D01*
X161584761Y-72223428D02*
X162299047Y-72461523D01*
X162299047Y-71842476D01*
G04 #@! TO.C,R15*
X183206380Y-73785857D02*
X182730190Y-74119190D01*
X183206380Y-74357285D02*
X182206380Y-74357285D01*
X182206380Y-73976333D01*
X182254000Y-73881095D01*
X182301619Y-73833476D01*
X182396857Y-73785857D01*
X182539714Y-73785857D01*
X182634952Y-73833476D01*
X182682571Y-73881095D01*
X182730190Y-73976333D01*
X182730190Y-74357285D01*
X183206380Y-72833476D02*
X183206380Y-73404904D01*
X183206380Y-73119190D02*
X182206380Y-73119190D01*
X182349238Y-73214428D01*
X182444476Y-73309666D01*
X182492095Y-73404904D01*
X182206380Y-71928714D02*
X182206380Y-72404904D01*
X182682571Y-72452523D01*
X182634952Y-72404904D01*
X182587333Y-72309666D01*
X182587333Y-72071571D01*
X182634952Y-71976333D01*
X182682571Y-71928714D01*
X182777809Y-71881095D01*
X183015904Y-71881095D01*
X183111142Y-71928714D01*
X183158761Y-71976333D01*
X183206380Y-72071571D01*
X183206380Y-72309666D01*
X183158761Y-72404904D01*
X183111142Y-72452523D01*
G04 #@! TO.C,R16*
X264533142Y-117927380D02*
X264199809Y-117451190D01*
X263961714Y-117927380D02*
X263961714Y-116927380D01*
X264342666Y-116927380D01*
X264437904Y-116975000D01*
X264485523Y-117022619D01*
X264533142Y-117117857D01*
X264533142Y-117260714D01*
X264485523Y-117355952D01*
X264437904Y-117403571D01*
X264342666Y-117451190D01*
X263961714Y-117451190D01*
X265485523Y-117927380D02*
X264914095Y-117927380D01*
X265199809Y-117927380D02*
X265199809Y-116927380D01*
X265104571Y-117070238D01*
X265009333Y-117165476D01*
X264914095Y-117213095D01*
X266342666Y-116927380D02*
X266152190Y-116927380D01*
X266056952Y-116975000D01*
X266009333Y-117022619D01*
X265914095Y-117165476D01*
X265866476Y-117355952D01*
X265866476Y-117736904D01*
X265914095Y-117832142D01*
X265961714Y-117879761D01*
X266056952Y-117927380D01*
X266247428Y-117927380D01*
X266342666Y-117879761D01*
X266390285Y-117832142D01*
X266437904Y-117736904D01*
X266437904Y-117498809D01*
X266390285Y-117403571D01*
X266342666Y-117355952D01*
X266247428Y-117308333D01*
X266056952Y-117308333D01*
X265961714Y-117355952D01*
X265914095Y-117403571D01*
X265866476Y-117498809D01*
G04 #@! TO.C,R17*
X238578380Y-124848857D02*
X238102190Y-125182190D01*
X238578380Y-125420285D02*
X237578380Y-125420285D01*
X237578380Y-125039333D01*
X237626000Y-124944095D01*
X237673619Y-124896476D01*
X237768857Y-124848857D01*
X237911714Y-124848857D01*
X238006952Y-124896476D01*
X238054571Y-124944095D01*
X238102190Y-125039333D01*
X238102190Y-125420285D01*
X238578380Y-123896476D02*
X238578380Y-124467904D01*
X238578380Y-124182190D02*
X237578380Y-124182190D01*
X237721238Y-124277428D01*
X237816476Y-124372666D01*
X237864095Y-124467904D01*
X237578380Y-123563142D02*
X237578380Y-122896476D01*
X238578380Y-123325047D01*
G04 #@! TO.C,R18*
X242260380Y-73159857D02*
X241784190Y-73493190D01*
X242260380Y-73731285D02*
X241260380Y-73731285D01*
X241260380Y-73350333D01*
X241308000Y-73255095D01*
X241355619Y-73207476D01*
X241450857Y-73159857D01*
X241593714Y-73159857D01*
X241688952Y-73207476D01*
X241736571Y-73255095D01*
X241784190Y-73350333D01*
X241784190Y-73731285D01*
X242260380Y-72207476D02*
X242260380Y-72778904D01*
X242260380Y-72493190D02*
X241260380Y-72493190D01*
X241403238Y-72588428D01*
X241498476Y-72683666D01*
X241546095Y-72778904D01*
X241688952Y-71636047D02*
X241641333Y-71731285D01*
X241593714Y-71778904D01*
X241498476Y-71826523D01*
X241450857Y-71826523D01*
X241355619Y-71778904D01*
X241308000Y-71731285D01*
X241260380Y-71636047D01*
X241260380Y-71445571D01*
X241308000Y-71350333D01*
X241355619Y-71302714D01*
X241450857Y-71255095D01*
X241498476Y-71255095D01*
X241593714Y-71302714D01*
X241641333Y-71350333D01*
X241688952Y-71445571D01*
X241688952Y-71636047D01*
X241736571Y-71731285D01*
X241784190Y-71778904D01*
X241879428Y-71826523D01*
X242069904Y-71826523D01*
X242165142Y-71778904D01*
X242212761Y-71731285D01*
X242260380Y-71636047D01*
X242260380Y-71445571D01*
X242212761Y-71350333D01*
X242165142Y-71302714D01*
X242069904Y-71255095D01*
X241879428Y-71255095D01*
X241784190Y-71302714D01*
X241736571Y-71350333D01*
X241688952Y-71445571D01*
G04 #@! TO.C,R19*
X253602142Y-70938380D02*
X253268809Y-70462190D01*
X253030714Y-70938380D02*
X253030714Y-69938380D01*
X253411666Y-69938380D01*
X253506904Y-69986000D01*
X253554523Y-70033619D01*
X253602142Y-70128857D01*
X253602142Y-70271714D01*
X253554523Y-70366952D01*
X253506904Y-70414571D01*
X253411666Y-70462190D01*
X253030714Y-70462190D01*
X254554523Y-70938380D02*
X253983095Y-70938380D01*
X254268809Y-70938380D02*
X254268809Y-69938380D01*
X254173571Y-70081238D01*
X254078333Y-70176476D01*
X253983095Y-70224095D01*
X255030714Y-70938380D02*
X255221190Y-70938380D01*
X255316428Y-70890761D01*
X255364047Y-70843142D01*
X255459285Y-70700285D01*
X255506904Y-70509809D01*
X255506904Y-70128857D01*
X255459285Y-70033619D01*
X255411666Y-69986000D01*
X255316428Y-69938380D01*
X255125952Y-69938380D01*
X255030714Y-69986000D01*
X254983095Y-70033619D01*
X254935476Y-70128857D01*
X254935476Y-70366952D01*
X254983095Y-70462190D01*
X255030714Y-70509809D01*
X255125952Y-70557428D01*
X255316428Y-70557428D01*
X255411666Y-70509809D01*
X255459285Y-70462190D01*
X255506904Y-70366952D01*
G04 #@! TO.C,R20*
X43680142Y-76525380D02*
X43346809Y-76049190D01*
X43108714Y-76525380D02*
X43108714Y-75525380D01*
X43489666Y-75525380D01*
X43584904Y-75573000D01*
X43632523Y-75620619D01*
X43680142Y-75715857D01*
X43680142Y-75858714D01*
X43632523Y-75953952D01*
X43584904Y-76001571D01*
X43489666Y-76049190D01*
X43108714Y-76049190D01*
X44061095Y-75620619D02*
X44108714Y-75573000D01*
X44203952Y-75525380D01*
X44442047Y-75525380D01*
X44537285Y-75573000D01*
X44584904Y-75620619D01*
X44632523Y-75715857D01*
X44632523Y-75811095D01*
X44584904Y-75953952D01*
X44013476Y-76525380D01*
X44632523Y-76525380D01*
X45251571Y-75525380D02*
X45346809Y-75525380D01*
X45442047Y-75573000D01*
X45489666Y-75620619D01*
X45537285Y-75715857D01*
X45584904Y-75906333D01*
X45584904Y-76144428D01*
X45537285Y-76334904D01*
X45489666Y-76430142D01*
X45442047Y-76477761D01*
X45346809Y-76525380D01*
X45251571Y-76525380D01*
X45156333Y-76477761D01*
X45108714Y-76430142D01*
X45061095Y-76334904D01*
X45013476Y-76144428D01*
X45013476Y-75906333D01*
X45061095Y-75715857D01*
X45108714Y-75620619D01*
X45156333Y-75573000D01*
X45251571Y-75525380D01*
G04 #@! TO.C,R21*
X240140142Y-84654380D02*
X239806809Y-84178190D01*
X239568714Y-84654380D02*
X239568714Y-83654380D01*
X239949666Y-83654380D01*
X240044904Y-83702000D01*
X240092523Y-83749619D01*
X240140142Y-83844857D01*
X240140142Y-83987714D01*
X240092523Y-84082952D01*
X240044904Y-84130571D01*
X239949666Y-84178190D01*
X239568714Y-84178190D01*
X240521095Y-83749619D02*
X240568714Y-83702000D01*
X240663952Y-83654380D01*
X240902047Y-83654380D01*
X240997285Y-83702000D01*
X241044904Y-83749619D01*
X241092523Y-83844857D01*
X241092523Y-83940095D01*
X241044904Y-84082952D01*
X240473476Y-84654380D01*
X241092523Y-84654380D01*
X242044904Y-84654380D02*
X241473476Y-84654380D01*
X241759190Y-84654380D02*
X241759190Y-83654380D01*
X241663952Y-83797238D01*
X241568714Y-83892476D01*
X241473476Y-83940095D01*
G04 #@! TO.C,R22*
X240022142Y-90749380D02*
X239688809Y-90273190D01*
X239450714Y-90749380D02*
X239450714Y-89749380D01*
X239831666Y-89749380D01*
X239926904Y-89797000D01*
X239974523Y-89844619D01*
X240022142Y-89939857D01*
X240022142Y-90082714D01*
X239974523Y-90177952D01*
X239926904Y-90225571D01*
X239831666Y-90273190D01*
X239450714Y-90273190D01*
X240403095Y-89844619D02*
X240450714Y-89797000D01*
X240545952Y-89749380D01*
X240784047Y-89749380D01*
X240879285Y-89797000D01*
X240926904Y-89844619D01*
X240974523Y-89939857D01*
X240974523Y-90035095D01*
X240926904Y-90177952D01*
X240355476Y-90749380D01*
X240974523Y-90749380D01*
X241355476Y-89844619D02*
X241403095Y-89797000D01*
X241498333Y-89749380D01*
X241736428Y-89749380D01*
X241831666Y-89797000D01*
X241879285Y-89844619D01*
X241926904Y-89939857D01*
X241926904Y-90035095D01*
X241879285Y-90177952D01*
X241307857Y-90749380D01*
X241926904Y-90749380D01*
G04 #@! TO.C,RV1*
X214478380Y-94829238D02*
X214002190Y-95162571D01*
X214478380Y-95400666D02*
X213478380Y-95400666D01*
X213478380Y-95019714D01*
X213526000Y-94924476D01*
X213573619Y-94876857D01*
X213668857Y-94829238D01*
X213811714Y-94829238D01*
X213906952Y-94876857D01*
X213954571Y-94924476D01*
X214002190Y-95019714D01*
X214002190Y-95400666D01*
X213478380Y-94543523D02*
X214478380Y-94210190D01*
X213478380Y-93876857D01*
X214478380Y-93019714D02*
X214478380Y-93591142D01*
X214478380Y-93305428D02*
X213478380Y-93305428D01*
X213621238Y-93400666D01*
X213716476Y-93495904D01*
X213764095Y-93591142D01*
G04 #@! TO.C,START1*
X231227619Y-121380761D02*
X231370476Y-121428380D01*
X231608571Y-121428380D01*
X231703809Y-121380761D01*
X231751428Y-121333142D01*
X231799047Y-121237904D01*
X231799047Y-121142666D01*
X231751428Y-121047428D01*
X231703809Y-120999809D01*
X231608571Y-120952190D01*
X231418095Y-120904571D01*
X231322857Y-120856952D01*
X231275238Y-120809333D01*
X231227619Y-120714095D01*
X231227619Y-120618857D01*
X231275238Y-120523619D01*
X231322857Y-120476000D01*
X231418095Y-120428380D01*
X231656190Y-120428380D01*
X231799047Y-120476000D01*
X232084761Y-120428380D02*
X232656190Y-120428380D01*
X232370476Y-121428380D02*
X232370476Y-120428380D01*
X232941904Y-121142666D02*
X233418095Y-121142666D01*
X232846666Y-121428380D02*
X233180000Y-120428380D01*
X233513333Y-121428380D01*
X234418095Y-121428380D02*
X234084761Y-120952190D01*
X233846666Y-121428380D02*
X233846666Y-120428380D01*
X234227619Y-120428380D01*
X234322857Y-120476000D01*
X234370476Y-120523619D01*
X234418095Y-120618857D01*
X234418095Y-120761714D01*
X234370476Y-120856952D01*
X234322857Y-120904571D01*
X234227619Y-120952190D01*
X233846666Y-120952190D01*
X234703809Y-120428380D02*
X235275238Y-120428380D01*
X234989523Y-121428380D02*
X234989523Y-120428380D01*
X236132380Y-121428380D02*
X235560952Y-121428380D01*
X235846666Y-121428380D02*
X235846666Y-120428380D01*
X235751428Y-120571238D01*
X235656190Y-120666476D01*
X235560952Y-120714095D01*
G04 #@! TO.C,SW1*
X53911666Y-69940761D02*
X54054523Y-69988380D01*
X54292619Y-69988380D01*
X54387857Y-69940761D01*
X54435476Y-69893142D01*
X54483095Y-69797904D01*
X54483095Y-69702666D01*
X54435476Y-69607428D01*
X54387857Y-69559809D01*
X54292619Y-69512190D01*
X54102142Y-69464571D01*
X54006904Y-69416952D01*
X53959285Y-69369333D01*
X53911666Y-69274095D01*
X53911666Y-69178857D01*
X53959285Y-69083619D01*
X54006904Y-69036000D01*
X54102142Y-68988380D01*
X54340238Y-68988380D01*
X54483095Y-69036000D01*
X54816428Y-68988380D02*
X55054523Y-69988380D01*
X55245000Y-69274095D01*
X55435476Y-69988380D01*
X55673571Y-68988380D01*
X56578333Y-69988380D02*
X56006904Y-69988380D01*
X56292619Y-69988380D02*
X56292619Y-68988380D01*
X56197380Y-69131238D01*
X56102142Y-69226476D01*
X56006904Y-69274095D01*
G04 #@! TO.C,SW2*
X103066666Y-101043261D02*
X103209523Y-101090880D01*
X103447619Y-101090880D01*
X103542857Y-101043261D01*
X103590476Y-100995642D01*
X103638095Y-100900404D01*
X103638095Y-100805166D01*
X103590476Y-100709928D01*
X103542857Y-100662309D01*
X103447619Y-100614690D01*
X103257142Y-100567071D01*
X103161904Y-100519452D01*
X103114285Y-100471833D01*
X103066666Y-100376595D01*
X103066666Y-100281357D01*
X103114285Y-100186119D01*
X103161904Y-100138500D01*
X103257142Y-100090880D01*
X103495238Y-100090880D01*
X103638095Y-100138500D01*
X103971428Y-100090880D02*
X104209523Y-101090880D01*
X104400000Y-100376595D01*
X104590476Y-101090880D01*
X104828571Y-100090880D01*
X105161904Y-100186119D02*
X105209523Y-100138500D01*
X105304761Y-100090880D01*
X105542857Y-100090880D01*
X105638095Y-100138500D01*
X105685714Y-100186119D01*
X105733333Y-100281357D01*
X105733333Y-100376595D01*
X105685714Y-100519452D01*
X105114285Y-101090880D01*
X105733333Y-101090880D01*
G04 #@! TO.C,SW3*
X74104666Y-70127761D02*
X74247523Y-70175380D01*
X74485619Y-70175380D01*
X74580857Y-70127761D01*
X74628476Y-70080142D01*
X74676095Y-69984904D01*
X74676095Y-69889666D01*
X74628476Y-69794428D01*
X74580857Y-69746809D01*
X74485619Y-69699190D01*
X74295142Y-69651571D01*
X74199904Y-69603952D01*
X74152285Y-69556333D01*
X74104666Y-69461095D01*
X74104666Y-69365857D01*
X74152285Y-69270619D01*
X74199904Y-69223000D01*
X74295142Y-69175380D01*
X74533238Y-69175380D01*
X74676095Y-69223000D01*
X75009428Y-69175380D02*
X75247523Y-70175380D01*
X75438000Y-69461095D01*
X75628476Y-70175380D01*
X75866571Y-69175380D01*
X76152285Y-69175380D02*
X76771333Y-69175380D01*
X76438000Y-69556333D01*
X76580857Y-69556333D01*
X76676095Y-69603952D01*
X76723714Y-69651571D01*
X76771333Y-69746809D01*
X76771333Y-69984904D01*
X76723714Y-70080142D01*
X76676095Y-70127761D01*
X76580857Y-70175380D01*
X76295142Y-70175380D01*
X76199904Y-70127761D01*
X76152285Y-70080142D01*
G04 #@! TO.C,SW4*
X94043666Y-70000761D02*
X94186523Y-70048380D01*
X94424619Y-70048380D01*
X94519857Y-70000761D01*
X94567476Y-69953142D01*
X94615095Y-69857904D01*
X94615095Y-69762666D01*
X94567476Y-69667428D01*
X94519857Y-69619809D01*
X94424619Y-69572190D01*
X94234142Y-69524571D01*
X94138904Y-69476952D01*
X94091285Y-69429333D01*
X94043666Y-69334095D01*
X94043666Y-69238857D01*
X94091285Y-69143619D01*
X94138904Y-69096000D01*
X94234142Y-69048380D01*
X94472238Y-69048380D01*
X94615095Y-69096000D01*
X94948428Y-69048380D02*
X95186523Y-70048380D01*
X95377000Y-69334095D01*
X95567476Y-70048380D01*
X95805571Y-69048380D01*
X96615095Y-69381714D02*
X96615095Y-70048380D01*
X96377000Y-69000761D02*
X96138904Y-69715047D01*
X96757952Y-69715047D01*
G04 #@! TO.C,SW5*
X265493666Y-100988761D02*
X265636523Y-101036380D01*
X265874619Y-101036380D01*
X265969857Y-100988761D01*
X266017476Y-100941142D01*
X266065095Y-100845904D01*
X266065095Y-100750666D01*
X266017476Y-100655428D01*
X265969857Y-100607809D01*
X265874619Y-100560190D01*
X265684142Y-100512571D01*
X265588904Y-100464952D01*
X265541285Y-100417333D01*
X265493666Y-100322095D01*
X265493666Y-100226857D01*
X265541285Y-100131619D01*
X265588904Y-100084000D01*
X265684142Y-100036380D01*
X265922238Y-100036380D01*
X266065095Y-100084000D01*
X266398428Y-100036380D02*
X266636523Y-101036380D01*
X266827000Y-100322095D01*
X267017476Y-101036380D01*
X267255571Y-100036380D01*
X268112714Y-100036380D02*
X267636523Y-100036380D01*
X267588904Y-100512571D01*
X267636523Y-100464952D01*
X267731761Y-100417333D01*
X267969857Y-100417333D01*
X268065095Y-100464952D01*
X268112714Y-100512571D01*
X268160333Y-100607809D01*
X268160333Y-100845904D01*
X268112714Y-100941142D01*
X268065095Y-100988761D01*
X267969857Y-101036380D01*
X267731761Y-101036380D01*
X267636523Y-100988761D01*
X267588904Y-100941142D01*
G04 #@! TO.C,SW6*
X128466666Y-101043261D02*
X128609523Y-101090880D01*
X128847619Y-101090880D01*
X128942857Y-101043261D01*
X128990476Y-100995642D01*
X129038095Y-100900404D01*
X129038095Y-100805166D01*
X128990476Y-100709928D01*
X128942857Y-100662309D01*
X128847619Y-100614690D01*
X128657142Y-100567071D01*
X128561904Y-100519452D01*
X128514285Y-100471833D01*
X128466666Y-100376595D01*
X128466666Y-100281357D01*
X128514285Y-100186119D01*
X128561904Y-100138500D01*
X128657142Y-100090880D01*
X128895238Y-100090880D01*
X129038095Y-100138500D01*
X129371428Y-100090880D02*
X129609523Y-101090880D01*
X129800000Y-100376595D01*
X129990476Y-101090880D01*
X130228571Y-100090880D01*
X131038095Y-100090880D02*
X130847619Y-100090880D01*
X130752380Y-100138500D01*
X130704761Y-100186119D01*
X130609523Y-100328976D01*
X130561904Y-100519452D01*
X130561904Y-100900404D01*
X130609523Y-100995642D01*
X130657142Y-101043261D01*
X130752380Y-101090880D01*
X130942857Y-101090880D01*
X131038095Y-101043261D01*
X131085714Y-100995642D01*
X131133333Y-100900404D01*
X131133333Y-100662309D01*
X131085714Y-100567071D01*
X131038095Y-100519452D01*
X130942857Y-100471833D01*
X130752380Y-100471833D01*
X130657142Y-100519452D01*
X130609523Y-100567071D01*
X130561904Y-100662309D01*
G04 #@! TO.C,SW7*
X134302666Y-69873761D02*
X134445523Y-69921380D01*
X134683619Y-69921380D01*
X134778857Y-69873761D01*
X134826476Y-69826142D01*
X134874095Y-69730904D01*
X134874095Y-69635666D01*
X134826476Y-69540428D01*
X134778857Y-69492809D01*
X134683619Y-69445190D01*
X134493142Y-69397571D01*
X134397904Y-69349952D01*
X134350285Y-69302333D01*
X134302666Y-69207095D01*
X134302666Y-69111857D01*
X134350285Y-69016619D01*
X134397904Y-68969000D01*
X134493142Y-68921380D01*
X134731238Y-68921380D01*
X134874095Y-68969000D01*
X135207428Y-68921380D02*
X135445523Y-69921380D01*
X135636000Y-69207095D01*
X135826476Y-69921380D01*
X136064571Y-68921380D01*
X136350285Y-68921380D02*
X137016952Y-68921380D01*
X136588380Y-69921380D01*
G04 #@! TO.C,SW8*
X113855666Y-70127761D02*
X113998523Y-70175380D01*
X114236619Y-70175380D01*
X114331857Y-70127761D01*
X114379476Y-70080142D01*
X114427095Y-69984904D01*
X114427095Y-69889666D01*
X114379476Y-69794428D01*
X114331857Y-69746809D01*
X114236619Y-69699190D01*
X114046142Y-69651571D01*
X113950904Y-69603952D01*
X113903285Y-69556333D01*
X113855666Y-69461095D01*
X113855666Y-69365857D01*
X113903285Y-69270619D01*
X113950904Y-69223000D01*
X114046142Y-69175380D01*
X114284238Y-69175380D01*
X114427095Y-69223000D01*
X114760428Y-69175380D02*
X114998523Y-70175380D01*
X115189000Y-69461095D01*
X115379476Y-70175380D01*
X115617571Y-69175380D01*
X116141380Y-69603952D02*
X116046142Y-69556333D01*
X115998523Y-69508714D01*
X115950904Y-69413476D01*
X115950904Y-69365857D01*
X115998523Y-69270619D01*
X116046142Y-69223000D01*
X116141380Y-69175380D01*
X116331857Y-69175380D01*
X116427095Y-69223000D01*
X116474714Y-69270619D01*
X116522333Y-69365857D01*
X116522333Y-69413476D01*
X116474714Y-69508714D01*
X116427095Y-69556333D01*
X116331857Y-69603952D01*
X116141380Y-69603952D01*
X116046142Y-69651571D01*
X115998523Y-69699190D01*
X115950904Y-69794428D01*
X115950904Y-69984904D01*
X115998523Y-70080142D01*
X116046142Y-70127761D01*
X116141380Y-70175380D01*
X116331857Y-70175380D01*
X116427095Y-70127761D01*
X116474714Y-70080142D01*
X116522333Y-69984904D01*
X116522333Y-69794428D01*
X116474714Y-69699190D01*
X116427095Y-69651571D01*
X116331857Y-69603952D01*
G04 #@! TO.C,SW9*
X153866666Y-101043261D02*
X154009523Y-101090880D01*
X154247619Y-101090880D01*
X154342857Y-101043261D01*
X154390476Y-100995642D01*
X154438095Y-100900404D01*
X154438095Y-100805166D01*
X154390476Y-100709928D01*
X154342857Y-100662309D01*
X154247619Y-100614690D01*
X154057142Y-100567071D01*
X153961904Y-100519452D01*
X153914285Y-100471833D01*
X153866666Y-100376595D01*
X153866666Y-100281357D01*
X153914285Y-100186119D01*
X153961904Y-100138500D01*
X154057142Y-100090880D01*
X154295238Y-100090880D01*
X154438095Y-100138500D01*
X154771428Y-100090880D02*
X155009523Y-101090880D01*
X155200000Y-100376595D01*
X155390476Y-101090880D01*
X155628571Y-100090880D01*
X156057142Y-101090880D02*
X156247619Y-101090880D01*
X156342857Y-101043261D01*
X156390476Y-100995642D01*
X156485714Y-100852785D01*
X156533333Y-100662309D01*
X156533333Y-100281357D01*
X156485714Y-100186119D01*
X156438095Y-100138500D01*
X156342857Y-100090880D01*
X156152380Y-100090880D01*
X156057142Y-100138500D01*
X156009523Y-100186119D01*
X155961904Y-100281357D01*
X155961904Y-100519452D01*
X156009523Y-100614690D01*
X156057142Y-100662309D01*
X156152380Y-100709928D01*
X156342857Y-100709928D01*
X156438095Y-100662309D01*
X156485714Y-100614690D01*
X156533333Y-100519452D01*
G04 #@! TO.C,SW10*
X178790476Y-101043261D02*
X178933333Y-101090880D01*
X179171428Y-101090880D01*
X179266666Y-101043261D01*
X179314285Y-100995642D01*
X179361904Y-100900404D01*
X179361904Y-100805166D01*
X179314285Y-100709928D01*
X179266666Y-100662309D01*
X179171428Y-100614690D01*
X178980952Y-100567071D01*
X178885714Y-100519452D01*
X178838095Y-100471833D01*
X178790476Y-100376595D01*
X178790476Y-100281357D01*
X178838095Y-100186119D01*
X178885714Y-100138500D01*
X178980952Y-100090880D01*
X179219047Y-100090880D01*
X179361904Y-100138500D01*
X179695238Y-100090880D02*
X179933333Y-101090880D01*
X180123809Y-100376595D01*
X180314285Y-101090880D01*
X180552380Y-100090880D01*
X181457142Y-101090880D02*
X180885714Y-101090880D01*
X181171428Y-101090880D02*
X181171428Y-100090880D01*
X181076190Y-100233738D01*
X180980952Y-100328976D01*
X180885714Y-100376595D01*
X182076190Y-100090880D02*
X182171428Y-100090880D01*
X182266666Y-100138500D01*
X182314285Y-100186119D01*
X182361904Y-100281357D01*
X182409523Y-100471833D01*
X182409523Y-100709928D01*
X182361904Y-100900404D01*
X182314285Y-100995642D01*
X182266666Y-101043261D01*
X182171428Y-101090880D01*
X182076190Y-101090880D01*
X181980952Y-101043261D01*
X181933333Y-100995642D01*
X181885714Y-100900404D01*
X181838095Y-100709928D01*
X181838095Y-100471833D01*
X181885714Y-100281357D01*
X181933333Y-100186119D01*
X181980952Y-100138500D01*
X182076190Y-100090880D01*
G04 #@! TO.C,SW11*
X148670476Y-69940761D02*
X148813333Y-69988380D01*
X149051428Y-69988380D01*
X149146666Y-69940761D01*
X149194285Y-69893142D01*
X149241904Y-69797904D01*
X149241904Y-69702666D01*
X149194285Y-69607428D01*
X149146666Y-69559809D01*
X149051428Y-69512190D01*
X148860952Y-69464571D01*
X148765714Y-69416952D01*
X148718095Y-69369333D01*
X148670476Y-69274095D01*
X148670476Y-69178857D01*
X148718095Y-69083619D01*
X148765714Y-69036000D01*
X148860952Y-68988380D01*
X149099047Y-68988380D01*
X149241904Y-69036000D01*
X149575238Y-68988380D02*
X149813333Y-69988380D01*
X150003809Y-69274095D01*
X150194285Y-69988380D01*
X150432380Y-68988380D01*
X151337142Y-69988380D02*
X150765714Y-69988380D01*
X151051428Y-69988380D02*
X151051428Y-68988380D01*
X150956190Y-69131238D01*
X150860952Y-69226476D01*
X150765714Y-69274095D01*
X152289523Y-69988380D02*
X151718095Y-69988380D01*
X152003809Y-69988380D02*
X152003809Y-68988380D01*
X151908571Y-69131238D01*
X151813333Y-69226476D01*
X151718095Y-69274095D01*
G04 #@! TO.C,SW12*
X77190476Y-101043261D02*
X77333333Y-101090880D01*
X77571428Y-101090880D01*
X77666666Y-101043261D01*
X77714285Y-100995642D01*
X77761904Y-100900404D01*
X77761904Y-100805166D01*
X77714285Y-100709928D01*
X77666666Y-100662309D01*
X77571428Y-100614690D01*
X77380952Y-100567071D01*
X77285714Y-100519452D01*
X77238095Y-100471833D01*
X77190476Y-100376595D01*
X77190476Y-100281357D01*
X77238095Y-100186119D01*
X77285714Y-100138500D01*
X77380952Y-100090880D01*
X77619047Y-100090880D01*
X77761904Y-100138500D01*
X78095238Y-100090880D02*
X78333333Y-101090880D01*
X78523809Y-100376595D01*
X78714285Y-101090880D01*
X78952380Y-100090880D01*
X79857142Y-101090880D02*
X79285714Y-101090880D01*
X79571428Y-101090880D02*
X79571428Y-100090880D01*
X79476190Y-100233738D01*
X79380952Y-100328976D01*
X79285714Y-100376595D01*
X80238095Y-100186119D02*
X80285714Y-100138500D01*
X80380952Y-100090880D01*
X80619047Y-100090880D01*
X80714285Y-100138500D01*
X80761904Y-100186119D01*
X80809523Y-100281357D01*
X80809523Y-100376595D01*
X80761904Y-100519452D01*
X80190476Y-101090880D01*
X80809523Y-101090880D01*
G04 #@! TO.C,SW13*
X168670476Y-69940761D02*
X168813333Y-69988380D01*
X169051428Y-69988380D01*
X169146666Y-69940761D01*
X169194285Y-69893142D01*
X169241904Y-69797904D01*
X169241904Y-69702666D01*
X169194285Y-69607428D01*
X169146666Y-69559809D01*
X169051428Y-69512190D01*
X168860952Y-69464571D01*
X168765714Y-69416952D01*
X168718095Y-69369333D01*
X168670476Y-69274095D01*
X168670476Y-69178857D01*
X168718095Y-69083619D01*
X168765714Y-69036000D01*
X168860952Y-68988380D01*
X169099047Y-68988380D01*
X169241904Y-69036000D01*
X169575238Y-68988380D02*
X169813333Y-69988380D01*
X170003809Y-69274095D01*
X170194285Y-69988380D01*
X170432380Y-68988380D01*
X171337142Y-69988380D02*
X170765714Y-69988380D01*
X171051428Y-69988380D02*
X171051428Y-68988380D01*
X170956190Y-69131238D01*
X170860952Y-69226476D01*
X170765714Y-69274095D01*
X171670476Y-68988380D02*
X172289523Y-68988380D01*
X171956190Y-69369333D01*
X172099047Y-69369333D01*
X172194285Y-69416952D01*
X172241904Y-69464571D01*
X172289523Y-69559809D01*
X172289523Y-69797904D01*
X172241904Y-69893142D01*
X172194285Y-69940761D01*
X172099047Y-69988380D01*
X171813333Y-69988380D01*
X171718095Y-69940761D01*
X171670476Y-69893142D01*
G04 #@! TO.C,SW14*
X193770476Y-69873761D02*
X193913333Y-69921380D01*
X194151428Y-69921380D01*
X194246666Y-69873761D01*
X194294285Y-69826142D01*
X194341904Y-69730904D01*
X194341904Y-69635666D01*
X194294285Y-69540428D01*
X194246666Y-69492809D01*
X194151428Y-69445190D01*
X193960952Y-69397571D01*
X193865714Y-69349952D01*
X193818095Y-69302333D01*
X193770476Y-69207095D01*
X193770476Y-69111857D01*
X193818095Y-69016619D01*
X193865714Y-68969000D01*
X193960952Y-68921380D01*
X194199047Y-68921380D01*
X194341904Y-68969000D01*
X194675238Y-68921380D02*
X194913333Y-69921380D01*
X195103809Y-69207095D01*
X195294285Y-69921380D01*
X195532380Y-68921380D01*
X196437142Y-69921380D02*
X195865714Y-69921380D01*
X196151428Y-69921380D02*
X196151428Y-68921380D01*
X196056190Y-69064238D01*
X195960952Y-69159476D01*
X195865714Y-69207095D01*
X197294285Y-69254714D02*
X197294285Y-69921380D01*
X197056190Y-68873761D02*
X196818095Y-69588047D01*
X197437142Y-69588047D01*
G04 #@! TO.C,U1*
X264414095Y-89622380D02*
X264414095Y-90431904D01*
X264461714Y-90527142D01*
X264509333Y-90574761D01*
X264604571Y-90622380D01*
X264795047Y-90622380D01*
X264890285Y-90574761D01*
X264937904Y-90527142D01*
X264985523Y-90431904D01*
X264985523Y-89622380D01*
X265985523Y-90622380D02*
X265414095Y-90622380D01*
X265699809Y-90622380D02*
X265699809Y-89622380D01*
X265604571Y-89765238D01*
X265509333Y-89860476D01*
X265414095Y-89908095D01*
G04 #@! TO.C,U2*
X90424095Y-62952380D02*
X90424095Y-63761904D01*
X90471714Y-63857142D01*
X90519333Y-63904761D01*
X90614571Y-63952380D01*
X90805047Y-63952380D01*
X90900285Y-63904761D01*
X90947904Y-63857142D01*
X90995523Y-63761904D01*
X90995523Y-62952380D01*
X91424095Y-63047619D02*
X91471714Y-63000000D01*
X91566952Y-62952380D01*
X91805047Y-62952380D01*
X91900285Y-63000000D01*
X91947904Y-63047619D01*
X91995523Y-63142857D01*
X91995523Y-63238095D01*
X91947904Y-63380952D01*
X91376476Y-63952380D01*
X91995523Y-63952380D01*
G04 #@! TO.C,U3*
X60579095Y-63714380D02*
X60579095Y-64523904D01*
X60626714Y-64619142D01*
X60674333Y-64666761D01*
X60769571Y-64714380D01*
X60960047Y-64714380D01*
X61055285Y-64666761D01*
X61102904Y-64619142D01*
X61150523Y-64523904D01*
X61150523Y-63714380D01*
X61531476Y-63714380D02*
X62150523Y-63714380D01*
X61817190Y-64095333D01*
X61960047Y-64095333D01*
X62055285Y-64142952D01*
X62102904Y-64190571D01*
X62150523Y-64285809D01*
X62150523Y-64523904D01*
X62102904Y-64619142D01*
X62055285Y-64666761D01*
X61960047Y-64714380D01*
X61674333Y-64714380D01*
X61579095Y-64666761D01*
X61531476Y-64619142D01*
G04 #@! TO.C,J1*
X239986666Y-100608380D02*
X239986666Y-101322666D01*
X239939047Y-101465523D01*
X239843809Y-101560761D01*
X239700952Y-101608380D01*
X239605714Y-101608380D01*
X240986666Y-101608380D02*
X240415238Y-101608380D01*
X240700952Y-101608380D02*
X240700952Y-100608380D01*
X240605714Y-100751238D01*
X240510476Y-100846476D01*
X240415238Y-100894095D01*
G04 #@! TD*
M02*
