G04 #@! TF.GenerationSoftware,KiCad,Pcbnew,(5.0.1-3-g963ef8bb5)*
G04 #@! TF.CreationDate,2019-11-20T19:59:20+01:00*
G04 #@! TF.ProjectId,RushBox2,52757368426F78322E6B696361645F70,rev?*
G04 #@! TF.SameCoordinates,Original*
G04 #@! TF.FileFunction,Copper,L2,Bot,Signal*
G04 #@! TF.FilePolarity,Positive*
%FSLAX46Y46*%
G04 Gerber Fmt 4.6, Leading zero omitted, Abs format (unit mm)*
G04 Created by KiCad (PCBNEW (5.0.1-3-g963ef8bb5)) date 2019 November 20, Wednesday 19:59:20*
%MOMM*%
%LPD*%
G01*
G04 APERTURE LIST*
G04 #@! TA.AperFunction,ComponentPad*
%ADD10C,1.800000*%
G04 #@! TD*
G04 #@! TA.AperFunction,ComponentPad*
%ADD11O,2.200000X1.740000*%
G04 #@! TD*
G04 #@! TA.AperFunction,Conductor*
%ADD12C,0.100000*%
G04 #@! TD*
G04 #@! TA.AperFunction,ComponentPad*
%ADD13C,1.740000*%
G04 #@! TD*
G04 #@! TA.AperFunction,ComponentPad*
%ADD14O,1.740000X2.200000*%
G04 #@! TD*
G04 #@! TA.AperFunction,ComponentPad*
%ADD15O,1.700000X2.000000*%
G04 #@! TD*
G04 #@! TA.AperFunction,ComponentPad*
%ADD16C,3.500000*%
G04 #@! TD*
G04 #@! TA.AperFunction,ComponentPad*
%ADD17R,2.000000X2.000000*%
G04 #@! TD*
G04 #@! TA.AperFunction,ComponentPad*
%ADD18C,2.000000*%
G04 #@! TD*
G04 #@! TA.AperFunction,ComponentPad*
%ADD19R,3.000000X2.500000*%
G04 #@! TD*
G04 #@! TA.AperFunction,SMDPad,CuDef*
%ADD20R,0.600000X1.500000*%
G04 #@! TD*
G04 #@! TA.AperFunction,ComponentPad*
%ADD21C,1.998980*%
G04 #@! TD*
G04 #@! TA.AperFunction,ComponentPad*
%ADD22C,1.501140*%
G04 #@! TD*
G04 #@! TA.AperFunction,ComponentPad*
%ADD23C,1.524000*%
G04 #@! TD*
G04 #@! TA.AperFunction,ViaPad*
%ADD24C,1.200000*%
G04 #@! TD*
G04 #@! TA.AperFunction,Conductor*
%ADD25C,0.300000*%
G04 #@! TD*
G04 #@! TA.AperFunction,Conductor*
%ADD26C,1.000000*%
G04 #@! TD*
G04 #@! TA.AperFunction,Conductor*
%ADD27C,0.254000*%
G04 #@! TD*
G04 APERTURE END LIST*
D10*
G04 #@! TO.P,U4,1*
G04 #@! TO.N,N/C*
X220980000Y-102616000D03*
G04 #@! TO.P,U4,2*
G04 #@! TO.N,/master*
X220980000Y-100076000D03*
G04 #@! TO.P,U4,3*
G04 #@! TO.N,/tilt*
X220980000Y-97536000D03*
G04 #@! TO.P,U4,4*
G04 #@! TO.N,/pan*
X220980000Y-94996000D03*
G04 #@! TO.P,U4,5*
G04 #@! TO.N,/hue_B*
X220980000Y-92456000D03*
G04 #@! TO.P,U4,6*
G04 #@! TO.N,/hue_A*
X220980000Y-89916000D03*
G04 #@! TO.P,U4,7*
G04 #@! TO.N,/sat_A*
X220980000Y-87376000D03*
G04 #@! TO.P,U4,8*
G04 #@! TO.N,/sat_B*
X220980000Y-84836000D03*
G04 #@! TO.P,U4,9*
G04 #@! TO.N,/zoom_B*
X220980000Y-82296000D03*
G04 #@! TO.P,U4,10*
G04 #@! TO.N,/zoom_A*
X220980000Y-79756000D03*
G04 #@! TO.P,U4,11*
G04 #@! TO.N,/white_A*
X220980000Y-77216000D03*
G04 #@! TO.P,U4,12*
G04 #@! TO.N,/white_B*
X220980000Y-74676000D03*
G04 #@! TO.P,U4,13*
G04 #@! TO.N,/pix*
X220980000Y-72136000D03*
G04 #@! TO.P,U4,14*
G04 #@! TO.N,GND*
X220980000Y-69596000D03*
G04 #@! TO.P,U4,15*
G04 #@! TO.N,+5V*
X220980000Y-67056000D03*
G04 #@! TO.P,U4,16*
G04 #@! TO.N,N/C*
X245980000Y-67056000D03*
G04 #@! TO.P,U4,17*
G04 #@! TO.N,GND*
X245980000Y-69596000D03*
G04 #@! TO.P,U4,18*
G04 #@! TO.N,/menu_A*
X245980000Y-72136000D03*
G04 #@! TO.P,U4,19*
G04 #@! TO.N,/menu_B*
X245980000Y-74676000D03*
G04 #@! TO.P,U4,20*
G04 #@! TO.N,N/C*
X245980000Y-77216000D03*
G04 #@! TO.P,U4,21*
G04 #@! TO.N,/RX*
X245980000Y-79756000D03*
G04 #@! TO.P,U4,22*
G04 #@! TO.N,/TX*
X245980000Y-82296000D03*
G04 #@! TO.P,U4,23*
G04 #@! TO.N,/cs*
X245980000Y-84836000D03*
G04 #@! TO.P,U4,24*
G04 #@! TO.N,/clk*
X245980000Y-87376000D03*
G04 #@! TO.P,U4,25*
G04 #@! TO.N,/btns*
X245980000Y-89916000D03*
G04 #@! TO.P,U4,26*
G04 #@! TO.N,/SDA*
X245980000Y-92456000D03*
G04 #@! TO.P,U4,27*
G04 #@! TO.N,/dim_A*
X245980000Y-94996000D03*
G04 #@! TO.P,U4,28*
G04 #@! TO.N,/dim_B*
X245980000Y-97536000D03*
G04 #@! TO.P,U4,29*
G04 #@! TO.N,/SCL*
X245980000Y-100076000D03*
G04 #@! TO.P,U4,30*
G04 #@! TO.N,N/C*
X245980000Y-102616000D03*
G04 #@! TD*
D11*
G04 #@! TO.P,J2,3*
G04 #@! TO.N,Net-(J2-Pad3)*
X82804000Y-57658000D03*
G04 #@! TO.P,J2,2*
G04 #@! TO.N,Net-(J2-Pad2)*
X82804000Y-60198000D03*
D12*
G04 #@! TD*
G04 #@! TO.N,GND*
G04 #@! TO.C,J2*
G36*
X83678505Y-61869204D02*
X83702773Y-61872804D01*
X83726572Y-61878765D01*
X83749671Y-61887030D01*
X83771850Y-61897520D01*
X83792893Y-61910132D01*
X83812599Y-61924747D01*
X83830777Y-61941223D01*
X83847253Y-61959401D01*
X83861868Y-61979107D01*
X83874480Y-62000150D01*
X83884970Y-62022329D01*
X83893235Y-62045428D01*
X83899196Y-62069227D01*
X83902796Y-62093495D01*
X83904000Y-62117999D01*
X83904000Y-63358001D01*
X83902796Y-63382505D01*
X83899196Y-63406773D01*
X83893235Y-63430572D01*
X83884970Y-63453671D01*
X83874480Y-63475850D01*
X83861868Y-63496893D01*
X83847253Y-63516599D01*
X83830777Y-63534777D01*
X83812599Y-63551253D01*
X83792893Y-63565868D01*
X83771850Y-63578480D01*
X83749671Y-63588970D01*
X83726572Y-63597235D01*
X83702773Y-63603196D01*
X83678505Y-63606796D01*
X83654001Y-63608000D01*
X81953999Y-63608000D01*
X81929495Y-63606796D01*
X81905227Y-63603196D01*
X81881428Y-63597235D01*
X81858329Y-63588970D01*
X81836150Y-63578480D01*
X81815107Y-63565868D01*
X81795401Y-63551253D01*
X81777223Y-63534777D01*
X81760747Y-63516599D01*
X81746132Y-63496893D01*
X81733520Y-63475850D01*
X81723030Y-63453671D01*
X81714765Y-63430572D01*
X81708804Y-63406773D01*
X81705204Y-63382505D01*
X81704000Y-63358001D01*
X81704000Y-62117999D01*
X81705204Y-62093495D01*
X81708804Y-62069227D01*
X81714765Y-62045428D01*
X81723030Y-62022329D01*
X81733520Y-62000150D01*
X81746132Y-61979107D01*
X81760747Y-61959401D01*
X81777223Y-61941223D01*
X81795401Y-61924747D01*
X81815107Y-61910132D01*
X81836150Y-61897520D01*
X81858329Y-61887030D01*
X81881428Y-61878765D01*
X81905227Y-61872804D01*
X81929495Y-61869204D01*
X81953999Y-61868000D01*
X83654001Y-61868000D01*
X83678505Y-61869204D01*
X83678505Y-61869204D01*
G37*
D13*
G04 #@! TO.P,J2,1*
G04 #@! TO.N,GND*
X82804000Y-62738000D03*
G04 #@! TD*
D12*
G04 #@! TO.N,GND*
G04 #@! TO.C,J3*
G36*
X51928505Y-62377204D02*
X51952773Y-62380804D01*
X51976572Y-62386765D01*
X51999671Y-62395030D01*
X52021850Y-62405520D01*
X52042893Y-62418132D01*
X52062599Y-62432747D01*
X52080777Y-62449223D01*
X52097253Y-62467401D01*
X52111868Y-62487107D01*
X52124480Y-62508150D01*
X52134970Y-62530329D01*
X52143235Y-62553428D01*
X52149196Y-62577227D01*
X52152796Y-62601495D01*
X52154000Y-62625999D01*
X52154000Y-63866001D01*
X52152796Y-63890505D01*
X52149196Y-63914773D01*
X52143235Y-63938572D01*
X52134970Y-63961671D01*
X52124480Y-63983850D01*
X52111868Y-64004893D01*
X52097253Y-64024599D01*
X52080777Y-64042777D01*
X52062599Y-64059253D01*
X52042893Y-64073868D01*
X52021850Y-64086480D01*
X51999671Y-64096970D01*
X51976572Y-64105235D01*
X51952773Y-64111196D01*
X51928505Y-64114796D01*
X51904001Y-64116000D01*
X50203999Y-64116000D01*
X50179495Y-64114796D01*
X50155227Y-64111196D01*
X50131428Y-64105235D01*
X50108329Y-64096970D01*
X50086150Y-64086480D01*
X50065107Y-64073868D01*
X50045401Y-64059253D01*
X50027223Y-64042777D01*
X50010747Y-64024599D01*
X49996132Y-64004893D01*
X49983520Y-63983850D01*
X49973030Y-63961671D01*
X49964765Y-63938572D01*
X49958804Y-63914773D01*
X49955204Y-63890505D01*
X49954000Y-63866001D01*
X49954000Y-62625999D01*
X49955204Y-62601495D01*
X49958804Y-62577227D01*
X49964765Y-62553428D01*
X49973030Y-62530329D01*
X49983520Y-62508150D01*
X49996132Y-62487107D01*
X50010747Y-62467401D01*
X50027223Y-62449223D01*
X50045401Y-62432747D01*
X50065107Y-62418132D01*
X50086150Y-62405520D01*
X50108329Y-62395030D01*
X50131428Y-62386765D01*
X50155227Y-62380804D01*
X50179495Y-62377204D01*
X50203999Y-62376000D01*
X51904001Y-62376000D01*
X51928505Y-62377204D01*
X51928505Y-62377204D01*
G37*
D13*
G04 #@! TD*
G04 #@! TO.P,J3,1*
G04 #@! TO.N,GND*
X51054000Y-63246000D03*
D11*
G04 #@! TO.P,J3,2*
G04 #@! TO.N,Net-(J3-Pad2)*
X51054000Y-60706000D03*
G04 #@! TO.P,J3,3*
G04 #@! TO.N,Net-(J3-Pad3)*
X51054000Y-58166000D03*
G04 #@! TD*
D12*
G04 #@! TO.N,GND*
G04 #@! TO.C,J4*
G36*
X259470505Y-60877204D02*
X259494773Y-60880804D01*
X259518572Y-60886765D01*
X259541671Y-60895030D01*
X259563850Y-60905520D01*
X259584893Y-60918132D01*
X259604599Y-60932747D01*
X259622777Y-60949223D01*
X259639253Y-60967401D01*
X259653868Y-60987107D01*
X259666480Y-61008150D01*
X259676970Y-61030329D01*
X259685235Y-61053428D01*
X259691196Y-61077227D01*
X259694796Y-61101495D01*
X259696000Y-61125999D01*
X259696000Y-62826001D01*
X259694796Y-62850505D01*
X259691196Y-62874773D01*
X259685235Y-62898572D01*
X259676970Y-62921671D01*
X259666480Y-62943850D01*
X259653868Y-62964893D01*
X259639253Y-62984599D01*
X259622777Y-63002777D01*
X259604599Y-63019253D01*
X259584893Y-63033868D01*
X259563850Y-63046480D01*
X259541671Y-63056970D01*
X259518572Y-63065235D01*
X259494773Y-63071196D01*
X259470505Y-63074796D01*
X259446001Y-63076000D01*
X258205999Y-63076000D01*
X258181495Y-63074796D01*
X258157227Y-63071196D01*
X258133428Y-63065235D01*
X258110329Y-63056970D01*
X258088150Y-63046480D01*
X258067107Y-63033868D01*
X258047401Y-63019253D01*
X258029223Y-63002777D01*
X258012747Y-62984599D01*
X257998132Y-62964893D01*
X257985520Y-62943850D01*
X257975030Y-62921671D01*
X257966765Y-62898572D01*
X257960804Y-62874773D01*
X257957204Y-62850505D01*
X257956000Y-62826001D01*
X257956000Y-61125999D01*
X257957204Y-61101495D01*
X257960804Y-61077227D01*
X257966765Y-61053428D01*
X257975030Y-61030329D01*
X257985520Y-61008150D01*
X257998132Y-60987107D01*
X258012747Y-60967401D01*
X258029223Y-60949223D01*
X258047401Y-60932747D01*
X258067107Y-60918132D01*
X258088150Y-60905520D01*
X258110329Y-60895030D01*
X258133428Y-60886765D01*
X258157227Y-60880804D01*
X258181495Y-60877204D01*
X258205999Y-60876000D01*
X259446001Y-60876000D01*
X259470505Y-60877204D01*
X259470505Y-60877204D01*
G37*
D13*
G04 #@! TD*
G04 #@! TO.P,J4,1*
G04 #@! TO.N,GND*
X258826000Y-61976000D03*
D14*
G04 #@! TO.P,J4,2*
G04 #@! TO.N,+5V*
X261366000Y-61976000D03*
G04 #@! TD*
G04 #@! TO.P,J5,2*
G04 #@! TO.N,/fixt*
X46990000Y-88900000D03*
D12*
G04 #@! TD*
G04 #@! TO.N,GND*
G04 #@! TO.C,J5*
G36*
X50174505Y-87801204D02*
X50198773Y-87804804D01*
X50222572Y-87810765D01*
X50245671Y-87819030D01*
X50267850Y-87829520D01*
X50288893Y-87842132D01*
X50308599Y-87856747D01*
X50326777Y-87873223D01*
X50343253Y-87891401D01*
X50357868Y-87911107D01*
X50370480Y-87932150D01*
X50380970Y-87954329D01*
X50389235Y-87977428D01*
X50395196Y-88001227D01*
X50398796Y-88025495D01*
X50400000Y-88049999D01*
X50400000Y-89750001D01*
X50398796Y-89774505D01*
X50395196Y-89798773D01*
X50389235Y-89822572D01*
X50380970Y-89845671D01*
X50370480Y-89867850D01*
X50357868Y-89888893D01*
X50343253Y-89908599D01*
X50326777Y-89926777D01*
X50308599Y-89943253D01*
X50288893Y-89957868D01*
X50267850Y-89970480D01*
X50245671Y-89980970D01*
X50222572Y-89989235D01*
X50198773Y-89995196D01*
X50174505Y-89998796D01*
X50150001Y-90000000D01*
X48909999Y-90000000D01*
X48885495Y-89998796D01*
X48861227Y-89995196D01*
X48837428Y-89989235D01*
X48814329Y-89980970D01*
X48792150Y-89970480D01*
X48771107Y-89957868D01*
X48751401Y-89943253D01*
X48733223Y-89926777D01*
X48716747Y-89908599D01*
X48702132Y-89888893D01*
X48689520Y-89867850D01*
X48679030Y-89845671D01*
X48670765Y-89822572D01*
X48664804Y-89798773D01*
X48661204Y-89774505D01*
X48660000Y-89750001D01*
X48660000Y-88049999D01*
X48661204Y-88025495D01*
X48664804Y-88001227D01*
X48670765Y-87977428D01*
X48679030Y-87954329D01*
X48689520Y-87932150D01*
X48702132Y-87911107D01*
X48716747Y-87891401D01*
X48733223Y-87873223D01*
X48751401Y-87856747D01*
X48771107Y-87842132D01*
X48792150Y-87829520D01*
X48814329Y-87819030D01*
X48837428Y-87810765D01*
X48861227Y-87804804D01*
X48885495Y-87801204D01*
X48909999Y-87800000D01*
X50150001Y-87800000D01*
X50174505Y-87801204D01*
X50174505Y-87801204D01*
G37*
D13*
G04 #@! TO.P,J5,1*
G04 #@! TO.N,GND*
X49530000Y-88900000D03*
G04 #@! TD*
D15*
G04 #@! TO.P,RV1,2*
G04 #@! TO.N,/master*
X204276000Y-129234000D03*
G04 #@! TO.P,RV1,1*
G04 #@! TO.N,+3V3*
X206776000Y-129234000D03*
G04 #@! TO.P,RV1,2B*
G04 #@! TO.N,N/C*
X209276000Y-129234000D03*
G04 #@! TO.P,RV1,1B*
X211776000Y-129234000D03*
G04 #@! TO.P,RV1,3*
G04 #@! TO.N,GND*
X206776000Y-59234000D03*
G04 #@! TO.P,RV1,3B*
G04 #@! TO.N,N/C*
X211776000Y-59234000D03*
D16*
G04 #@! TO.P,RV1,4*
X208026000Y-119234000D03*
G04 #@! TO.P,RV1,5*
X208026000Y-71734000D03*
G04 #@! TD*
D17*
G04 #@! TO.P,SW2,A*
G04 #@! TO.N,/hue_A*
X101600000Y-105338500D03*
D18*
G04 #@! TO.P,SW2,C*
G04 #@! TO.N,GND*
X101600000Y-107838500D03*
G04 #@! TO.P,SW2,B*
G04 #@! TO.N,/hue_B*
X101600000Y-110338500D03*
D19*
G04 #@! TO.P,SW2,MP*
G04 #@! TO.N,N/C*
X109100000Y-102238500D03*
X109100000Y-113438500D03*
G04 #@! TD*
G04 #@! TO.P,SW5,MP*
G04 #@! TO.N,N/C*
X261500000Y-113438500D03*
X261500000Y-102238500D03*
D18*
G04 #@! TO.P,SW5,B*
G04 #@! TO.N,/menu_B*
X254000000Y-110338500D03*
G04 #@! TO.P,SW5,C*
G04 #@! TO.N,GND*
X254000000Y-107838500D03*
D17*
G04 #@! TO.P,SW5,A*
G04 #@! TO.N,/menu_A*
X254000000Y-105338500D03*
G04 #@! TD*
D19*
G04 #@! TO.P,SW6,MP*
G04 #@! TO.N,N/C*
X134500000Y-113438500D03*
X134500000Y-102238500D03*
D18*
G04 #@! TO.P,SW6,B*
G04 #@! TO.N,/sat_B*
X127000000Y-110338500D03*
G04 #@! TO.P,SW6,C*
G04 #@! TO.N,GND*
X127000000Y-107838500D03*
D17*
G04 #@! TO.P,SW6,A*
G04 #@! TO.N,/sat_A*
X127000000Y-105338500D03*
G04 #@! TD*
G04 #@! TO.P,SW9,A*
G04 #@! TO.N,/white_A*
X152400000Y-105338500D03*
D18*
G04 #@! TO.P,SW9,C*
G04 #@! TO.N,GND*
X152400000Y-107838500D03*
G04 #@! TO.P,SW9,B*
G04 #@! TO.N,/white_B*
X152400000Y-110338500D03*
D19*
G04 #@! TO.P,SW9,MP*
G04 #@! TO.N,N/C*
X159900000Y-102238500D03*
X159900000Y-113438500D03*
G04 #@! TD*
G04 #@! TO.P,SW10,MP*
G04 #@! TO.N,N/C*
X185300000Y-113438500D03*
X185300000Y-102238500D03*
D18*
G04 #@! TO.P,SW10,B*
G04 #@! TO.N,/dim_B*
X177800000Y-110338500D03*
G04 #@! TO.P,SW10,C*
G04 #@! TO.N,GND*
X177800000Y-107838500D03*
D17*
G04 #@! TO.P,SW10,A*
G04 #@! TO.N,/dim_A*
X177800000Y-105338500D03*
G04 #@! TD*
G04 #@! TO.P,SW12,A*
G04 #@! TO.N,/zoom_A*
X76200000Y-105338500D03*
D18*
G04 #@! TO.P,SW12,C*
G04 #@! TO.N,GND*
X76200000Y-107838500D03*
G04 #@! TO.P,SW12,B*
G04 #@! TO.N,/zoom_B*
X76200000Y-110338500D03*
D19*
G04 #@! TO.P,SW12,MP*
G04 #@! TO.N,N/C*
X83700000Y-102238500D03*
X83700000Y-113438500D03*
G04 #@! TD*
D20*
G04 #@! TO.P,U6,1*
G04 #@! TO.N,/s2*
X95504000Y-83627000D03*
G04 #@! TO.P,U6,2*
G04 #@! TO.N,/s3*
X96774000Y-83627000D03*
G04 #@! TO.P,U6,3*
G04 #@! TO.N,/s4*
X98044000Y-83627000D03*
G04 #@! TO.P,U6,4*
G04 #@! TO.N,/s5*
X99314000Y-83627000D03*
G04 #@! TO.P,U6,5*
G04 #@! TO.N,/s6*
X100584000Y-83627000D03*
G04 #@! TO.P,U6,6*
G04 #@! TO.N,/s7*
X101854000Y-83627000D03*
G04 #@! TO.P,U6,7*
G04 #@! TO.N,/s8*
X103124000Y-83627000D03*
G04 #@! TO.P,U6,8*
G04 #@! TO.N,GND*
X104394000Y-83627000D03*
G04 #@! TO.P,U6,9*
G04 #@! TO.N,Net-(U6-Pad9)*
X104394000Y-89027000D03*
G04 #@! TO.P,U6,10*
G04 #@! TO.N,+5V*
X103124000Y-89027000D03*
G04 #@! TO.P,U6,11*
G04 #@! TO.N,/clk*
X101854000Y-89027000D03*
G04 #@! TO.P,U6,12*
X100584000Y-89027000D03*
G04 #@! TO.P,U6,13*
G04 #@! TO.N,/cs*
X99314000Y-89027000D03*
G04 #@! TO.P,U6,14*
G04 #@! TO.N,Net-(R22-Pad1)*
X98044000Y-89027000D03*
G04 #@! TO.P,U6,15*
G04 #@! TO.N,/s1*
X96774000Y-89027000D03*
G04 #@! TO.P,U6,16*
G04 #@! TO.N,VCC*
X95504000Y-89027000D03*
G04 #@! TD*
G04 #@! TO.P,U7,16*
G04 #@! TO.N,VCC*
X205867000Y-92870000D03*
G04 #@! TO.P,U7,15*
G04 #@! TO.N,/enter*
X207137000Y-92870000D03*
G04 #@! TO.P,U7,14*
G04 #@! TO.N,Net-(U6-Pad9)*
X208407000Y-92870000D03*
G04 #@! TO.P,U7,13*
G04 #@! TO.N,/cs*
X209677000Y-92870000D03*
G04 #@! TO.P,U7,12*
G04 #@! TO.N,/clk*
X210947000Y-92870000D03*
G04 #@! TO.P,U7,11*
X212217000Y-92870000D03*
G04 #@! TO.P,U7,10*
G04 #@! TO.N,+5V*
X213487000Y-92870000D03*
G04 #@! TO.P,U7,9*
G04 #@! TO.N,GND*
X214757000Y-92870000D03*
G04 #@! TO.P,U7,8*
X214757000Y-87470000D03*
G04 #@! TO.P,U7,7*
X213487000Y-87470000D03*
G04 #@! TO.P,U7,6*
X212217000Y-87470000D03*
G04 #@! TO.P,U7,5*
X210947000Y-87470000D03*
G04 #@! TO.P,U7,4*
G04 #@! TO.N,/fixt*
X209677000Y-87470000D03*
G04 #@! TO.P,U7,3*
G04 #@! TO.N,/clear*
X208407000Y-87470000D03*
G04 #@! TO.P,U7,2*
G04 #@! TO.N,/copy*
X207137000Y-87470000D03*
G04 #@! TO.P,U7,1*
G04 #@! TO.N,/start*
X205867000Y-87470000D03*
G04 #@! TD*
D21*
G04 #@! TO.P,U5,X1*
G04 #@! TO.N,+3V3*
X60551060Y-105196640D03*
G04 #@! TO.P,U5,X2*
G04 #@! TO.N,/pan*
X60551060Y-107696000D03*
G04 #@! TO.P,U5,X3*
G04 #@! TO.N,GND*
X60551060Y-110195360D03*
G04 #@! TO.P,U5,Y2*
G04 #@! TO.N,/tilt*
X50800000Y-97944940D03*
G04 #@! TO.P,U5,Y1*
G04 #@! TO.N,+3V3*
X48300640Y-97944940D03*
G04 #@! TO.P,U5,Y3*
G04 #@! TO.N,GND*
X53299360Y-97944940D03*
D22*
G04 #@! TO.P,U5,*
G04 #@! TO.N,*
X58549540Y-101046280D03*
X43050460Y-101046280D03*
X58549540Y-114345720D03*
X43050460Y-114345720D03*
D21*
G04 #@! TO.P,U5,SW1*
G04 #@! TO.N,N/C*
X47548800Y-115945920D03*
G04 #@! TO.P,U5,*
G04 #@! TO.N,*
X54051200Y-115945920D03*
G04 #@! TO.P,U5,SW2*
G04 #@! TO.N,GND*
X47548800Y-120345200D03*
G04 #@! TO.P,U5,*
G04 #@! TO.N,*
X54051200Y-120345200D03*
G04 #@! TD*
D23*
G04 #@! TO.P,J1,1*
G04 #@! TO.N,GND*
X250480000Y-104196000D03*
G04 #@! TO.P,J1,2*
G04 #@! TO.N,+3V3*
X250480000Y-106736000D03*
G04 #@! TO.P,J1,3*
G04 #@! TO.N,/SCL*
X250480000Y-109276000D03*
G04 #@! TO.P,J1,4*
G04 #@! TO.N,/SDA*
X250480000Y-111816000D03*
G04 #@! TD*
D24*
G04 #@! TO.N,GND*
X118364000Y-78740000D03*
X79756000Y-89408000D03*
X102362000Y-63246000D03*
X106807000Y-83693000D03*
X46609000Y-68961000D03*
X197866000Y-77343000D03*
X183896000Y-68834000D03*
G04 #@! TO.N,+5V*
X214630000Y-76200000D03*
X200152000Y-126492000D03*
X92456000Y-89916000D03*
X87884000Y-89916000D03*
X79756000Y-74177000D03*
X59273000Y-61341000D03*
X51308000Y-74168000D03*
G04 #@! TO.N,+3V3*
X192532000Y-123444000D03*
X193040000Y-93726000D03*
X249174000Y-78232000D03*
X225298000Y-95504000D03*
X61722000Y-82352000D03*
X62230000Y-65814000D03*
X256794010Y-78232000D03*
X189992000Y-93218000D03*
G04 #@! TO.N,/s1*
X59182000Y-72136000D03*
G04 #@! TO.N,/s2*
X82015095Y-71908905D03*
G04 #@! TO.N,/s3*
X98298000Y-71882000D03*
G04 #@! TO.N,/enter*
X200914000Y-121920000D03*
G04 #@! TO.N,/s4*
X100584000Y-72390000D03*
G04 #@! TO.N,/RX*
X228346000Y-66294000D03*
G04 #@! TO.N,/TX*
X225552000Y-65786000D03*
G04 #@! TO.N,/tilt*
X219202000Y-115316000D03*
G04 #@! TO.N,/clear*
X250444000Y-64008000D03*
G04 #@! TO.N,/copy*
X230632000Y-62230000D03*
G04 #@! TO.N,Net-(D16-Pad1)*
X193548000Y-89220000D03*
X198120000Y-81280000D03*
G04 #@! TO.N,Net-(D21-Pad1)*
X81280000Y-90932000D03*
X78740000Y-119888000D03*
G04 #@! TO.N,/fixt*
X214376000Y-80772000D03*
G04 #@! TO.N,/s5*
X124206000Y-72136000D03*
G04 #@! TO.N,/s6*
X143510000Y-72136000D03*
G04 #@! TO.N,/s7*
X161290000Y-72136000D03*
G04 #@! TO.N,/s8*
X181610000Y-71882000D03*
G04 #@! TO.N,/start*
X249936000Y-125984000D03*
G04 #@! TO.N,Net-(R22-Pad1)*
X199644000Y-84328000D03*
G04 #@! TO.N,/clk*
X210820000Y-97282000D03*
X202184000Y-90678010D03*
G04 #@! TD*
D25*
G04 #@! TO.N,GND*
X214757000Y-87470000D02*
X210947000Y-87470000D01*
X53299360Y-92669360D02*
X49530000Y-88900000D01*
X53299360Y-97944940D02*
X53299360Y-92669360D01*
X113477000Y-83627000D02*
X118364000Y-78740000D01*
X104394000Y-83627000D02*
X113477000Y-83627000D01*
X75200001Y-106838501D02*
X76200000Y-107838500D01*
X74168000Y-105806500D02*
X75200001Y-106838501D01*
X74168000Y-94996000D02*
X74168000Y-105806500D01*
X79756000Y-89408000D02*
X74168000Y-94996000D01*
X57150000Y-57150000D02*
X51993773Y-62306227D01*
X77216000Y-57150000D02*
X57150000Y-57150000D01*
X51993773Y-62306227D02*
X51054000Y-63246000D01*
X82804000Y-62738000D02*
X77216000Y-57150000D01*
X101854000Y-62738000D02*
X102362000Y-63246000D01*
X82804000Y-62738000D02*
X101854000Y-62738000D01*
X104460000Y-83693000D02*
X104394000Y-83627000D01*
X106807000Y-83693000D02*
X104460000Y-83693000D01*
X51054000Y-64516000D02*
X51054000Y-63246000D01*
X46609000Y-68961000D02*
X51054000Y-64516000D01*
X256159000Y-111438097D02*
X256159000Y-109997500D01*
X249614097Y-117983000D02*
X256159000Y-111438097D01*
X254999999Y-108838499D02*
X254000000Y-107838500D01*
X256159000Y-109997500D02*
X254999999Y-108838499D01*
X246370998Y-117983000D02*
X249614097Y-117983000D01*
X216232999Y-93745999D02*
X222133997Y-93745999D01*
X215357000Y-92870000D02*
X216232999Y-93745999D01*
X222133997Y-93745999D02*
X246370998Y-117983000D01*
X214757000Y-92870000D02*
X215357000Y-92870000D01*
X44958000Y-81661000D02*
X44958000Y-69342000D01*
X49530000Y-86233000D02*
X44958000Y-81661000D01*
X44958000Y-69342000D02*
X51054000Y-63246000D01*
X49530000Y-88900000D02*
X49530000Y-86233000D01*
X217297000Y-73279000D02*
X220080001Y-70495999D01*
X217297000Y-83880000D02*
X217297000Y-73279000D01*
X214757000Y-86420000D02*
X217297000Y-83880000D01*
X220080001Y-70495999D02*
X220980000Y-69596000D01*
X214757000Y-87470000D02*
X214757000Y-86420000D01*
X197866000Y-77343000D02*
X197485000Y-76962000D01*
X197485000Y-76962000D02*
X197231000Y-76962000D01*
X197866000Y-77343000D02*
X197866000Y-68326000D01*
X197866000Y-68326000D02*
X192786000Y-63246000D01*
X183896000Y-63500000D02*
X184150000Y-63246000D01*
X184150000Y-63246000D02*
X102362000Y-63246000D01*
X183896000Y-68834000D02*
X183896000Y-63500000D01*
X192786000Y-63246000D02*
X184150000Y-63246000D01*
D26*
G04 #@! TO.N,+5V*
X218694000Y-67056000D02*
X220980000Y-67056000D01*
X214630000Y-71120000D02*
X218694000Y-67056000D01*
X214630000Y-76200000D02*
X214630000Y-71120000D01*
X213487000Y-96539002D02*
X202692000Y-107334002D01*
X213487000Y-95758000D02*
X213487000Y-96539002D01*
X213487000Y-92870000D02*
X213487000Y-95758000D01*
X213487000Y-95758000D02*
X213487000Y-96647000D01*
X202692000Y-123952000D02*
X200152000Y-126492000D01*
X202692000Y-107334002D02*
X202692000Y-123952000D01*
X103124000Y-89027000D02*
X103124000Y-90170000D01*
X93017001Y-90477001D02*
X92456000Y-89916000D01*
X102816999Y-90477001D02*
X93017001Y-90477001D01*
X103124000Y-90170000D02*
X102816999Y-90477001D01*
X87884000Y-89916000D02*
X87884000Y-82305000D01*
X87884000Y-82305000D02*
X79756000Y-74177000D01*
X59273000Y-66203000D02*
X51308000Y-74168000D01*
X59273000Y-61341000D02*
X59273000Y-66203000D01*
G04 #@! TO.N,+3V3*
X60551060Y-105196640D02*
X52364640Y-105196640D01*
X48300640Y-101132640D02*
X48300640Y-97944940D01*
X52364640Y-105196640D02*
X48300640Y-101132640D01*
X192532000Y-94234000D02*
X193040000Y-93726000D01*
X192532000Y-123444000D02*
X192532000Y-94234000D01*
X249428000Y-77978000D02*
X249174000Y-78232000D01*
X252730000Y-77978000D02*
X249428000Y-77978000D01*
X61722000Y-82352000D02*
X61722000Y-78994000D01*
X57881999Y-75153999D02*
X57881999Y-70162001D01*
X57881999Y-70162001D02*
X62230000Y-65814000D01*
X61722000Y-78994000D02*
X57881999Y-75153999D01*
X252730000Y-77978000D02*
X252984000Y-78232000D01*
X252984000Y-78232000D02*
X255945482Y-78232000D01*
X255945482Y-78232000D02*
X256794010Y-78232000D01*
X191008000Y-94234000D02*
X189992000Y-93218000D01*
X192532000Y-94234000D02*
X191008000Y-94234000D01*
X60551060Y-83522940D02*
X61722000Y-82352000D01*
X60551060Y-105196640D02*
X60551060Y-83522940D01*
X252299999Y-78408001D02*
X252730000Y-77978000D01*
X252299999Y-114095001D02*
X252299999Y-78408001D01*
X225298000Y-95504000D02*
X228092000Y-95504000D01*
X250825000Y-115570000D02*
X252299999Y-114095001D01*
X228092000Y-95504000D02*
X248158000Y-115570000D01*
X248158000Y-115570000D02*
X250825000Y-115570000D01*
D25*
G04 #@! TO.N,/SCL*
X245080001Y-100975999D02*
X245980000Y-100076000D01*
X242570000Y-103486000D02*
X245080001Y-100975999D01*
X242570000Y-105918000D02*
X242570000Y-103486000D01*
X245928000Y-109276000D02*
X242570000Y-105918000D01*
X250480000Y-109276000D02*
X245928000Y-109276000D01*
G04 #@! TO.N,/SDA*
X242062000Y-96374000D02*
X245080001Y-93355999D01*
X242062000Y-106934000D02*
X242062000Y-96374000D01*
X245080001Y-93355999D02*
X245980000Y-92456000D01*
X246944000Y-111816000D02*
X242062000Y-106934000D01*
X250480000Y-111816000D02*
X246944000Y-111816000D01*
G04 #@! TO.N,/s1*
X96774000Y-88577000D02*
X96774000Y-89027000D01*
X80333000Y-72136000D02*
X96774000Y-88577000D01*
X59182000Y-72136000D02*
X80333000Y-72136000D01*
G04 #@! TO.N,/s2*
X93733190Y-83627000D02*
X95504000Y-83627000D01*
X82015095Y-71908905D02*
X93733190Y-83627000D01*
G04 #@! TO.N,/s3*
X96774000Y-73406000D02*
X96774000Y-83627000D01*
X98298000Y-71882000D02*
X96774000Y-73406000D01*
G04 #@! TO.N,/enter*
X200914000Y-121920000D02*
X200914000Y-101854000D01*
X207137000Y-95631000D02*
X207137000Y-92870000D01*
X200914000Y-101854000D02*
X207137000Y-95631000D01*
G04 #@! TO.N,/s4*
X98044000Y-74930000D02*
X98044000Y-83627000D01*
X100584000Y-72390000D02*
X98044000Y-74930000D01*
G04 #@! TO.N,/RX*
X241808000Y-79756000D02*
X245980000Y-79756000D01*
X228346000Y-66294000D02*
X241808000Y-79756000D01*
G04 #@! TO.N,/TX*
X242062000Y-82296000D02*
X245980000Y-82296000D01*
X225552000Y-65786000D02*
X242062000Y-82296000D01*
G04 #@! TO.N,/pan*
X224536000Y-98552000D02*
X220980000Y-94996000D01*
X224536000Y-120904000D02*
X224536000Y-98552000D01*
X214122000Y-131318000D02*
X224536000Y-120904000D01*
X84173060Y-131318000D02*
X214122000Y-131318000D01*
X60551060Y-107696000D02*
X84173060Y-131318000D01*
G04 #@! TO.N,/tilt*
X224035990Y-99321990D02*
X222250000Y-97536000D01*
X220616213Y-115316000D02*
X224035990Y-111896223D01*
X222250000Y-97536000D02*
X220980000Y-97536000D01*
X224035990Y-111896223D02*
X224035990Y-99321990D01*
X219202000Y-115316000D02*
X220616213Y-115316000D01*
G04 #@! TO.N,/clear*
X208407000Y-86420000D02*
X208407000Y-87470000D01*
X208407000Y-84763880D02*
X208407000Y-86420000D01*
X202946000Y-79302880D02*
X208407000Y-84763880D01*
X202946000Y-67056000D02*
X202946000Y-79302880D01*
X228473000Y-64262000D02*
X205740000Y-64262000D01*
X229235000Y-65024000D02*
X228473000Y-64262000D01*
X205740000Y-64262000D02*
X202946000Y-67056000D01*
X249428000Y-65024000D02*
X229235000Y-65024000D01*
X250444000Y-64008000D02*
X249428000Y-65024000D01*
G04 #@! TO.N,/copy*
X202438000Y-59436002D02*
X204724001Y-57150001D01*
X202438000Y-79502000D02*
X202438000Y-59436002D01*
X207137000Y-84201000D02*
X202438000Y-79502000D01*
X230032001Y-61630001D02*
X230632000Y-62230000D01*
X207137000Y-87470000D02*
X207137000Y-84201000D01*
X225552001Y-57150001D02*
X230032001Y-61630001D01*
X204724001Y-57150001D02*
X225552001Y-57150001D01*
G04 #@! TO.N,Net-(D16-Pad1)*
X200594001Y-83754001D02*
X198120000Y-81280000D01*
X200594001Y-84784001D02*
X200594001Y-83754001D01*
X196158002Y-89220000D02*
X200594001Y-84784001D01*
X193548000Y-89220000D02*
X196158002Y-89220000D01*
G04 #@! TO.N,Net-(D21-Pad1)*
X78740000Y-93472000D02*
X78740000Y-119888000D01*
X81280000Y-90932000D02*
X78740000Y-93472000D01*
G04 #@! TO.N,/fixt*
X209677000Y-85471000D02*
X209677000Y-87470000D01*
X214376000Y-80772000D02*
X209677000Y-85471000D01*
G04 #@! TO.N,/s5*
X103378000Y-72136000D02*
X99314000Y-76200000D01*
X99314000Y-76200000D02*
X99314000Y-83627000D01*
X124206000Y-72136000D02*
X103378000Y-72136000D01*
G04 #@! TO.N,/s6*
X142095787Y-72136000D02*
X140063787Y-74168000D01*
X143510000Y-72136000D02*
X142095787Y-72136000D01*
X140063787Y-74168000D02*
X103886000Y-74168000D01*
X100584000Y-77470000D02*
X100584000Y-83627000D01*
X103886000Y-74168000D02*
X100584000Y-77470000D01*
G04 #@! TO.N,/s7*
X156827787Y-75184000D02*
X104648000Y-75184000D01*
X104648000Y-75184000D02*
X101854000Y-77978000D01*
X159875787Y-72136000D02*
X156827787Y-75184000D01*
X101854000Y-77978000D02*
X101854000Y-83627000D01*
X161290000Y-72136000D02*
X159875787Y-72136000D01*
G04 #@! TO.N,/s8*
X161938001Y-70785999D02*
X162640001Y-71487999D01*
X180513999Y-70785999D02*
X161938001Y-70785999D01*
X162640001Y-72784001D02*
X159224002Y-76200000D01*
X162640001Y-71487999D02*
X162640001Y-72784001D01*
X181610000Y-71882000D02*
X180513999Y-70785999D01*
X159224002Y-76200000D02*
X105156000Y-76200000D01*
X103124000Y-78232000D02*
X103124000Y-83627000D01*
X105156000Y-76200000D02*
X103124000Y-78232000D01*
G04 #@! TO.N,/start*
X258064000Y-120254502D02*
X252334502Y-125984000D01*
X258064000Y-65532000D02*
X258064000Y-120254502D01*
X201937990Y-59228890D02*
X204516890Y-56649990D01*
X201945981Y-79644981D02*
X201937989Y-79636989D01*
X205867000Y-83638122D02*
X201945981Y-79717103D01*
X205867000Y-87470000D02*
X205867000Y-83638122D01*
X201937989Y-79636989D02*
X201937990Y-59228890D01*
X201945981Y-79717103D02*
X201945981Y-79644981D01*
X249181990Y-56649990D02*
X258064000Y-65532000D01*
X204516890Y-56649990D02*
X249181990Y-56649990D01*
X252334502Y-125984000D02*
X249936000Y-125984000D01*
G04 #@! TO.N,Net-(R22-Pad1)*
X98044000Y-89027000D02*
X98044000Y-88577000D01*
X197104000Y-86868000D02*
X199044001Y-84927999D01*
X99753000Y-86868000D02*
X197104000Y-86868000D01*
X98044000Y-88577000D02*
X99753000Y-86868000D01*
X199044001Y-84927999D02*
X199644000Y-84328000D01*
G04 #@! TO.N,/master*
X204276000Y-129234000D02*
X204276000Y-109922000D01*
X204276000Y-109922000D02*
X214122000Y-100076000D01*
X214122000Y-100076000D02*
X220980000Y-100076000D01*
G04 #@! TO.N,/cs*
X242189999Y-88626001D02*
X245080001Y-85735999D01*
X213470999Y-88626001D02*
X242189999Y-88626001D01*
X209677000Y-88626001D02*
X213470999Y-88626001D01*
X209677000Y-92870000D02*
X209677000Y-88626001D01*
X245080001Y-85735999D02*
X245980000Y-84836000D01*
X110888244Y-90170000D02*
X108086255Y-87368011D01*
X100522989Y-87368011D02*
X99314000Y-88577000D01*
X213470999Y-88626001D02*
X202457999Y-88626001D01*
X99314000Y-88577000D02*
X99314000Y-89027000D01*
X200914000Y-90170000D02*
X110888244Y-90170000D01*
X202457999Y-88626001D02*
X200914000Y-90170000D01*
X108086255Y-87368011D02*
X100522989Y-87368011D01*
G04 #@! TO.N,/clk*
X212217000Y-92870000D02*
X210947000Y-92870000D01*
X245080001Y-88275999D02*
X245980000Y-87376000D01*
X212217000Y-91567000D02*
X212598000Y-91186000D01*
X212598000Y-91186000D02*
X242170000Y-91186000D01*
X212217000Y-92870000D02*
X212217000Y-91567000D01*
X101854000Y-89027000D02*
X100584000Y-89027000D01*
X210947000Y-97155000D02*
X210820000Y-97282000D01*
X210947000Y-92870000D02*
X210947000Y-97155000D01*
X242170000Y-91186000D02*
X245080001Y-88275999D01*
X201335472Y-90678010D02*
X202184000Y-90678010D01*
X101854000Y-88577000D02*
X102562978Y-87868022D01*
X102562978Y-87868022D02*
X107879144Y-87868022D01*
X107879144Y-87868022D02*
X110689132Y-90678010D01*
X110689132Y-90678010D02*
X201335472Y-90678010D01*
X101854000Y-89027000D02*
X101854000Y-88577000D01*
G04 #@! TO.N,Net-(U6-Pad9)*
X200777996Y-91186000D02*
X110490000Y-91186000D01*
X203011988Y-91628012D02*
X201220008Y-91628012D01*
X203454000Y-91186000D02*
X203011988Y-91628012D01*
X108331000Y-89027000D02*
X104394000Y-89027000D01*
X208407000Y-92420000D02*
X207173000Y-91186000D01*
X208407000Y-92870000D02*
X208407000Y-92420000D01*
X110490000Y-91186000D02*
X108331000Y-89027000D01*
X207173000Y-91186000D02*
X203454000Y-91186000D01*
X201220008Y-91628012D02*
X200777996Y-91186000D01*
G04 #@! TO.N,VCC*
X95504000Y-89477000D02*
X95504000Y-89027000D01*
X98044000Y-91694000D02*
X92827998Y-91694000D01*
X91505999Y-90372001D02*
X91505999Y-88834001D01*
X92827998Y-91694000D02*
X91505999Y-90372001D01*
X98044000Y-91694000D02*
X97721000Y-91694000D01*
X94904000Y-89027000D02*
X95504000Y-89027000D01*
X94711001Y-88834001D02*
X94904000Y-89027000D01*
X91505999Y-88834001D02*
X94711001Y-88834001D01*
X200578874Y-91694000D02*
X98044000Y-91694000D01*
X201754874Y-92870000D02*
X200578874Y-91694000D01*
X205867000Y-92870000D02*
X201754874Y-92870000D01*
G04 #@! TD*
D27*
G04 #@! TO.N,GND*
G36*
X81278435Y-56362435D02*
X80881263Y-56956846D01*
X80741795Y-57658000D01*
X80881263Y-58359154D01*
X81261353Y-58928000D01*
X80881263Y-59496846D01*
X80741795Y-60198000D01*
X80881263Y-60899154D01*
X81239172Y-61434803D01*
X81165673Y-61508302D01*
X81069000Y-61741691D01*
X81069000Y-62452250D01*
X81227750Y-62611000D01*
X82677000Y-62611000D01*
X82677000Y-62591000D01*
X82931000Y-62591000D01*
X82931000Y-62611000D01*
X84380250Y-62611000D01*
X84539000Y-62452250D01*
X84539000Y-61741691D01*
X84442327Y-61508302D01*
X84368828Y-61434803D01*
X84726737Y-60899154D01*
X84866205Y-60198000D01*
X84726737Y-59496846D01*
X84346647Y-58928000D01*
X84726737Y-58359154D01*
X84866205Y-57658000D01*
X84726737Y-56956846D01*
X84329565Y-56362435D01*
X83827550Y-56027000D01*
X203616772Y-56027000D01*
X201251440Y-58392333D01*
X201161518Y-58452417D01*
X201101434Y-58542339D01*
X201101432Y-58542341D01*
X201023130Y-58659529D01*
X200923480Y-58808666D01*
X200864138Y-59107000D01*
X200839892Y-59228890D01*
X200860991Y-59334961D01*
X200860989Y-79530922D01*
X200839891Y-79636989D01*
X200851855Y-79697135D01*
X200847883Y-79717103D01*
X200868981Y-79823169D01*
X200868981Y-79823174D01*
X200931470Y-80137326D01*
X201169508Y-80493576D01*
X201259433Y-80553662D01*
X204790001Y-84084231D01*
X204790000Y-86214306D01*
X204693785Y-86358303D01*
X204621839Y-86720000D01*
X204621839Y-87549001D01*
X202564065Y-87549001D01*
X202457998Y-87527903D01*
X202351932Y-87549001D01*
X202351927Y-87549001D01*
X202037775Y-87611490D01*
X201973040Y-87654744D01*
X201771448Y-87789443D01*
X201771445Y-87789446D01*
X201681526Y-87849528D01*
X201621444Y-87939447D01*
X200467893Y-89093000D01*
X197808109Y-89093000D01*
X201280553Y-85620557D01*
X201370474Y-85560474D01*
X201608512Y-85204225D01*
X201671001Y-84890073D01*
X201671001Y-84890068D01*
X201692099Y-84784001D01*
X201671001Y-84677935D01*
X201671001Y-83860069D01*
X201692099Y-83754001D01*
X201671001Y-83647933D01*
X201671001Y-83647929D01*
X201616314Y-83373000D01*
X201608512Y-83333776D01*
X201430559Y-83067451D01*
X201430558Y-83067450D01*
X201370474Y-82977528D01*
X201280552Y-82917444D01*
X199647000Y-81283893D01*
X199647000Y-80976261D01*
X199414528Y-80415024D01*
X198984976Y-79985472D01*
X198423739Y-79753000D01*
X197816261Y-79753000D01*
X197255024Y-79985472D01*
X196825472Y-80415024D01*
X196593000Y-80976261D01*
X196593000Y-81583739D01*
X196825472Y-82144976D01*
X197255024Y-82574528D01*
X197816261Y-82807000D01*
X198123893Y-82807000D01*
X198564694Y-83247802D01*
X198349472Y-83463024D01*
X198117000Y-84024261D01*
X198117000Y-84331892D01*
X196657893Y-85791000D01*
X99859066Y-85791000D01*
X99753000Y-85769902D01*
X99646933Y-85791000D01*
X99646928Y-85791000D01*
X99332776Y-85853489D01*
X99306701Y-85870912D01*
X99066450Y-86031442D01*
X99066449Y-86031443D01*
X98976527Y-86091527D01*
X98916443Y-86181449D01*
X97766054Y-87331839D01*
X97744000Y-87331839D01*
X97409000Y-87398475D01*
X97074000Y-87331839D01*
X97051947Y-87331839D01*
X95002111Y-85282003D01*
X95204000Y-85322161D01*
X95804000Y-85322161D01*
X96139000Y-85255525D01*
X96474000Y-85322161D01*
X97074000Y-85322161D01*
X97409000Y-85255525D01*
X97744000Y-85322161D01*
X98344000Y-85322161D01*
X98679000Y-85255525D01*
X99014000Y-85322161D01*
X99614000Y-85322161D01*
X99949000Y-85255525D01*
X100284000Y-85322161D01*
X100884000Y-85322161D01*
X101219000Y-85255525D01*
X101554000Y-85322161D01*
X102154000Y-85322161D01*
X102489000Y-85255525D01*
X102824000Y-85322161D01*
X103424000Y-85322161D01*
X103785697Y-85250215D01*
X104092330Y-85045330D01*
X104127388Y-84992862D01*
X104267000Y-84853250D01*
X104267000Y-84783917D01*
X104297215Y-84738697D01*
X104369161Y-84377000D01*
X104369161Y-83754000D01*
X104521000Y-83754000D01*
X104521000Y-84853250D01*
X104679750Y-85012000D01*
X104820310Y-85012000D01*
X105053699Y-84915327D01*
X105232327Y-84736698D01*
X105329000Y-84503309D01*
X105329000Y-83912750D01*
X105170250Y-83754000D01*
X104521000Y-83754000D01*
X104369161Y-83754000D01*
X104369161Y-82877000D01*
X104297215Y-82515303D01*
X104267000Y-82470083D01*
X104267000Y-82400750D01*
X104521000Y-82400750D01*
X104521000Y-83500000D01*
X105170250Y-83500000D01*
X105329000Y-83341250D01*
X105329000Y-82750691D01*
X105232327Y-82517302D01*
X105053699Y-82338673D01*
X104820310Y-82242000D01*
X104679750Y-82242000D01*
X104521000Y-82400750D01*
X104267000Y-82400750D01*
X104201000Y-82334750D01*
X104201000Y-78678107D01*
X105602108Y-77277000D01*
X159117936Y-77277000D01*
X159224002Y-77298098D01*
X159330068Y-77277000D01*
X159330074Y-77277000D01*
X159644226Y-77214511D01*
X160000475Y-76976473D01*
X160060561Y-76886548D01*
X163326552Y-73620558D01*
X163416474Y-73560474D01*
X163499709Y-73435905D01*
X163620601Y-73254976D01*
X163654512Y-73204225D01*
X163717001Y-72890073D01*
X163717001Y-72890068D01*
X163738099Y-72784002D01*
X163717001Y-72677935D01*
X163717001Y-71862999D01*
X180067892Y-71862999D01*
X180083000Y-71878107D01*
X180083000Y-72185739D01*
X180315472Y-72746976D01*
X180745024Y-73176528D01*
X181306261Y-73409000D01*
X181913739Y-73409000D01*
X182474976Y-73176528D01*
X182904528Y-72746976D01*
X183137000Y-72185739D01*
X183137000Y-71578261D01*
X182904528Y-71017024D01*
X182474976Y-70587472D01*
X181913739Y-70355000D01*
X181606107Y-70355000D01*
X181350558Y-70099451D01*
X181290472Y-70009526D01*
X180934223Y-69771488D01*
X180620071Y-69708999D01*
X180620065Y-69708999D01*
X180513999Y-69687901D01*
X180407933Y-69708999D01*
X162044067Y-69708999D01*
X161938001Y-69687901D01*
X161831935Y-69708999D01*
X161831929Y-69708999D01*
X161517777Y-69771488D01*
X161161528Y-70009526D01*
X160923490Y-70365775D01*
X160865129Y-70659175D01*
X160425024Y-70841472D01*
X160207496Y-71059000D01*
X159981853Y-71059000D01*
X159875787Y-71037902D01*
X159769720Y-71059000D01*
X159769715Y-71059000D01*
X159455563Y-71121489D01*
X159455561Y-71121490D01*
X159455562Y-71121490D01*
X159189237Y-71299442D01*
X159189236Y-71299443D01*
X159099314Y-71359527D01*
X159039230Y-71449449D01*
X156381680Y-74107000D01*
X141647894Y-74107000D01*
X142484695Y-73270199D01*
X142645024Y-73430528D01*
X143206261Y-73663000D01*
X143813739Y-73663000D01*
X144374976Y-73430528D01*
X144804528Y-73000976D01*
X145037000Y-72439739D01*
X145037000Y-71832261D01*
X144804528Y-71271024D01*
X144374976Y-70841472D01*
X143813739Y-70609000D01*
X143206261Y-70609000D01*
X142645024Y-70841472D01*
X142427496Y-71059000D01*
X142201853Y-71059000D01*
X142095787Y-71037902D01*
X141989720Y-71059000D01*
X141989715Y-71059000D01*
X141675563Y-71121489D01*
X141675561Y-71121490D01*
X141675562Y-71121490D01*
X141409237Y-71299442D01*
X141409236Y-71299443D01*
X141319314Y-71359527D01*
X141259230Y-71449449D01*
X139617680Y-73091000D01*
X125410504Y-73091000D01*
X125500528Y-73000976D01*
X125733000Y-72439739D01*
X125733000Y-71832261D01*
X125500528Y-71271024D01*
X125070976Y-70841472D01*
X124509739Y-70609000D01*
X123902261Y-70609000D01*
X123341024Y-70841472D01*
X123123496Y-71059000D01*
X103484066Y-71059000D01*
X103378000Y-71037902D01*
X103271933Y-71059000D01*
X103271928Y-71059000D01*
X102957776Y-71121489D01*
X102957774Y-71121490D01*
X102957775Y-71121490D01*
X102691450Y-71299442D01*
X102691449Y-71299443D01*
X102601527Y-71359527D01*
X102541443Y-71449449D01*
X102050556Y-71940336D01*
X101878528Y-71525024D01*
X101448976Y-71095472D01*
X100887739Y-70863000D01*
X100280261Y-70863000D01*
X99719024Y-71095472D01*
X99652555Y-71161941D01*
X99592528Y-71017024D01*
X99162976Y-70587472D01*
X98601739Y-70355000D01*
X97994261Y-70355000D01*
X97433024Y-70587472D01*
X97003472Y-71017024D01*
X96771000Y-71578261D01*
X96771000Y-71885893D01*
X96087452Y-72569441D01*
X95997527Y-72629527D01*
X95759489Y-72985777D01*
X95697000Y-73299929D01*
X95697000Y-73299934D01*
X95675902Y-73406000D01*
X95697000Y-73512067D01*
X95697001Y-81931839D01*
X95204000Y-81931839D01*
X94842303Y-82003785D01*
X94535670Y-82208670D01*
X94330785Y-82515303D01*
X94323883Y-82550000D01*
X94179298Y-82550000D01*
X83542095Y-71912798D01*
X83542095Y-71605166D01*
X83309623Y-71043929D01*
X82880071Y-70614377D01*
X82318834Y-70381905D01*
X81711356Y-70381905D01*
X81150119Y-70614377D01*
X80720567Y-71043929D01*
X80693372Y-71109584D01*
X80439072Y-71059000D01*
X80439066Y-71059000D01*
X80333000Y-71037902D01*
X80226934Y-71059000D01*
X60264504Y-71059000D01*
X60046976Y-70841472D01*
X59485739Y-70609000D01*
X59453081Y-70609000D01*
X62853555Y-67208528D01*
X63094976Y-67108528D01*
X63524528Y-66678976D01*
X63757000Y-66117739D01*
X63757000Y-65510261D01*
X63524528Y-64949024D01*
X63094976Y-64519472D01*
X62533739Y-64287000D01*
X61926261Y-64287000D01*
X61365024Y-64519472D01*
X60935472Y-64949024D01*
X60835472Y-65190445D01*
X60700000Y-65325917D01*
X60700000Y-63023750D01*
X81069000Y-63023750D01*
X81069000Y-63734309D01*
X81165673Y-63967698D01*
X81344301Y-64146327D01*
X81577690Y-64243000D01*
X82518250Y-64243000D01*
X82677000Y-64084250D01*
X82677000Y-62865000D01*
X82931000Y-62865000D01*
X82931000Y-64084250D01*
X83089750Y-64243000D01*
X84030310Y-64243000D01*
X84263699Y-64146327D01*
X84442327Y-63967698D01*
X84539000Y-63734309D01*
X84539000Y-63023750D01*
X84380250Y-62865000D01*
X82931000Y-62865000D01*
X82677000Y-62865000D01*
X81227750Y-62865000D01*
X81069000Y-63023750D01*
X60700000Y-63023750D01*
X60700000Y-61886160D01*
X60800000Y-61644739D01*
X60800000Y-61037261D01*
X60567528Y-60476024D01*
X60137976Y-60046472D01*
X59576739Y-59814000D01*
X58969261Y-59814000D01*
X58408024Y-60046472D01*
X57978472Y-60476024D01*
X57746000Y-61037261D01*
X57746000Y-61644739D01*
X57846000Y-61886161D01*
X57846001Y-65611917D01*
X50684448Y-72773471D01*
X50443024Y-72873472D01*
X50013472Y-73303024D01*
X49781000Y-73864261D01*
X49781000Y-74471739D01*
X50013472Y-75032976D01*
X50443024Y-75462528D01*
X51004261Y-75695000D01*
X51611739Y-75695000D01*
X52172976Y-75462528D01*
X52602528Y-75032976D01*
X52702529Y-74791552D01*
X56455000Y-71039082D01*
X56454999Y-75013458D01*
X56427044Y-75153999D01*
X56454999Y-75294539D01*
X56454999Y-75294542D01*
X56537795Y-75710786D01*
X56853190Y-76182807D01*
X56972339Y-76262421D01*
X60295001Y-79585084D01*
X60295000Y-81760918D01*
X59641401Y-82414518D01*
X59522252Y-82494131D01*
X59442640Y-82613279D01*
X59206856Y-82966153D01*
X59096105Y-83522940D01*
X59124061Y-83663485D01*
X59124060Y-99468465D01*
X58883230Y-99368710D01*
X58215850Y-99368710D01*
X57599273Y-99624104D01*
X57127364Y-100096013D01*
X56871970Y-100712590D01*
X56871970Y-101379970D01*
X57127364Y-101996547D01*
X57599273Y-102468456D01*
X58215850Y-102723850D01*
X58883230Y-102723850D01*
X59124060Y-102624095D01*
X59124060Y-103769640D01*
X52955723Y-103769640D01*
X49727640Y-100541559D01*
X49727640Y-99585971D01*
X50416797Y-99871430D01*
X51183203Y-99871430D01*
X51891269Y-99578139D01*
X52339081Y-99130327D01*
X52425402Y-99363905D01*
X53034942Y-99590341D01*
X53684737Y-99566281D01*
X54173318Y-99363905D01*
X54271917Y-99097103D01*
X53299360Y-98124545D01*
X53285218Y-98138688D01*
X53105612Y-97959082D01*
X53119755Y-97944940D01*
X53478965Y-97944940D01*
X54451523Y-98917497D01*
X54718325Y-98818898D01*
X54944761Y-98209358D01*
X54920701Y-97559563D01*
X54718325Y-97070982D01*
X54451523Y-96972383D01*
X53478965Y-97944940D01*
X53119755Y-97944940D01*
X53105612Y-97930798D01*
X53285218Y-97751192D01*
X53299360Y-97765335D01*
X54271917Y-96792777D01*
X54173318Y-96525975D01*
X53563778Y-96299539D01*
X52913983Y-96323599D01*
X52425402Y-96525975D01*
X52339081Y-96759553D01*
X51891269Y-96311741D01*
X51183203Y-96018450D01*
X50416797Y-96018450D01*
X49708731Y-96311741D01*
X49550320Y-96470152D01*
X49391909Y-96311741D01*
X48683843Y-96018450D01*
X47917437Y-96018450D01*
X47209371Y-96311741D01*
X46667441Y-96853671D01*
X46374150Y-97561737D01*
X46374150Y-98328143D01*
X46667441Y-99036209D01*
X46873641Y-99242409D01*
X46873640Y-100992099D01*
X46845685Y-101132640D01*
X46873640Y-101273180D01*
X46873640Y-101273183D01*
X46956436Y-101689427D01*
X47271831Y-102161448D01*
X47390980Y-102241062D01*
X51256220Y-106106303D01*
X51335831Y-106225449D01*
X51454977Y-106305060D01*
X51454978Y-106305061D01*
X51504610Y-106338224D01*
X51807852Y-106540844D01*
X52224096Y-106623640D01*
X52224099Y-106623640D01*
X52364640Y-106651595D01*
X52505180Y-106623640D01*
X58910029Y-106623640D01*
X58624570Y-107312797D01*
X58624570Y-108079203D01*
X58917861Y-108787269D01*
X59365673Y-109235081D01*
X59132095Y-109321402D01*
X58905659Y-109930942D01*
X58929719Y-110580737D01*
X59132095Y-111069318D01*
X59398897Y-111167917D01*
X60371455Y-110195360D01*
X60357312Y-110181218D01*
X60536918Y-110001612D01*
X60551060Y-110015755D01*
X60565203Y-110001613D01*
X60744808Y-110181218D01*
X60730665Y-110195360D01*
X61703223Y-111167917D01*
X61970025Y-111069318D01*
X62086834Y-110754881D01*
X83336503Y-132004551D01*
X83396587Y-132094473D01*
X83486509Y-132154557D01*
X83486510Y-132154558D01*
X83752835Y-132332511D01*
X83815837Y-132345043D01*
X84066988Y-132395000D01*
X84066992Y-132395000D01*
X84173060Y-132416098D01*
X84279128Y-132395000D01*
X214015934Y-132395000D01*
X214122000Y-132416098D01*
X214228066Y-132395000D01*
X214228072Y-132395000D01*
X214542224Y-132332511D01*
X214898473Y-132094473D01*
X214958559Y-132004548D01*
X225222552Y-121740556D01*
X225312473Y-121680473D01*
X225550511Y-121324224D01*
X225613000Y-121010072D01*
X225613000Y-121010067D01*
X225634098Y-120904001D01*
X225613000Y-120797934D01*
X225613000Y-98658066D01*
X225634098Y-98551999D01*
X225613000Y-98445933D01*
X225613000Y-98445928D01*
X225550511Y-98131776D01*
X225312473Y-97775527D01*
X225222551Y-97715443D01*
X222807000Y-95299893D01*
X222807000Y-94632587D01*
X222528856Y-93961088D01*
X222293768Y-93726000D01*
X222528856Y-93490912D01*
X222807000Y-92819413D01*
X222807000Y-92263000D01*
X242063934Y-92263000D01*
X242170000Y-92284098D01*
X242276066Y-92263000D01*
X242276072Y-92263000D01*
X242590224Y-92200511D01*
X242946473Y-91962473D01*
X243006559Y-91872548D01*
X244283834Y-90595274D01*
X244431144Y-90950912D01*
X244666232Y-91186000D01*
X244431144Y-91421088D01*
X244153000Y-92092587D01*
X244153000Y-92759892D01*
X241375450Y-95537443D01*
X241285528Y-95597527D01*
X241225444Y-95687449D01*
X241225442Y-95687451D01*
X241084395Y-95898544D01*
X241047490Y-95953776D01*
X241028107Y-96051223D01*
X240963902Y-96374000D01*
X240985001Y-96480071D01*
X240985000Y-106378918D01*
X229200424Y-94594343D01*
X229120809Y-94475191D01*
X228648788Y-94159796D01*
X228232544Y-94077000D01*
X228232540Y-94077000D01*
X228092000Y-94049045D01*
X227951460Y-94077000D01*
X225843160Y-94077000D01*
X225601739Y-93977000D01*
X224994261Y-93977000D01*
X224433024Y-94209472D01*
X224003472Y-94639024D01*
X223771000Y-95200261D01*
X223771000Y-95807739D01*
X224003472Y-96368976D01*
X224433024Y-96798528D01*
X224994261Y-97031000D01*
X225601739Y-97031000D01*
X225843160Y-96931000D01*
X227500919Y-96931000D01*
X247049580Y-116479663D01*
X247129191Y-116598809D01*
X247601212Y-116914204D01*
X248017456Y-116997000D01*
X248017459Y-116997000D01*
X248157999Y-117024955D01*
X248298539Y-116997000D01*
X250684460Y-116997000D01*
X250825000Y-117024955D01*
X250965540Y-116997000D01*
X250965544Y-116997000D01*
X251381788Y-116914204D01*
X251853809Y-116598809D01*
X251933423Y-116479658D01*
X253209663Y-115203419D01*
X253328807Y-115123810D01*
X253408417Y-115004666D01*
X253408420Y-115004663D01*
X253625747Y-114679410D01*
X253644203Y-114651789D01*
X253726999Y-114235545D01*
X253726999Y-114235541D01*
X253754954Y-114095001D01*
X253726999Y-113954461D01*
X253726999Y-112265500D01*
X254383304Y-112265500D01*
X255091558Y-111972132D01*
X255633632Y-111430058D01*
X255927000Y-110721804D01*
X255927000Y-109955196D01*
X255633632Y-109246942D01*
X255185812Y-108799122D01*
X255419387Y-108712764D01*
X255645908Y-108103039D01*
X255621856Y-107453040D01*
X255487169Y-107127877D01*
X255668330Y-107006830D01*
X255873215Y-106700197D01*
X255945161Y-106338500D01*
X255945161Y-104338500D01*
X255873215Y-103976803D01*
X255668330Y-103670170D01*
X255361697Y-103465285D01*
X255000000Y-103393339D01*
X253726999Y-103393339D01*
X253726999Y-79659000D01*
X256248850Y-79659000D01*
X256490271Y-79759000D01*
X256987000Y-79759000D01*
X256987001Y-119808393D01*
X251888395Y-124907000D01*
X251018504Y-124907000D01*
X250800976Y-124689472D01*
X250239739Y-124457000D01*
X249632261Y-124457000D01*
X249071024Y-124689472D01*
X248641472Y-125119024D01*
X248409000Y-125680261D01*
X248409000Y-126287739D01*
X248641472Y-126848976D01*
X249071024Y-127278528D01*
X249632261Y-127511000D01*
X250239739Y-127511000D01*
X250800976Y-127278528D01*
X251018504Y-127061000D01*
X252228436Y-127061000D01*
X252334502Y-127082098D01*
X252440568Y-127061000D01*
X252440574Y-127061000D01*
X252754726Y-126998511D01*
X253110975Y-126760473D01*
X253171061Y-126670548D01*
X258750551Y-121091059D01*
X258840473Y-121030975D01*
X258900558Y-120941052D01*
X259078511Y-120674727D01*
X259116493Y-120483776D01*
X259141000Y-120360574D01*
X259141000Y-120360570D01*
X259162098Y-120254502D01*
X259141000Y-120148434D01*
X259141000Y-115071471D01*
X259331670Y-115356830D01*
X259638303Y-115561715D01*
X260000000Y-115633661D01*
X263000000Y-115633661D01*
X263361697Y-115561715D01*
X263668330Y-115356830D01*
X263873215Y-115050197D01*
X263945161Y-114688500D01*
X263945161Y-112188500D01*
X263873215Y-111826803D01*
X263668330Y-111520170D01*
X263361697Y-111315285D01*
X263000000Y-111243339D01*
X260000000Y-111243339D01*
X259638303Y-111315285D01*
X259331670Y-111520170D01*
X259141000Y-111805529D01*
X259141000Y-103871471D01*
X259331670Y-104156830D01*
X259638303Y-104361715D01*
X260000000Y-104433661D01*
X263000000Y-104433661D01*
X263361697Y-104361715D01*
X263668330Y-104156830D01*
X263873215Y-103850197D01*
X263945161Y-103488500D01*
X263945161Y-100988500D01*
X263873215Y-100626803D01*
X263668330Y-100320170D01*
X263361697Y-100115285D01*
X263000000Y-100043339D01*
X260000000Y-100043339D01*
X259638303Y-100115285D01*
X259331670Y-100320170D01*
X259141000Y-100605529D01*
X259141000Y-65638066D01*
X259162098Y-65531999D01*
X259141000Y-65425933D01*
X259141000Y-65425928D01*
X259078511Y-65111776D01*
X258840473Y-64755527D01*
X258750552Y-64695444D01*
X257721148Y-63666040D01*
X257829691Y-63711000D01*
X258540250Y-63711000D01*
X258699000Y-63552250D01*
X258699000Y-62103000D01*
X257479750Y-62103000D01*
X257321000Y-62261750D01*
X257321000Y-63202310D01*
X257365959Y-63310852D01*
X254804797Y-60749690D01*
X257321000Y-60749690D01*
X257321000Y-61690250D01*
X257479750Y-61849000D01*
X258699000Y-61849000D01*
X258699000Y-60399750D01*
X258953000Y-60399750D01*
X258953000Y-61849000D01*
X258973000Y-61849000D01*
X258973000Y-62103000D01*
X258953000Y-62103000D01*
X258953000Y-63552250D01*
X259111750Y-63711000D01*
X259822309Y-63711000D01*
X260055698Y-63614327D01*
X260129197Y-63540828D01*
X260664847Y-63898737D01*
X261366000Y-64038205D01*
X262067154Y-63898737D01*
X262661565Y-63501565D01*
X263058737Y-62907154D01*
X263163000Y-62382987D01*
X263163000Y-61569012D01*
X263058737Y-61044846D01*
X262661565Y-60450435D01*
X262067153Y-60053263D01*
X261366000Y-59913795D01*
X260664846Y-60053263D01*
X260129197Y-60411172D01*
X260055698Y-60337673D01*
X259822309Y-60241000D01*
X259111750Y-60241000D01*
X258953000Y-60399750D01*
X258699000Y-60399750D01*
X258540250Y-60241000D01*
X257829691Y-60241000D01*
X257596302Y-60337673D01*
X257417673Y-60516301D01*
X257321000Y-60749690D01*
X254804797Y-60749690D01*
X250082107Y-56027000D01*
X268973001Y-56027000D01*
X268973000Y-133973000D01*
X41027000Y-133973000D01*
X41027000Y-121497363D01*
X46576243Y-121497363D01*
X46674842Y-121764165D01*
X47284382Y-121990601D01*
X47934177Y-121966541D01*
X48422758Y-121764165D01*
X48521357Y-121497363D01*
X47548800Y-120524805D01*
X46576243Y-121497363D01*
X41027000Y-121497363D01*
X41027000Y-120080782D01*
X45903399Y-120080782D01*
X45927459Y-120730577D01*
X46129835Y-121219158D01*
X46396637Y-121317757D01*
X47369195Y-120345200D01*
X47728405Y-120345200D01*
X48700963Y-121317757D01*
X48967765Y-121219158D01*
X49194201Y-120609618D01*
X49170222Y-119961997D01*
X52124710Y-119961997D01*
X52124710Y-120728403D01*
X52418001Y-121436469D01*
X52959931Y-121978399D01*
X53667997Y-122271690D01*
X54434403Y-122271690D01*
X55142469Y-121978399D01*
X55684399Y-121436469D01*
X55977690Y-120728403D01*
X55977690Y-119961997D01*
X55684399Y-119253931D01*
X55142469Y-118712001D01*
X54434403Y-118418710D01*
X53667997Y-118418710D01*
X52959931Y-118712001D01*
X52418001Y-119253931D01*
X52124710Y-119961997D01*
X49170222Y-119961997D01*
X49170141Y-119959823D01*
X48967765Y-119471242D01*
X48700963Y-119372643D01*
X47728405Y-120345200D01*
X47369195Y-120345200D01*
X46396637Y-119372643D01*
X46129835Y-119471242D01*
X45903399Y-120080782D01*
X41027000Y-120080782D01*
X41027000Y-119193037D01*
X46576243Y-119193037D01*
X47548800Y-120165595D01*
X48521357Y-119193037D01*
X48422758Y-118926235D01*
X47813218Y-118699799D01*
X47163423Y-118723859D01*
X46674842Y-118926235D01*
X46576243Y-119193037D01*
X41027000Y-119193037D01*
X41027000Y-114012030D01*
X41372890Y-114012030D01*
X41372890Y-114679410D01*
X41628284Y-115295987D01*
X42100193Y-115767896D01*
X42716770Y-116023290D01*
X43384150Y-116023290D01*
X44000727Y-115767896D01*
X44205906Y-115562717D01*
X45622310Y-115562717D01*
X45622310Y-116329123D01*
X45915601Y-117037189D01*
X46457531Y-117579119D01*
X47165597Y-117872410D01*
X47932003Y-117872410D01*
X48640069Y-117579119D01*
X49181999Y-117037189D01*
X49475290Y-116329123D01*
X49475290Y-115562717D01*
X52124710Y-115562717D01*
X52124710Y-116329123D01*
X52418001Y-117037189D01*
X52959931Y-117579119D01*
X53667997Y-117872410D01*
X54434403Y-117872410D01*
X55142469Y-117579119D01*
X55684399Y-117037189D01*
X55977690Y-116329123D01*
X55977690Y-115562717D01*
X55684399Y-114854651D01*
X55142469Y-114312721D01*
X54434403Y-114019430D01*
X53667997Y-114019430D01*
X52959931Y-114312721D01*
X52418001Y-114854651D01*
X52124710Y-115562717D01*
X49475290Y-115562717D01*
X49181999Y-114854651D01*
X48640069Y-114312721D01*
X47932003Y-114019430D01*
X47165597Y-114019430D01*
X46457531Y-114312721D01*
X45915601Y-114854651D01*
X45622310Y-115562717D01*
X44205906Y-115562717D01*
X44472636Y-115295987D01*
X44728030Y-114679410D01*
X44728030Y-114012030D01*
X56871970Y-114012030D01*
X56871970Y-114679410D01*
X57127364Y-115295987D01*
X57599273Y-115767896D01*
X58215850Y-116023290D01*
X58883230Y-116023290D01*
X59499807Y-115767896D01*
X59971716Y-115295987D01*
X60227110Y-114679410D01*
X60227110Y-114012030D01*
X59971716Y-113395453D01*
X59499807Y-112923544D01*
X58883230Y-112668150D01*
X58215850Y-112668150D01*
X57599273Y-112923544D01*
X57127364Y-113395453D01*
X56871970Y-114012030D01*
X44728030Y-114012030D01*
X44472636Y-113395453D01*
X44000727Y-112923544D01*
X43384150Y-112668150D01*
X42716770Y-112668150D01*
X42100193Y-112923544D01*
X41628284Y-113395453D01*
X41372890Y-114012030D01*
X41027000Y-114012030D01*
X41027000Y-111347523D01*
X59578503Y-111347523D01*
X59677102Y-111614325D01*
X60286642Y-111840761D01*
X60936437Y-111816701D01*
X61425018Y-111614325D01*
X61523617Y-111347523D01*
X60551060Y-110374965D01*
X59578503Y-111347523D01*
X41027000Y-111347523D01*
X41027000Y-100712590D01*
X41372890Y-100712590D01*
X41372890Y-101379970D01*
X41628284Y-101996547D01*
X42100193Y-102468456D01*
X42716770Y-102723850D01*
X43384150Y-102723850D01*
X44000727Y-102468456D01*
X44472636Y-101996547D01*
X44728030Y-101379970D01*
X44728030Y-100712590D01*
X44472636Y-100096013D01*
X44000727Y-99624104D01*
X43384150Y-99368710D01*
X42716770Y-99368710D01*
X42100193Y-99624104D01*
X41628284Y-100096013D01*
X41372890Y-100712590D01*
X41027000Y-100712590D01*
X41027000Y-88493012D01*
X45193000Y-88493012D01*
X45193000Y-89306987D01*
X45297263Y-89831153D01*
X45694435Y-90425565D01*
X46288846Y-90822737D01*
X46990000Y-90962205D01*
X47691153Y-90822737D01*
X48226803Y-90464828D01*
X48300302Y-90538327D01*
X48533691Y-90635000D01*
X49244250Y-90635000D01*
X49403000Y-90476250D01*
X49403000Y-89027000D01*
X49657000Y-89027000D01*
X49657000Y-90476250D01*
X49815750Y-90635000D01*
X50526309Y-90635000D01*
X50759698Y-90538327D01*
X50938327Y-90359699D01*
X51035000Y-90126310D01*
X51035000Y-89185750D01*
X50876250Y-89027000D01*
X49657000Y-89027000D01*
X49403000Y-89027000D01*
X49383000Y-89027000D01*
X49383000Y-88773000D01*
X49403000Y-88773000D01*
X49403000Y-87323750D01*
X49657000Y-87323750D01*
X49657000Y-88773000D01*
X50876250Y-88773000D01*
X51035000Y-88614250D01*
X51035000Y-87673690D01*
X50938327Y-87440301D01*
X50759698Y-87261673D01*
X50526309Y-87165000D01*
X49815750Y-87165000D01*
X49657000Y-87323750D01*
X49403000Y-87323750D01*
X49244250Y-87165000D01*
X48533691Y-87165000D01*
X48300302Y-87261673D01*
X48226803Y-87335172D01*
X47691154Y-86977263D01*
X46990000Y-86837795D01*
X46288847Y-86977263D01*
X45694435Y-87374435D01*
X45297263Y-87968846D01*
X45193000Y-88493012D01*
X41027000Y-88493012D01*
X41027000Y-63531750D01*
X49319000Y-63531750D01*
X49319000Y-64242309D01*
X49415673Y-64475698D01*
X49594301Y-64654327D01*
X49827690Y-64751000D01*
X50768250Y-64751000D01*
X50927000Y-64592250D01*
X50927000Y-63373000D01*
X51181000Y-63373000D01*
X51181000Y-64592250D01*
X51339750Y-64751000D01*
X52280310Y-64751000D01*
X52513699Y-64654327D01*
X52692327Y-64475698D01*
X52789000Y-64242309D01*
X52789000Y-63531750D01*
X52630250Y-63373000D01*
X51181000Y-63373000D01*
X50927000Y-63373000D01*
X49477750Y-63373000D01*
X49319000Y-63531750D01*
X41027000Y-63531750D01*
X41027000Y-58166000D01*
X48991795Y-58166000D01*
X49131263Y-58867154D01*
X49511353Y-59436000D01*
X49131263Y-60004846D01*
X48991795Y-60706000D01*
X49131263Y-61407154D01*
X49489172Y-61942803D01*
X49415673Y-62016302D01*
X49319000Y-62249691D01*
X49319000Y-62960250D01*
X49477750Y-63119000D01*
X50927000Y-63119000D01*
X50927000Y-63099000D01*
X51181000Y-63099000D01*
X51181000Y-63119000D01*
X52630250Y-63119000D01*
X52789000Y-62960250D01*
X52789000Y-62249691D01*
X52692327Y-62016302D01*
X52618828Y-61942803D01*
X52976737Y-61407154D01*
X53116205Y-60706000D01*
X52976737Y-60004846D01*
X52596647Y-59436000D01*
X52976737Y-58867154D01*
X53116205Y-58166000D01*
X52976737Y-57464846D01*
X52579565Y-56870435D01*
X51985154Y-56473263D01*
X51460988Y-56369000D01*
X50647012Y-56369000D01*
X50122846Y-56473263D01*
X49528435Y-56870435D01*
X49131263Y-57464846D01*
X48991795Y-58166000D01*
X41027000Y-58166000D01*
X41027000Y-56027000D01*
X81780450Y-56027000D01*
X81278435Y-56362435D01*
X81278435Y-56362435D01*
G37*
X81278435Y-56362435D02*
X80881263Y-56956846D01*
X80741795Y-57658000D01*
X80881263Y-58359154D01*
X81261353Y-58928000D01*
X80881263Y-59496846D01*
X80741795Y-60198000D01*
X80881263Y-60899154D01*
X81239172Y-61434803D01*
X81165673Y-61508302D01*
X81069000Y-61741691D01*
X81069000Y-62452250D01*
X81227750Y-62611000D01*
X82677000Y-62611000D01*
X82677000Y-62591000D01*
X82931000Y-62591000D01*
X82931000Y-62611000D01*
X84380250Y-62611000D01*
X84539000Y-62452250D01*
X84539000Y-61741691D01*
X84442327Y-61508302D01*
X84368828Y-61434803D01*
X84726737Y-60899154D01*
X84866205Y-60198000D01*
X84726737Y-59496846D01*
X84346647Y-58928000D01*
X84726737Y-58359154D01*
X84866205Y-57658000D01*
X84726737Y-56956846D01*
X84329565Y-56362435D01*
X83827550Y-56027000D01*
X203616772Y-56027000D01*
X201251440Y-58392333D01*
X201161518Y-58452417D01*
X201101434Y-58542339D01*
X201101432Y-58542341D01*
X201023130Y-58659529D01*
X200923480Y-58808666D01*
X200864138Y-59107000D01*
X200839892Y-59228890D01*
X200860991Y-59334961D01*
X200860989Y-79530922D01*
X200839891Y-79636989D01*
X200851855Y-79697135D01*
X200847883Y-79717103D01*
X200868981Y-79823169D01*
X200868981Y-79823174D01*
X200931470Y-80137326D01*
X201169508Y-80493576D01*
X201259433Y-80553662D01*
X204790001Y-84084231D01*
X204790000Y-86214306D01*
X204693785Y-86358303D01*
X204621839Y-86720000D01*
X204621839Y-87549001D01*
X202564065Y-87549001D01*
X202457998Y-87527903D01*
X202351932Y-87549001D01*
X202351927Y-87549001D01*
X202037775Y-87611490D01*
X201973040Y-87654744D01*
X201771448Y-87789443D01*
X201771445Y-87789446D01*
X201681526Y-87849528D01*
X201621444Y-87939447D01*
X200467893Y-89093000D01*
X197808109Y-89093000D01*
X201280553Y-85620557D01*
X201370474Y-85560474D01*
X201608512Y-85204225D01*
X201671001Y-84890073D01*
X201671001Y-84890068D01*
X201692099Y-84784001D01*
X201671001Y-84677935D01*
X201671001Y-83860069D01*
X201692099Y-83754001D01*
X201671001Y-83647933D01*
X201671001Y-83647929D01*
X201616314Y-83373000D01*
X201608512Y-83333776D01*
X201430559Y-83067451D01*
X201430558Y-83067450D01*
X201370474Y-82977528D01*
X201280552Y-82917444D01*
X199647000Y-81283893D01*
X199647000Y-80976261D01*
X199414528Y-80415024D01*
X198984976Y-79985472D01*
X198423739Y-79753000D01*
X197816261Y-79753000D01*
X197255024Y-79985472D01*
X196825472Y-80415024D01*
X196593000Y-80976261D01*
X196593000Y-81583739D01*
X196825472Y-82144976D01*
X197255024Y-82574528D01*
X197816261Y-82807000D01*
X198123893Y-82807000D01*
X198564694Y-83247802D01*
X198349472Y-83463024D01*
X198117000Y-84024261D01*
X198117000Y-84331892D01*
X196657893Y-85791000D01*
X99859066Y-85791000D01*
X99753000Y-85769902D01*
X99646933Y-85791000D01*
X99646928Y-85791000D01*
X99332776Y-85853489D01*
X99306701Y-85870912D01*
X99066450Y-86031442D01*
X99066449Y-86031443D01*
X98976527Y-86091527D01*
X98916443Y-86181449D01*
X97766054Y-87331839D01*
X97744000Y-87331839D01*
X97409000Y-87398475D01*
X97074000Y-87331839D01*
X97051947Y-87331839D01*
X95002111Y-85282003D01*
X95204000Y-85322161D01*
X95804000Y-85322161D01*
X96139000Y-85255525D01*
X96474000Y-85322161D01*
X97074000Y-85322161D01*
X97409000Y-85255525D01*
X97744000Y-85322161D01*
X98344000Y-85322161D01*
X98679000Y-85255525D01*
X99014000Y-85322161D01*
X99614000Y-85322161D01*
X99949000Y-85255525D01*
X100284000Y-85322161D01*
X100884000Y-85322161D01*
X101219000Y-85255525D01*
X101554000Y-85322161D01*
X102154000Y-85322161D01*
X102489000Y-85255525D01*
X102824000Y-85322161D01*
X103424000Y-85322161D01*
X103785697Y-85250215D01*
X104092330Y-85045330D01*
X104127388Y-84992862D01*
X104267000Y-84853250D01*
X104267000Y-84783917D01*
X104297215Y-84738697D01*
X104369161Y-84377000D01*
X104369161Y-83754000D01*
X104521000Y-83754000D01*
X104521000Y-84853250D01*
X104679750Y-85012000D01*
X104820310Y-85012000D01*
X105053699Y-84915327D01*
X105232327Y-84736698D01*
X105329000Y-84503309D01*
X105329000Y-83912750D01*
X105170250Y-83754000D01*
X104521000Y-83754000D01*
X104369161Y-83754000D01*
X104369161Y-82877000D01*
X104297215Y-82515303D01*
X104267000Y-82470083D01*
X104267000Y-82400750D01*
X104521000Y-82400750D01*
X104521000Y-83500000D01*
X105170250Y-83500000D01*
X105329000Y-83341250D01*
X105329000Y-82750691D01*
X105232327Y-82517302D01*
X105053699Y-82338673D01*
X104820310Y-82242000D01*
X104679750Y-82242000D01*
X104521000Y-82400750D01*
X104267000Y-82400750D01*
X104201000Y-82334750D01*
X104201000Y-78678107D01*
X105602108Y-77277000D01*
X159117936Y-77277000D01*
X159224002Y-77298098D01*
X159330068Y-77277000D01*
X159330074Y-77277000D01*
X159644226Y-77214511D01*
X160000475Y-76976473D01*
X160060561Y-76886548D01*
X163326552Y-73620558D01*
X163416474Y-73560474D01*
X163499709Y-73435905D01*
X163620601Y-73254976D01*
X163654512Y-73204225D01*
X163717001Y-72890073D01*
X163717001Y-72890068D01*
X163738099Y-72784002D01*
X163717001Y-72677935D01*
X163717001Y-71862999D01*
X180067892Y-71862999D01*
X180083000Y-71878107D01*
X180083000Y-72185739D01*
X180315472Y-72746976D01*
X180745024Y-73176528D01*
X181306261Y-73409000D01*
X181913739Y-73409000D01*
X182474976Y-73176528D01*
X182904528Y-72746976D01*
X183137000Y-72185739D01*
X183137000Y-71578261D01*
X182904528Y-71017024D01*
X182474976Y-70587472D01*
X181913739Y-70355000D01*
X181606107Y-70355000D01*
X181350558Y-70099451D01*
X181290472Y-70009526D01*
X180934223Y-69771488D01*
X180620071Y-69708999D01*
X180620065Y-69708999D01*
X180513999Y-69687901D01*
X180407933Y-69708999D01*
X162044067Y-69708999D01*
X161938001Y-69687901D01*
X161831935Y-69708999D01*
X161831929Y-69708999D01*
X161517777Y-69771488D01*
X161161528Y-70009526D01*
X160923490Y-70365775D01*
X160865129Y-70659175D01*
X160425024Y-70841472D01*
X160207496Y-71059000D01*
X159981853Y-71059000D01*
X159875787Y-71037902D01*
X159769720Y-71059000D01*
X159769715Y-71059000D01*
X159455563Y-71121489D01*
X159455561Y-71121490D01*
X159455562Y-71121490D01*
X159189237Y-71299442D01*
X159189236Y-71299443D01*
X159099314Y-71359527D01*
X159039230Y-71449449D01*
X156381680Y-74107000D01*
X141647894Y-74107000D01*
X142484695Y-73270199D01*
X142645024Y-73430528D01*
X143206261Y-73663000D01*
X143813739Y-73663000D01*
X144374976Y-73430528D01*
X144804528Y-73000976D01*
X145037000Y-72439739D01*
X145037000Y-71832261D01*
X144804528Y-71271024D01*
X144374976Y-70841472D01*
X143813739Y-70609000D01*
X143206261Y-70609000D01*
X142645024Y-70841472D01*
X142427496Y-71059000D01*
X142201853Y-71059000D01*
X142095787Y-71037902D01*
X141989720Y-71059000D01*
X141989715Y-71059000D01*
X141675563Y-71121489D01*
X141675561Y-71121490D01*
X141675562Y-71121490D01*
X141409237Y-71299442D01*
X141409236Y-71299443D01*
X141319314Y-71359527D01*
X141259230Y-71449449D01*
X139617680Y-73091000D01*
X125410504Y-73091000D01*
X125500528Y-73000976D01*
X125733000Y-72439739D01*
X125733000Y-71832261D01*
X125500528Y-71271024D01*
X125070976Y-70841472D01*
X124509739Y-70609000D01*
X123902261Y-70609000D01*
X123341024Y-70841472D01*
X123123496Y-71059000D01*
X103484066Y-71059000D01*
X103378000Y-71037902D01*
X103271933Y-71059000D01*
X103271928Y-71059000D01*
X102957776Y-71121489D01*
X102957774Y-71121490D01*
X102957775Y-71121490D01*
X102691450Y-71299442D01*
X102691449Y-71299443D01*
X102601527Y-71359527D01*
X102541443Y-71449449D01*
X102050556Y-71940336D01*
X101878528Y-71525024D01*
X101448976Y-71095472D01*
X100887739Y-70863000D01*
X100280261Y-70863000D01*
X99719024Y-71095472D01*
X99652555Y-71161941D01*
X99592528Y-71017024D01*
X99162976Y-70587472D01*
X98601739Y-70355000D01*
X97994261Y-70355000D01*
X97433024Y-70587472D01*
X97003472Y-71017024D01*
X96771000Y-71578261D01*
X96771000Y-71885893D01*
X96087452Y-72569441D01*
X95997527Y-72629527D01*
X95759489Y-72985777D01*
X95697000Y-73299929D01*
X95697000Y-73299934D01*
X95675902Y-73406000D01*
X95697000Y-73512067D01*
X95697001Y-81931839D01*
X95204000Y-81931839D01*
X94842303Y-82003785D01*
X94535670Y-82208670D01*
X94330785Y-82515303D01*
X94323883Y-82550000D01*
X94179298Y-82550000D01*
X83542095Y-71912798D01*
X83542095Y-71605166D01*
X83309623Y-71043929D01*
X82880071Y-70614377D01*
X82318834Y-70381905D01*
X81711356Y-70381905D01*
X81150119Y-70614377D01*
X80720567Y-71043929D01*
X80693372Y-71109584D01*
X80439072Y-71059000D01*
X80439066Y-71059000D01*
X80333000Y-71037902D01*
X80226934Y-71059000D01*
X60264504Y-71059000D01*
X60046976Y-70841472D01*
X59485739Y-70609000D01*
X59453081Y-70609000D01*
X62853555Y-67208528D01*
X63094976Y-67108528D01*
X63524528Y-66678976D01*
X63757000Y-66117739D01*
X63757000Y-65510261D01*
X63524528Y-64949024D01*
X63094976Y-64519472D01*
X62533739Y-64287000D01*
X61926261Y-64287000D01*
X61365024Y-64519472D01*
X60935472Y-64949024D01*
X60835472Y-65190445D01*
X60700000Y-65325917D01*
X60700000Y-63023750D01*
X81069000Y-63023750D01*
X81069000Y-63734309D01*
X81165673Y-63967698D01*
X81344301Y-64146327D01*
X81577690Y-64243000D01*
X82518250Y-64243000D01*
X82677000Y-64084250D01*
X82677000Y-62865000D01*
X82931000Y-62865000D01*
X82931000Y-64084250D01*
X83089750Y-64243000D01*
X84030310Y-64243000D01*
X84263699Y-64146327D01*
X84442327Y-63967698D01*
X84539000Y-63734309D01*
X84539000Y-63023750D01*
X84380250Y-62865000D01*
X82931000Y-62865000D01*
X82677000Y-62865000D01*
X81227750Y-62865000D01*
X81069000Y-63023750D01*
X60700000Y-63023750D01*
X60700000Y-61886160D01*
X60800000Y-61644739D01*
X60800000Y-61037261D01*
X60567528Y-60476024D01*
X60137976Y-60046472D01*
X59576739Y-59814000D01*
X58969261Y-59814000D01*
X58408024Y-60046472D01*
X57978472Y-60476024D01*
X57746000Y-61037261D01*
X57746000Y-61644739D01*
X57846000Y-61886161D01*
X57846001Y-65611917D01*
X50684448Y-72773471D01*
X50443024Y-72873472D01*
X50013472Y-73303024D01*
X49781000Y-73864261D01*
X49781000Y-74471739D01*
X50013472Y-75032976D01*
X50443024Y-75462528D01*
X51004261Y-75695000D01*
X51611739Y-75695000D01*
X52172976Y-75462528D01*
X52602528Y-75032976D01*
X52702529Y-74791552D01*
X56455000Y-71039082D01*
X56454999Y-75013458D01*
X56427044Y-75153999D01*
X56454999Y-75294539D01*
X56454999Y-75294542D01*
X56537795Y-75710786D01*
X56853190Y-76182807D01*
X56972339Y-76262421D01*
X60295001Y-79585084D01*
X60295000Y-81760918D01*
X59641401Y-82414518D01*
X59522252Y-82494131D01*
X59442640Y-82613279D01*
X59206856Y-82966153D01*
X59096105Y-83522940D01*
X59124061Y-83663485D01*
X59124060Y-99468465D01*
X58883230Y-99368710D01*
X58215850Y-99368710D01*
X57599273Y-99624104D01*
X57127364Y-100096013D01*
X56871970Y-100712590D01*
X56871970Y-101379970D01*
X57127364Y-101996547D01*
X57599273Y-102468456D01*
X58215850Y-102723850D01*
X58883230Y-102723850D01*
X59124060Y-102624095D01*
X59124060Y-103769640D01*
X52955723Y-103769640D01*
X49727640Y-100541559D01*
X49727640Y-99585971D01*
X50416797Y-99871430D01*
X51183203Y-99871430D01*
X51891269Y-99578139D01*
X52339081Y-99130327D01*
X52425402Y-99363905D01*
X53034942Y-99590341D01*
X53684737Y-99566281D01*
X54173318Y-99363905D01*
X54271917Y-99097103D01*
X53299360Y-98124545D01*
X53285218Y-98138688D01*
X53105612Y-97959082D01*
X53119755Y-97944940D01*
X53478965Y-97944940D01*
X54451523Y-98917497D01*
X54718325Y-98818898D01*
X54944761Y-98209358D01*
X54920701Y-97559563D01*
X54718325Y-97070982D01*
X54451523Y-96972383D01*
X53478965Y-97944940D01*
X53119755Y-97944940D01*
X53105612Y-97930798D01*
X53285218Y-97751192D01*
X53299360Y-97765335D01*
X54271917Y-96792777D01*
X54173318Y-96525975D01*
X53563778Y-96299539D01*
X52913983Y-96323599D01*
X52425402Y-96525975D01*
X52339081Y-96759553D01*
X51891269Y-96311741D01*
X51183203Y-96018450D01*
X50416797Y-96018450D01*
X49708731Y-96311741D01*
X49550320Y-96470152D01*
X49391909Y-96311741D01*
X48683843Y-96018450D01*
X47917437Y-96018450D01*
X47209371Y-96311741D01*
X46667441Y-96853671D01*
X46374150Y-97561737D01*
X46374150Y-98328143D01*
X46667441Y-99036209D01*
X46873641Y-99242409D01*
X46873640Y-100992099D01*
X46845685Y-101132640D01*
X46873640Y-101273180D01*
X46873640Y-101273183D01*
X46956436Y-101689427D01*
X47271831Y-102161448D01*
X47390980Y-102241062D01*
X51256220Y-106106303D01*
X51335831Y-106225449D01*
X51454977Y-106305060D01*
X51454978Y-106305061D01*
X51504610Y-106338224D01*
X51807852Y-106540844D01*
X52224096Y-106623640D01*
X52224099Y-106623640D01*
X52364640Y-106651595D01*
X52505180Y-106623640D01*
X58910029Y-106623640D01*
X58624570Y-107312797D01*
X58624570Y-108079203D01*
X58917861Y-108787269D01*
X59365673Y-109235081D01*
X59132095Y-109321402D01*
X58905659Y-109930942D01*
X58929719Y-110580737D01*
X59132095Y-111069318D01*
X59398897Y-111167917D01*
X60371455Y-110195360D01*
X60357312Y-110181218D01*
X60536918Y-110001612D01*
X60551060Y-110015755D01*
X60565203Y-110001613D01*
X60744808Y-110181218D01*
X60730665Y-110195360D01*
X61703223Y-111167917D01*
X61970025Y-111069318D01*
X62086834Y-110754881D01*
X83336503Y-132004551D01*
X83396587Y-132094473D01*
X83486509Y-132154557D01*
X83486510Y-132154558D01*
X83752835Y-132332511D01*
X83815837Y-132345043D01*
X84066988Y-132395000D01*
X84066992Y-132395000D01*
X84173060Y-132416098D01*
X84279128Y-132395000D01*
X214015934Y-132395000D01*
X214122000Y-132416098D01*
X214228066Y-132395000D01*
X214228072Y-132395000D01*
X214542224Y-132332511D01*
X214898473Y-132094473D01*
X214958559Y-132004548D01*
X225222552Y-121740556D01*
X225312473Y-121680473D01*
X225550511Y-121324224D01*
X225613000Y-121010072D01*
X225613000Y-121010067D01*
X225634098Y-120904001D01*
X225613000Y-120797934D01*
X225613000Y-98658066D01*
X225634098Y-98551999D01*
X225613000Y-98445933D01*
X225613000Y-98445928D01*
X225550511Y-98131776D01*
X225312473Y-97775527D01*
X225222551Y-97715443D01*
X222807000Y-95299893D01*
X222807000Y-94632587D01*
X222528856Y-93961088D01*
X222293768Y-93726000D01*
X222528856Y-93490912D01*
X222807000Y-92819413D01*
X222807000Y-92263000D01*
X242063934Y-92263000D01*
X242170000Y-92284098D01*
X242276066Y-92263000D01*
X242276072Y-92263000D01*
X242590224Y-92200511D01*
X242946473Y-91962473D01*
X243006559Y-91872548D01*
X244283834Y-90595274D01*
X244431144Y-90950912D01*
X244666232Y-91186000D01*
X244431144Y-91421088D01*
X244153000Y-92092587D01*
X244153000Y-92759892D01*
X241375450Y-95537443D01*
X241285528Y-95597527D01*
X241225444Y-95687449D01*
X241225442Y-95687451D01*
X241084395Y-95898544D01*
X241047490Y-95953776D01*
X241028107Y-96051223D01*
X240963902Y-96374000D01*
X240985001Y-96480071D01*
X240985000Y-106378918D01*
X229200424Y-94594343D01*
X229120809Y-94475191D01*
X228648788Y-94159796D01*
X228232544Y-94077000D01*
X228232540Y-94077000D01*
X228092000Y-94049045D01*
X227951460Y-94077000D01*
X225843160Y-94077000D01*
X225601739Y-93977000D01*
X224994261Y-93977000D01*
X224433024Y-94209472D01*
X224003472Y-94639024D01*
X223771000Y-95200261D01*
X223771000Y-95807739D01*
X224003472Y-96368976D01*
X224433024Y-96798528D01*
X224994261Y-97031000D01*
X225601739Y-97031000D01*
X225843160Y-96931000D01*
X227500919Y-96931000D01*
X247049580Y-116479663D01*
X247129191Y-116598809D01*
X247601212Y-116914204D01*
X248017456Y-116997000D01*
X248017459Y-116997000D01*
X248157999Y-117024955D01*
X248298539Y-116997000D01*
X250684460Y-116997000D01*
X250825000Y-117024955D01*
X250965540Y-116997000D01*
X250965544Y-116997000D01*
X251381788Y-116914204D01*
X251853809Y-116598809D01*
X251933423Y-116479658D01*
X253209663Y-115203419D01*
X253328807Y-115123810D01*
X253408417Y-115004666D01*
X253408420Y-115004663D01*
X253625747Y-114679410D01*
X253644203Y-114651789D01*
X253726999Y-114235545D01*
X253726999Y-114235541D01*
X253754954Y-114095001D01*
X253726999Y-113954461D01*
X253726999Y-112265500D01*
X254383304Y-112265500D01*
X255091558Y-111972132D01*
X255633632Y-111430058D01*
X255927000Y-110721804D01*
X255927000Y-109955196D01*
X255633632Y-109246942D01*
X255185812Y-108799122D01*
X255419387Y-108712764D01*
X255645908Y-108103039D01*
X255621856Y-107453040D01*
X255487169Y-107127877D01*
X255668330Y-107006830D01*
X255873215Y-106700197D01*
X255945161Y-106338500D01*
X255945161Y-104338500D01*
X255873215Y-103976803D01*
X255668330Y-103670170D01*
X255361697Y-103465285D01*
X255000000Y-103393339D01*
X253726999Y-103393339D01*
X253726999Y-79659000D01*
X256248850Y-79659000D01*
X256490271Y-79759000D01*
X256987000Y-79759000D01*
X256987001Y-119808393D01*
X251888395Y-124907000D01*
X251018504Y-124907000D01*
X250800976Y-124689472D01*
X250239739Y-124457000D01*
X249632261Y-124457000D01*
X249071024Y-124689472D01*
X248641472Y-125119024D01*
X248409000Y-125680261D01*
X248409000Y-126287739D01*
X248641472Y-126848976D01*
X249071024Y-127278528D01*
X249632261Y-127511000D01*
X250239739Y-127511000D01*
X250800976Y-127278528D01*
X251018504Y-127061000D01*
X252228436Y-127061000D01*
X252334502Y-127082098D01*
X252440568Y-127061000D01*
X252440574Y-127061000D01*
X252754726Y-126998511D01*
X253110975Y-126760473D01*
X253171061Y-126670548D01*
X258750551Y-121091059D01*
X258840473Y-121030975D01*
X258900558Y-120941052D01*
X259078511Y-120674727D01*
X259116493Y-120483776D01*
X259141000Y-120360574D01*
X259141000Y-120360570D01*
X259162098Y-120254502D01*
X259141000Y-120148434D01*
X259141000Y-115071471D01*
X259331670Y-115356830D01*
X259638303Y-115561715D01*
X260000000Y-115633661D01*
X263000000Y-115633661D01*
X263361697Y-115561715D01*
X263668330Y-115356830D01*
X263873215Y-115050197D01*
X263945161Y-114688500D01*
X263945161Y-112188500D01*
X263873215Y-111826803D01*
X263668330Y-111520170D01*
X263361697Y-111315285D01*
X263000000Y-111243339D01*
X260000000Y-111243339D01*
X259638303Y-111315285D01*
X259331670Y-111520170D01*
X259141000Y-111805529D01*
X259141000Y-103871471D01*
X259331670Y-104156830D01*
X259638303Y-104361715D01*
X260000000Y-104433661D01*
X263000000Y-104433661D01*
X263361697Y-104361715D01*
X263668330Y-104156830D01*
X263873215Y-103850197D01*
X263945161Y-103488500D01*
X263945161Y-100988500D01*
X263873215Y-100626803D01*
X263668330Y-100320170D01*
X263361697Y-100115285D01*
X263000000Y-100043339D01*
X260000000Y-100043339D01*
X259638303Y-100115285D01*
X259331670Y-100320170D01*
X259141000Y-100605529D01*
X259141000Y-65638066D01*
X259162098Y-65531999D01*
X259141000Y-65425933D01*
X259141000Y-65425928D01*
X259078511Y-65111776D01*
X258840473Y-64755527D01*
X258750552Y-64695444D01*
X257721148Y-63666040D01*
X257829691Y-63711000D01*
X258540250Y-63711000D01*
X258699000Y-63552250D01*
X258699000Y-62103000D01*
X257479750Y-62103000D01*
X257321000Y-62261750D01*
X257321000Y-63202310D01*
X257365959Y-63310852D01*
X254804797Y-60749690D01*
X257321000Y-60749690D01*
X257321000Y-61690250D01*
X257479750Y-61849000D01*
X258699000Y-61849000D01*
X258699000Y-60399750D01*
X258953000Y-60399750D01*
X258953000Y-61849000D01*
X258973000Y-61849000D01*
X258973000Y-62103000D01*
X258953000Y-62103000D01*
X258953000Y-63552250D01*
X259111750Y-63711000D01*
X259822309Y-63711000D01*
X260055698Y-63614327D01*
X260129197Y-63540828D01*
X260664847Y-63898737D01*
X261366000Y-64038205D01*
X262067154Y-63898737D01*
X262661565Y-63501565D01*
X263058737Y-62907154D01*
X263163000Y-62382987D01*
X263163000Y-61569012D01*
X263058737Y-61044846D01*
X262661565Y-60450435D01*
X262067153Y-60053263D01*
X261366000Y-59913795D01*
X260664846Y-60053263D01*
X260129197Y-60411172D01*
X260055698Y-60337673D01*
X259822309Y-60241000D01*
X259111750Y-60241000D01*
X258953000Y-60399750D01*
X258699000Y-60399750D01*
X258540250Y-60241000D01*
X257829691Y-60241000D01*
X257596302Y-60337673D01*
X257417673Y-60516301D01*
X257321000Y-60749690D01*
X254804797Y-60749690D01*
X250082107Y-56027000D01*
X268973001Y-56027000D01*
X268973000Y-133973000D01*
X41027000Y-133973000D01*
X41027000Y-121497363D01*
X46576243Y-121497363D01*
X46674842Y-121764165D01*
X47284382Y-121990601D01*
X47934177Y-121966541D01*
X48422758Y-121764165D01*
X48521357Y-121497363D01*
X47548800Y-120524805D01*
X46576243Y-121497363D01*
X41027000Y-121497363D01*
X41027000Y-120080782D01*
X45903399Y-120080782D01*
X45927459Y-120730577D01*
X46129835Y-121219158D01*
X46396637Y-121317757D01*
X47369195Y-120345200D01*
X47728405Y-120345200D01*
X48700963Y-121317757D01*
X48967765Y-121219158D01*
X49194201Y-120609618D01*
X49170222Y-119961997D01*
X52124710Y-119961997D01*
X52124710Y-120728403D01*
X52418001Y-121436469D01*
X52959931Y-121978399D01*
X53667997Y-122271690D01*
X54434403Y-122271690D01*
X55142469Y-121978399D01*
X55684399Y-121436469D01*
X55977690Y-120728403D01*
X55977690Y-119961997D01*
X55684399Y-119253931D01*
X55142469Y-118712001D01*
X54434403Y-118418710D01*
X53667997Y-118418710D01*
X52959931Y-118712001D01*
X52418001Y-119253931D01*
X52124710Y-119961997D01*
X49170222Y-119961997D01*
X49170141Y-119959823D01*
X48967765Y-119471242D01*
X48700963Y-119372643D01*
X47728405Y-120345200D01*
X47369195Y-120345200D01*
X46396637Y-119372643D01*
X46129835Y-119471242D01*
X45903399Y-120080782D01*
X41027000Y-120080782D01*
X41027000Y-119193037D01*
X46576243Y-119193037D01*
X47548800Y-120165595D01*
X48521357Y-119193037D01*
X48422758Y-118926235D01*
X47813218Y-118699799D01*
X47163423Y-118723859D01*
X46674842Y-118926235D01*
X46576243Y-119193037D01*
X41027000Y-119193037D01*
X41027000Y-114012030D01*
X41372890Y-114012030D01*
X41372890Y-114679410D01*
X41628284Y-115295987D01*
X42100193Y-115767896D01*
X42716770Y-116023290D01*
X43384150Y-116023290D01*
X44000727Y-115767896D01*
X44205906Y-115562717D01*
X45622310Y-115562717D01*
X45622310Y-116329123D01*
X45915601Y-117037189D01*
X46457531Y-117579119D01*
X47165597Y-117872410D01*
X47932003Y-117872410D01*
X48640069Y-117579119D01*
X49181999Y-117037189D01*
X49475290Y-116329123D01*
X49475290Y-115562717D01*
X52124710Y-115562717D01*
X52124710Y-116329123D01*
X52418001Y-117037189D01*
X52959931Y-117579119D01*
X53667997Y-117872410D01*
X54434403Y-117872410D01*
X55142469Y-117579119D01*
X55684399Y-117037189D01*
X55977690Y-116329123D01*
X55977690Y-115562717D01*
X55684399Y-114854651D01*
X55142469Y-114312721D01*
X54434403Y-114019430D01*
X53667997Y-114019430D01*
X52959931Y-114312721D01*
X52418001Y-114854651D01*
X52124710Y-115562717D01*
X49475290Y-115562717D01*
X49181999Y-114854651D01*
X48640069Y-114312721D01*
X47932003Y-114019430D01*
X47165597Y-114019430D01*
X46457531Y-114312721D01*
X45915601Y-114854651D01*
X45622310Y-115562717D01*
X44205906Y-115562717D01*
X44472636Y-115295987D01*
X44728030Y-114679410D01*
X44728030Y-114012030D01*
X56871970Y-114012030D01*
X56871970Y-114679410D01*
X57127364Y-115295987D01*
X57599273Y-115767896D01*
X58215850Y-116023290D01*
X58883230Y-116023290D01*
X59499807Y-115767896D01*
X59971716Y-115295987D01*
X60227110Y-114679410D01*
X60227110Y-114012030D01*
X59971716Y-113395453D01*
X59499807Y-112923544D01*
X58883230Y-112668150D01*
X58215850Y-112668150D01*
X57599273Y-112923544D01*
X57127364Y-113395453D01*
X56871970Y-114012030D01*
X44728030Y-114012030D01*
X44472636Y-113395453D01*
X44000727Y-112923544D01*
X43384150Y-112668150D01*
X42716770Y-112668150D01*
X42100193Y-112923544D01*
X41628284Y-113395453D01*
X41372890Y-114012030D01*
X41027000Y-114012030D01*
X41027000Y-111347523D01*
X59578503Y-111347523D01*
X59677102Y-111614325D01*
X60286642Y-111840761D01*
X60936437Y-111816701D01*
X61425018Y-111614325D01*
X61523617Y-111347523D01*
X60551060Y-110374965D01*
X59578503Y-111347523D01*
X41027000Y-111347523D01*
X41027000Y-100712590D01*
X41372890Y-100712590D01*
X41372890Y-101379970D01*
X41628284Y-101996547D01*
X42100193Y-102468456D01*
X42716770Y-102723850D01*
X43384150Y-102723850D01*
X44000727Y-102468456D01*
X44472636Y-101996547D01*
X44728030Y-101379970D01*
X44728030Y-100712590D01*
X44472636Y-100096013D01*
X44000727Y-99624104D01*
X43384150Y-99368710D01*
X42716770Y-99368710D01*
X42100193Y-99624104D01*
X41628284Y-100096013D01*
X41372890Y-100712590D01*
X41027000Y-100712590D01*
X41027000Y-88493012D01*
X45193000Y-88493012D01*
X45193000Y-89306987D01*
X45297263Y-89831153D01*
X45694435Y-90425565D01*
X46288846Y-90822737D01*
X46990000Y-90962205D01*
X47691153Y-90822737D01*
X48226803Y-90464828D01*
X48300302Y-90538327D01*
X48533691Y-90635000D01*
X49244250Y-90635000D01*
X49403000Y-90476250D01*
X49403000Y-89027000D01*
X49657000Y-89027000D01*
X49657000Y-90476250D01*
X49815750Y-90635000D01*
X50526309Y-90635000D01*
X50759698Y-90538327D01*
X50938327Y-90359699D01*
X51035000Y-90126310D01*
X51035000Y-89185750D01*
X50876250Y-89027000D01*
X49657000Y-89027000D01*
X49403000Y-89027000D01*
X49383000Y-89027000D01*
X49383000Y-88773000D01*
X49403000Y-88773000D01*
X49403000Y-87323750D01*
X49657000Y-87323750D01*
X49657000Y-88773000D01*
X50876250Y-88773000D01*
X51035000Y-88614250D01*
X51035000Y-87673690D01*
X50938327Y-87440301D01*
X50759698Y-87261673D01*
X50526309Y-87165000D01*
X49815750Y-87165000D01*
X49657000Y-87323750D01*
X49403000Y-87323750D01*
X49244250Y-87165000D01*
X48533691Y-87165000D01*
X48300302Y-87261673D01*
X48226803Y-87335172D01*
X47691154Y-86977263D01*
X46990000Y-86837795D01*
X46288847Y-86977263D01*
X45694435Y-87374435D01*
X45297263Y-87968846D01*
X45193000Y-88493012D01*
X41027000Y-88493012D01*
X41027000Y-63531750D01*
X49319000Y-63531750D01*
X49319000Y-64242309D01*
X49415673Y-64475698D01*
X49594301Y-64654327D01*
X49827690Y-64751000D01*
X50768250Y-64751000D01*
X50927000Y-64592250D01*
X50927000Y-63373000D01*
X51181000Y-63373000D01*
X51181000Y-64592250D01*
X51339750Y-64751000D01*
X52280310Y-64751000D01*
X52513699Y-64654327D01*
X52692327Y-64475698D01*
X52789000Y-64242309D01*
X52789000Y-63531750D01*
X52630250Y-63373000D01*
X51181000Y-63373000D01*
X50927000Y-63373000D01*
X49477750Y-63373000D01*
X49319000Y-63531750D01*
X41027000Y-63531750D01*
X41027000Y-58166000D01*
X48991795Y-58166000D01*
X49131263Y-58867154D01*
X49511353Y-59436000D01*
X49131263Y-60004846D01*
X48991795Y-60706000D01*
X49131263Y-61407154D01*
X49489172Y-61942803D01*
X49415673Y-62016302D01*
X49319000Y-62249691D01*
X49319000Y-62960250D01*
X49477750Y-63119000D01*
X50927000Y-63119000D01*
X50927000Y-63099000D01*
X51181000Y-63099000D01*
X51181000Y-63119000D01*
X52630250Y-63119000D01*
X52789000Y-62960250D01*
X52789000Y-62249691D01*
X52692327Y-62016302D01*
X52618828Y-61942803D01*
X52976737Y-61407154D01*
X53116205Y-60706000D01*
X52976737Y-60004846D01*
X52596647Y-59436000D01*
X52976737Y-58867154D01*
X53116205Y-58166000D01*
X52976737Y-57464846D01*
X52579565Y-56870435D01*
X51985154Y-56473263D01*
X51460988Y-56369000D01*
X50647012Y-56369000D01*
X50122846Y-56473263D01*
X49528435Y-56870435D01*
X49131263Y-57464846D01*
X48991795Y-58166000D01*
X41027000Y-58166000D01*
X41027000Y-56027000D01*
X81780450Y-56027000D01*
X81278435Y-56362435D01*
G36*
X78461472Y-73312024D02*
X78229000Y-73873261D01*
X78229000Y-74480739D01*
X78461472Y-75041976D01*
X78891024Y-75471528D01*
X79132448Y-75571529D01*
X86457001Y-82896084D01*
X86457000Y-89370839D01*
X86357000Y-89612261D01*
X86357000Y-90219739D01*
X86589472Y-90780976D01*
X87019024Y-91210528D01*
X87580261Y-91443000D01*
X88187739Y-91443000D01*
X88748976Y-91210528D01*
X89178528Y-90780976D01*
X89411000Y-90219739D01*
X89411000Y-89612261D01*
X89311000Y-89370840D01*
X89311000Y-82637108D01*
X94430893Y-87757001D01*
X91612071Y-87757001D01*
X91505999Y-87735902D01*
X91399928Y-87757001D01*
X91399927Y-87757001D01*
X91085775Y-87819490D01*
X90729526Y-88057528D01*
X90491488Y-88413777D01*
X90407900Y-88834001D01*
X90428999Y-88940073D01*
X90428999Y-90265935D01*
X90407901Y-90372001D01*
X90428999Y-90478067D01*
X90428999Y-90478072D01*
X90491488Y-90792224D01*
X90729526Y-91148474D01*
X90819451Y-91208560D01*
X91991441Y-92380551D01*
X92051525Y-92470473D01*
X92141447Y-92530557D01*
X92141448Y-92530558D01*
X92221804Y-92584250D01*
X92407774Y-92708511D01*
X92721926Y-92771000D01*
X92721931Y-92771000D01*
X92827998Y-92792098D01*
X92934064Y-92771000D01*
X188524341Y-92771000D01*
X188465000Y-92914261D01*
X188465000Y-93521739D01*
X188697472Y-94082976D01*
X189127024Y-94512528D01*
X189368447Y-94612529D01*
X189899579Y-95143662D01*
X189979191Y-95262809D01*
X190098337Y-95342420D01*
X190098338Y-95342421D01*
X190340158Y-95504000D01*
X190451212Y-95578204D01*
X190867456Y-95661000D01*
X190867459Y-95661000D01*
X191008000Y-95688955D01*
X191105001Y-95669660D01*
X191105000Y-122898840D01*
X191005000Y-123140261D01*
X191005000Y-123747739D01*
X191237472Y-124308976D01*
X191667024Y-124738528D01*
X192228261Y-124971000D01*
X192835739Y-124971000D01*
X193396976Y-124738528D01*
X193826528Y-124308976D01*
X194059000Y-123747739D01*
X194059000Y-123140261D01*
X193959000Y-122898840D01*
X193959000Y-94966504D01*
X194334528Y-94590976D01*
X194567000Y-94029739D01*
X194567000Y-93422261D01*
X194334528Y-92861024D01*
X194244504Y-92771000D01*
X200132767Y-92771000D01*
X200918317Y-93556551D01*
X200978401Y-93646473D01*
X201068323Y-93706557D01*
X201068324Y-93706558D01*
X201172587Y-93776224D01*
X201334650Y-93884511D01*
X201648802Y-93947000D01*
X201648807Y-93947000D01*
X201754873Y-93968098D01*
X201860940Y-93947000D01*
X204686883Y-93947000D01*
X204693785Y-93981697D01*
X204898670Y-94288330D01*
X205205303Y-94493215D01*
X205567000Y-94565161D01*
X206060000Y-94565161D01*
X206060000Y-95184892D01*
X200227450Y-101017443D01*
X200137528Y-101077527D01*
X200077444Y-101167449D01*
X200077442Y-101167451D01*
X200006794Y-101273184D01*
X199899490Y-101433776D01*
X199848638Y-101689428D01*
X199815902Y-101854000D01*
X199837001Y-101960071D01*
X199837000Y-120837496D01*
X199619472Y-121055024D01*
X199387000Y-121616261D01*
X199387000Y-122223739D01*
X199619472Y-122784976D01*
X200049024Y-123214528D01*
X200610261Y-123447000D01*
X201178917Y-123447000D01*
X199528448Y-125097471D01*
X199287024Y-125197472D01*
X198857472Y-125627024D01*
X198625000Y-126188261D01*
X198625000Y-126795739D01*
X198857472Y-127356976D01*
X199287024Y-127786528D01*
X199848261Y-128019000D01*
X200455739Y-128019000D01*
X201016976Y-127786528D01*
X201446528Y-127356976D01*
X201546529Y-127115552D01*
X203199000Y-125463082D01*
X203199000Y-127666449D01*
X202994855Y-127802855D01*
X202602103Y-128390650D01*
X202499000Y-128908984D01*
X202499000Y-129559017D01*
X202602103Y-130077351D01*
X202711450Y-130241000D01*
X84619168Y-130241000D01*
X62471639Y-108093472D01*
X62477550Y-108079203D01*
X62477550Y-107312797D01*
X62184259Y-106604731D01*
X62025848Y-106446320D01*
X62184259Y-106287909D01*
X62477550Y-105579843D01*
X62477550Y-104813437D01*
X62280825Y-104338500D01*
X74254839Y-104338500D01*
X74254839Y-106338500D01*
X74326785Y-106700197D01*
X74531670Y-107006830D01*
X74718428Y-107131618D01*
X74554092Y-107573961D01*
X74578144Y-108223960D01*
X74780613Y-108712764D01*
X75014188Y-108799122D01*
X74566368Y-109246942D01*
X74273000Y-109955196D01*
X74273000Y-110721804D01*
X74566368Y-111430058D01*
X75108442Y-111972132D01*
X75816696Y-112265500D01*
X76583304Y-112265500D01*
X77291558Y-111972132D01*
X77663001Y-111600689D01*
X77663001Y-118805495D01*
X77445472Y-119023024D01*
X77213000Y-119584261D01*
X77213000Y-120191739D01*
X77445472Y-120752976D01*
X77875024Y-121182528D01*
X78436261Y-121415000D01*
X79043739Y-121415000D01*
X79604976Y-121182528D01*
X80034528Y-120752976D01*
X80267000Y-120191739D01*
X80267000Y-119584261D01*
X80034528Y-119023024D01*
X79817000Y-118805496D01*
X79817000Y-112188500D01*
X81254839Y-112188500D01*
X81254839Y-114688500D01*
X81326785Y-115050197D01*
X81531670Y-115356830D01*
X81838303Y-115561715D01*
X82200000Y-115633661D01*
X85200000Y-115633661D01*
X85561697Y-115561715D01*
X85868330Y-115356830D01*
X86073215Y-115050197D01*
X86145161Y-114688500D01*
X86145161Y-112188500D01*
X86073215Y-111826803D01*
X85868330Y-111520170D01*
X85561697Y-111315285D01*
X85200000Y-111243339D01*
X82200000Y-111243339D01*
X81838303Y-111315285D01*
X81531670Y-111520170D01*
X81326785Y-111826803D01*
X81254839Y-112188500D01*
X79817000Y-112188500D01*
X79817000Y-100988500D01*
X81254839Y-100988500D01*
X81254839Y-103488500D01*
X81326785Y-103850197D01*
X81531670Y-104156830D01*
X81838303Y-104361715D01*
X82200000Y-104433661D01*
X85200000Y-104433661D01*
X85561697Y-104361715D01*
X85596440Y-104338500D01*
X99654839Y-104338500D01*
X99654839Y-106338500D01*
X99726785Y-106700197D01*
X99931670Y-107006830D01*
X100118428Y-107131618D01*
X99954092Y-107573961D01*
X99978144Y-108223960D01*
X100180613Y-108712764D01*
X100414188Y-108799122D01*
X99966368Y-109246942D01*
X99673000Y-109955196D01*
X99673000Y-110721804D01*
X99966368Y-111430058D01*
X100508442Y-111972132D01*
X101216696Y-112265500D01*
X101983304Y-112265500D01*
X102169198Y-112188500D01*
X106654839Y-112188500D01*
X106654839Y-114688500D01*
X106726785Y-115050197D01*
X106931670Y-115356830D01*
X107238303Y-115561715D01*
X107600000Y-115633661D01*
X110600000Y-115633661D01*
X110961697Y-115561715D01*
X111268330Y-115356830D01*
X111473215Y-115050197D01*
X111545161Y-114688500D01*
X111545161Y-112188500D01*
X111473215Y-111826803D01*
X111268330Y-111520170D01*
X110961697Y-111315285D01*
X110600000Y-111243339D01*
X107600000Y-111243339D01*
X107238303Y-111315285D01*
X106931670Y-111520170D01*
X106726785Y-111826803D01*
X106654839Y-112188500D01*
X102169198Y-112188500D01*
X102691558Y-111972132D01*
X103233632Y-111430058D01*
X103527000Y-110721804D01*
X103527000Y-109955196D01*
X103233632Y-109246942D01*
X102785812Y-108799122D01*
X103019387Y-108712764D01*
X103245908Y-108103039D01*
X103221856Y-107453040D01*
X103087169Y-107127877D01*
X103268330Y-107006830D01*
X103473215Y-106700197D01*
X103545161Y-106338500D01*
X103545161Y-104338500D01*
X103473215Y-103976803D01*
X103268330Y-103670170D01*
X102961697Y-103465285D01*
X102600000Y-103393339D01*
X100600000Y-103393339D01*
X100238303Y-103465285D01*
X99931670Y-103670170D01*
X99726785Y-103976803D01*
X99654839Y-104338500D01*
X85596440Y-104338500D01*
X85868330Y-104156830D01*
X86073215Y-103850197D01*
X86145161Y-103488500D01*
X86145161Y-100988500D01*
X106654839Y-100988500D01*
X106654839Y-103488500D01*
X106726785Y-103850197D01*
X106931670Y-104156830D01*
X107238303Y-104361715D01*
X107600000Y-104433661D01*
X110600000Y-104433661D01*
X110961697Y-104361715D01*
X110996440Y-104338500D01*
X125054839Y-104338500D01*
X125054839Y-106338500D01*
X125126785Y-106700197D01*
X125331670Y-107006830D01*
X125518428Y-107131618D01*
X125354092Y-107573961D01*
X125378144Y-108223960D01*
X125580613Y-108712764D01*
X125814188Y-108799122D01*
X125366368Y-109246942D01*
X125073000Y-109955196D01*
X125073000Y-110721804D01*
X125366368Y-111430058D01*
X125908442Y-111972132D01*
X126616696Y-112265500D01*
X127383304Y-112265500D01*
X127569198Y-112188500D01*
X132054839Y-112188500D01*
X132054839Y-114688500D01*
X132126785Y-115050197D01*
X132331670Y-115356830D01*
X132638303Y-115561715D01*
X133000000Y-115633661D01*
X136000000Y-115633661D01*
X136361697Y-115561715D01*
X136668330Y-115356830D01*
X136873215Y-115050197D01*
X136945161Y-114688500D01*
X136945161Y-112188500D01*
X136873215Y-111826803D01*
X136668330Y-111520170D01*
X136361697Y-111315285D01*
X136000000Y-111243339D01*
X133000000Y-111243339D01*
X132638303Y-111315285D01*
X132331670Y-111520170D01*
X132126785Y-111826803D01*
X132054839Y-112188500D01*
X127569198Y-112188500D01*
X128091558Y-111972132D01*
X128633632Y-111430058D01*
X128927000Y-110721804D01*
X128927000Y-109955196D01*
X128633632Y-109246942D01*
X128185812Y-108799122D01*
X128419387Y-108712764D01*
X128645908Y-108103039D01*
X128621856Y-107453040D01*
X128487169Y-107127877D01*
X128668330Y-107006830D01*
X128873215Y-106700197D01*
X128945161Y-106338500D01*
X128945161Y-104338500D01*
X128873215Y-103976803D01*
X128668330Y-103670170D01*
X128361697Y-103465285D01*
X128000000Y-103393339D01*
X126000000Y-103393339D01*
X125638303Y-103465285D01*
X125331670Y-103670170D01*
X125126785Y-103976803D01*
X125054839Y-104338500D01*
X110996440Y-104338500D01*
X111268330Y-104156830D01*
X111473215Y-103850197D01*
X111545161Y-103488500D01*
X111545161Y-100988500D01*
X132054839Y-100988500D01*
X132054839Y-103488500D01*
X132126785Y-103850197D01*
X132331670Y-104156830D01*
X132638303Y-104361715D01*
X133000000Y-104433661D01*
X136000000Y-104433661D01*
X136361697Y-104361715D01*
X136396440Y-104338500D01*
X150454839Y-104338500D01*
X150454839Y-106338500D01*
X150526785Y-106700197D01*
X150731670Y-107006830D01*
X150918428Y-107131618D01*
X150754092Y-107573961D01*
X150778144Y-108223960D01*
X150980613Y-108712764D01*
X151214188Y-108799122D01*
X150766368Y-109246942D01*
X150473000Y-109955196D01*
X150473000Y-110721804D01*
X150766368Y-111430058D01*
X151308442Y-111972132D01*
X152016696Y-112265500D01*
X152783304Y-112265500D01*
X152969198Y-112188500D01*
X157454839Y-112188500D01*
X157454839Y-114688500D01*
X157526785Y-115050197D01*
X157731670Y-115356830D01*
X158038303Y-115561715D01*
X158400000Y-115633661D01*
X161400000Y-115633661D01*
X161761697Y-115561715D01*
X162068330Y-115356830D01*
X162273215Y-115050197D01*
X162345161Y-114688500D01*
X162345161Y-112188500D01*
X162273215Y-111826803D01*
X162068330Y-111520170D01*
X161761697Y-111315285D01*
X161400000Y-111243339D01*
X158400000Y-111243339D01*
X158038303Y-111315285D01*
X157731670Y-111520170D01*
X157526785Y-111826803D01*
X157454839Y-112188500D01*
X152969198Y-112188500D01*
X153491558Y-111972132D01*
X154033632Y-111430058D01*
X154327000Y-110721804D01*
X154327000Y-109955196D01*
X154033632Y-109246942D01*
X153585812Y-108799122D01*
X153819387Y-108712764D01*
X154045908Y-108103039D01*
X154021856Y-107453040D01*
X153887169Y-107127877D01*
X154068330Y-107006830D01*
X154273215Y-106700197D01*
X154345161Y-106338500D01*
X154345161Y-104338500D01*
X154273215Y-103976803D01*
X154068330Y-103670170D01*
X153761697Y-103465285D01*
X153400000Y-103393339D01*
X151400000Y-103393339D01*
X151038303Y-103465285D01*
X150731670Y-103670170D01*
X150526785Y-103976803D01*
X150454839Y-104338500D01*
X136396440Y-104338500D01*
X136668330Y-104156830D01*
X136873215Y-103850197D01*
X136945161Y-103488500D01*
X136945161Y-100988500D01*
X157454839Y-100988500D01*
X157454839Y-103488500D01*
X157526785Y-103850197D01*
X157731670Y-104156830D01*
X158038303Y-104361715D01*
X158400000Y-104433661D01*
X161400000Y-104433661D01*
X161761697Y-104361715D01*
X161796440Y-104338500D01*
X175854839Y-104338500D01*
X175854839Y-106338500D01*
X175926785Y-106700197D01*
X176131670Y-107006830D01*
X176318428Y-107131618D01*
X176154092Y-107573961D01*
X176178144Y-108223960D01*
X176380613Y-108712764D01*
X176614188Y-108799122D01*
X176166368Y-109246942D01*
X175873000Y-109955196D01*
X175873000Y-110721804D01*
X176166368Y-111430058D01*
X176708442Y-111972132D01*
X177416696Y-112265500D01*
X178183304Y-112265500D01*
X178369198Y-112188500D01*
X182854839Y-112188500D01*
X182854839Y-114688500D01*
X182926785Y-115050197D01*
X183131670Y-115356830D01*
X183438303Y-115561715D01*
X183800000Y-115633661D01*
X186800000Y-115633661D01*
X187161697Y-115561715D01*
X187468330Y-115356830D01*
X187673215Y-115050197D01*
X187745161Y-114688500D01*
X187745161Y-112188500D01*
X187673215Y-111826803D01*
X187468330Y-111520170D01*
X187161697Y-111315285D01*
X186800000Y-111243339D01*
X183800000Y-111243339D01*
X183438303Y-111315285D01*
X183131670Y-111520170D01*
X182926785Y-111826803D01*
X182854839Y-112188500D01*
X178369198Y-112188500D01*
X178891558Y-111972132D01*
X179433632Y-111430058D01*
X179727000Y-110721804D01*
X179727000Y-109955196D01*
X179433632Y-109246942D01*
X178985812Y-108799122D01*
X179219387Y-108712764D01*
X179445908Y-108103039D01*
X179421856Y-107453040D01*
X179287169Y-107127877D01*
X179468330Y-107006830D01*
X179673215Y-106700197D01*
X179745161Y-106338500D01*
X179745161Y-104338500D01*
X179673215Y-103976803D01*
X179468330Y-103670170D01*
X179161697Y-103465285D01*
X178800000Y-103393339D01*
X176800000Y-103393339D01*
X176438303Y-103465285D01*
X176131670Y-103670170D01*
X175926785Y-103976803D01*
X175854839Y-104338500D01*
X161796440Y-104338500D01*
X162068330Y-104156830D01*
X162273215Y-103850197D01*
X162345161Y-103488500D01*
X162345161Y-100988500D01*
X182854839Y-100988500D01*
X182854839Y-103488500D01*
X182926785Y-103850197D01*
X183131670Y-104156830D01*
X183438303Y-104361715D01*
X183800000Y-104433661D01*
X186800000Y-104433661D01*
X187161697Y-104361715D01*
X187468330Y-104156830D01*
X187673215Y-103850197D01*
X187745161Y-103488500D01*
X187745161Y-100988500D01*
X187673215Y-100626803D01*
X187468330Y-100320170D01*
X187161697Y-100115285D01*
X186800000Y-100043339D01*
X183800000Y-100043339D01*
X183438303Y-100115285D01*
X183131670Y-100320170D01*
X182926785Y-100626803D01*
X182854839Y-100988500D01*
X162345161Y-100988500D01*
X162273215Y-100626803D01*
X162068330Y-100320170D01*
X161761697Y-100115285D01*
X161400000Y-100043339D01*
X158400000Y-100043339D01*
X158038303Y-100115285D01*
X157731670Y-100320170D01*
X157526785Y-100626803D01*
X157454839Y-100988500D01*
X136945161Y-100988500D01*
X136873215Y-100626803D01*
X136668330Y-100320170D01*
X136361697Y-100115285D01*
X136000000Y-100043339D01*
X133000000Y-100043339D01*
X132638303Y-100115285D01*
X132331670Y-100320170D01*
X132126785Y-100626803D01*
X132054839Y-100988500D01*
X111545161Y-100988500D01*
X111473215Y-100626803D01*
X111268330Y-100320170D01*
X110961697Y-100115285D01*
X110600000Y-100043339D01*
X107600000Y-100043339D01*
X107238303Y-100115285D01*
X106931670Y-100320170D01*
X106726785Y-100626803D01*
X106654839Y-100988500D01*
X86145161Y-100988500D01*
X86073215Y-100626803D01*
X85868330Y-100320170D01*
X85561697Y-100115285D01*
X85200000Y-100043339D01*
X82200000Y-100043339D01*
X81838303Y-100115285D01*
X81531670Y-100320170D01*
X81326785Y-100626803D01*
X81254839Y-100988500D01*
X79817000Y-100988500D01*
X79817000Y-93918107D01*
X81276108Y-92459000D01*
X81583739Y-92459000D01*
X82144976Y-92226528D01*
X82574528Y-91796976D01*
X82807000Y-91235739D01*
X82807000Y-90628261D01*
X82574528Y-90067024D01*
X82144976Y-89637472D01*
X81583739Y-89405000D01*
X80976261Y-89405000D01*
X80415024Y-89637472D01*
X79985472Y-90067024D01*
X79753000Y-90628261D01*
X79753000Y-90935892D01*
X78053452Y-92635441D01*
X77963527Y-92695527D01*
X77725489Y-93051777D01*
X77663000Y-93365929D01*
X77663000Y-93365934D01*
X77641902Y-93472000D01*
X77663000Y-93578067D01*
X77663000Y-103532974D01*
X77561697Y-103465285D01*
X77200000Y-103393339D01*
X75200000Y-103393339D01*
X74838303Y-103465285D01*
X74531670Y-103670170D01*
X74326785Y-103976803D01*
X74254839Y-104338500D01*
X62280825Y-104338500D01*
X62184259Y-104105371D01*
X61978060Y-103899172D01*
X61978060Y-84114021D01*
X62345553Y-83746529D01*
X62586976Y-83646528D01*
X63016528Y-83216976D01*
X63249000Y-82655739D01*
X63249000Y-82048261D01*
X63149000Y-81806840D01*
X63149000Y-79134538D01*
X63176955Y-78993999D01*
X63149000Y-78853460D01*
X63149000Y-78853456D01*
X63066204Y-78437212D01*
X62750809Y-77965191D01*
X62631663Y-77885580D01*
X59308999Y-74562918D01*
X59308999Y-73663000D01*
X59485739Y-73663000D01*
X60046976Y-73430528D01*
X60264504Y-73213000D01*
X78560496Y-73213000D01*
X78461472Y-73312024D01*
X78461472Y-73312024D01*
G37*
X78461472Y-73312024D02*
X78229000Y-73873261D01*
X78229000Y-74480739D01*
X78461472Y-75041976D01*
X78891024Y-75471528D01*
X79132448Y-75571529D01*
X86457001Y-82896084D01*
X86457000Y-89370839D01*
X86357000Y-89612261D01*
X86357000Y-90219739D01*
X86589472Y-90780976D01*
X87019024Y-91210528D01*
X87580261Y-91443000D01*
X88187739Y-91443000D01*
X88748976Y-91210528D01*
X89178528Y-90780976D01*
X89411000Y-90219739D01*
X89411000Y-89612261D01*
X89311000Y-89370840D01*
X89311000Y-82637108D01*
X94430893Y-87757001D01*
X91612071Y-87757001D01*
X91505999Y-87735902D01*
X91399928Y-87757001D01*
X91399927Y-87757001D01*
X91085775Y-87819490D01*
X90729526Y-88057528D01*
X90491488Y-88413777D01*
X90407900Y-88834001D01*
X90428999Y-88940073D01*
X90428999Y-90265935D01*
X90407901Y-90372001D01*
X90428999Y-90478067D01*
X90428999Y-90478072D01*
X90491488Y-90792224D01*
X90729526Y-91148474D01*
X90819451Y-91208560D01*
X91991441Y-92380551D01*
X92051525Y-92470473D01*
X92141447Y-92530557D01*
X92141448Y-92530558D01*
X92221804Y-92584250D01*
X92407774Y-92708511D01*
X92721926Y-92771000D01*
X92721931Y-92771000D01*
X92827998Y-92792098D01*
X92934064Y-92771000D01*
X188524341Y-92771000D01*
X188465000Y-92914261D01*
X188465000Y-93521739D01*
X188697472Y-94082976D01*
X189127024Y-94512528D01*
X189368447Y-94612529D01*
X189899579Y-95143662D01*
X189979191Y-95262809D01*
X190098337Y-95342420D01*
X190098338Y-95342421D01*
X190340158Y-95504000D01*
X190451212Y-95578204D01*
X190867456Y-95661000D01*
X190867459Y-95661000D01*
X191008000Y-95688955D01*
X191105001Y-95669660D01*
X191105000Y-122898840D01*
X191005000Y-123140261D01*
X191005000Y-123747739D01*
X191237472Y-124308976D01*
X191667024Y-124738528D01*
X192228261Y-124971000D01*
X192835739Y-124971000D01*
X193396976Y-124738528D01*
X193826528Y-124308976D01*
X194059000Y-123747739D01*
X194059000Y-123140261D01*
X193959000Y-122898840D01*
X193959000Y-94966504D01*
X194334528Y-94590976D01*
X194567000Y-94029739D01*
X194567000Y-93422261D01*
X194334528Y-92861024D01*
X194244504Y-92771000D01*
X200132767Y-92771000D01*
X200918317Y-93556551D01*
X200978401Y-93646473D01*
X201068323Y-93706557D01*
X201068324Y-93706558D01*
X201172587Y-93776224D01*
X201334650Y-93884511D01*
X201648802Y-93947000D01*
X201648807Y-93947000D01*
X201754873Y-93968098D01*
X201860940Y-93947000D01*
X204686883Y-93947000D01*
X204693785Y-93981697D01*
X204898670Y-94288330D01*
X205205303Y-94493215D01*
X205567000Y-94565161D01*
X206060000Y-94565161D01*
X206060000Y-95184892D01*
X200227450Y-101017443D01*
X200137528Y-101077527D01*
X200077444Y-101167449D01*
X200077442Y-101167451D01*
X200006794Y-101273184D01*
X199899490Y-101433776D01*
X199848638Y-101689428D01*
X199815902Y-101854000D01*
X199837001Y-101960071D01*
X199837000Y-120837496D01*
X199619472Y-121055024D01*
X199387000Y-121616261D01*
X199387000Y-122223739D01*
X199619472Y-122784976D01*
X200049024Y-123214528D01*
X200610261Y-123447000D01*
X201178917Y-123447000D01*
X199528448Y-125097471D01*
X199287024Y-125197472D01*
X198857472Y-125627024D01*
X198625000Y-126188261D01*
X198625000Y-126795739D01*
X198857472Y-127356976D01*
X199287024Y-127786528D01*
X199848261Y-128019000D01*
X200455739Y-128019000D01*
X201016976Y-127786528D01*
X201446528Y-127356976D01*
X201546529Y-127115552D01*
X203199000Y-125463082D01*
X203199000Y-127666449D01*
X202994855Y-127802855D01*
X202602103Y-128390650D01*
X202499000Y-128908984D01*
X202499000Y-129559017D01*
X202602103Y-130077351D01*
X202711450Y-130241000D01*
X84619168Y-130241000D01*
X62471639Y-108093472D01*
X62477550Y-108079203D01*
X62477550Y-107312797D01*
X62184259Y-106604731D01*
X62025848Y-106446320D01*
X62184259Y-106287909D01*
X62477550Y-105579843D01*
X62477550Y-104813437D01*
X62280825Y-104338500D01*
X74254839Y-104338500D01*
X74254839Y-106338500D01*
X74326785Y-106700197D01*
X74531670Y-107006830D01*
X74718428Y-107131618D01*
X74554092Y-107573961D01*
X74578144Y-108223960D01*
X74780613Y-108712764D01*
X75014188Y-108799122D01*
X74566368Y-109246942D01*
X74273000Y-109955196D01*
X74273000Y-110721804D01*
X74566368Y-111430058D01*
X75108442Y-111972132D01*
X75816696Y-112265500D01*
X76583304Y-112265500D01*
X77291558Y-111972132D01*
X77663001Y-111600689D01*
X77663001Y-118805495D01*
X77445472Y-119023024D01*
X77213000Y-119584261D01*
X77213000Y-120191739D01*
X77445472Y-120752976D01*
X77875024Y-121182528D01*
X78436261Y-121415000D01*
X79043739Y-121415000D01*
X79604976Y-121182528D01*
X80034528Y-120752976D01*
X80267000Y-120191739D01*
X80267000Y-119584261D01*
X80034528Y-119023024D01*
X79817000Y-118805496D01*
X79817000Y-112188500D01*
X81254839Y-112188500D01*
X81254839Y-114688500D01*
X81326785Y-115050197D01*
X81531670Y-115356830D01*
X81838303Y-115561715D01*
X82200000Y-115633661D01*
X85200000Y-115633661D01*
X85561697Y-115561715D01*
X85868330Y-115356830D01*
X86073215Y-115050197D01*
X86145161Y-114688500D01*
X86145161Y-112188500D01*
X86073215Y-111826803D01*
X85868330Y-111520170D01*
X85561697Y-111315285D01*
X85200000Y-111243339D01*
X82200000Y-111243339D01*
X81838303Y-111315285D01*
X81531670Y-111520170D01*
X81326785Y-111826803D01*
X81254839Y-112188500D01*
X79817000Y-112188500D01*
X79817000Y-100988500D01*
X81254839Y-100988500D01*
X81254839Y-103488500D01*
X81326785Y-103850197D01*
X81531670Y-104156830D01*
X81838303Y-104361715D01*
X82200000Y-104433661D01*
X85200000Y-104433661D01*
X85561697Y-104361715D01*
X85596440Y-104338500D01*
X99654839Y-104338500D01*
X99654839Y-106338500D01*
X99726785Y-106700197D01*
X99931670Y-107006830D01*
X100118428Y-107131618D01*
X99954092Y-107573961D01*
X99978144Y-108223960D01*
X100180613Y-108712764D01*
X100414188Y-108799122D01*
X99966368Y-109246942D01*
X99673000Y-109955196D01*
X99673000Y-110721804D01*
X99966368Y-111430058D01*
X100508442Y-111972132D01*
X101216696Y-112265500D01*
X101983304Y-112265500D01*
X102169198Y-112188500D01*
X106654839Y-112188500D01*
X106654839Y-114688500D01*
X106726785Y-115050197D01*
X106931670Y-115356830D01*
X107238303Y-115561715D01*
X107600000Y-115633661D01*
X110600000Y-115633661D01*
X110961697Y-115561715D01*
X111268330Y-115356830D01*
X111473215Y-115050197D01*
X111545161Y-114688500D01*
X111545161Y-112188500D01*
X111473215Y-111826803D01*
X111268330Y-111520170D01*
X110961697Y-111315285D01*
X110600000Y-111243339D01*
X107600000Y-111243339D01*
X107238303Y-111315285D01*
X106931670Y-111520170D01*
X106726785Y-111826803D01*
X106654839Y-112188500D01*
X102169198Y-112188500D01*
X102691558Y-111972132D01*
X103233632Y-111430058D01*
X103527000Y-110721804D01*
X103527000Y-109955196D01*
X103233632Y-109246942D01*
X102785812Y-108799122D01*
X103019387Y-108712764D01*
X103245908Y-108103039D01*
X103221856Y-107453040D01*
X103087169Y-107127877D01*
X103268330Y-107006830D01*
X103473215Y-106700197D01*
X103545161Y-106338500D01*
X103545161Y-104338500D01*
X103473215Y-103976803D01*
X103268330Y-103670170D01*
X102961697Y-103465285D01*
X102600000Y-103393339D01*
X100600000Y-103393339D01*
X100238303Y-103465285D01*
X99931670Y-103670170D01*
X99726785Y-103976803D01*
X99654839Y-104338500D01*
X85596440Y-104338500D01*
X85868330Y-104156830D01*
X86073215Y-103850197D01*
X86145161Y-103488500D01*
X86145161Y-100988500D01*
X106654839Y-100988500D01*
X106654839Y-103488500D01*
X106726785Y-103850197D01*
X106931670Y-104156830D01*
X107238303Y-104361715D01*
X107600000Y-104433661D01*
X110600000Y-104433661D01*
X110961697Y-104361715D01*
X110996440Y-104338500D01*
X125054839Y-104338500D01*
X125054839Y-106338500D01*
X125126785Y-106700197D01*
X125331670Y-107006830D01*
X125518428Y-107131618D01*
X125354092Y-107573961D01*
X125378144Y-108223960D01*
X125580613Y-108712764D01*
X125814188Y-108799122D01*
X125366368Y-109246942D01*
X125073000Y-109955196D01*
X125073000Y-110721804D01*
X125366368Y-111430058D01*
X125908442Y-111972132D01*
X126616696Y-112265500D01*
X127383304Y-112265500D01*
X127569198Y-112188500D01*
X132054839Y-112188500D01*
X132054839Y-114688500D01*
X132126785Y-115050197D01*
X132331670Y-115356830D01*
X132638303Y-115561715D01*
X133000000Y-115633661D01*
X136000000Y-115633661D01*
X136361697Y-115561715D01*
X136668330Y-115356830D01*
X136873215Y-115050197D01*
X136945161Y-114688500D01*
X136945161Y-112188500D01*
X136873215Y-111826803D01*
X136668330Y-111520170D01*
X136361697Y-111315285D01*
X136000000Y-111243339D01*
X133000000Y-111243339D01*
X132638303Y-111315285D01*
X132331670Y-111520170D01*
X132126785Y-111826803D01*
X132054839Y-112188500D01*
X127569198Y-112188500D01*
X128091558Y-111972132D01*
X128633632Y-111430058D01*
X128927000Y-110721804D01*
X128927000Y-109955196D01*
X128633632Y-109246942D01*
X128185812Y-108799122D01*
X128419387Y-108712764D01*
X128645908Y-108103039D01*
X128621856Y-107453040D01*
X128487169Y-107127877D01*
X128668330Y-107006830D01*
X128873215Y-106700197D01*
X128945161Y-106338500D01*
X128945161Y-104338500D01*
X128873215Y-103976803D01*
X128668330Y-103670170D01*
X128361697Y-103465285D01*
X128000000Y-103393339D01*
X126000000Y-103393339D01*
X125638303Y-103465285D01*
X125331670Y-103670170D01*
X125126785Y-103976803D01*
X125054839Y-104338500D01*
X110996440Y-104338500D01*
X111268330Y-104156830D01*
X111473215Y-103850197D01*
X111545161Y-103488500D01*
X111545161Y-100988500D01*
X132054839Y-100988500D01*
X132054839Y-103488500D01*
X132126785Y-103850197D01*
X132331670Y-104156830D01*
X132638303Y-104361715D01*
X133000000Y-104433661D01*
X136000000Y-104433661D01*
X136361697Y-104361715D01*
X136396440Y-104338500D01*
X150454839Y-104338500D01*
X150454839Y-106338500D01*
X150526785Y-106700197D01*
X150731670Y-107006830D01*
X150918428Y-107131618D01*
X150754092Y-107573961D01*
X150778144Y-108223960D01*
X150980613Y-108712764D01*
X151214188Y-108799122D01*
X150766368Y-109246942D01*
X150473000Y-109955196D01*
X150473000Y-110721804D01*
X150766368Y-111430058D01*
X151308442Y-111972132D01*
X152016696Y-112265500D01*
X152783304Y-112265500D01*
X152969198Y-112188500D01*
X157454839Y-112188500D01*
X157454839Y-114688500D01*
X157526785Y-115050197D01*
X157731670Y-115356830D01*
X158038303Y-115561715D01*
X158400000Y-115633661D01*
X161400000Y-115633661D01*
X161761697Y-115561715D01*
X162068330Y-115356830D01*
X162273215Y-115050197D01*
X162345161Y-114688500D01*
X162345161Y-112188500D01*
X162273215Y-111826803D01*
X162068330Y-111520170D01*
X161761697Y-111315285D01*
X161400000Y-111243339D01*
X158400000Y-111243339D01*
X158038303Y-111315285D01*
X157731670Y-111520170D01*
X157526785Y-111826803D01*
X157454839Y-112188500D01*
X152969198Y-112188500D01*
X153491558Y-111972132D01*
X154033632Y-111430058D01*
X154327000Y-110721804D01*
X154327000Y-109955196D01*
X154033632Y-109246942D01*
X153585812Y-108799122D01*
X153819387Y-108712764D01*
X154045908Y-108103039D01*
X154021856Y-107453040D01*
X153887169Y-107127877D01*
X154068330Y-107006830D01*
X154273215Y-106700197D01*
X154345161Y-106338500D01*
X154345161Y-104338500D01*
X154273215Y-103976803D01*
X154068330Y-103670170D01*
X153761697Y-103465285D01*
X153400000Y-103393339D01*
X151400000Y-103393339D01*
X151038303Y-103465285D01*
X150731670Y-103670170D01*
X150526785Y-103976803D01*
X150454839Y-104338500D01*
X136396440Y-104338500D01*
X136668330Y-104156830D01*
X136873215Y-103850197D01*
X136945161Y-103488500D01*
X136945161Y-100988500D01*
X157454839Y-100988500D01*
X157454839Y-103488500D01*
X157526785Y-103850197D01*
X157731670Y-104156830D01*
X158038303Y-104361715D01*
X158400000Y-104433661D01*
X161400000Y-104433661D01*
X161761697Y-104361715D01*
X161796440Y-104338500D01*
X175854839Y-104338500D01*
X175854839Y-106338500D01*
X175926785Y-106700197D01*
X176131670Y-107006830D01*
X176318428Y-107131618D01*
X176154092Y-107573961D01*
X176178144Y-108223960D01*
X176380613Y-108712764D01*
X176614188Y-108799122D01*
X176166368Y-109246942D01*
X175873000Y-109955196D01*
X175873000Y-110721804D01*
X176166368Y-111430058D01*
X176708442Y-111972132D01*
X177416696Y-112265500D01*
X178183304Y-112265500D01*
X178369198Y-112188500D01*
X182854839Y-112188500D01*
X182854839Y-114688500D01*
X182926785Y-115050197D01*
X183131670Y-115356830D01*
X183438303Y-115561715D01*
X183800000Y-115633661D01*
X186800000Y-115633661D01*
X187161697Y-115561715D01*
X187468330Y-115356830D01*
X187673215Y-115050197D01*
X187745161Y-114688500D01*
X187745161Y-112188500D01*
X187673215Y-111826803D01*
X187468330Y-111520170D01*
X187161697Y-111315285D01*
X186800000Y-111243339D01*
X183800000Y-111243339D01*
X183438303Y-111315285D01*
X183131670Y-111520170D01*
X182926785Y-111826803D01*
X182854839Y-112188500D01*
X178369198Y-112188500D01*
X178891558Y-111972132D01*
X179433632Y-111430058D01*
X179727000Y-110721804D01*
X179727000Y-109955196D01*
X179433632Y-109246942D01*
X178985812Y-108799122D01*
X179219387Y-108712764D01*
X179445908Y-108103039D01*
X179421856Y-107453040D01*
X179287169Y-107127877D01*
X179468330Y-107006830D01*
X179673215Y-106700197D01*
X179745161Y-106338500D01*
X179745161Y-104338500D01*
X179673215Y-103976803D01*
X179468330Y-103670170D01*
X179161697Y-103465285D01*
X178800000Y-103393339D01*
X176800000Y-103393339D01*
X176438303Y-103465285D01*
X176131670Y-103670170D01*
X175926785Y-103976803D01*
X175854839Y-104338500D01*
X161796440Y-104338500D01*
X162068330Y-104156830D01*
X162273215Y-103850197D01*
X162345161Y-103488500D01*
X162345161Y-100988500D01*
X182854839Y-100988500D01*
X182854839Y-103488500D01*
X182926785Y-103850197D01*
X183131670Y-104156830D01*
X183438303Y-104361715D01*
X183800000Y-104433661D01*
X186800000Y-104433661D01*
X187161697Y-104361715D01*
X187468330Y-104156830D01*
X187673215Y-103850197D01*
X187745161Y-103488500D01*
X187745161Y-100988500D01*
X187673215Y-100626803D01*
X187468330Y-100320170D01*
X187161697Y-100115285D01*
X186800000Y-100043339D01*
X183800000Y-100043339D01*
X183438303Y-100115285D01*
X183131670Y-100320170D01*
X182926785Y-100626803D01*
X182854839Y-100988500D01*
X162345161Y-100988500D01*
X162273215Y-100626803D01*
X162068330Y-100320170D01*
X161761697Y-100115285D01*
X161400000Y-100043339D01*
X158400000Y-100043339D01*
X158038303Y-100115285D01*
X157731670Y-100320170D01*
X157526785Y-100626803D01*
X157454839Y-100988500D01*
X136945161Y-100988500D01*
X136873215Y-100626803D01*
X136668330Y-100320170D01*
X136361697Y-100115285D01*
X136000000Y-100043339D01*
X133000000Y-100043339D01*
X132638303Y-100115285D01*
X132331670Y-100320170D01*
X132126785Y-100626803D01*
X132054839Y-100988500D01*
X111545161Y-100988500D01*
X111473215Y-100626803D01*
X111268330Y-100320170D01*
X110961697Y-100115285D01*
X110600000Y-100043339D01*
X107600000Y-100043339D01*
X107238303Y-100115285D01*
X106931670Y-100320170D01*
X106726785Y-100626803D01*
X106654839Y-100988500D01*
X86145161Y-100988500D01*
X86073215Y-100626803D01*
X85868330Y-100320170D01*
X85561697Y-100115285D01*
X85200000Y-100043339D01*
X82200000Y-100043339D01*
X81838303Y-100115285D01*
X81531670Y-100320170D01*
X81326785Y-100626803D01*
X81254839Y-100988500D01*
X79817000Y-100988500D01*
X79817000Y-93918107D01*
X81276108Y-92459000D01*
X81583739Y-92459000D01*
X82144976Y-92226528D01*
X82574528Y-91796976D01*
X82807000Y-91235739D01*
X82807000Y-90628261D01*
X82574528Y-90067024D01*
X82144976Y-89637472D01*
X81583739Y-89405000D01*
X80976261Y-89405000D01*
X80415024Y-89637472D01*
X79985472Y-90067024D01*
X79753000Y-90628261D01*
X79753000Y-90935892D01*
X78053452Y-92635441D01*
X77963527Y-92695527D01*
X77725489Y-93051777D01*
X77663000Y-93365929D01*
X77663000Y-93365934D01*
X77641902Y-93472000D01*
X77663000Y-93578067D01*
X77663000Y-103532974D01*
X77561697Y-103465285D01*
X77200000Y-103393339D01*
X75200000Y-103393339D01*
X74838303Y-103465285D01*
X74531670Y-103670170D01*
X74326785Y-103976803D01*
X74254839Y-104338500D01*
X62280825Y-104338500D01*
X62184259Y-104105371D01*
X61978060Y-103899172D01*
X61978060Y-84114021D01*
X62345553Y-83746529D01*
X62586976Y-83646528D01*
X63016528Y-83216976D01*
X63249000Y-82655739D01*
X63249000Y-82048261D01*
X63149000Y-81806840D01*
X63149000Y-79134538D01*
X63176955Y-78993999D01*
X63149000Y-78853460D01*
X63149000Y-78853456D01*
X63066204Y-78437212D01*
X62750809Y-77965191D01*
X62631663Y-77885580D01*
X59308999Y-74562918D01*
X59308999Y-73663000D01*
X59485739Y-73663000D01*
X60046976Y-73430528D01*
X60264504Y-73213000D01*
X78560496Y-73213000D01*
X78461472Y-73312024D01*
G36*
X76393748Y-107824358D02*
X76379605Y-107838500D01*
X76393748Y-107852643D01*
X76214143Y-108032248D01*
X76200000Y-108018105D01*
X76185858Y-108032248D01*
X76006253Y-107852643D01*
X76020395Y-107838500D01*
X76006253Y-107824358D01*
X76185858Y-107644753D01*
X76200000Y-107658895D01*
X76214143Y-107644753D01*
X76393748Y-107824358D01*
X76393748Y-107824358D01*
G37*
X76393748Y-107824358D02*
X76379605Y-107838500D01*
X76393748Y-107852643D01*
X76214143Y-108032248D01*
X76200000Y-108018105D01*
X76185858Y-108032248D01*
X76006253Y-107852643D01*
X76020395Y-107838500D01*
X76006253Y-107824358D01*
X76185858Y-107644753D01*
X76200000Y-107658895D01*
X76214143Y-107644753D01*
X76393748Y-107824358D01*
G36*
X177993748Y-107824358D02*
X177979605Y-107838500D01*
X177993748Y-107852643D01*
X177814143Y-108032248D01*
X177800000Y-108018105D01*
X177785858Y-108032248D01*
X177606253Y-107852643D01*
X177620395Y-107838500D01*
X177606253Y-107824358D01*
X177785858Y-107644753D01*
X177800000Y-107658895D01*
X177814143Y-107644753D01*
X177993748Y-107824358D01*
X177993748Y-107824358D01*
G37*
X177993748Y-107824358D02*
X177979605Y-107838500D01*
X177993748Y-107852643D01*
X177814143Y-108032248D01*
X177800000Y-108018105D01*
X177785858Y-108032248D01*
X177606253Y-107852643D01*
X177620395Y-107838500D01*
X177606253Y-107824358D01*
X177785858Y-107644753D01*
X177800000Y-107658895D01*
X177814143Y-107644753D01*
X177993748Y-107824358D01*
G36*
X101793748Y-107824358D02*
X101779605Y-107838500D01*
X101793748Y-107852643D01*
X101614143Y-108032248D01*
X101600000Y-108018105D01*
X101585858Y-108032248D01*
X101406253Y-107852643D01*
X101420395Y-107838500D01*
X101406253Y-107824358D01*
X101585858Y-107644753D01*
X101600000Y-107658895D01*
X101614143Y-107644753D01*
X101793748Y-107824358D01*
X101793748Y-107824358D01*
G37*
X101793748Y-107824358D02*
X101779605Y-107838500D01*
X101793748Y-107852643D01*
X101614143Y-108032248D01*
X101600000Y-108018105D01*
X101585858Y-108032248D01*
X101406253Y-107852643D01*
X101420395Y-107838500D01*
X101406253Y-107824358D01*
X101585858Y-107644753D01*
X101600000Y-107658895D01*
X101614143Y-107644753D01*
X101793748Y-107824358D01*
G36*
X127193748Y-107824358D02*
X127179605Y-107838500D01*
X127193748Y-107852643D01*
X127014143Y-108032248D01*
X127000000Y-108018105D01*
X126985858Y-108032248D01*
X126806253Y-107852643D01*
X126820395Y-107838500D01*
X126806253Y-107824358D01*
X126985858Y-107644753D01*
X127000000Y-107658895D01*
X127014143Y-107644753D01*
X127193748Y-107824358D01*
X127193748Y-107824358D01*
G37*
X127193748Y-107824358D02*
X127179605Y-107838500D01*
X127193748Y-107852643D01*
X127014143Y-108032248D01*
X127000000Y-108018105D01*
X126985858Y-108032248D01*
X126806253Y-107852643D01*
X126820395Y-107838500D01*
X126806253Y-107824358D01*
X126985858Y-107644753D01*
X127000000Y-107658895D01*
X127014143Y-107644753D01*
X127193748Y-107824358D01*
G36*
X152593748Y-107824358D02*
X152579605Y-107838500D01*
X152593748Y-107852643D01*
X152414143Y-108032248D01*
X152400000Y-108018105D01*
X152385858Y-108032248D01*
X152206253Y-107852643D01*
X152220395Y-107838500D01*
X152206253Y-107824358D01*
X152385858Y-107644753D01*
X152400000Y-107658895D01*
X152414143Y-107644753D01*
X152593748Y-107824358D01*
X152593748Y-107824358D01*
G37*
X152593748Y-107824358D02*
X152579605Y-107838500D01*
X152593748Y-107852643D01*
X152414143Y-108032248D01*
X152400000Y-108018105D01*
X152385858Y-108032248D01*
X152206253Y-107852643D01*
X152220395Y-107838500D01*
X152206253Y-107824358D01*
X152385858Y-107644753D01*
X152400000Y-107658895D01*
X152414143Y-107644753D01*
X152593748Y-107824358D01*
G36*
X219153000Y-92819413D02*
X219431144Y-93490912D01*
X219666232Y-93726000D01*
X219431144Y-93961088D01*
X219153000Y-94632587D01*
X219153000Y-95359413D01*
X219431144Y-96030912D01*
X219666232Y-96266000D01*
X219431144Y-96501088D01*
X219153000Y-97172587D01*
X219153000Y-97899413D01*
X219431144Y-98570912D01*
X219666232Y-98806000D01*
X219473232Y-98999000D01*
X214228068Y-98999000D01*
X214122000Y-98977902D01*
X214015932Y-98999000D01*
X214015928Y-98999000D01*
X213764777Y-99048957D01*
X213701775Y-99061489D01*
X213435450Y-99239442D01*
X213435449Y-99239443D01*
X213345527Y-99299527D01*
X213285443Y-99389449D01*
X204119000Y-108555893D01*
X204119000Y-107925083D01*
X214071191Y-97972894D01*
X214515809Y-97675809D01*
X214831204Y-97203788D01*
X214914000Y-96787543D01*
X214914000Y-96679543D01*
X214941955Y-96539003D01*
X214914000Y-96398463D01*
X214914000Y-94126250D01*
X215042750Y-94255000D01*
X215183310Y-94255000D01*
X215416699Y-94158327D01*
X215595327Y-93979698D01*
X215692000Y-93746309D01*
X215692000Y-93155750D01*
X215533250Y-92997000D01*
X214914000Y-92997000D01*
X214914000Y-92743000D01*
X215533250Y-92743000D01*
X215692000Y-92584250D01*
X215692000Y-92263000D01*
X219153000Y-92263000D01*
X219153000Y-92819413D01*
X219153000Y-92819413D01*
G37*
X219153000Y-92819413D02*
X219431144Y-93490912D01*
X219666232Y-93726000D01*
X219431144Y-93961088D01*
X219153000Y-94632587D01*
X219153000Y-95359413D01*
X219431144Y-96030912D01*
X219666232Y-96266000D01*
X219431144Y-96501088D01*
X219153000Y-97172587D01*
X219153000Y-97899413D01*
X219431144Y-98570912D01*
X219666232Y-98806000D01*
X219473232Y-98999000D01*
X214228068Y-98999000D01*
X214122000Y-98977902D01*
X214015932Y-98999000D01*
X214015928Y-98999000D01*
X213764777Y-99048957D01*
X213701775Y-99061489D01*
X213435450Y-99239442D01*
X213435449Y-99239443D01*
X213345527Y-99299527D01*
X213285443Y-99389449D01*
X204119000Y-108555893D01*
X204119000Y-107925083D01*
X214071191Y-97972894D01*
X214515809Y-97675809D01*
X214831204Y-97203788D01*
X214914000Y-96787543D01*
X214914000Y-96679543D01*
X214941955Y-96539003D01*
X214914000Y-96398463D01*
X214914000Y-94126250D01*
X215042750Y-94255000D01*
X215183310Y-94255000D01*
X215416699Y-94158327D01*
X215595327Y-93979698D01*
X215692000Y-93746309D01*
X215692000Y-93155750D01*
X215533250Y-92997000D01*
X214914000Y-92997000D01*
X214914000Y-92743000D01*
X215533250Y-92743000D01*
X215692000Y-92584250D01*
X215692000Y-92263000D01*
X219153000Y-92263000D01*
X219153000Y-92819413D01*
G36*
X247647000Y-78535739D02*
X247879472Y-79096976D01*
X248309024Y-79526528D01*
X248870261Y-79759000D01*
X249477739Y-79759000D01*
X250038976Y-79526528D01*
X250160504Y-79405000D01*
X250873000Y-79405000D01*
X250872999Y-102852965D01*
X250687698Y-102786856D01*
X250132632Y-102814638D01*
X249748857Y-102973603D01*
X249679392Y-103215787D01*
X250480000Y-104016395D01*
X250494143Y-104002253D01*
X250673748Y-104181858D01*
X250659605Y-104196000D01*
X250673748Y-104210143D01*
X250494143Y-104389748D01*
X250480000Y-104375605D01*
X249679392Y-105176213D01*
X249695607Y-105232746D01*
X249523259Y-105304135D01*
X249048135Y-105779259D01*
X248791000Y-106400037D01*
X248791000Y-107071963D01*
X249048135Y-107692741D01*
X249361394Y-108006000D01*
X249168394Y-108199000D01*
X246374108Y-108199000D01*
X243647000Y-105471893D01*
X243647000Y-103932107D01*
X244283834Y-103295274D01*
X244431144Y-103650912D01*
X244945088Y-104164856D01*
X245616587Y-104443000D01*
X246343413Y-104443000D01*
X247014912Y-104164856D01*
X247191466Y-103988302D01*
X249070856Y-103988302D01*
X249098638Y-104543368D01*
X249257603Y-104927143D01*
X249499787Y-104996608D01*
X250300395Y-104196000D01*
X249499787Y-103395392D01*
X249257603Y-103464857D01*
X249070856Y-103988302D01*
X247191466Y-103988302D01*
X247528856Y-103650912D01*
X247807000Y-102979413D01*
X247807000Y-102252587D01*
X247528856Y-101581088D01*
X247293768Y-101346000D01*
X247528856Y-101110912D01*
X247807000Y-100439413D01*
X247807000Y-99712587D01*
X247528856Y-99041088D01*
X247293768Y-98806000D01*
X247528856Y-98570912D01*
X247807000Y-97899413D01*
X247807000Y-97172587D01*
X247528856Y-96501088D01*
X247293768Y-96266000D01*
X247528856Y-96030912D01*
X247807000Y-95359413D01*
X247807000Y-94632587D01*
X247528856Y-93961088D01*
X247293768Y-93726000D01*
X247528856Y-93490912D01*
X247807000Y-92819413D01*
X247807000Y-92092587D01*
X247528856Y-91421088D01*
X247293768Y-91186000D01*
X247528856Y-90950912D01*
X247807000Y-90279413D01*
X247807000Y-89552587D01*
X247528856Y-88881088D01*
X247293768Y-88646000D01*
X247528856Y-88410912D01*
X247807000Y-87739413D01*
X247807000Y-87012587D01*
X247528856Y-86341088D01*
X247293768Y-86106000D01*
X247528856Y-85870912D01*
X247807000Y-85199413D01*
X247807000Y-84472587D01*
X247528856Y-83801088D01*
X247293768Y-83566000D01*
X247528856Y-83330912D01*
X247807000Y-82659413D01*
X247807000Y-81932587D01*
X247528856Y-81261088D01*
X247293768Y-81026000D01*
X247528856Y-80790912D01*
X247807000Y-80119413D01*
X247807000Y-79392587D01*
X247528856Y-78721088D01*
X247293768Y-78486000D01*
X247528856Y-78250912D01*
X247647000Y-77965687D01*
X247647000Y-78535739D01*
X247647000Y-78535739D01*
G37*
X247647000Y-78535739D02*
X247879472Y-79096976D01*
X248309024Y-79526528D01*
X248870261Y-79759000D01*
X249477739Y-79759000D01*
X250038976Y-79526528D01*
X250160504Y-79405000D01*
X250873000Y-79405000D01*
X250872999Y-102852965D01*
X250687698Y-102786856D01*
X250132632Y-102814638D01*
X249748857Y-102973603D01*
X249679392Y-103215787D01*
X250480000Y-104016395D01*
X250494143Y-104002253D01*
X250673748Y-104181858D01*
X250659605Y-104196000D01*
X250673748Y-104210143D01*
X250494143Y-104389748D01*
X250480000Y-104375605D01*
X249679392Y-105176213D01*
X249695607Y-105232746D01*
X249523259Y-105304135D01*
X249048135Y-105779259D01*
X248791000Y-106400037D01*
X248791000Y-107071963D01*
X249048135Y-107692741D01*
X249361394Y-108006000D01*
X249168394Y-108199000D01*
X246374108Y-108199000D01*
X243647000Y-105471893D01*
X243647000Y-103932107D01*
X244283834Y-103295274D01*
X244431144Y-103650912D01*
X244945088Y-104164856D01*
X245616587Y-104443000D01*
X246343413Y-104443000D01*
X247014912Y-104164856D01*
X247191466Y-103988302D01*
X249070856Y-103988302D01*
X249098638Y-104543368D01*
X249257603Y-104927143D01*
X249499787Y-104996608D01*
X250300395Y-104196000D01*
X249499787Y-103395392D01*
X249257603Y-103464857D01*
X249070856Y-103988302D01*
X247191466Y-103988302D01*
X247528856Y-103650912D01*
X247807000Y-102979413D01*
X247807000Y-102252587D01*
X247528856Y-101581088D01*
X247293768Y-101346000D01*
X247528856Y-101110912D01*
X247807000Y-100439413D01*
X247807000Y-99712587D01*
X247528856Y-99041088D01*
X247293768Y-98806000D01*
X247528856Y-98570912D01*
X247807000Y-97899413D01*
X247807000Y-97172587D01*
X247528856Y-96501088D01*
X247293768Y-96266000D01*
X247528856Y-96030912D01*
X247807000Y-95359413D01*
X247807000Y-94632587D01*
X247528856Y-93961088D01*
X247293768Y-93726000D01*
X247528856Y-93490912D01*
X247807000Y-92819413D01*
X247807000Y-92092587D01*
X247528856Y-91421088D01*
X247293768Y-91186000D01*
X247528856Y-90950912D01*
X247807000Y-90279413D01*
X247807000Y-89552587D01*
X247528856Y-88881088D01*
X247293768Y-88646000D01*
X247528856Y-88410912D01*
X247807000Y-87739413D01*
X247807000Y-87012587D01*
X247528856Y-86341088D01*
X247293768Y-86106000D01*
X247528856Y-85870912D01*
X247807000Y-85199413D01*
X247807000Y-84472587D01*
X247528856Y-83801088D01*
X247293768Y-83566000D01*
X247528856Y-83330912D01*
X247807000Y-82659413D01*
X247807000Y-81932587D01*
X247528856Y-81261088D01*
X247293768Y-81026000D01*
X247528856Y-80790912D01*
X247807000Y-80119413D01*
X247807000Y-79392587D01*
X247528856Y-78721088D01*
X247293768Y-78486000D01*
X247528856Y-78250912D01*
X247647000Y-77965687D01*
X247647000Y-78535739D01*
G36*
X254193748Y-107824358D02*
X254179605Y-107838500D01*
X254193748Y-107852643D01*
X254014143Y-108032248D01*
X254000000Y-108018105D01*
X253985858Y-108032248D01*
X253806253Y-107852643D01*
X253820395Y-107838500D01*
X253806253Y-107824358D01*
X253985858Y-107644753D01*
X254000000Y-107658895D01*
X254014143Y-107644753D01*
X254193748Y-107824358D01*
X254193748Y-107824358D01*
G37*
X254193748Y-107824358D02*
X254179605Y-107838500D01*
X254193748Y-107852643D01*
X254014143Y-108032248D01*
X254000000Y-108018105D01*
X253985858Y-108032248D01*
X253806253Y-107852643D01*
X253820395Y-107838500D01*
X253806253Y-107824358D01*
X253985858Y-107644753D01*
X254000000Y-107658895D01*
X254014143Y-107644753D01*
X254193748Y-107824358D01*
G36*
X219945088Y-65507144D02*
X219823232Y-65629000D01*
X218834540Y-65629000D01*
X218694000Y-65601045D01*
X218553459Y-65629000D01*
X218553456Y-65629000D01*
X218137212Y-65711796D01*
X217784338Y-65947579D01*
X217784337Y-65947580D01*
X217665191Y-66027191D01*
X217585580Y-66146337D01*
X213720341Y-70011578D01*
X213601192Y-70091191D01*
X213424920Y-70355000D01*
X213285796Y-70563213D01*
X213175045Y-71120000D01*
X213203001Y-71260545D01*
X213203000Y-75654839D01*
X213103000Y-75896261D01*
X213103000Y-76503739D01*
X213335472Y-77064976D01*
X213765024Y-77494528D01*
X214326261Y-77727000D01*
X214933739Y-77727000D01*
X215494976Y-77494528D01*
X215924528Y-77064976D01*
X216157000Y-76503739D01*
X216157000Y-75896261D01*
X216057000Y-75654840D01*
X216057000Y-71711081D01*
X219285083Y-68483000D01*
X219823232Y-68483000D01*
X219853202Y-68512970D01*
X219785282Y-68580890D01*
X219899839Y-68695447D01*
X219643357Y-68781852D01*
X219433542Y-69355336D01*
X219459161Y-69965460D01*
X219643357Y-70410148D01*
X219899839Y-70496553D01*
X219785282Y-70611110D01*
X219853202Y-70679030D01*
X219431144Y-71101088D01*
X219153000Y-71772587D01*
X219153000Y-72499413D01*
X219431144Y-73170912D01*
X219666232Y-73406000D01*
X219431144Y-73641088D01*
X219153000Y-74312587D01*
X219153000Y-75039413D01*
X219431144Y-75710912D01*
X219666232Y-75946000D01*
X219431144Y-76181088D01*
X219153000Y-76852587D01*
X219153000Y-77579413D01*
X219431144Y-78250912D01*
X219666232Y-78486000D01*
X219431144Y-78721088D01*
X219153000Y-79392587D01*
X219153000Y-80119413D01*
X219431144Y-80790912D01*
X219666232Y-81026000D01*
X219431144Y-81261088D01*
X219153000Y-81932587D01*
X219153000Y-82659413D01*
X219431144Y-83330912D01*
X219666232Y-83566000D01*
X219431144Y-83801088D01*
X219153000Y-84472587D01*
X219153000Y-85199413D01*
X219431144Y-85870912D01*
X219666232Y-86106000D01*
X219431144Y-86341088D01*
X219153000Y-87012587D01*
X219153000Y-87549001D01*
X210922161Y-87549001D01*
X210922161Y-86720000D01*
X210850215Y-86358303D01*
X210820000Y-86313083D01*
X210820000Y-86243750D01*
X211074000Y-86243750D01*
X211074000Y-87343000D01*
X212090000Y-87343000D01*
X212090000Y-86243750D01*
X212344000Y-86243750D01*
X212344000Y-87343000D01*
X213360000Y-87343000D01*
X213360000Y-86243750D01*
X213614000Y-86243750D01*
X213614000Y-87343000D01*
X214630000Y-87343000D01*
X214630000Y-86243750D01*
X214884000Y-86243750D01*
X214884000Y-87343000D01*
X215533250Y-87343000D01*
X215692000Y-87184250D01*
X215692000Y-86593691D01*
X215595327Y-86360302D01*
X215416699Y-86181673D01*
X215183310Y-86085000D01*
X215042750Y-86085000D01*
X214884000Y-86243750D01*
X214630000Y-86243750D01*
X214471250Y-86085000D01*
X214330690Y-86085000D01*
X214122000Y-86171442D01*
X213913310Y-86085000D01*
X213772750Y-86085000D01*
X213614000Y-86243750D01*
X213360000Y-86243750D01*
X213201250Y-86085000D01*
X213060690Y-86085000D01*
X212852000Y-86171442D01*
X212643310Y-86085000D01*
X212502750Y-86085000D01*
X212344000Y-86243750D01*
X212090000Y-86243750D01*
X211931250Y-86085000D01*
X211790690Y-86085000D01*
X211582000Y-86171442D01*
X211373310Y-86085000D01*
X211232750Y-86085000D01*
X211074000Y-86243750D01*
X210820000Y-86243750D01*
X210754000Y-86177750D01*
X210754000Y-85917107D01*
X214372108Y-82299000D01*
X214679739Y-82299000D01*
X215240976Y-82066528D01*
X215670528Y-81636976D01*
X215903000Y-81075739D01*
X215903000Y-80468261D01*
X215670528Y-79907024D01*
X215240976Y-79477472D01*
X214679739Y-79245000D01*
X214072261Y-79245000D01*
X213511024Y-79477472D01*
X213081472Y-79907024D01*
X212849000Y-80468261D01*
X212849000Y-80775892D01*
X209365325Y-84259568D01*
X209293134Y-84151526D01*
X209243558Y-84077330D01*
X209243557Y-84077329D01*
X209183473Y-83987407D01*
X209093552Y-83927324D01*
X204023000Y-78856773D01*
X204023000Y-71201512D01*
X205349000Y-71201512D01*
X205349000Y-72266488D01*
X205756549Y-73250399D01*
X206509601Y-74003451D01*
X207493512Y-74411000D01*
X208558488Y-74411000D01*
X209542399Y-74003451D01*
X210295451Y-73250399D01*
X210703000Y-72266488D01*
X210703000Y-71201512D01*
X210295451Y-70217601D01*
X209542399Y-69464549D01*
X208558488Y-69057000D01*
X207493512Y-69057000D01*
X206509601Y-69464549D01*
X205756549Y-70217601D01*
X205349000Y-71201512D01*
X204023000Y-71201512D01*
X204023000Y-67502107D01*
X206186108Y-65339000D01*
X220351024Y-65339000D01*
X219945088Y-65507144D01*
X219945088Y-65507144D01*
G37*
X219945088Y-65507144D02*
X219823232Y-65629000D01*
X218834540Y-65629000D01*
X218694000Y-65601045D01*
X218553459Y-65629000D01*
X218553456Y-65629000D01*
X218137212Y-65711796D01*
X217784338Y-65947579D01*
X217784337Y-65947580D01*
X217665191Y-66027191D01*
X217585580Y-66146337D01*
X213720341Y-70011578D01*
X213601192Y-70091191D01*
X213424920Y-70355000D01*
X213285796Y-70563213D01*
X213175045Y-71120000D01*
X213203001Y-71260545D01*
X213203000Y-75654839D01*
X213103000Y-75896261D01*
X213103000Y-76503739D01*
X213335472Y-77064976D01*
X213765024Y-77494528D01*
X214326261Y-77727000D01*
X214933739Y-77727000D01*
X215494976Y-77494528D01*
X215924528Y-77064976D01*
X216157000Y-76503739D01*
X216157000Y-75896261D01*
X216057000Y-75654840D01*
X216057000Y-71711081D01*
X219285083Y-68483000D01*
X219823232Y-68483000D01*
X219853202Y-68512970D01*
X219785282Y-68580890D01*
X219899839Y-68695447D01*
X219643357Y-68781852D01*
X219433542Y-69355336D01*
X219459161Y-69965460D01*
X219643357Y-70410148D01*
X219899839Y-70496553D01*
X219785282Y-70611110D01*
X219853202Y-70679030D01*
X219431144Y-71101088D01*
X219153000Y-71772587D01*
X219153000Y-72499413D01*
X219431144Y-73170912D01*
X219666232Y-73406000D01*
X219431144Y-73641088D01*
X219153000Y-74312587D01*
X219153000Y-75039413D01*
X219431144Y-75710912D01*
X219666232Y-75946000D01*
X219431144Y-76181088D01*
X219153000Y-76852587D01*
X219153000Y-77579413D01*
X219431144Y-78250912D01*
X219666232Y-78486000D01*
X219431144Y-78721088D01*
X219153000Y-79392587D01*
X219153000Y-80119413D01*
X219431144Y-80790912D01*
X219666232Y-81026000D01*
X219431144Y-81261088D01*
X219153000Y-81932587D01*
X219153000Y-82659413D01*
X219431144Y-83330912D01*
X219666232Y-83566000D01*
X219431144Y-83801088D01*
X219153000Y-84472587D01*
X219153000Y-85199413D01*
X219431144Y-85870912D01*
X219666232Y-86106000D01*
X219431144Y-86341088D01*
X219153000Y-87012587D01*
X219153000Y-87549001D01*
X210922161Y-87549001D01*
X210922161Y-86720000D01*
X210850215Y-86358303D01*
X210820000Y-86313083D01*
X210820000Y-86243750D01*
X211074000Y-86243750D01*
X211074000Y-87343000D01*
X212090000Y-87343000D01*
X212090000Y-86243750D01*
X212344000Y-86243750D01*
X212344000Y-87343000D01*
X213360000Y-87343000D01*
X213360000Y-86243750D01*
X213614000Y-86243750D01*
X213614000Y-87343000D01*
X214630000Y-87343000D01*
X214630000Y-86243750D01*
X214884000Y-86243750D01*
X214884000Y-87343000D01*
X215533250Y-87343000D01*
X215692000Y-87184250D01*
X215692000Y-86593691D01*
X215595327Y-86360302D01*
X215416699Y-86181673D01*
X215183310Y-86085000D01*
X215042750Y-86085000D01*
X214884000Y-86243750D01*
X214630000Y-86243750D01*
X214471250Y-86085000D01*
X214330690Y-86085000D01*
X214122000Y-86171442D01*
X213913310Y-86085000D01*
X213772750Y-86085000D01*
X213614000Y-86243750D01*
X213360000Y-86243750D01*
X213201250Y-86085000D01*
X213060690Y-86085000D01*
X212852000Y-86171442D01*
X212643310Y-86085000D01*
X212502750Y-86085000D01*
X212344000Y-86243750D01*
X212090000Y-86243750D01*
X211931250Y-86085000D01*
X211790690Y-86085000D01*
X211582000Y-86171442D01*
X211373310Y-86085000D01*
X211232750Y-86085000D01*
X211074000Y-86243750D01*
X210820000Y-86243750D01*
X210754000Y-86177750D01*
X210754000Y-85917107D01*
X214372108Y-82299000D01*
X214679739Y-82299000D01*
X215240976Y-82066528D01*
X215670528Y-81636976D01*
X215903000Y-81075739D01*
X215903000Y-80468261D01*
X215670528Y-79907024D01*
X215240976Y-79477472D01*
X214679739Y-79245000D01*
X214072261Y-79245000D01*
X213511024Y-79477472D01*
X213081472Y-79907024D01*
X212849000Y-80468261D01*
X212849000Y-80775892D01*
X209365325Y-84259568D01*
X209293134Y-84151526D01*
X209243558Y-84077330D01*
X209243557Y-84077329D01*
X209183473Y-83987407D01*
X209093552Y-83927324D01*
X204023000Y-78856773D01*
X204023000Y-71201512D01*
X205349000Y-71201512D01*
X205349000Y-72266488D01*
X205756549Y-73250399D01*
X206509601Y-74003451D01*
X207493512Y-74411000D01*
X208558488Y-74411000D01*
X209542399Y-74003451D01*
X210295451Y-73250399D01*
X210703000Y-72266488D01*
X210703000Y-71201512D01*
X210295451Y-70217601D01*
X209542399Y-69464549D01*
X208558488Y-69057000D01*
X207493512Y-69057000D01*
X206509601Y-69464549D01*
X205756549Y-70217601D01*
X205349000Y-71201512D01*
X204023000Y-71201512D01*
X204023000Y-67502107D01*
X206186108Y-65339000D01*
X220351024Y-65339000D01*
X219945088Y-65507144D01*
G36*
X256987000Y-65978108D02*
X256987000Y-76705000D01*
X256490271Y-76705000D01*
X256248850Y-76805000D01*
X253543012Y-76805000D01*
X253286788Y-76633796D01*
X252870544Y-76551000D01*
X252870540Y-76551000D01*
X252730000Y-76523045D01*
X252729999Y-76523045D01*
X252589459Y-76551000D01*
X249568540Y-76551000D01*
X249427999Y-76523045D01*
X249287459Y-76551000D01*
X249287456Y-76551000D01*
X248871212Y-76633796D01*
X248592395Y-76820096D01*
X248309024Y-76937472D01*
X247879472Y-77367024D01*
X247807000Y-77541987D01*
X247807000Y-76852587D01*
X247528856Y-76181088D01*
X247293768Y-75946000D01*
X247528856Y-75710912D01*
X247807000Y-75039413D01*
X247807000Y-74312587D01*
X247528856Y-73641088D01*
X247293768Y-73406000D01*
X247528856Y-73170912D01*
X247807000Y-72499413D01*
X247807000Y-71772587D01*
X247528856Y-71101088D01*
X247106798Y-70679030D01*
X247174718Y-70611110D01*
X247060161Y-70496553D01*
X247316643Y-70410148D01*
X247526458Y-69836664D01*
X247500839Y-69226540D01*
X247316643Y-68781852D01*
X247060161Y-68695447D01*
X247174718Y-68580890D01*
X247106798Y-68512970D01*
X247528856Y-68090912D01*
X247807000Y-67419413D01*
X247807000Y-66692587D01*
X247561957Y-66101000D01*
X249321934Y-66101000D01*
X249428000Y-66122098D01*
X249534066Y-66101000D01*
X249534072Y-66101000D01*
X249848224Y-66038511D01*
X250204473Y-65800473D01*
X250264559Y-65710548D01*
X250440107Y-65535000D01*
X250747739Y-65535000D01*
X251308976Y-65302528D01*
X251738528Y-64872976D01*
X251971000Y-64311739D01*
X251971000Y-63704261D01*
X251738528Y-63143024D01*
X251308976Y-62713472D01*
X250747739Y-62481000D01*
X250140261Y-62481000D01*
X249579024Y-62713472D01*
X249149472Y-63143024D01*
X248917000Y-63704261D01*
X248917000Y-63947000D01*
X229681108Y-63947000D01*
X229309559Y-63575451D01*
X229249473Y-63485527D01*
X228893224Y-63247489D01*
X228579072Y-63185000D01*
X228579066Y-63185000D01*
X228473000Y-63163902D01*
X228366934Y-63185000D01*
X205846068Y-63185000D01*
X205740000Y-63163902D01*
X205633932Y-63185000D01*
X205633928Y-63185000D01*
X205400022Y-63231527D01*
X205319775Y-63247489D01*
X205053450Y-63425442D01*
X205053449Y-63425443D01*
X204963527Y-63485527D01*
X204903443Y-63575449D01*
X203515000Y-64963893D01*
X203515000Y-59882109D01*
X203803367Y-59593742D01*
X205304716Y-59593742D01*
X205496976Y-60140812D01*
X205883955Y-60572664D01*
X206406740Y-60823553D01*
X206419110Y-60825476D01*
X206649000Y-60704155D01*
X206649000Y-59361000D01*
X206903000Y-59361000D01*
X206903000Y-60704155D01*
X207132890Y-60825476D01*
X207145260Y-60823553D01*
X207668045Y-60572664D01*
X208055024Y-60140812D01*
X208247284Y-59593742D01*
X208103231Y-59361000D01*
X206903000Y-59361000D01*
X206649000Y-59361000D01*
X205448769Y-59361000D01*
X205304716Y-59593742D01*
X203803367Y-59593742D01*
X205170109Y-58227001D01*
X205586753Y-58227001D01*
X205496976Y-58327188D01*
X205304716Y-58874258D01*
X205448769Y-59107000D01*
X206649000Y-59107000D01*
X206649000Y-59087000D01*
X206903000Y-59087000D01*
X206903000Y-59107000D01*
X208103231Y-59107000D01*
X208247284Y-58874258D01*
X208055024Y-58327188D01*
X207965247Y-58227001D01*
X210211450Y-58227001D01*
X210102103Y-58390650D01*
X209999000Y-58908984D01*
X209999000Y-59559017D01*
X210102103Y-60077351D01*
X210494855Y-60665145D01*
X211082650Y-61057897D01*
X211776000Y-61195813D01*
X212469351Y-61057897D01*
X213057145Y-60665145D01*
X213449897Y-60077350D01*
X213553000Y-59559016D01*
X213553000Y-58908983D01*
X213449897Y-58390649D01*
X213340551Y-58227001D01*
X225105894Y-58227001D01*
X229105000Y-62226108D01*
X229105000Y-62533739D01*
X229337472Y-63094976D01*
X229767024Y-63524528D01*
X230328261Y-63757000D01*
X230935739Y-63757000D01*
X231496976Y-63524528D01*
X231926528Y-63094976D01*
X232159000Y-62533739D01*
X232159000Y-61926261D01*
X231926528Y-61365024D01*
X231496976Y-60935472D01*
X230935739Y-60703000D01*
X230628108Y-60703000D01*
X227652097Y-57726990D01*
X248735883Y-57726990D01*
X256987000Y-65978108D01*
X256987000Y-65978108D01*
G37*
X256987000Y-65978108D02*
X256987000Y-76705000D01*
X256490271Y-76705000D01*
X256248850Y-76805000D01*
X253543012Y-76805000D01*
X253286788Y-76633796D01*
X252870544Y-76551000D01*
X252870540Y-76551000D01*
X252730000Y-76523045D01*
X252729999Y-76523045D01*
X252589459Y-76551000D01*
X249568540Y-76551000D01*
X249427999Y-76523045D01*
X249287459Y-76551000D01*
X249287456Y-76551000D01*
X248871212Y-76633796D01*
X248592395Y-76820096D01*
X248309024Y-76937472D01*
X247879472Y-77367024D01*
X247807000Y-77541987D01*
X247807000Y-76852587D01*
X247528856Y-76181088D01*
X247293768Y-75946000D01*
X247528856Y-75710912D01*
X247807000Y-75039413D01*
X247807000Y-74312587D01*
X247528856Y-73641088D01*
X247293768Y-73406000D01*
X247528856Y-73170912D01*
X247807000Y-72499413D01*
X247807000Y-71772587D01*
X247528856Y-71101088D01*
X247106798Y-70679030D01*
X247174718Y-70611110D01*
X247060161Y-70496553D01*
X247316643Y-70410148D01*
X247526458Y-69836664D01*
X247500839Y-69226540D01*
X247316643Y-68781852D01*
X247060161Y-68695447D01*
X247174718Y-68580890D01*
X247106798Y-68512970D01*
X247528856Y-68090912D01*
X247807000Y-67419413D01*
X247807000Y-66692587D01*
X247561957Y-66101000D01*
X249321934Y-66101000D01*
X249428000Y-66122098D01*
X249534066Y-66101000D01*
X249534072Y-66101000D01*
X249848224Y-66038511D01*
X250204473Y-65800473D01*
X250264559Y-65710548D01*
X250440107Y-65535000D01*
X250747739Y-65535000D01*
X251308976Y-65302528D01*
X251738528Y-64872976D01*
X251971000Y-64311739D01*
X251971000Y-63704261D01*
X251738528Y-63143024D01*
X251308976Y-62713472D01*
X250747739Y-62481000D01*
X250140261Y-62481000D01*
X249579024Y-62713472D01*
X249149472Y-63143024D01*
X248917000Y-63704261D01*
X248917000Y-63947000D01*
X229681108Y-63947000D01*
X229309559Y-63575451D01*
X229249473Y-63485527D01*
X228893224Y-63247489D01*
X228579072Y-63185000D01*
X228579066Y-63185000D01*
X228473000Y-63163902D01*
X228366934Y-63185000D01*
X205846068Y-63185000D01*
X205740000Y-63163902D01*
X205633932Y-63185000D01*
X205633928Y-63185000D01*
X205400022Y-63231527D01*
X205319775Y-63247489D01*
X205053450Y-63425442D01*
X205053449Y-63425443D01*
X204963527Y-63485527D01*
X204903443Y-63575449D01*
X203515000Y-64963893D01*
X203515000Y-59882109D01*
X203803367Y-59593742D01*
X205304716Y-59593742D01*
X205496976Y-60140812D01*
X205883955Y-60572664D01*
X206406740Y-60823553D01*
X206419110Y-60825476D01*
X206649000Y-60704155D01*
X206649000Y-59361000D01*
X206903000Y-59361000D01*
X206903000Y-60704155D01*
X207132890Y-60825476D01*
X207145260Y-60823553D01*
X207668045Y-60572664D01*
X208055024Y-60140812D01*
X208247284Y-59593742D01*
X208103231Y-59361000D01*
X206903000Y-59361000D01*
X206649000Y-59361000D01*
X205448769Y-59361000D01*
X205304716Y-59593742D01*
X203803367Y-59593742D01*
X205170109Y-58227001D01*
X205586753Y-58227001D01*
X205496976Y-58327188D01*
X205304716Y-58874258D01*
X205448769Y-59107000D01*
X206649000Y-59107000D01*
X206649000Y-59087000D01*
X206903000Y-59087000D01*
X206903000Y-59107000D01*
X208103231Y-59107000D01*
X208247284Y-58874258D01*
X208055024Y-58327188D01*
X207965247Y-58227001D01*
X210211450Y-58227001D01*
X210102103Y-58390650D01*
X209999000Y-58908984D01*
X209999000Y-59559017D01*
X210102103Y-60077351D01*
X210494855Y-60665145D01*
X211082650Y-61057897D01*
X211776000Y-61195813D01*
X212469351Y-61057897D01*
X213057145Y-60665145D01*
X213449897Y-60077350D01*
X213553000Y-59559016D01*
X213553000Y-58908983D01*
X213449897Y-58390649D01*
X213340551Y-58227001D01*
X225105894Y-58227001D01*
X229105000Y-62226108D01*
X229105000Y-62533739D01*
X229337472Y-63094976D01*
X229767024Y-63524528D01*
X230328261Y-63757000D01*
X230935739Y-63757000D01*
X231496976Y-63524528D01*
X231926528Y-63094976D01*
X232159000Y-62533739D01*
X232159000Y-61926261D01*
X231926528Y-61365024D01*
X231496976Y-60935472D01*
X230935739Y-60703000D01*
X230628108Y-60703000D01*
X227652097Y-57726990D01*
X248735883Y-57726990D01*
X256987000Y-65978108D01*
G36*
X221173748Y-69581858D02*
X221159605Y-69596000D01*
X221173748Y-69610143D01*
X220994143Y-69789748D01*
X220980000Y-69775605D01*
X220965858Y-69789748D01*
X220786253Y-69610143D01*
X220800395Y-69596000D01*
X220786253Y-69581858D01*
X220965858Y-69402253D01*
X220980000Y-69416395D01*
X220994143Y-69402253D01*
X221173748Y-69581858D01*
X221173748Y-69581858D01*
G37*
X221173748Y-69581858D02*
X221159605Y-69596000D01*
X221173748Y-69610143D01*
X220994143Y-69789748D01*
X220980000Y-69775605D01*
X220965858Y-69789748D01*
X220786253Y-69610143D01*
X220800395Y-69596000D01*
X220786253Y-69581858D01*
X220965858Y-69402253D01*
X220980000Y-69416395D01*
X220994143Y-69402253D01*
X221173748Y-69581858D01*
G36*
X246173748Y-69581858D02*
X246159605Y-69596000D01*
X246173748Y-69610143D01*
X245994143Y-69789748D01*
X245980000Y-69775605D01*
X245965858Y-69789748D01*
X245786253Y-69610143D01*
X245800395Y-69596000D01*
X245786253Y-69581858D01*
X245965858Y-69402253D01*
X245980000Y-69416395D01*
X245994143Y-69402253D01*
X246173748Y-69581858D01*
X246173748Y-69581858D01*
G37*
X246173748Y-69581858D02*
X246159605Y-69596000D01*
X246173748Y-69610143D01*
X245994143Y-69789748D01*
X245980000Y-69775605D01*
X245965858Y-69789748D01*
X245786253Y-69610143D01*
X245800395Y-69596000D01*
X245786253Y-69581858D01*
X245965858Y-69402253D01*
X245980000Y-69416395D01*
X245994143Y-69402253D01*
X246173748Y-69581858D01*
G04 #@! TD*
M02*
