M48
;DRILL file {KiCad (5.0.1-3-g963ef8bb5)} date 2019 November 20, Wednesday 19:59:23
;FORMAT={-:-/ absolute / inch / decimal}
FMAT,2
INCH,TZ
T1C0.0300
T2C0.0315
T3C0.0394
T4C0.0394
T5C0.0472
T6C0.0591
T7C0.0787
%
G90
G05
M72
T1
X9.8614Y-4.1022
X9.8614Y-4.2022
X9.8614Y-4.3022
X9.8614Y-4.4022
T2
X1.835Y-2.715
X2.02Y-2.92
X2.33Y-2.84
X2.3336Y-2.415
X2.43Y-3.2422
X2.45Y-2.5911
X3.1Y-4.72
X3.14Y-2.9204
X3.14Y-3.52
X3.2Y-3.58
X3.2289Y-2.8311
X3.46Y-3.54
X3.64Y-3.54
X3.87Y-2.83
X3.96Y-2.85
X4.03Y-2.49
X4.205Y-3.295
X4.66Y-3.1
X4.89Y-2.84
X5.65Y-2.84
X6.35Y-2.84
X7.15Y-2.83
X7.24Y-2.71
X7.48Y-3.67
X7.58Y-4.86
X7.6Y-3.69
X7.62Y-3.5126
X7.79Y-3.045
X7.8Y-3.2
X7.86Y-3.32
X7.88Y-4.98
X7.91Y-4.8
X7.96Y-3.57
X8.3Y-3.83
X8.44Y-3.18
X8.45Y-3.
X8.63Y-4.54
X8.87Y-3.76
X8.88Y-2.59
X8.99Y-2.61
X9.08Y-2.45
X9.81Y-3.08
X9.84Y-4.96
X9.86Y-2.52
X10.11Y-3.08
T3
X4.Y-4.1472
X4.Y-4.2456
X4.Y-4.344
X8.0424Y-5.088
X8.1408Y-2.332
X8.1408Y-5.088
X8.2392Y-5.088
X8.3376Y-2.332
X8.3376Y-5.088
X6.Y-4.1472
X6.Y-4.2456
X6.Y-4.344
X8.7Y-2.64
X8.7Y-2.74
X8.7Y-2.84
X8.7Y-2.94
X8.7Y-3.04
X8.7Y-3.14
X8.7Y-3.24
X8.7Y-3.34
X8.7Y-3.44
X8.7Y-3.54
X8.7Y-3.64
X8.7Y-3.74
X8.7Y-3.84
X8.7Y-3.94
X8.7Y-4.04
X9.6843Y-2.64
X9.6843Y-2.74
X9.6843Y-2.84
X9.6843Y-2.94
X9.6843Y-3.04
X9.6843Y-3.14
X9.6843Y-3.24
X9.6843Y-3.34
X9.6843Y-3.44
X9.6843Y-3.54
X9.6843Y-3.64
X9.6843Y-3.74
X9.6843Y-3.84
X9.6843Y-3.94
X9.6843Y-4.04
X10.Y-4.1472
X10.Y-4.2456
X10.Y-4.344
X7.Y-4.1472
X7.Y-4.2456
X7.Y-4.344
X3.Y-4.1472
X3.Y-4.2456
X3.Y-4.344
X5.Y-4.1472
X5.Y-4.2456
X5.Y-4.344
T4
X1.872Y-4.5648
X1.872Y-4.738
X1.9016Y-3.8561
X2.Y-3.8561
X2.0984Y-3.8561
X2.128Y-4.5648
X2.128Y-4.738
X2.3839Y-4.1416
X2.3839Y-4.24
X2.3839Y-4.3384
T5
X10.19Y-2.44
X10.29Y-2.44
X1.85Y-3.5
X1.95Y-3.5
X3.26Y-2.27
X3.26Y-2.37
X3.26Y-2.47
X2.01Y-2.29
X2.01Y-2.39
X2.01Y-2.49
T6
X1.6949Y-3.9782
X1.6949Y-4.5018
X2.3051Y-3.9782
X2.3051Y-4.5018
T7
X8.19Y-2.8242
X8.19Y-4.6943
T7
X6.2854Y-4.0251G85X6.3051Y-4.0251
G05
X6.2854Y-4.4661G85X6.3051Y-4.4661
G05
X10.2854Y-4.0251G85X10.3051Y-4.0251
G05
X10.2854Y-4.4661G85X10.3051Y-4.4661
G05
X7.2854Y-4.0251G85X7.3051Y-4.0251
G05
X7.2854Y-4.4661G85X7.3051Y-4.4661
G05
X3.2854Y-4.0251G85X3.3051Y-4.0251
G05
X3.2854Y-4.4661G85X3.3051Y-4.4661
G05
X5.2854Y-4.0251G85X5.3051Y-4.0251
G05
X5.2854Y-4.4661G85X5.3051Y-4.4661
G05
X4.2854Y-4.0251G85X4.3051Y-4.0251
G05
X4.2854Y-4.4661G85X4.3051Y-4.4661
G05
T0
M30
