G04 #@! TF.GenerationSoftware,KiCad,Pcbnew,(5.0.1-3-g963ef8bb5)*
G04 #@! TF.CreationDate,2019-11-20T19:59:20+01:00*
G04 #@! TF.ProjectId,RushBox2,52757368426F78322E6B696361645F70,rev?*
G04 #@! TF.SameCoordinates,Original*
G04 #@! TF.FileFunction,Soldermask,Bot*
G04 #@! TF.FilePolarity,Negative*
%FSLAX46Y46*%
G04 Gerber Fmt 4.6, Leading zero omitted, Abs format (unit mm)*
G04 Created by KiCad (PCBNEW (5.0.1-3-g963ef8bb5)) date 2019 November 20, Wednesday 19:59:20*
%MOMM*%
%LPD*%
G01*
G04 APERTURE LIST*
%ADD10C,0.100000*%
G04 APERTURE END LIST*
D10*
G36*
X204452626Y-128196037D02*
X204565852Y-128230384D01*
X204622466Y-128247557D01*
X204778989Y-128331221D01*
X204916186Y-128443814D01*
X204999448Y-128545271D01*
X205028778Y-128581009D01*
X205028779Y-128581011D01*
X205112443Y-128737533D01*
X205129616Y-128794147D01*
X205163963Y-128907373D01*
X205177000Y-129039742D01*
X205177000Y-129428257D01*
X205163963Y-129560626D01*
X205112443Y-129730466D01*
X205028778Y-129886991D01*
X205028777Y-129886992D01*
X204916186Y-130024186D01*
X204814729Y-130107448D01*
X204778991Y-130136778D01*
X204778989Y-130136779D01*
X204622467Y-130220443D01*
X204565853Y-130237616D01*
X204452627Y-130271963D01*
X204276000Y-130289359D01*
X204099374Y-130271963D01*
X203986148Y-130237616D01*
X203929534Y-130220443D01*
X203773012Y-130136779D01*
X203773010Y-130136778D01*
X203635816Y-130024186D01*
X203635812Y-130024183D01*
X203523222Y-129886992D01*
X203439557Y-129730467D01*
X203422384Y-129673853D01*
X203388037Y-129560627D01*
X203375000Y-129428258D01*
X203375000Y-129039743D01*
X203388037Y-128907374D01*
X203439557Y-128737535D01*
X203439557Y-128737534D01*
X203523221Y-128581011D01*
X203635814Y-128443814D01*
X203737271Y-128360552D01*
X203773009Y-128331222D01*
X203790913Y-128321652D01*
X203929533Y-128247557D01*
X203986147Y-128230384D01*
X204099373Y-128196037D01*
X204276000Y-128178641D01*
X204452626Y-128196037D01*
X204452626Y-128196037D01*
G37*
G36*
X206952626Y-128196037D02*
X207065852Y-128230384D01*
X207122466Y-128247557D01*
X207278989Y-128331221D01*
X207416186Y-128443814D01*
X207499448Y-128545271D01*
X207528778Y-128581009D01*
X207528779Y-128581011D01*
X207612443Y-128737533D01*
X207629616Y-128794147D01*
X207663963Y-128907373D01*
X207677000Y-129039742D01*
X207677000Y-129428257D01*
X207663963Y-129560626D01*
X207612443Y-129730466D01*
X207528778Y-129886991D01*
X207528777Y-129886992D01*
X207416186Y-130024186D01*
X207314729Y-130107448D01*
X207278991Y-130136778D01*
X207278989Y-130136779D01*
X207122467Y-130220443D01*
X207065853Y-130237616D01*
X206952627Y-130271963D01*
X206776000Y-130289359D01*
X206599374Y-130271963D01*
X206486148Y-130237616D01*
X206429534Y-130220443D01*
X206273012Y-130136779D01*
X206273010Y-130136778D01*
X206135816Y-130024186D01*
X206135812Y-130024183D01*
X206023222Y-129886992D01*
X205939557Y-129730467D01*
X205922384Y-129673853D01*
X205888037Y-129560627D01*
X205875000Y-129428258D01*
X205875000Y-129039743D01*
X205888037Y-128907374D01*
X205939557Y-128737535D01*
X205939557Y-128737534D01*
X206023221Y-128581011D01*
X206135814Y-128443814D01*
X206237271Y-128360552D01*
X206273009Y-128331222D01*
X206290913Y-128321652D01*
X206429533Y-128247557D01*
X206486147Y-128230384D01*
X206599373Y-128196037D01*
X206776000Y-128178641D01*
X206952626Y-128196037D01*
X206952626Y-128196037D01*
G37*
G36*
X209452626Y-128196037D02*
X209565852Y-128230384D01*
X209622466Y-128247557D01*
X209778989Y-128331221D01*
X209916186Y-128443814D01*
X209999448Y-128545271D01*
X210028778Y-128581009D01*
X210028779Y-128581011D01*
X210112443Y-128737533D01*
X210129616Y-128794147D01*
X210163963Y-128907373D01*
X210177000Y-129039742D01*
X210177000Y-129428257D01*
X210163963Y-129560626D01*
X210112443Y-129730466D01*
X210028778Y-129886991D01*
X210028777Y-129886992D01*
X209916186Y-130024186D01*
X209814729Y-130107448D01*
X209778991Y-130136778D01*
X209778989Y-130136779D01*
X209622467Y-130220443D01*
X209565853Y-130237616D01*
X209452627Y-130271963D01*
X209276000Y-130289359D01*
X209099374Y-130271963D01*
X208986148Y-130237616D01*
X208929534Y-130220443D01*
X208773012Y-130136779D01*
X208773010Y-130136778D01*
X208635816Y-130024186D01*
X208635812Y-130024183D01*
X208523222Y-129886992D01*
X208439557Y-129730467D01*
X208422384Y-129673853D01*
X208388037Y-129560627D01*
X208375000Y-129428258D01*
X208375000Y-129039743D01*
X208388037Y-128907374D01*
X208439557Y-128737535D01*
X208439557Y-128737534D01*
X208523221Y-128581011D01*
X208635814Y-128443814D01*
X208737271Y-128360552D01*
X208773009Y-128331222D01*
X208790913Y-128321652D01*
X208929533Y-128247557D01*
X208986147Y-128230384D01*
X209099373Y-128196037D01*
X209276000Y-128178641D01*
X209452626Y-128196037D01*
X209452626Y-128196037D01*
G37*
G36*
X211952626Y-128196037D02*
X212065852Y-128230384D01*
X212122466Y-128247557D01*
X212278989Y-128331221D01*
X212416186Y-128443814D01*
X212499448Y-128545271D01*
X212528778Y-128581009D01*
X212528779Y-128581011D01*
X212612443Y-128737533D01*
X212629616Y-128794147D01*
X212663963Y-128907373D01*
X212677000Y-129039742D01*
X212677000Y-129428257D01*
X212663963Y-129560626D01*
X212612443Y-129730466D01*
X212528778Y-129886991D01*
X212528777Y-129886992D01*
X212416186Y-130024186D01*
X212314729Y-130107448D01*
X212278991Y-130136778D01*
X212278989Y-130136779D01*
X212122467Y-130220443D01*
X212065853Y-130237616D01*
X211952627Y-130271963D01*
X211776000Y-130289359D01*
X211599374Y-130271963D01*
X211486148Y-130237616D01*
X211429534Y-130220443D01*
X211273012Y-130136779D01*
X211273010Y-130136778D01*
X211135816Y-130024186D01*
X211135812Y-130024183D01*
X211023222Y-129886992D01*
X210939557Y-129730467D01*
X210922384Y-129673853D01*
X210888037Y-129560627D01*
X210875000Y-129428258D01*
X210875000Y-129039743D01*
X210888037Y-128907374D01*
X210939557Y-128737535D01*
X210939557Y-128737534D01*
X211023221Y-128581011D01*
X211135814Y-128443814D01*
X211237271Y-128360552D01*
X211273009Y-128331222D01*
X211290913Y-128321652D01*
X211429533Y-128247557D01*
X211486147Y-128230384D01*
X211599373Y-128196037D01*
X211776000Y-128178641D01*
X211952626Y-128196037D01*
X211952626Y-128196037D01*
G37*
G36*
X47855214Y-119335079D02*
X47855216Y-119335080D01*
X47855217Y-119335080D01*
X48039429Y-119411383D01*
X48046394Y-119414268D01*
X48218451Y-119529233D01*
X48364767Y-119675549D01*
X48479732Y-119847606D01*
X48558921Y-120038786D01*
X48599290Y-120241734D01*
X48599290Y-120448666D01*
X48558921Y-120651614D01*
X48479732Y-120842794D01*
X48364767Y-121014851D01*
X48218451Y-121161167D01*
X48218448Y-121161169D01*
X48046394Y-121276132D01*
X47855217Y-121355320D01*
X47855216Y-121355320D01*
X47855214Y-121355321D01*
X47652266Y-121395690D01*
X47445334Y-121395690D01*
X47242386Y-121355321D01*
X47242384Y-121355320D01*
X47242383Y-121355320D01*
X47051206Y-121276132D01*
X46879152Y-121161169D01*
X46879149Y-121161167D01*
X46732833Y-121014851D01*
X46617868Y-120842794D01*
X46538679Y-120651614D01*
X46498310Y-120448666D01*
X46498310Y-120241734D01*
X46538679Y-120038786D01*
X46617868Y-119847606D01*
X46732833Y-119675549D01*
X46879149Y-119529233D01*
X47051206Y-119414268D01*
X47058171Y-119411383D01*
X47242383Y-119335080D01*
X47242384Y-119335080D01*
X47242386Y-119335079D01*
X47445334Y-119294710D01*
X47652266Y-119294710D01*
X47855214Y-119335079D01*
X47855214Y-119335079D01*
G37*
G36*
X54357614Y-119335079D02*
X54357616Y-119335080D01*
X54357617Y-119335080D01*
X54541829Y-119411383D01*
X54548794Y-119414268D01*
X54720851Y-119529233D01*
X54867167Y-119675549D01*
X54982132Y-119847606D01*
X55061321Y-120038786D01*
X55101690Y-120241734D01*
X55101690Y-120448666D01*
X55061321Y-120651614D01*
X54982132Y-120842794D01*
X54867167Y-121014851D01*
X54720851Y-121161167D01*
X54720848Y-121161169D01*
X54548794Y-121276132D01*
X54357617Y-121355320D01*
X54357616Y-121355320D01*
X54357614Y-121355321D01*
X54154666Y-121395690D01*
X53947734Y-121395690D01*
X53744786Y-121355321D01*
X53744784Y-121355320D01*
X53744783Y-121355320D01*
X53553606Y-121276132D01*
X53381552Y-121161169D01*
X53381549Y-121161167D01*
X53235233Y-121014851D01*
X53120268Y-120842794D01*
X53041079Y-120651614D01*
X53000710Y-120448666D01*
X53000710Y-120241734D01*
X53041079Y-120038786D01*
X53120268Y-119847606D01*
X53235233Y-119675549D01*
X53381549Y-119529233D01*
X53553606Y-119414268D01*
X53560571Y-119411383D01*
X53744783Y-119335080D01*
X53744784Y-119335080D01*
X53744786Y-119335079D01*
X53947734Y-119294710D01*
X54154666Y-119294710D01*
X54357614Y-119335079D01*
X54357614Y-119335079D01*
G37*
G36*
X208551331Y-117502211D02*
X208879092Y-117637974D01*
X209174073Y-117835074D01*
X209424926Y-118085927D01*
X209622026Y-118380908D01*
X209757789Y-118708669D01*
X209827000Y-119056616D01*
X209827000Y-119411384D01*
X209757789Y-119759331D01*
X209622026Y-120087092D01*
X209424926Y-120382073D01*
X209174073Y-120632926D01*
X208879092Y-120830026D01*
X208551331Y-120965789D01*
X208203384Y-121035000D01*
X207848616Y-121035000D01*
X207500669Y-120965789D01*
X207172908Y-120830026D01*
X206877927Y-120632926D01*
X206627074Y-120382073D01*
X206429974Y-120087092D01*
X206294211Y-119759331D01*
X206225000Y-119411384D01*
X206225000Y-119056616D01*
X206294211Y-118708669D01*
X206429974Y-118380908D01*
X206627074Y-118085927D01*
X206877927Y-117835074D01*
X207172908Y-117637974D01*
X207500669Y-117502211D01*
X207848616Y-117433000D01*
X208203384Y-117433000D01*
X208551331Y-117502211D01*
X208551331Y-117502211D01*
G37*
G36*
X47855214Y-114935799D02*
X47855216Y-114935800D01*
X47855217Y-114935800D01*
X48046394Y-115014988D01*
X48218451Y-115129953D01*
X48364767Y-115276269D01*
X48479732Y-115448326D01*
X48558921Y-115639506D01*
X48599290Y-115842454D01*
X48599290Y-116049386D01*
X48558921Y-116252334D01*
X48479732Y-116443514D01*
X48364767Y-116615571D01*
X48218451Y-116761887D01*
X48218448Y-116761889D01*
X48046394Y-116876852D01*
X47855217Y-116956040D01*
X47855216Y-116956040D01*
X47855214Y-116956041D01*
X47652266Y-116996410D01*
X47445334Y-116996410D01*
X47242386Y-116956041D01*
X47242384Y-116956040D01*
X47242383Y-116956040D01*
X47051206Y-116876852D01*
X46879152Y-116761889D01*
X46879149Y-116761887D01*
X46732833Y-116615571D01*
X46617868Y-116443514D01*
X46538679Y-116252334D01*
X46498310Y-116049386D01*
X46498310Y-115842454D01*
X46538679Y-115639506D01*
X46617868Y-115448326D01*
X46732833Y-115276269D01*
X46879149Y-115129953D01*
X47051206Y-115014988D01*
X47242383Y-114935800D01*
X47242384Y-114935800D01*
X47242386Y-114935799D01*
X47445334Y-114895430D01*
X47652266Y-114895430D01*
X47855214Y-114935799D01*
X47855214Y-114935799D01*
G37*
G36*
X54357614Y-114935799D02*
X54357616Y-114935800D01*
X54357617Y-114935800D01*
X54548794Y-115014988D01*
X54720851Y-115129953D01*
X54867167Y-115276269D01*
X54982132Y-115448326D01*
X55061321Y-115639506D01*
X55101690Y-115842454D01*
X55101690Y-116049386D01*
X55061321Y-116252334D01*
X54982132Y-116443514D01*
X54867167Y-116615571D01*
X54720851Y-116761887D01*
X54720848Y-116761889D01*
X54548794Y-116876852D01*
X54357617Y-116956040D01*
X54357616Y-116956040D01*
X54357614Y-116956041D01*
X54154666Y-116996410D01*
X53947734Y-116996410D01*
X53744786Y-116956041D01*
X53744784Y-116956040D01*
X53744783Y-116956040D01*
X53553606Y-116876852D01*
X53381552Y-116761889D01*
X53381549Y-116761887D01*
X53235233Y-116615571D01*
X53120268Y-116443514D01*
X53041079Y-116252334D01*
X53000710Y-116049386D01*
X53000710Y-115842454D01*
X53041079Y-115639506D01*
X53120268Y-115448326D01*
X53235233Y-115276269D01*
X53381549Y-115129953D01*
X53553606Y-115014988D01*
X53744783Y-114935800D01*
X53744784Y-114935800D01*
X53744786Y-114935799D01*
X53947734Y-114895430D01*
X54154666Y-114895430D01*
X54357614Y-114935799D01*
X54357614Y-114935799D01*
G37*
G36*
X58783349Y-113574954D02*
X58929226Y-113635378D01*
X59059921Y-113722706D01*
X59060514Y-113723102D01*
X59172158Y-113834746D01*
X59172160Y-113834749D01*
X59259882Y-113966034D01*
X59320306Y-114111911D01*
X59351110Y-114266772D01*
X59351110Y-114424668D01*
X59320306Y-114579529D01*
X59259882Y-114725406D01*
X59172554Y-114856101D01*
X59172158Y-114856694D01*
X59060514Y-114968338D01*
X59060511Y-114968340D01*
X58929226Y-115056062D01*
X58783349Y-115116486D01*
X58628488Y-115147290D01*
X58470592Y-115147290D01*
X58315731Y-115116486D01*
X58169854Y-115056062D01*
X58038569Y-114968340D01*
X58038566Y-114968338D01*
X57926922Y-114856694D01*
X57926526Y-114856101D01*
X57839198Y-114725406D01*
X57778774Y-114579529D01*
X57747970Y-114424668D01*
X57747970Y-114266772D01*
X57778774Y-114111911D01*
X57839198Y-113966034D01*
X57926920Y-113834749D01*
X57926922Y-113834746D01*
X58038566Y-113723102D01*
X58039159Y-113722706D01*
X58169854Y-113635378D01*
X58315731Y-113574954D01*
X58470592Y-113544150D01*
X58628488Y-113544150D01*
X58783349Y-113574954D01*
X58783349Y-113574954D01*
G37*
G36*
X43284269Y-113574954D02*
X43430146Y-113635378D01*
X43560841Y-113722706D01*
X43561434Y-113723102D01*
X43673078Y-113834746D01*
X43673080Y-113834749D01*
X43760802Y-113966034D01*
X43821226Y-114111911D01*
X43852030Y-114266772D01*
X43852030Y-114424668D01*
X43821226Y-114579529D01*
X43760802Y-114725406D01*
X43673474Y-114856101D01*
X43673078Y-114856694D01*
X43561434Y-114968338D01*
X43561431Y-114968340D01*
X43430146Y-115056062D01*
X43284269Y-115116486D01*
X43129408Y-115147290D01*
X42971512Y-115147290D01*
X42816651Y-115116486D01*
X42670774Y-115056062D01*
X42539489Y-114968340D01*
X42539486Y-114968338D01*
X42427842Y-114856694D01*
X42427446Y-114856101D01*
X42340118Y-114725406D01*
X42279694Y-114579529D01*
X42248890Y-114424668D01*
X42248890Y-114266772D01*
X42279694Y-114111911D01*
X42340118Y-113966034D01*
X42427840Y-113834749D01*
X42427842Y-113834746D01*
X42539486Y-113723102D01*
X42540079Y-113722706D01*
X42670774Y-113635378D01*
X42816651Y-113574954D01*
X42971512Y-113544150D01*
X43129408Y-113544150D01*
X43284269Y-113574954D01*
X43284269Y-113574954D01*
G37*
G36*
X263051000Y-114739500D02*
X259949000Y-114739500D01*
X259949000Y-112137500D01*
X263051000Y-112137500D01*
X263051000Y-114739500D01*
X263051000Y-114739500D01*
G37*
G36*
X186851000Y-114739500D02*
X183749000Y-114739500D01*
X183749000Y-112137500D01*
X186851000Y-112137500D01*
X186851000Y-114739500D01*
X186851000Y-114739500D01*
G37*
G36*
X161451000Y-114739500D02*
X158349000Y-114739500D01*
X158349000Y-112137500D01*
X161451000Y-112137500D01*
X161451000Y-114739500D01*
X161451000Y-114739500D01*
G37*
G36*
X136051000Y-114739500D02*
X132949000Y-114739500D01*
X132949000Y-112137500D01*
X136051000Y-112137500D01*
X136051000Y-114739500D01*
X136051000Y-114739500D01*
G37*
G36*
X110651000Y-114739500D02*
X107549000Y-114739500D01*
X107549000Y-112137500D01*
X110651000Y-112137500D01*
X110651000Y-114739500D01*
X110651000Y-114739500D01*
G37*
G36*
X85251000Y-114739500D02*
X82149000Y-114739500D01*
X82149000Y-112137500D01*
X85251000Y-112137500D01*
X85251000Y-114739500D01*
X85251000Y-114739500D01*
G37*
G36*
X250717142Y-111034242D02*
X250865102Y-111095530D01*
X250998258Y-111184502D01*
X251111498Y-111297742D01*
X251200470Y-111430898D01*
X251261758Y-111578858D01*
X251293000Y-111735925D01*
X251293000Y-111896075D01*
X251261758Y-112053142D01*
X251200470Y-112201102D01*
X251111498Y-112334258D01*
X250998258Y-112447498D01*
X250865102Y-112536470D01*
X250717142Y-112597758D01*
X250560075Y-112629000D01*
X250399925Y-112629000D01*
X250242858Y-112597758D01*
X250094898Y-112536470D01*
X249961742Y-112447498D01*
X249848502Y-112334258D01*
X249759530Y-112201102D01*
X249698242Y-112053142D01*
X249667000Y-111896075D01*
X249667000Y-111735925D01*
X249698242Y-111578858D01*
X249759530Y-111430898D01*
X249848502Y-111297742D01*
X249961742Y-111184502D01*
X250094898Y-111095530D01*
X250242858Y-111034242D01*
X250399925Y-111003000D01*
X250560075Y-111003000D01*
X250717142Y-111034242D01*
X250717142Y-111034242D01*
G37*
G36*
X127306565Y-109327889D02*
X127497834Y-109407115D01*
X127669976Y-109522137D01*
X127816363Y-109668524D01*
X127931385Y-109840666D01*
X128010611Y-110031935D01*
X128051000Y-110234984D01*
X128051000Y-110442016D01*
X128010611Y-110645065D01*
X127931385Y-110836334D01*
X127816363Y-111008476D01*
X127669976Y-111154863D01*
X127497834Y-111269885D01*
X127306565Y-111349111D01*
X127103516Y-111389500D01*
X126896484Y-111389500D01*
X126693435Y-111349111D01*
X126502166Y-111269885D01*
X126330024Y-111154863D01*
X126183637Y-111008476D01*
X126068615Y-110836334D01*
X125989389Y-110645065D01*
X125949000Y-110442016D01*
X125949000Y-110234984D01*
X125989389Y-110031935D01*
X126068615Y-109840666D01*
X126183637Y-109668524D01*
X126330024Y-109522137D01*
X126502166Y-109407115D01*
X126693435Y-109327889D01*
X126896484Y-109287500D01*
X127103516Y-109287500D01*
X127306565Y-109327889D01*
X127306565Y-109327889D01*
G37*
G36*
X152706565Y-109327889D02*
X152897834Y-109407115D01*
X153069976Y-109522137D01*
X153216363Y-109668524D01*
X153331385Y-109840666D01*
X153410611Y-110031935D01*
X153451000Y-110234984D01*
X153451000Y-110442016D01*
X153410611Y-110645065D01*
X153331385Y-110836334D01*
X153216363Y-111008476D01*
X153069976Y-111154863D01*
X152897834Y-111269885D01*
X152706565Y-111349111D01*
X152503516Y-111389500D01*
X152296484Y-111389500D01*
X152093435Y-111349111D01*
X151902166Y-111269885D01*
X151730024Y-111154863D01*
X151583637Y-111008476D01*
X151468615Y-110836334D01*
X151389389Y-110645065D01*
X151349000Y-110442016D01*
X151349000Y-110234984D01*
X151389389Y-110031935D01*
X151468615Y-109840666D01*
X151583637Y-109668524D01*
X151730024Y-109522137D01*
X151902166Y-109407115D01*
X152093435Y-109327889D01*
X152296484Y-109287500D01*
X152503516Y-109287500D01*
X152706565Y-109327889D01*
X152706565Y-109327889D01*
G37*
G36*
X178106565Y-109327889D02*
X178297834Y-109407115D01*
X178469976Y-109522137D01*
X178616363Y-109668524D01*
X178731385Y-109840666D01*
X178810611Y-110031935D01*
X178851000Y-110234984D01*
X178851000Y-110442016D01*
X178810611Y-110645065D01*
X178731385Y-110836334D01*
X178616363Y-111008476D01*
X178469976Y-111154863D01*
X178297834Y-111269885D01*
X178106565Y-111349111D01*
X177903516Y-111389500D01*
X177696484Y-111389500D01*
X177493435Y-111349111D01*
X177302166Y-111269885D01*
X177130024Y-111154863D01*
X176983637Y-111008476D01*
X176868615Y-110836334D01*
X176789389Y-110645065D01*
X176749000Y-110442016D01*
X176749000Y-110234984D01*
X176789389Y-110031935D01*
X176868615Y-109840666D01*
X176983637Y-109668524D01*
X177130024Y-109522137D01*
X177302166Y-109407115D01*
X177493435Y-109327889D01*
X177696484Y-109287500D01*
X177903516Y-109287500D01*
X178106565Y-109327889D01*
X178106565Y-109327889D01*
G37*
G36*
X254306565Y-109327889D02*
X254497834Y-109407115D01*
X254669976Y-109522137D01*
X254816363Y-109668524D01*
X254931385Y-109840666D01*
X255010611Y-110031935D01*
X255051000Y-110234984D01*
X255051000Y-110442016D01*
X255010611Y-110645065D01*
X254931385Y-110836334D01*
X254816363Y-111008476D01*
X254669976Y-111154863D01*
X254497834Y-111269885D01*
X254306565Y-111349111D01*
X254103516Y-111389500D01*
X253896484Y-111389500D01*
X253693435Y-111349111D01*
X253502166Y-111269885D01*
X253330024Y-111154863D01*
X253183637Y-111008476D01*
X253068615Y-110836334D01*
X252989389Y-110645065D01*
X252949000Y-110442016D01*
X252949000Y-110234984D01*
X252989389Y-110031935D01*
X253068615Y-109840666D01*
X253183637Y-109668524D01*
X253330024Y-109522137D01*
X253502166Y-109407115D01*
X253693435Y-109327889D01*
X253896484Y-109287500D01*
X254103516Y-109287500D01*
X254306565Y-109327889D01*
X254306565Y-109327889D01*
G37*
G36*
X76506565Y-109327889D02*
X76697834Y-109407115D01*
X76869976Y-109522137D01*
X77016363Y-109668524D01*
X77131385Y-109840666D01*
X77210611Y-110031935D01*
X77251000Y-110234984D01*
X77251000Y-110442016D01*
X77210611Y-110645065D01*
X77131385Y-110836334D01*
X77016363Y-111008476D01*
X76869976Y-111154863D01*
X76697834Y-111269885D01*
X76506565Y-111349111D01*
X76303516Y-111389500D01*
X76096484Y-111389500D01*
X75893435Y-111349111D01*
X75702166Y-111269885D01*
X75530024Y-111154863D01*
X75383637Y-111008476D01*
X75268615Y-110836334D01*
X75189389Y-110645065D01*
X75149000Y-110442016D01*
X75149000Y-110234984D01*
X75189389Y-110031935D01*
X75268615Y-109840666D01*
X75383637Y-109668524D01*
X75530024Y-109522137D01*
X75702166Y-109407115D01*
X75893435Y-109327889D01*
X76096484Y-109287500D01*
X76303516Y-109287500D01*
X76506565Y-109327889D01*
X76506565Y-109327889D01*
G37*
G36*
X101906565Y-109327889D02*
X102097834Y-109407115D01*
X102269976Y-109522137D01*
X102416363Y-109668524D01*
X102531385Y-109840666D01*
X102610611Y-110031935D01*
X102651000Y-110234984D01*
X102651000Y-110442016D01*
X102610611Y-110645065D01*
X102531385Y-110836334D01*
X102416363Y-111008476D01*
X102269976Y-111154863D01*
X102097834Y-111269885D01*
X101906565Y-111349111D01*
X101703516Y-111389500D01*
X101496484Y-111389500D01*
X101293435Y-111349111D01*
X101102166Y-111269885D01*
X100930024Y-111154863D01*
X100783637Y-111008476D01*
X100668615Y-110836334D01*
X100589389Y-110645065D01*
X100549000Y-110442016D01*
X100549000Y-110234984D01*
X100589389Y-110031935D01*
X100668615Y-109840666D01*
X100783637Y-109668524D01*
X100930024Y-109522137D01*
X101102166Y-109407115D01*
X101293435Y-109327889D01*
X101496484Y-109287500D01*
X101703516Y-109287500D01*
X101906565Y-109327889D01*
X101906565Y-109327889D01*
G37*
G36*
X60857474Y-109185239D02*
X60857476Y-109185240D01*
X60857477Y-109185240D01*
X60883275Y-109195926D01*
X61048654Y-109264428D01*
X61220711Y-109379393D01*
X61367027Y-109525709D01*
X61367029Y-109525712D01*
X61481992Y-109697766D01*
X61541183Y-109840665D01*
X61561181Y-109888946D01*
X61601550Y-110091894D01*
X61601550Y-110298826D01*
X61561181Y-110501774D01*
X61481992Y-110692954D01*
X61367027Y-110865011D01*
X61220711Y-111011327D01*
X61220708Y-111011329D01*
X61048654Y-111126292D01*
X60857477Y-111205480D01*
X60857476Y-111205480D01*
X60857474Y-111205481D01*
X60654526Y-111245850D01*
X60447594Y-111245850D01*
X60244646Y-111205481D01*
X60244644Y-111205480D01*
X60244643Y-111205480D01*
X60053466Y-111126292D01*
X59881412Y-111011329D01*
X59881409Y-111011327D01*
X59735093Y-110865011D01*
X59620128Y-110692954D01*
X59540939Y-110501774D01*
X59500570Y-110298826D01*
X59500570Y-110091894D01*
X59540939Y-109888946D01*
X59560938Y-109840665D01*
X59620128Y-109697766D01*
X59735091Y-109525712D01*
X59735093Y-109525709D01*
X59881409Y-109379393D01*
X60053466Y-109264428D01*
X60218845Y-109195926D01*
X60244643Y-109185240D01*
X60244644Y-109185240D01*
X60244646Y-109185239D01*
X60447594Y-109144870D01*
X60654526Y-109144870D01*
X60857474Y-109185239D01*
X60857474Y-109185239D01*
G37*
G36*
X250717142Y-108494242D02*
X250865102Y-108555530D01*
X250998258Y-108644502D01*
X251111498Y-108757742D01*
X251200470Y-108890898D01*
X251261758Y-109038858D01*
X251293000Y-109195925D01*
X251293000Y-109356075D01*
X251261758Y-109513142D01*
X251200470Y-109661102D01*
X251111498Y-109794258D01*
X250998258Y-109907498D01*
X250865102Y-109996470D01*
X250717142Y-110057758D01*
X250560075Y-110089000D01*
X250399925Y-110089000D01*
X250242858Y-110057758D01*
X250094898Y-109996470D01*
X249961742Y-109907498D01*
X249848502Y-109794258D01*
X249759530Y-109661102D01*
X249698242Y-109513142D01*
X249667000Y-109356075D01*
X249667000Y-109195925D01*
X249698242Y-109038858D01*
X249759530Y-108890898D01*
X249848502Y-108757742D01*
X249961742Y-108644502D01*
X250094898Y-108555530D01*
X250242858Y-108494242D01*
X250399925Y-108463000D01*
X250560075Y-108463000D01*
X250717142Y-108494242D01*
X250717142Y-108494242D01*
G37*
G36*
X178106565Y-106827889D02*
X178297834Y-106907115D01*
X178469976Y-107022137D01*
X178616363Y-107168524D01*
X178731385Y-107340666D01*
X178810611Y-107531935D01*
X178851000Y-107734984D01*
X178851000Y-107942016D01*
X178810611Y-108145065D01*
X178731385Y-108336334D01*
X178616363Y-108508476D01*
X178469976Y-108654863D01*
X178297834Y-108769885D01*
X178106565Y-108849111D01*
X177903516Y-108889500D01*
X177696484Y-108889500D01*
X177493435Y-108849111D01*
X177302166Y-108769885D01*
X177130024Y-108654863D01*
X176983637Y-108508476D01*
X176868615Y-108336334D01*
X176789389Y-108145065D01*
X176749000Y-107942016D01*
X176749000Y-107734984D01*
X176789389Y-107531935D01*
X176868615Y-107340666D01*
X176983637Y-107168524D01*
X177130024Y-107022137D01*
X177302166Y-106907115D01*
X177493435Y-106827889D01*
X177696484Y-106787500D01*
X177903516Y-106787500D01*
X178106565Y-106827889D01*
X178106565Y-106827889D01*
G37*
G36*
X152706565Y-106827889D02*
X152897834Y-106907115D01*
X153069976Y-107022137D01*
X153216363Y-107168524D01*
X153331385Y-107340666D01*
X153410611Y-107531935D01*
X153451000Y-107734984D01*
X153451000Y-107942016D01*
X153410611Y-108145065D01*
X153331385Y-108336334D01*
X153216363Y-108508476D01*
X153069976Y-108654863D01*
X152897834Y-108769885D01*
X152706565Y-108849111D01*
X152503516Y-108889500D01*
X152296484Y-108889500D01*
X152093435Y-108849111D01*
X151902166Y-108769885D01*
X151730024Y-108654863D01*
X151583637Y-108508476D01*
X151468615Y-108336334D01*
X151389389Y-108145065D01*
X151349000Y-107942016D01*
X151349000Y-107734984D01*
X151389389Y-107531935D01*
X151468615Y-107340666D01*
X151583637Y-107168524D01*
X151730024Y-107022137D01*
X151902166Y-106907115D01*
X152093435Y-106827889D01*
X152296484Y-106787500D01*
X152503516Y-106787500D01*
X152706565Y-106827889D01*
X152706565Y-106827889D01*
G37*
G36*
X76506565Y-106827889D02*
X76697834Y-106907115D01*
X76869976Y-107022137D01*
X77016363Y-107168524D01*
X77131385Y-107340666D01*
X77210611Y-107531935D01*
X77251000Y-107734984D01*
X77251000Y-107942016D01*
X77210611Y-108145065D01*
X77131385Y-108336334D01*
X77016363Y-108508476D01*
X76869976Y-108654863D01*
X76697834Y-108769885D01*
X76506565Y-108849111D01*
X76303516Y-108889500D01*
X76096484Y-108889500D01*
X75893435Y-108849111D01*
X75702166Y-108769885D01*
X75530024Y-108654863D01*
X75383637Y-108508476D01*
X75268615Y-108336334D01*
X75189389Y-108145065D01*
X75149000Y-107942016D01*
X75149000Y-107734984D01*
X75189389Y-107531935D01*
X75268615Y-107340666D01*
X75383637Y-107168524D01*
X75530024Y-107022137D01*
X75702166Y-106907115D01*
X75893435Y-106827889D01*
X76096484Y-106787500D01*
X76303516Y-106787500D01*
X76506565Y-106827889D01*
X76506565Y-106827889D01*
G37*
G36*
X101906565Y-106827889D02*
X102097834Y-106907115D01*
X102269976Y-107022137D01*
X102416363Y-107168524D01*
X102531385Y-107340666D01*
X102610611Y-107531935D01*
X102651000Y-107734984D01*
X102651000Y-107942016D01*
X102610611Y-108145065D01*
X102531385Y-108336334D01*
X102416363Y-108508476D01*
X102269976Y-108654863D01*
X102097834Y-108769885D01*
X101906565Y-108849111D01*
X101703516Y-108889500D01*
X101496484Y-108889500D01*
X101293435Y-108849111D01*
X101102166Y-108769885D01*
X100930024Y-108654863D01*
X100783637Y-108508476D01*
X100668615Y-108336334D01*
X100589389Y-108145065D01*
X100549000Y-107942016D01*
X100549000Y-107734984D01*
X100589389Y-107531935D01*
X100668615Y-107340666D01*
X100783637Y-107168524D01*
X100930024Y-107022137D01*
X101102166Y-106907115D01*
X101293435Y-106827889D01*
X101496484Y-106787500D01*
X101703516Y-106787500D01*
X101906565Y-106827889D01*
X101906565Y-106827889D01*
G37*
G36*
X254306565Y-106827889D02*
X254497834Y-106907115D01*
X254669976Y-107022137D01*
X254816363Y-107168524D01*
X254931385Y-107340666D01*
X255010611Y-107531935D01*
X255051000Y-107734984D01*
X255051000Y-107942016D01*
X255010611Y-108145065D01*
X254931385Y-108336334D01*
X254816363Y-108508476D01*
X254669976Y-108654863D01*
X254497834Y-108769885D01*
X254306565Y-108849111D01*
X254103516Y-108889500D01*
X253896484Y-108889500D01*
X253693435Y-108849111D01*
X253502166Y-108769885D01*
X253330024Y-108654863D01*
X253183637Y-108508476D01*
X253068615Y-108336334D01*
X252989389Y-108145065D01*
X252949000Y-107942016D01*
X252949000Y-107734984D01*
X252989389Y-107531935D01*
X253068615Y-107340666D01*
X253183637Y-107168524D01*
X253330024Y-107022137D01*
X253502166Y-106907115D01*
X253693435Y-106827889D01*
X253896484Y-106787500D01*
X254103516Y-106787500D01*
X254306565Y-106827889D01*
X254306565Y-106827889D01*
G37*
G36*
X127306565Y-106827889D02*
X127497834Y-106907115D01*
X127669976Y-107022137D01*
X127816363Y-107168524D01*
X127931385Y-107340666D01*
X128010611Y-107531935D01*
X128051000Y-107734984D01*
X128051000Y-107942016D01*
X128010611Y-108145065D01*
X127931385Y-108336334D01*
X127816363Y-108508476D01*
X127669976Y-108654863D01*
X127497834Y-108769885D01*
X127306565Y-108849111D01*
X127103516Y-108889500D01*
X126896484Y-108889500D01*
X126693435Y-108849111D01*
X126502166Y-108769885D01*
X126330024Y-108654863D01*
X126183637Y-108508476D01*
X126068615Y-108336334D01*
X125989389Y-108145065D01*
X125949000Y-107942016D01*
X125949000Y-107734984D01*
X125989389Y-107531935D01*
X126068615Y-107340666D01*
X126183637Y-107168524D01*
X126330024Y-107022137D01*
X126502166Y-106907115D01*
X126693435Y-106827889D01*
X126896484Y-106787500D01*
X127103516Y-106787500D01*
X127306565Y-106827889D01*
X127306565Y-106827889D01*
G37*
G36*
X60857474Y-106685879D02*
X60857476Y-106685880D01*
X60857477Y-106685880D01*
X61048654Y-106765068D01*
X61220711Y-106880033D01*
X61367027Y-107026349D01*
X61367029Y-107026352D01*
X61481992Y-107198406D01*
X61552033Y-107367499D01*
X61561181Y-107389586D01*
X61601550Y-107592534D01*
X61601550Y-107799466D01*
X61561181Y-108002414D01*
X61481992Y-108193594D01*
X61367027Y-108365651D01*
X61220711Y-108511967D01*
X61220708Y-108511969D01*
X61048654Y-108626932D01*
X60857477Y-108706120D01*
X60857476Y-108706120D01*
X60857474Y-108706121D01*
X60654526Y-108746490D01*
X60447594Y-108746490D01*
X60244646Y-108706121D01*
X60244644Y-108706120D01*
X60244643Y-108706120D01*
X60053466Y-108626932D01*
X59881412Y-108511969D01*
X59881409Y-108511967D01*
X59735093Y-108365651D01*
X59620128Y-108193594D01*
X59540939Y-108002414D01*
X59500570Y-107799466D01*
X59500570Y-107592534D01*
X59540939Y-107389586D01*
X59550088Y-107367499D01*
X59620128Y-107198406D01*
X59735091Y-107026352D01*
X59735093Y-107026349D01*
X59881409Y-106880033D01*
X60053466Y-106765068D01*
X60244643Y-106685880D01*
X60244644Y-106685880D01*
X60244646Y-106685879D01*
X60447594Y-106645510D01*
X60654526Y-106645510D01*
X60857474Y-106685879D01*
X60857474Y-106685879D01*
G37*
G36*
X250717142Y-105954242D02*
X250831583Y-106001646D01*
X250858051Y-106012609D01*
X250865102Y-106015530D01*
X250932130Y-106060317D01*
X250998257Y-106104501D01*
X251111499Y-106217743D01*
X251155683Y-106283870D01*
X251200470Y-106350898D01*
X251261758Y-106498858D01*
X251293000Y-106655925D01*
X251293000Y-106816075D01*
X251261758Y-106973142D01*
X251239717Y-107026352D01*
X251200471Y-107121100D01*
X251111499Y-107254257D01*
X250998257Y-107367499D01*
X250965201Y-107389586D01*
X250865102Y-107456470D01*
X250717142Y-107517758D01*
X250560075Y-107549000D01*
X250399925Y-107549000D01*
X250242858Y-107517758D01*
X250094898Y-107456470D01*
X249994799Y-107389586D01*
X249961743Y-107367499D01*
X249848501Y-107254257D01*
X249759529Y-107121100D01*
X249720283Y-107026352D01*
X249698242Y-106973142D01*
X249667000Y-106816075D01*
X249667000Y-106655925D01*
X249698242Y-106498858D01*
X249759530Y-106350898D01*
X249804317Y-106283870D01*
X249848501Y-106217743D01*
X249961743Y-106104501D01*
X250027870Y-106060317D01*
X250094898Y-106015530D01*
X250101950Y-106012609D01*
X250128417Y-106001646D01*
X250242858Y-105954242D01*
X250399925Y-105923000D01*
X250560075Y-105923000D01*
X250717142Y-105954242D01*
X250717142Y-105954242D01*
G37*
G36*
X128051000Y-106389500D02*
X125949000Y-106389500D01*
X125949000Y-104287500D01*
X128051000Y-104287500D01*
X128051000Y-106389500D01*
X128051000Y-106389500D01*
G37*
G36*
X153451000Y-106389500D02*
X151349000Y-106389500D01*
X151349000Y-104287500D01*
X153451000Y-104287500D01*
X153451000Y-106389500D01*
X153451000Y-106389500D01*
G37*
G36*
X255051000Y-106389500D02*
X252949000Y-106389500D01*
X252949000Y-104287500D01*
X255051000Y-104287500D01*
X255051000Y-106389500D01*
X255051000Y-106389500D01*
G37*
G36*
X178851000Y-106389500D02*
X176749000Y-106389500D01*
X176749000Y-104287500D01*
X178851000Y-104287500D01*
X178851000Y-106389500D01*
X178851000Y-106389500D01*
G37*
G36*
X77251000Y-106389500D02*
X75149000Y-106389500D01*
X75149000Y-104287500D01*
X77251000Y-104287500D01*
X77251000Y-106389500D01*
X77251000Y-106389500D01*
G37*
G36*
X102651000Y-106389500D02*
X100549000Y-106389500D01*
X100549000Y-104287500D01*
X102651000Y-104287500D01*
X102651000Y-106389500D01*
X102651000Y-106389500D01*
G37*
G36*
X60857474Y-104186519D02*
X60857476Y-104186520D01*
X60857477Y-104186520D01*
X61048654Y-104265708D01*
X61220711Y-104380673D01*
X61367027Y-104526989D01*
X61481992Y-104699046D01*
X61561181Y-104890226D01*
X61601550Y-105093174D01*
X61601550Y-105300106D01*
X61561181Y-105503054D01*
X61481992Y-105694234D01*
X61367027Y-105866291D01*
X61220711Y-106012607D01*
X61220708Y-106012609D01*
X61048654Y-106127572D01*
X60857477Y-106206760D01*
X60857476Y-106206760D01*
X60857474Y-106206761D01*
X60654526Y-106247130D01*
X60447594Y-106247130D01*
X60244646Y-106206761D01*
X60244644Y-106206760D01*
X60244643Y-106206760D01*
X60053466Y-106127572D01*
X59881412Y-106012609D01*
X59881409Y-106012607D01*
X59735093Y-105866291D01*
X59620128Y-105694234D01*
X59540939Y-105503054D01*
X59500570Y-105300106D01*
X59500570Y-105093174D01*
X59540939Y-104890226D01*
X59620128Y-104699046D01*
X59735093Y-104526989D01*
X59881409Y-104380673D01*
X60053466Y-104265708D01*
X60244643Y-104186520D01*
X60244644Y-104186520D01*
X60244646Y-104186519D01*
X60447594Y-104146150D01*
X60654526Y-104146150D01*
X60857474Y-104186519D01*
X60857474Y-104186519D01*
G37*
G36*
X250717142Y-103414242D02*
X250865102Y-103475530D01*
X250998258Y-103564502D01*
X251111498Y-103677742D01*
X251200470Y-103810898D01*
X251261758Y-103958858D01*
X251293000Y-104115925D01*
X251293000Y-104276075D01*
X251261758Y-104433142D01*
X251222885Y-104526989D01*
X251200471Y-104581100D01*
X251121663Y-104699046D01*
X251111498Y-104714258D01*
X250998258Y-104827498D01*
X250865102Y-104916470D01*
X250717142Y-104977758D01*
X250560075Y-105009000D01*
X250399925Y-105009000D01*
X250242858Y-104977758D01*
X250094898Y-104916470D01*
X249961742Y-104827498D01*
X249848502Y-104714258D01*
X249838338Y-104699046D01*
X249759529Y-104581100D01*
X249737115Y-104526989D01*
X249698242Y-104433142D01*
X249667000Y-104276075D01*
X249667000Y-104115925D01*
X249698242Y-103958858D01*
X249759530Y-103810898D01*
X249848502Y-103677742D01*
X249961742Y-103564502D01*
X250094898Y-103475530D01*
X250242858Y-103414242D01*
X250399925Y-103383000D01*
X250560075Y-103383000D01*
X250717142Y-103414242D01*
X250717142Y-103414242D01*
G37*
G36*
X221257396Y-101701546D02*
X221430466Y-101773234D01*
X221586230Y-101877312D01*
X221718688Y-102009770D01*
X221822766Y-102165534D01*
X221894454Y-102338604D01*
X221931000Y-102522333D01*
X221931000Y-102709667D01*
X221894454Y-102893396D01*
X221822766Y-103066466D01*
X221718688Y-103222230D01*
X221586230Y-103354688D01*
X221430466Y-103458766D01*
X221257396Y-103530454D01*
X221073667Y-103567000D01*
X220886333Y-103567000D01*
X220702604Y-103530454D01*
X220529534Y-103458766D01*
X220373770Y-103354688D01*
X220241312Y-103222230D01*
X220137234Y-103066466D01*
X220065546Y-102893396D01*
X220029000Y-102709667D01*
X220029000Y-102522333D01*
X220065546Y-102338604D01*
X220137234Y-102165534D01*
X220241312Y-102009770D01*
X220373770Y-101877312D01*
X220529534Y-101773234D01*
X220702604Y-101701546D01*
X220886333Y-101665000D01*
X221073667Y-101665000D01*
X221257396Y-101701546D01*
X221257396Y-101701546D01*
G37*
G36*
X246257396Y-101701546D02*
X246430466Y-101773234D01*
X246586230Y-101877312D01*
X246718688Y-102009770D01*
X246822766Y-102165534D01*
X246894454Y-102338604D01*
X246931000Y-102522333D01*
X246931000Y-102709667D01*
X246894454Y-102893396D01*
X246822766Y-103066466D01*
X246718688Y-103222230D01*
X246586230Y-103354688D01*
X246430466Y-103458766D01*
X246257396Y-103530454D01*
X246073667Y-103567000D01*
X245886333Y-103567000D01*
X245702604Y-103530454D01*
X245529534Y-103458766D01*
X245373770Y-103354688D01*
X245241312Y-103222230D01*
X245137234Y-103066466D01*
X245065546Y-102893396D01*
X245029000Y-102709667D01*
X245029000Y-102522333D01*
X245065546Y-102338604D01*
X245137234Y-102165534D01*
X245241312Y-102009770D01*
X245373770Y-101877312D01*
X245529534Y-101773234D01*
X245702604Y-101701546D01*
X245886333Y-101665000D01*
X246073667Y-101665000D01*
X246257396Y-101701546D01*
X246257396Y-101701546D01*
G37*
G36*
X186851000Y-103539500D02*
X183749000Y-103539500D01*
X183749000Y-100937500D01*
X186851000Y-100937500D01*
X186851000Y-103539500D01*
X186851000Y-103539500D01*
G37*
G36*
X263051000Y-103539500D02*
X259949000Y-103539500D01*
X259949000Y-100937500D01*
X263051000Y-100937500D01*
X263051000Y-103539500D01*
X263051000Y-103539500D01*
G37*
G36*
X161451000Y-103539500D02*
X158349000Y-103539500D01*
X158349000Y-100937500D01*
X161451000Y-100937500D01*
X161451000Y-103539500D01*
X161451000Y-103539500D01*
G37*
G36*
X136051000Y-103539500D02*
X132949000Y-103539500D01*
X132949000Y-100937500D01*
X136051000Y-100937500D01*
X136051000Y-103539500D01*
X136051000Y-103539500D01*
G37*
G36*
X110651000Y-103539500D02*
X107549000Y-103539500D01*
X107549000Y-100937500D01*
X110651000Y-100937500D01*
X110651000Y-103539500D01*
X110651000Y-103539500D01*
G37*
G36*
X85251000Y-103539500D02*
X82149000Y-103539500D01*
X82149000Y-100937500D01*
X85251000Y-100937500D01*
X85251000Y-103539500D01*
X85251000Y-103539500D01*
G37*
G36*
X58783349Y-100275514D02*
X58929226Y-100335938D01*
X59059921Y-100423266D01*
X59060514Y-100423662D01*
X59172158Y-100535306D01*
X59172160Y-100535309D01*
X59259882Y-100666594D01*
X59320306Y-100812471D01*
X59351110Y-100967332D01*
X59351110Y-101125228D01*
X59320306Y-101280089D01*
X59259882Y-101425966D01*
X59172554Y-101556661D01*
X59172158Y-101557254D01*
X59060514Y-101668898D01*
X59060511Y-101668900D01*
X58929226Y-101756622D01*
X58783349Y-101817046D01*
X58628488Y-101847850D01*
X58470592Y-101847850D01*
X58315731Y-101817046D01*
X58169854Y-101756622D01*
X58038569Y-101668900D01*
X58038566Y-101668898D01*
X57926922Y-101557254D01*
X57926526Y-101556661D01*
X57839198Y-101425966D01*
X57778774Y-101280089D01*
X57747970Y-101125228D01*
X57747970Y-100967332D01*
X57778774Y-100812471D01*
X57839198Y-100666594D01*
X57926920Y-100535309D01*
X57926922Y-100535306D01*
X58038566Y-100423662D01*
X58039159Y-100423266D01*
X58169854Y-100335938D01*
X58315731Y-100275514D01*
X58470592Y-100244710D01*
X58628488Y-100244710D01*
X58783349Y-100275514D01*
X58783349Y-100275514D01*
G37*
G36*
X43284269Y-100275514D02*
X43430146Y-100335938D01*
X43560841Y-100423266D01*
X43561434Y-100423662D01*
X43673078Y-100535306D01*
X43673080Y-100535309D01*
X43760802Y-100666594D01*
X43821226Y-100812471D01*
X43852030Y-100967332D01*
X43852030Y-101125228D01*
X43821226Y-101280089D01*
X43760802Y-101425966D01*
X43673474Y-101556661D01*
X43673078Y-101557254D01*
X43561434Y-101668898D01*
X43561431Y-101668900D01*
X43430146Y-101756622D01*
X43284269Y-101817046D01*
X43129408Y-101847850D01*
X42971512Y-101847850D01*
X42816651Y-101817046D01*
X42670774Y-101756622D01*
X42539489Y-101668900D01*
X42539486Y-101668898D01*
X42427842Y-101557254D01*
X42427446Y-101556661D01*
X42340118Y-101425966D01*
X42279694Y-101280089D01*
X42248890Y-101125228D01*
X42248890Y-100967332D01*
X42279694Y-100812471D01*
X42340118Y-100666594D01*
X42427840Y-100535309D01*
X42427842Y-100535306D01*
X42539486Y-100423662D01*
X42540079Y-100423266D01*
X42670774Y-100335938D01*
X42816651Y-100275514D01*
X42971512Y-100244710D01*
X43129408Y-100244710D01*
X43284269Y-100275514D01*
X43284269Y-100275514D01*
G37*
G36*
X246257396Y-99161546D02*
X246430466Y-99233234D01*
X246586230Y-99337312D01*
X246718688Y-99469770D01*
X246822766Y-99625534D01*
X246894454Y-99798604D01*
X246931000Y-99982333D01*
X246931000Y-100169667D01*
X246894454Y-100353396D01*
X246822766Y-100526466D01*
X246718688Y-100682230D01*
X246586230Y-100814688D01*
X246430466Y-100918766D01*
X246257396Y-100990454D01*
X246073667Y-101027000D01*
X245886333Y-101027000D01*
X245702604Y-100990454D01*
X245529534Y-100918766D01*
X245373770Y-100814688D01*
X245241312Y-100682230D01*
X245137234Y-100526466D01*
X245065546Y-100353396D01*
X245029000Y-100169667D01*
X245029000Y-99982333D01*
X245065546Y-99798604D01*
X245137234Y-99625534D01*
X245241312Y-99469770D01*
X245373770Y-99337312D01*
X245529534Y-99233234D01*
X245702604Y-99161546D01*
X245886333Y-99125000D01*
X246073667Y-99125000D01*
X246257396Y-99161546D01*
X246257396Y-99161546D01*
G37*
G36*
X221257396Y-99161546D02*
X221430466Y-99233234D01*
X221586230Y-99337312D01*
X221718688Y-99469770D01*
X221822766Y-99625534D01*
X221894454Y-99798604D01*
X221931000Y-99982333D01*
X221931000Y-100169667D01*
X221894454Y-100353396D01*
X221822766Y-100526466D01*
X221718688Y-100682230D01*
X221586230Y-100814688D01*
X221430466Y-100918766D01*
X221257396Y-100990454D01*
X221073667Y-101027000D01*
X220886333Y-101027000D01*
X220702604Y-100990454D01*
X220529534Y-100918766D01*
X220373770Y-100814688D01*
X220241312Y-100682230D01*
X220137234Y-100526466D01*
X220065546Y-100353396D01*
X220029000Y-100169667D01*
X220029000Y-99982333D01*
X220065546Y-99798604D01*
X220137234Y-99625534D01*
X220241312Y-99469770D01*
X220373770Y-99337312D01*
X220529534Y-99233234D01*
X220702604Y-99161546D01*
X220886333Y-99125000D01*
X221073667Y-99125000D01*
X221257396Y-99161546D01*
X221257396Y-99161546D01*
G37*
G36*
X53605774Y-96934819D02*
X53605776Y-96934820D01*
X53605777Y-96934820D01*
X53796954Y-97014008D01*
X53969011Y-97128973D01*
X54115327Y-97275289D01*
X54115329Y-97275292D01*
X54230292Y-97447346D01*
X54305812Y-97629667D01*
X54309481Y-97638526D01*
X54349850Y-97841474D01*
X54349850Y-98048406D01*
X54331188Y-98142227D01*
X54309480Y-98251357D01*
X54230292Y-98442534D01*
X54115327Y-98614591D01*
X53969011Y-98760907D01*
X53969008Y-98760909D01*
X53796954Y-98875872D01*
X53605777Y-98955060D01*
X53605776Y-98955060D01*
X53605774Y-98955061D01*
X53402826Y-98995430D01*
X53195894Y-98995430D01*
X52992946Y-98955061D01*
X52992944Y-98955060D01*
X52992943Y-98955060D01*
X52801766Y-98875872D01*
X52629712Y-98760909D01*
X52629709Y-98760907D01*
X52483393Y-98614591D01*
X52368428Y-98442534D01*
X52289240Y-98251357D01*
X52267533Y-98142227D01*
X52248870Y-98048406D01*
X52248870Y-97841474D01*
X52289239Y-97638526D01*
X52292909Y-97629667D01*
X52368428Y-97447346D01*
X52483391Y-97275292D01*
X52483393Y-97275289D01*
X52629709Y-97128973D01*
X52801766Y-97014008D01*
X52992943Y-96934820D01*
X52992944Y-96934820D01*
X52992946Y-96934819D01*
X53195894Y-96894450D01*
X53402826Y-96894450D01*
X53605774Y-96934819D01*
X53605774Y-96934819D01*
G37*
G36*
X48607054Y-96934819D02*
X48607056Y-96934820D01*
X48607057Y-96934820D01*
X48798234Y-97014008D01*
X48970291Y-97128973D01*
X49116607Y-97275289D01*
X49116609Y-97275292D01*
X49231572Y-97447346D01*
X49307092Y-97629667D01*
X49310761Y-97638526D01*
X49351130Y-97841474D01*
X49351130Y-98048406D01*
X49332468Y-98142227D01*
X49310760Y-98251357D01*
X49231572Y-98442534D01*
X49116607Y-98614591D01*
X48970291Y-98760907D01*
X48970288Y-98760909D01*
X48798234Y-98875872D01*
X48607057Y-98955060D01*
X48607056Y-98955060D01*
X48607054Y-98955061D01*
X48404106Y-98995430D01*
X48197174Y-98995430D01*
X47994226Y-98955061D01*
X47994224Y-98955060D01*
X47994223Y-98955060D01*
X47803046Y-98875872D01*
X47630992Y-98760909D01*
X47630989Y-98760907D01*
X47484673Y-98614591D01*
X47369708Y-98442534D01*
X47290520Y-98251357D01*
X47268813Y-98142227D01*
X47250150Y-98048406D01*
X47250150Y-97841474D01*
X47290519Y-97638526D01*
X47294189Y-97629667D01*
X47369708Y-97447346D01*
X47484671Y-97275292D01*
X47484673Y-97275289D01*
X47630989Y-97128973D01*
X47803046Y-97014008D01*
X47994223Y-96934820D01*
X47994224Y-96934820D01*
X47994226Y-96934819D01*
X48197174Y-96894450D01*
X48404106Y-96894450D01*
X48607054Y-96934819D01*
X48607054Y-96934819D01*
G37*
G36*
X51106414Y-96934819D02*
X51106416Y-96934820D01*
X51106417Y-96934820D01*
X51297594Y-97014008D01*
X51469651Y-97128973D01*
X51615967Y-97275289D01*
X51615969Y-97275292D01*
X51730932Y-97447346D01*
X51806452Y-97629667D01*
X51810121Y-97638526D01*
X51850490Y-97841474D01*
X51850490Y-98048406D01*
X51831828Y-98142227D01*
X51810120Y-98251357D01*
X51730932Y-98442534D01*
X51615967Y-98614591D01*
X51469651Y-98760907D01*
X51469648Y-98760909D01*
X51297594Y-98875872D01*
X51106417Y-98955060D01*
X51106416Y-98955060D01*
X51106414Y-98955061D01*
X50903466Y-98995430D01*
X50696534Y-98995430D01*
X50493586Y-98955061D01*
X50493584Y-98955060D01*
X50493583Y-98955060D01*
X50302406Y-98875872D01*
X50130352Y-98760909D01*
X50130349Y-98760907D01*
X49984033Y-98614591D01*
X49869068Y-98442534D01*
X49789880Y-98251357D01*
X49768173Y-98142227D01*
X49749510Y-98048406D01*
X49749510Y-97841474D01*
X49789879Y-97638526D01*
X49793549Y-97629667D01*
X49869068Y-97447346D01*
X49984031Y-97275292D01*
X49984033Y-97275289D01*
X50130349Y-97128973D01*
X50302406Y-97014008D01*
X50493583Y-96934820D01*
X50493584Y-96934820D01*
X50493586Y-96934819D01*
X50696534Y-96894450D01*
X50903466Y-96894450D01*
X51106414Y-96934819D01*
X51106414Y-96934819D01*
G37*
G36*
X221257396Y-96621546D02*
X221430466Y-96693234D01*
X221586230Y-96797312D01*
X221718688Y-96929770D01*
X221822766Y-97085534D01*
X221894454Y-97258604D01*
X221931000Y-97442333D01*
X221931000Y-97629667D01*
X221894454Y-97813396D01*
X221822766Y-97986466D01*
X221718688Y-98142230D01*
X221586230Y-98274688D01*
X221430466Y-98378766D01*
X221257396Y-98450454D01*
X221073667Y-98487000D01*
X220886333Y-98487000D01*
X220702604Y-98450454D01*
X220529534Y-98378766D01*
X220373770Y-98274688D01*
X220241312Y-98142230D01*
X220137234Y-97986466D01*
X220065546Y-97813396D01*
X220029000Y-97629667D01*
X220029000Y-97442333D01*
X220065546Y-97258604D01*
X220137234Y-97085534D01*
X220241312Y-96929770D01*
X220373770Y-96797312D01*
X220529534Y-96693234D01*
X220702604Y-96621546D01*
X220886333Y-96585000D01*
X221073667Y-96585000D01*
X221257396Y-96621546D01*
X221257396Y-96621546D01*
G37*
G36*
X246257396Y-96621546D02*
X246430466Y-96693234D01*
X246586230Y-96797312D01*
X246718688Y-96929770D01*
X246822766Y-97085534D01*
X246894454Y-97258604D01*
X246931000Y-97442333D01*
X246931000Y-97629667D01*
X246894454Y-97813396D01*
X246822766Y-97986466D01*
X246718688Y-98142230D01*
X246586230Y-98274688D01*
X246430466Y-98378766D01*
X246257396Y-98450454D01*
X246073667Y-98487000D01*
X245886333Y-98487000D01*
X245702604Y-98450454D01*
X245529534Y-98378766D01*
X245373770Y-98274688D01*
X245241312Y-98142230D01*
X245137234Y-97986466D01*
X245065546Y-97813396D01*
X245029000Y-97629667D01*
X245029000Y-97442333D01*
X245065546Y-97258604D01*
X245137234Y-97085534D01*
X245241312Y-96929770D01*
X245373770Y-96797312D01*
X245529534Y-96693234D01*
X245702604Y-96621546D01*
X245886333Y-96585000D01*
X246073667Y-96585000D01*
X246257396Y-96621546D01*
X246257396Y-96621546D01*
G37*
G36*
X246257396Y-94081546D02*
X246430466Y-94153234D01*
X246586230Y-94257312D01*
X246718688Y-94389770D01*
X246822766Y-94545534D01*
X246894454Y-94718604D01*
X246931000Y-94902333D01*
X246931000Y-95089667D01*
X246894454Y-95273396D01*
X246822766Y-95446466D01*
X246718688Y-95602230D01*
X246586230Y-95734688D01*
X246430466Y-95838766D01*
X246257396Y-95910454D01*
X246073667Y-95947000D01*
X245886333Y-95947000D01*
X245702604Y-95910454D01*
X245529534Y-95838766D01*
X245373770Y-95734688D01*
X245241312Y-95602230D01*
X245137234Y-95446466D01*
X245065546Y-95273396D01*
X245029000Y-95089667D01*
X245029000Y-94902333D01*
X245065546Y-94718604D01*
X245137234Y-94545534D01*
X245241312Y-94389770D01*
X245373770Y-94257312D01*
X245529534Y-94153234D01*
X245702604Y-94081546D01*
X245886333Y-94045000D01*
X246073667Y-94045000D01*
X246257396Y-94081546D01*
X246257396Y-94081546D01*
G37*
G36*
X221257396Y-94081546D02*
X221430466Y-94153234D01*
X221586230Y-94257312D01*
X221718688Y-94389770D01*
X221822766Y-94545534D01*
X221894454Y-94718604D01*
X221931000Y-94902333D01*
X221931000Y-95089667D01*
X221894454Y-95273396D01*
X221822766Y-95446466D01*
X221718688Y-95602230D01*
X221586230Y-95734688D01*
X221430466Y-95838766D01*
X221257396Y-95910454D01*
X221073667Y-95947000D01*
X220886333Y-95947000D01*
X220702604Y-95910454D01*
X220529534Y-95838766D01*
X220373770Y-95734688D01*
X220241312Y-95602230D01*
X220137234Y-95446466D01*
X220065546Y-95273396D01*
X220029000Y-95089667D01*
X220029000Y-94902333D01*
X220065546Y-94718604D01*
X220137234Y-94545534D01*
X220241312Y-94389770D01*
X220373770Y-94257312D01*
X220529534Y-94153234D01*
X220702604Y-94081546D01*
X220886333Y-94045000D01*
X221073667Y-94045000D01*
X221257396Y-94081546D01*
X221257396Y-94081546D01*
G37*
G36*
X213838000Y-93671000D02*
X213136000Y-93671000D01*
X213136000Y-92069000D01*
X213838000Y-92069000D01*
X213838000Y-93671000D01*
X213838000Y-93671000D01*
G37*
G36*
X215108000Y-93671000D02*
X214406000Y-93671000D01*
X214406000Y-92069000D01*
X215108000Y-92069000D01*
X215108000Y-93671000D01*
X215108000Y-93671000D01*
G37*
G36*
X212568000Y-93671000D02*
X211866000Y-93671000D01*
X211866000Y-92069000D01*
X212568000Y-92069000D01*
X212568000Y-93671000D01*
X212568000Y-93671000D01*
G37*
G36*
X206218000Y-93671000D02*
X205516000Y-93671000D01*
X205516000Y-92069000D01*
X206218000Y-92069000D01*
X206218000Y-93671000D01*
X206218000Y-93671000D01*
G37*
G36*
X207488000Y-93671000D02*
X206786000Y-93671000D01*
X206786000Y-92069000D01*
X207488000Y-92069000D01*
X207488000Y-93671000D01*
X207488000Y-93671000D01*
G37*
G36*
X208758000Y-93671000D02*
X208056000Y-93671000D01*
X208056000Y-92069000D01*
X208758000Y-92069000D01*
X208758000Y-93671000D01*
X208758000Y-93671000D01*
G37*
G36*
X211298000Y-93671000D02*
X210596000Y-93671000D01*
X210596000Y-92069000D01*
X211298000Y-92069000D01*
X211298000Y-93671000D01*
X211298000Y-93671000D01*
G37*
G36*
X210028000Y-93671000D02*
X209326000Y-93671000D01*
X209326000Y-92069000D01*
X210028000Y-92069000D01*
X210028000Y-93671000D01*
X210028000Y-93671000D01*
G37*
G36*
X246257396Y-91541546D02*
X246430466Y-91613234D01*
X246586230Y-91717312D01*
X246718688Y-91849770D01*
X246822766Y-92005534D01*
X246894454Y-92178604D01*
X246931000Y-92362333D01*
X246931000Y-92549667D01*
X246894454Y-92733396D01*
X246822766Y-92906466D01*
X246718688Y-93062230D01*
X246586230Y-93194688D01*
X246430466Y-93298766D01*
X246257396Y-93370454D01*
X246073667Y-93407000D01*
X245886333Y-93407000D01*
X245702604Y-93370454D01*
X245529534Y-93298766D01*
X245373770Y-93194688D01*
X245241312Y-93062230D01*
X245137234Y-92906466D01*
X245065546Y-92733396D01*
X245029000Y-92549667D01*
X245029000Y-92362333D01*
X245065546Y-92178604D01*
X245137234Y-92005534D01*
X245241312Y-91849770D01*
X245373770Y-91717312D01*
X245529534Y-91613234D01*
X245702604Y-91541546D01*
X245886333Y-91505000D01*
X246073667Y-91505000D01*
X246257396Y-91541546D01*
X246257396Y-91541546D01*
G37*
G36*
X221257396Y-91541546D02*
X221430466Y-91613234D01*
X221586230Y-91717312D01*
X221718688Y-91849770D01*
X221822766Y-92005534D01*
X221894454Y-92178604D01*
X221931000Y-92362333D01*
X221931000Y-92549667D01*
X221894454Y-92733396D01*
X221822766Y-92906466D01*
X221718688Y-93062230D01*
X221586230Y-93194688D01*
X221430466Y-93298766D01*
X221257396Y-93370454D01*
X221073667Y-93407000D01*
X220886333Y-93407000D01*
X220702604Y-93370454D01*
X220529534Y-93298766D01*
X220373770Y-93194688D01*
X220241312Y-93062230D01*
X220137234Y-92906466D01*
X220065546Y-92733396D01*
X220029000Y-92549667D01*
X220029000Y-92362333D01*
X220065546Y-92178604D01*
X220137234Y-92005534D01*
X220241312Y-91849770D01*
X220373770Y-91717312D01*
X220529534Y-91613234D01*
X220702604Y-91541546D01*
X220886333Y-91505000D01*
X221073667Y-91505000D01*
X221257396Y-91541546D01*
X221257396Y-91541546D01*
G37*
G36*
X221257396Y-89001546D02*
X221430466Y-89073234D01*
X221586230Y-89177312D01*
X221718688Y-89309770D01*
X221822766Y-89465534D01*
X221894454Y-89638604D01*
X221931000Y-89822333D01*
X221931000Y-90009667D01*
X221894454Y-90193396D01*
X221822766Y-90366466D01*
X221718688Y-90522230D01*
X221586230Y-90654688D01*
X221430466Y-90758766D01*
X221257396Y-90830454D01*
X221073667Y-90867000D01*
X220886333Y-90867000D01*
X220702604Y-90830454D01*
X220529534Y-90758766D01*
X220373770Y-90654688D01*
X220241312Y-90522230D01*
X220137234Y-90366466D01*
X220065546Y-90193396D01*
X220029000Y-90009667D01*
X220029000Y-89822333D01*
X220065546Y-89638604D01*
X220137234Y-89465534D01*
X220241312Y-89309770D01*
X220373770Y-89177312D01*
X220529534Y-89073234D01*
X220702604Y-89001546D01*
X220886333Y-88965000D01*
X221073667Y-88965000D01*
X221257396Y-89001546D01*
X221257396Y-89001546D01*
G37*
G36*
X246257396Y-89001546D02*
X246430466Y-89073234D01*
X246586230Y-89177312D01*
X246718688Y-89309770D01*
X246822766Y-89465534D01*
X246894454Y-89638604D01*
X246931000Y-89822333D01*
X246931000Y-90009667D01*
X246894454Y-90193396D01*
X246822766Y-90366466D01*
X246718688Y-90522230D01*
X246586230Y-90654688D01*
X246430466Y-90758766D01*
X246257396Y-90830454D01*
X246073667Y-90867000D01*
X245886333Y-90867000D01*
X245702604Y-90830454D01*
X245529534Y-90758766D01*
X245373770Y-90654688D01*
X245241312Y-90522230D01*
X245137234Y-90366466D01*
X245065546Y-90193396D01*
X245029000Y-90009667D01*
X245029000Y-89822333D01*
X245065546Y-89638604D01*
X245137234Y-89465534D01*
X245241312Y-89309770D01*
X245373770Y-89177312D01*
X245529534Y-89073234D01*
X245702604Y-89001546D01*
X245886333Y-88965000D01*
X246073667Y-88965000D01*
X246257396Y-89001546D01*
X246257396Y-89001546D01*
G37*
G36*
X47170548Y-87762326D02*
X47286287Y-87797435D01*
X47344158Y-87814990D01*
X47367315Y-87827368D01*
X47504156Y-87900511D01*
X47644396Y-88015604D01*
X47759489Y-88155844D01*
X47845010Y-88315843D01*
X47897674Y-88489452D01*
X47911000Y-88624757D01*
X47911000Y-89175244D01*
X47897674Y-89310548D01*
X47862565Y-89426287D01*
X47845010Y-89484158D01*
X47799298Y-89569679D01*
X47759489Y-89644156D01*
X47644396Y-89784396D01*
X47504155Y-89899489D01*
X47402514Y-89953817D01*
X47344157Y-89985010D01*
X47297550Y-89999148D01*
X47170547Y-90037674D01*
X46990000Y-90055456D01*
X46809452Y-90037674D01*
X46682449Y-89999148D01*
X46635842Y-89985010D01*
X46494686Y-89909560D01*
X46475844Y-89899489D01*
X46335604Y-89784396D01*
X46220511Y-89644155D01*
X46134991Y-89484158D01*
X46134990Y-89484157D01*
X46117435Y-89426286D01*
X46082326Y-89310547D01*
X46069204Y-89177312D01*
X46069000Y-89175244D01*
X46069000Y-88624755D01*
X46082326Y-88489454D01*
X46082326Y-88489452D01*
X46117435Y-88373713D01*
X46134990Y-88315842D01*
X46220513Y-88155843D01*
X46335605Y-88015604D01*
X46475844Y-87900512D01*
X46475843Y-87900512D01*
X46475845Y-87900511D01*
X46612686Y-87827368D01*
X46635843Y-87814990D01*
X46693714Y-87797435D01*
X46809453Y-87762326D01*
X46990000Y-87744544D01*
X47170548Y-87762326D01*
X47170548Y-87762326D01*
G37*
G36*
X50309560Y-87752966D02*
X50342383Y-87762923D01*
X50372632Y-87779092D01*
X50399148Y-87800852D01*
X50420908Y-87827368D01*
X50437077Y-87857617D01*
X50447034Y-87890440D01*
X50451000Y-87930712D01*
X50451000Y-89869288D01*
X50447034Y-89909560D01*
X50437077Y-89942383D01*
X50420908Y-89972632D01*
X50399148Y-89999148D01*
X50372632Y-90020908D01*
X50342383Y-90037077D01*
X50309560Y-90047034D01*
X50269288Y-90051000D01*
X48790712Y-90051000D01*
X48750440Y-90047034D01*
X48717617Y-90037077D01*
X48687368Y-90020908D01*
X48660852Y-89999148D01*
X48639092Y-89972632D01*
X48622923Y-89942383D01*
X48612966Y-89909560D01*
X48609000Y-89869288D01*
X48609000Y-87930712D01*
X48612966Y-87890440D01*
X48622923Y-87857617D01*
X48639092Y-87827368D01*
X48660852Y-87800852D01*
X48687368Y-87779092D01*
X48717617Y-87762923D01*
X48750440Y-87752966D01*
X48790712Y-87749000D01*
X50269288Y-87749000D01*
X50309560Y-87752966D01*
X50309560Y-87752966D01*
G37*
G36*
X98395000Y-89828000D02*
X97693000Y-89828000D01*
X97693000Y-88226000D01*
X98395000Y-88226000D01*
X98395000Y-89828000D01*
X98395000Y-89828000D01*
G37*
G36*
X104745000Y-89828000D02*
X104043000Y-89828000D01*
X104043000Y-88226000D01*
X104745000Y-88226000D01*
X104745000Y-89828000D01*
X104745000Y-89828000D01*
G37*
G36*
X103475000Y-89828000D02*
X102773000Y-89828000D01*
X102773000Y-88226000D01*
X103475000Y-88226000D01*
X103475000Y-89828000D01*
X103475000Y-89828000D01*
G37*
G36*
X102205000Y-89828000D02*
X101503000Y-89828000D01*
X101503000Y-88226000D01*
X102205000Y-88226000D01*
X102205000Y-89828000D01*
X102205000Y-89828000D01*
G37*
G36*
X100935000Y-89828000D02*
X100233000Y-89828000D01*
X100233000Y-88226000D01*
X100935000Y-88226000D01*
X100935000Y-89828000D01*
X100935000Y-89828000D01*
G37*
G36*
X99665000Y-89828000D02*
X98963000Y-89828000D01*
X98963000Y-88226000D01*
X99665000Y-88226000D01*
X99665000Y-89828000D01*
X99665000Y-89828000D01*
G37*
G36*
X97125000Y-89828000D02*
X96423000Y-89828000D01*
X96423000Y-88226000D01*
X97125000Y-88226000D01*
X97125000Y-89828000D01*
X97125000Y-89828000D01*
G37*
G36*
X95855000Y-89828000D02*
X95153000Y-89828000D01*
X95153000Y-88226000D01*
X95855000Y-88226000D01*
X95855000Y-89828000D01*
X95855000Y-89828000D01*
G37*
G36*
X246257396Y-86461546D02*
X246430466Y-86533234D01*
X246586230Y-86637312D01*
X246718688Y-86769770D01*
X246822766Y-86925534D01*
X246894454Y-87098604D01*
X246931000Y-87282333D01*
X246931000Y-87469667D01*
X246894454Y-87653396D01*
X246822766Y-87826466D01*
X246718688Y-87982230D01*
X246586230Y-88114688D01*
X246430466Y-88218766D01*
X246257396Y-88290454D01*
X246073667Y-88327000D01*
X245886333Y-88327000D01*
X245702604Y-88290454D01*
X245529534Y-88218766D01*
X245373770Y-88114688D01*
X245241312Y-87982230D01*
X245137234Y-87826466D01*
X245065546Y-87653396D01*
X245029000Y-87469667D01*
X245029000Y-87282333D01*
X245065546Y-87098604D01*
X245137234Y-86925534D01*
X245241312Y-86769770D01*
X245373770Y-86637312D01*
X245529534Y-86533234D01*
X245702604Y-86461546D01*
X245886333Y-86425000D01*
X246073667Y-86425000D01*
X246257396Y-86461546D01*
X246257396Y-86461546D01*
G37*
G36*
X221257396Y-86461546D02*
X221430466Y-86533234D01*
X221586230Y-86637312D01*
X221718688Y-86769770D01*
X221822766Y-86925534D01*
X221894454Y-87098604D01*
X221931000Y-87282333D01*
X221931000Y-87469667D01*
X221894454Y-87653396D01*
X221822766Y-87826466D01*
X221718688Y-87982230D01*
X221586230Y-88114688D01*
X221430466Y-88218766D01*
X221257396Y-88290454D01*
X221073667Y-88327000D01*
X220886333Y-88327000D01*
X220702604Y-88290454D01*
X220529534Y-88218766D01*
X220373770Y-88114688D01*
X220241312Y-87982230D01*
X220137234Y-87826466D01*
X220065546Y-87653396D01*
X220029000Y-87469667D01*
X220029000Y-87282333D01*
X220065546Y-87098604D01*
X220137234Y-86925534D01*
X220241312Y-86769770D01*
X220373770Y-86637312D01*
X220529534Y-86533234D01*
X220702604Y-86461546D01*
X220886333Y-86425000D01*
X221073667Y-86425000D01*
X221257396Y-86461546D01*
X221257396Y-86461546D01*
G37*
G36*
X215108000Y-88271000D02*
X214406000Y-88271000D01*
X214406000Y-86669000D01*
X215108000Y-86669000D01*
X215108000Y-88271000D01*
X215108000Y-88271000D01*
G37*
G36*
X213838000Y-88271000D02*
X213136000Y-88271000D01*
X213136000Y-86669000D01*
X213838000Y-86669000D01*
X213838000Y-88271000D01*
X213838000Y-88271000D01*
G37*
G36*
X212568000Y-88271000D02*
X211866000Y-88271000D01*
X211866000Y-86669000D01*
X212568000Y-86669000D01*
X212568000Y-88271000D01*
X212568000Y-88271000D01*
G37*
G36*
X211298000Y-88271000D02*
X210596000Y-88271000D01*
X210596000Y-86669000D01*
X211298000Y-86669000D01*
X211298000Y-88271000D01*
X211298000Y-88271000D01*
G37*
G36*
X210028000Y-88271000D02*
X209326000Y-88271000D01*
X209326000Y-86669000D01*
X210028000Y-86669000D01*
X210028000Y-88271000D01*
X210028000Y-88271000D01*
G37*
G36*
X208758000Y-88271000D02*
X208056000Y-88271000D01*
X208056000Y-86669000D01*
X208758000Y-86669000D01*
X208758000Y-88271000D01*
X208758000Y-88271000D01*
G37*
G36*
X207488000Y-88271000D02*
X206786000Y-88271000D01*
X206786000Y-86669000D01*
X207488000Y-86669000D01*
X207488000Y-88271000D01*
X207488000Y-88271000D01*
G37*
G36*
X206218000Y-88271000D02*
X205516000Y-88271000D01*
X205516000Y-86669000D01*
X206218000Y-86669000D01*
X206218000Y-88271000D01*
X206218000Y-88271000D01*
G37*
G36*
X246257396Y-83921546D02*
X246430466Y-83993234D01*
X246586230Y-84097312D01*
X246718688Y-84229770D01*
X246822766Y-84385534D01*
X246894454Y-84558604D01*
X246931000Y-84742333D01*
X246931000Y-84929667D01*
X246894454Y-85113396D01*
X246822766Y-85286466D01*
X246718688Y-85442230D01*
X246586230Y-85574688D01*
X246430466Y-85678766D01*
X246257396Y-85750454D01*
X246073667Y-85787000D01*
X245886333Y-85787000D01*
X245702604Y-85750454D01*
X245529534Y-85678766D01*
X245373770Y-85574688D01*
X245241312Y-85442230D01*
X245137234Y-85286466D01*
X245065546Y-85113396D01*
X245029000Y-84929667D01*
X245029000Y-84742333D01*
X245065546Y-84558604D01*
X245137234Y-84385534D01*
X245241312Y-84229770D01*
X245373770Y-84097312D01*
X245529534Y-83993234D01*
X245702604Y-83921546D01*
X245886333Y-83885000D01*
X246073667Y-83885000D01*
X246257396Y-83921546D01*
X246257396Y-83921546D01*
G37*
G36*
X221257396Y-83921546D02*
X221430466Y-83993234D01*
X221586230Y-84097312D01*
X221718688Y-84229770D01*
X221822766Y-84385534D01*
X221894454Y-84558604D01*
X221931000Y-84742333D01*
X221931000Y-84929667D01*
X221894454Y-85113396D01*
X221822766Y-85286466D01*
X221718688Y-85442230D01*
X221586230Y-85574688D01*
X221430466Y-85678766D01*
X221257396Y-85750454D01*
X221073667Y-85787000D01*
X220886333Y-85787000D01*
X220702604Y-85750454D01*
X220529534Y-85678766D01*
X220373770Y-85574688D01*
X220241312Y-85442230D01*
X220137234Y-85286466D01*
X220065546Y-85113396D01*
X220029000Y-84929667D01*
X220029000Y-84742333D01*
X220065546Y-84558604D01*
X220137234Y-84385534D01*
X220241312Y-84229770D01*
X220373770Y-84097312D01*
X220529534Y-83993234D01*
X220702604Y-83921546D01*
X220886333Y-83885000D01*
X221073667Y-83885000D01*
X221257396Y-83921546D01*
X221257396Y-83921546D01*
G37*
G36*
X100935000Y-84428000D02*
X100233000Y-84428000D01*
X100233000Y-82826000D01*
X100935000Y-82826000D01*
X100935000Y-84428000D01*
X100935000Y-84428000D01*
G37*
G36*
X99665000Y-84428000D02*
X98963000Y-84428000D01*
X98963000Y-82826000D01*
X99665000Y-82826000D01*
X99665000Y-84428000D01*
X99665000Y-84428000D01*
G37*
G36*
X104745000Y-84428000D02*
X104043000Y-84428000D01*
X104043000Y-82826000D01*
X104745000Y-82826000D01*
X104745000Y-84428000D01*
X104745000Y-84428000D01*
G37*
G36*
X103475000Y-84428000D02*
X102773000Y-84428000D01*
X102773000Y-82826000D01*
X103475000Y-82826000D01*
X103475000Y-84428000D01*
X103475000Y-84428000D01*
G37*
G36*
X102205000Y-84428000D02*
X101503000Y-84428000D01*
X101503000Y-82826000D01*
X102205000Y-82826000D01*
X102205000Y-84428000D01*
X102205000Y-84428000D01*
G37*
G36*
X98395000Y-84428000D02*
X97693000Y-84428000D01*
X97693000Y-82826000D01*
X98395000Y-82826000D01*
X98395000Y-84428000D01*
X98395000Y-84428000D01*
G37*
G36*
X97125000Y-84428000D02*
X96423000Y-84428000D01*
X96423000Y-82826000D01*
X97125000Y-82826000D01*
X97125000Y-84428000D01*
X97125000Y-84428000D01*
G37*
G36*
X95855000Y-84428000D02*
X95153000Y-84428000D01*
X95153000Y-82826000D01*
X95855000Y-82826000D01*
X95855000Y-84428000D01*
X95855000Y-84428000D01*
G37*
G36*
X246257396Y-81381546D02*
X246430466Y-81453234D01*
X246586230Y-81557312D01*
X246718688Y-81689770D01*
X246822766Y-81845534D01*
X246894454Y-82018604D01*
X246931000Y-82202333D01*
X246931000Y-82389667D01*
X246894454Y-82573396D01*
X246822766Y-82746466D01*
X246718688Y-82902230D01*
X246586230Y-83034688D01*
X246430466Y-83138766D01*
X246257396Y-83210454D01*
X246073667Y-83247000D01*
X245886333Y-83247000D01*
X245702604Y-83210454D01*
X245529534Y-83138766D01*
X245373770Y-83034688D01*
X245241312Y-82902230D01*
X245137234Y-82746466D01*
X245065546Y-82573396D01*
X245029000Y-82389667D01*
X245029000Y-82202333D01*
X245065546Y-82018604D01*
X245137234Y-81845534D01*
X245241312Y-81689770D01*
X245373770Y-81557312D01*
X245529534Y-81453234D01*
X245702604Y-81381546D01*
X245886333Y-81345000D01*
X246073667Y-81345000D01*
X246257396Y-81381546D01*
X246257396Y-81381546D01*
G37*
G36*
X221257396Y-81381546D02*
X221430466Y-81453234D01*
X221586230Y-81557312D01*
X221718688Y-81689770D01*
X221822766Y-81845534D01*
X221894454Y-82018604D01*
X221931000Y-82202333D01*
X221931000Y-82389667D01*
X221894454Y-82573396D01*
X221822766Y-82746466D01*
X221718688Y-82902230D01*
X221586230Y-83034688D01*
X221430466Y-83138766D01*
X221257396Y-83210454D01*
X221073667Y-83247000D01*
X220886333Y-83247000D01*
X220702604Y-83210454D01*
X220529534Y-83138766D01*
X220373770Y-83034688D01*
X220241312Y-82902230D01*
X220137234Y-82746466D01*
X220065546Y-82573396D01*
X220029000Y-82389667D01*
X220029000Y-82202333D01*
X220065546Y-82018604D01*
X220137234Y-81845534D01*
X220241312Y-81689770D01*
X220373770Y-81557312D01*
X220529534Y-81453234D01*
X220702604Y-81381546D01*
X220886333Y-81345000D01*
X221073667Y-81345000D01*
X221257396Y-81381546D01*
X221257396Y-81381546D01*
G37*
G36*
X246257396Y-78841546D02*
X246430466Y-78913234D01*
X246586230Y-79017312D01*
X246718688Y-79149770D01*
X246822766Y-79305534D01*
X246894454Y-79478604D01*
X246931000Y-79662333D01*
X246931000Y-79849667D01*
X246894454Y-80033396D01*
X246822766Y-80206466D01*
X246718688Y-80362230D01*
X246586230Y-80494688D01*
X246430466Y-80598766D01*
X246257396Y-80670454D01*
X246073667Y-80707000D01*
X245886333Y-80707000D01*
X245702604Y-80670454D01*
X245529534Y-80598766D01*
X245373770Y-80494688D01*
X245241312Y-80362230D01*
X245137234Y-80206466D01*
X245065546Y-80033396D01*
X245029000Y-79849667D01*
X245029000Y-79662333D01*
X245065546Y-79478604D01*
X245137234Y-79305534D01*
X245241312Y-79149770D01*
X245373770Y-79017312D01*
X245529534Y-78913234D01*
X245702604Y-78841546D01*
X245886333Y-78805000D01*
X246073667Y-78805000D01*
X246257396Y-78841546D01*
X246257396Y-78841546D01*
G37*
G36*
X221257396Y-78841546D02*
X221430466Y-78913234D01*
X221586230Y-79017312D01*
X221718688Y-79149770D01*
X221822766Y-79305534D01*
X221894454Y-79478604D01*
X221931000Y-79662333D01*
X221931000Y-79849667D01*
X221894454Y-80033396D01*
X221822766Y-80206466D01*
X221718688Y-80362230D01*
X221586230Y-80494688D01*
X221430466Y-80598766D01*
X221257396Y-80670454D01*
X221073667Y-80707000D01*
X220886333Y-80707000D01*
X220702604Y-80670454D01*
X220529534Y-80598766D01*
X220373770Y-80494688D01*
X220241312Y-80362230D01*
X220137234Y-80206466D01*
X220065546Y-80033396D01*
X220029000Y-79849667D01*
X220029000Y-79662333D01*
X220065546Y-79478604D01*
X220137234Y-79305534D01*
X220241312Y-79149770D01*
X220373770Y-79017312D01*
X220529534Y-78913234D01*
X220702604Y-78841546D01*
X220886333Y-78805000D01*
X221073667Y-78805000D01*
X221257396Y-78841546D01*
X221257396Y-78841546D01*
G37*
G36*
X246257396Y-76301546D02*
X246430466Y-76373234D01*
X246586230Y-76477312D01*
X246718688Y-76609770D01*
X246822766Y-76765534D01*
X246894454Y-76938604D01*
X246931000Y-77122333D01*
X246931000Y-77309667D01*
X246894454Y-77493396D01*
X246822766Y-77666466D01*
X246718688Y-77822230D01*
X246586230Y-77954688D01*
X246430466Y-78058766D01*
X246257396Y-78130454D01*
X246073667Y-78167000D01*
X245886333Y-78167000D01*
X245702604Y-78130454D01*
X245529534Y-78058766D01*
X245373770Y-77954688D01*
X245241312Y-77822230D01*
X245137234Y-77666466D01*
X245065546Y-77493396D01*
X245029000Y-77309667D01*
X245029000Y-77122333D01*
X245065546Y-76938604D01*
X245137234Y-76765534D01*
X245241312Y-76609770D01*
X245373770Y-76477312D01*
X245529534Y-76373234D01*
X245702604Y-76301546D01*
X245886333Y-76265000D01*
X246073667Y-76265000D01*
X246257396Y-76301546D01*
X246257396Y-76301546D01*
G37*
G36*
X221257396Y-76301546D02*
X221430466Y-76373234D01*
X221586230Y-76477312D01*
X221718688Y-76609770D01*
X221822766Y-76765534D01*
X221894454Y-76938604D01*
X221931000Y-77122333D01*
X221931000Y-77309667D01*
X221894454Y-77493396D01*
X221822766Y-77666466D01*
X221718688Y-77822230D01*
X221586230Y-77954688D01*
X221430466Y-78058766D01*
X221257396Y-78130454D01*
X221073667Y-78167000D01*
X220886333Y-78167000D01*
X220702604Y-78130454D01*
X220529534Y-78058766D01*
X220373770Y-77954688D01*
X220241312Y-77822230D01*
X220137234Y-77666466D01*
X220065546Y-77493396D01*
X220029000Y-77309667D01*
X220029000Y-77122333D01*
X220065546Y-76938604D01*
X220137234Y-76765534D01*
X220241312Y-76609770D01*
X220373770Y-76477312D01*
X220529534Y-76373234D01*
X220702604Y-76301546D01*
X220886333Y-76265000D01*
X221073667Y-76265000D01*
X221257396Y-76301546D01*
X221257396Y-76301546D01*
G37*
G36*
X246257396Y-73761546D02*
X246430466Y-73833234D01*
X246586230Y-73937312D01*
X246718688Y-74069770D01*
X246822766Y-74225534D01*
X246894454Y-74398604D01*
X246931000Y-74582333D01*
X246931000Y-74769667D01*
X246894454Y-74953396D01*
X246822766Y-75126466D01*
X246718688Y-75282230D01*
X246586230Y-75414688D01*
X246430466Y-75518766D01*
X246257396Y-75590454D01*
X246073667Y-75627000D01*
X245886333Y-75627000D01*
X245702604Y-75590454D01*
X245529534Y-75518766D01*
X245373770Y-75414688D01*
X245241312Y-75282230D01*
X245137234Y-75126466D01*
X245065546Y-74953396D01*
X245029000Y-74769667D01*
X245029000Y-74582333D01*
X245065546Y-74398604D01*
X245137234Y-74225534D01*
X245241312Y-74069770D01*
X245373770Y-73937312D01*
X245529534Y-73833234D01*
X245702604Y-73761546D01*
X245886333Y-73725000D01*
X246073667Y-73725000D01*
X246257396Y-73761546D01*
X246257396Y-73761546D01*
G37*
G36*
X221257396Y-73761546D02*
X221430466Y-73833234D01*
X221586230Y-73937312D01*
X221718688Y-74069770D01*
X221822766Y-74225534D01*
X221894454Y-74398604D01*
X221931000Y-74582333D01*
X221931000Y-74769667D01*
X221894454Y-74953396D01*
X221822766Y-75126466D01*
X221718688Y-75282230D01*
X221586230Y-75414688D01*
X221430466Y-75518766D01*
X221257396Y-75590454D01*
X221073667Y-75627000D01*
X220886333Y-75627000D01*
X220702604Y-75590454D01*
X220529534Y-75518766D01*
X220373770Y-75414688D01*
X220241312Y-75282230D01*
X220137234Y-75126466D01*
X220065546Y-74953396D01*
X220029000Y-74769667D01*
X220029000Y-74582333D01*
X220065546Y-74398604D01*
X220137234Y-74225534D01*
X220241312Y-74069770D01*
X220373770Y-73937312D01*
X220529534Y-73833234D01*
X220702604Y-73761546D01*
X220886333Y-73725000D01*
X221073667Y-73725000D01*
X221257396Y-73761546D01*
X221257396Y-73761546D01*
G37*
G36*
X208551331Y-70002211D02*
X208879092Y-70137974D01*
X209174073Y-70335074D01*
X209424926Y-70585927D01*
X209622026Y-70880908D01*
X209757789Y-71208669D01*
X209827000Y-71556616D01*
X209827000Y-71911384D01*
X209757789Y-72259331D01*
X209622026Y-72587092D01*
X209424926Y-72882073D01*
X209174073Y-73132926D01*
X208879092Y-73330026D01*
X208551331Y-73465789D01*
X208203384Y-73535000D01*
X207848616Y-73535000D01*
X207500669Y-73465789D01*
X207172908Y-73330026D01*
X206877927Y-73132926D01*
X206627074Y-72882073D01*
X206429974Y-72587092D01*
X206294211Y-72259331D01*
X206225000Y-71911384D01*
X206225000Y-71556616D01*
X206294211Y-71208669D01*
X206429974Y-70880908D01*
X206627074Y-70585927D01*
X206877927Y-70335074D01*
X207172908Y-70137974D01*
X207500669Y-70002211D01*
X207848616Y-69933000D01*
X208203384Y-69933000D01*
X208551331Y-70002211D01*
X208551331Y-70002211D01*
G37*
G36*
X246257396Y-71221546D02*
X246430466Y-71293234D01*
X246586230Y-71397312D01*
X246718688Y-71529770D01*
X246822766Y-71685534D01*
X246894454Y-71858604D01*
X246931000Y-72042333D01*
X246931000Y-72229667D01*
X246894454Y-72413396D01*
X246822766Y-72586466D01*
X246718688Y-72742230D01*
X246586230Y-72874688D01*
X246430466Y-72978766D01*
X246257396Y-73050454D01*
X246073667Y-73087000D01*
X245886333Y-73087000D01*
X245702604Y-73050454D01*
X245529534Y-72978766D01*
X245373770Y-72874688D01*
X245241312Y-72742230D01*
X245137234Y-72586466D01*
X245065546Y-72413396D01*
X245029000Y-72229667D01*
X245029000Y-72042333D01*
X245065546Y-71858604D01*
X245137234Y-71685534D01*
X245241312Y-71529770D01*
X245373770Y-71397312D01*
X245529534Y-71293234D01*
X245702604Y-71221546D01*
X245886333Y-71185000D01*
X246073667Y-71185000D01*
X246257396Y-71221546D01*
X246257396Y-71221546D01*
G37*
G36*
X221257396Y-71221546D02*
X221430466Y-71293234D01*
X221586230Y-71397312D01*
X221718688Y-71529770D01*
X221822766Y-71685534D01*
X221894454Y-71858604D01*
X221931000Y-72042333D01*
X221931000Y-72229667D01*
X221894454Y-72413396D01*
X221822766Y-72586466D01*
X221718688Y-72742230D01*
X221586230Y-72874688D01*
X221430466Y-72978766D01*
X221257396Y-73050454D01*
X221073667Y-73087000D01*
X220886333Y-73087000D01*
X220702604Y-73050454D01*
X220529534Y-72978766D01*
X220373770Y-72874688D01*
X220241312Y-72742230D01*
X220137234Y-72586466D01*
X220065546Y-72413396D01*
X220029000Y-72229667D01*
X220029000Y-72042333D01*
X220065546Y-71858604D01*
X220137234Y-71685534D01*
X220241312Y-71529770D01*
X220373770Y-71397312D01*
X220529534Y-71293234D01*
X220702604Y-71221546D01*
X220886333Y-71185000D01*
X221073667Y-71185000D01*
X221257396Y-71221546D01*
X221257396Y-71221546D01*
G37*
G36*
X246257396Y-68681546D02*
X246430466Y-68753234D01*
X246586230Y-68857312D01*
X246718688Y-68989770D01*
X246822766Y-69145534D01*
X246894454Y-69318604D01*
X246931000Y-69502333D01*
X246931000Y-69689667D01*
X246894454Y-69873396D01*
X246822766Y-70046466D01*
X246718688Y-70202230D01*
X246586230Y-70334688D01*
X246430466Y-70438766D01*
X246257396Y-70510454D01*
X246073667Y-70547000D01*
X245886333Y-70547000D01*
X245702604Y-70510454D01*
X245529534Y-70438766D01*
X245373770Y-70334688D01*
X245241312Y-70202230D01*
X245137234Y-70046466D01*
X245065546Y-69873396D01*
X245029000Y-69689667D01*
X245029000Y-69502333D01*
X245065546Y-69318604D01*
X245137234Y-69145534D01*
X245241312Y-68989770D01*
X245373770Y-68857312D01*
X245529534Y-68753234D01*
X245702604Y-68681546D01*
X245886333Y-68645000D01*
X246073667Y-68645000D01*
X246257396Y-68681546D01*
X246257396Y-68681546D01*
G37*
G36*
X221257396Y-68681546D02*
X221430466Y-68753234D01*
X221586230Y-68857312D01*
X221718688Y-68989770D01*
X221822766Y-69145534D01*
X221894454Y-69318604D01*
X221931000Y-69502333D01*
X221931000Y-69689667D01*
X221894454Y-69873396D01*
X221822766Y-70046466D01*
X221718688Y-70202230D01*
X221586230Y-70334688D01*
X221430466Y-70438766D01*
X221257396Y-70510454D01*
X221073667Y-70547000D01*
X220886333Y-70547000D01*
X220702604Y-70510454D01*
X220529534Y-70438766D01*
X220373770Y-70334688D01*
X220241312Y-70202230D01*
X220137234Y-70046466D01*
X220065546Y-69873396D01*
X220029000Y-69689667D01*
X220029000Y-69502333D01*
X220065546Y-69318604D01*
X220137234Y-69145534D01*
X220241312Y-68989770D01*
X220373770Y-68857312D01*
X220529534Y-68753234D01*
X220702604Y-68681546D01*
X220886333Y-68645000D01*
X221073667Y-68645000D01*
X221257396Y-68681546D01*
X221257396Y-68681546D01*
G37*
G36*
X246257396Y-66141546D02*
X246430466Y-66213234D01*
X246586230Y-66317312D01*
X246718688Y-66449770D01*
X246822766Y-66605534D01*
X246894454Y-66778604D01*
X246931000Y-66962333D01*
X246931000Y-67149667D01*
X246894454Y-67333396D01*
X246822766Y-67506466D01*
X246718688Y-67662230D01*
X246586230Y-67794688D01*
X246430466Y-67898766D01*
X246257396Y-67970454D01*
X246073667Y-68007000D01*
X245886333Y-68007000D01*
X245702604Y-67970454D01*
X245529534Y-67898766D01*
X245373770Y-67794688D01*
X245241312Y-67662230D01*
X245137234Y-67506466D01*
X245065546Y-67333396D01*
X245029000Y-67149667D01*
X245029000Y-66962333D01*
X245065546Y-66778604D01*
X245137234Y-66605534D01*
X245241312Y-66449770D01*
X245373770Y-66317312D01*
X245529534Y-66213234D01*
X245702604Y-66141546D01*
X245886333Y-66105000D01*
X246073667Y-66105000D01*
X246257396Y-66141546D01*
X246257396Y-66141546D01*
G37*
G36*
X221257396Y-66141546D02*
X221430466Y-66213234D01*
X221586230Y-66317312D01*
X221718688Y-66449770D01*
X221822766Y-66605534D01*
X221894454Y-66778604D01*
X221931000Y-66962333D01*
X221931000Y-67149667D01*
X221894454Y-67333396D01*
X221822766Y-67506466D01*
X221718688Y-67662230D01*
X221586230Y-67794688D01*
X221430466Y-67898766D01*
X221257396Y-67970454D01*
X221073667Y-68007000D01*
X220886333Y-68007000D01*
X220702604Y-67970454D01*
X220529534Y-67898766D01*
X220373770Y-67794688D01*
X220241312Y-67662230D01*
X220137234Y-67506466D01*
X220065546Y-67333396D01*
X220029000Y-67149667D01*
X220029000Y-66962333D01*
X220065546Y-66778604D01*
X220137234Y-66605534D01*
X220241312Y-66449770D01*
X220373770Y-66317312D01*
X220529534Y-66213234D01*
X220702604Y-66141546D01*
X220886333Y-66105000D01*
X221073667Y-66105000D01*
X221257396Y-66141546D01*
X221257396Y-66141546D01*
G37*
G36*
X52063560Y-62328966D02*
X52096383Y-62338923D01*
X52126632Y-62355092D01*
X52153148Y-62376852D01*
X52174908Y-62403368D01*
X52191077Y-62433617D01*
X52201034Y-62466440D01*
X52205000Y-62506712D01*
X52205000Y-63985288D01*
X52201034Y-64025560D01*
X52191077Y-64058383D01*
X52174908Y-64088632D01*
X52153148Y-64115148D01*
X52126632Y-64136908D01*
X52096383Y-64153077D01*
X52063560Y-64163034D01*
X52023288Y-64167000D01*
X50084712Y-64167000D01*
X50044440Y-64163034D01*
X50011617Y-64153077D01*
X49981368Y-64136908D01*
X49954852Y-64115148D01*
X49933092Y-64088632D01*
X49916923Y-64058383D01*
X49906966Y-64025560D01*
X49903000Y-63985288D01*
X49903000Y-62506712D01*
X49906966Y-62466440D01*
X49916923Y-62433617D01*
X49933092Y-62403368D01*
X49954852Y-62376852D01*
X49981368Y-62355092D01*
X50011617Y-62338923D01*
X50044440Y-62328966D01*
X50084712Y-62325000D01*
X52023288Y-62325000D01*
X52063560Y-62328966D01*
X52063560Y-62328966D01*
G37*
G36*
X83813560Y-61820966D02*
X83846383Y-61830923D01*
X83876632Y-61847092D01*
X83903148Y-61868852D01*
X83924908Y-61895368D01*
X83941077Y-61925617D01*
X83951034Y-61958440D01*
X83955000Y-61998712D01*
X83955000Y-63477288D01*
X83951034Y-63517560D01*
X83941077Y-63550383D01*
X83924908Y-63580632D01*
X83903148Y-63607148D01*
X83876632Y-63628908D01*
X83846383Y-63645077D01*
X83813560Y-63655034D01*
X83773288Y-63659000D01*
X81834712Y-63659000D01*
X81794440Y-63655034D01*
X81761617Y-63645077D01*
X81731368Y-63628908D01*
X81704852Y-63607148D01*
X81683092Y-63580632D01*
X81666923Y-63550383D01*
X81656966Y-63517560D01*
X81653000Y-63477288D01*
X81653000Y-61998712D01*
X81656966Y-61958440D01*
X81666923Y-61925617D01*
X81683092Y-61895368D01*
X81704852Y-61868852D01*
X81731368Y-61847092D01*
X81761617Y-61830923D01*
X81794440Y-61820966D01*
X81834712Y-61817000D01*
X83773288Y-61817000D01*
X83813560Y-61820966D01*
X83813560Y-61820966D01*
G37*
G36*
X261546547Y-60838326D02*
X261662286Y-60873435D01*
X261720157Y-60890990D01*
X261741718Y-60902515D01*
X261880155Y-60976511D01*
X262020396Y-61091604D01*
X262135489Y-61231844D01*
X262175298Y-61306321D01*
X262221010Y-61391842D01*
X262238565Y-61449713D01*
X262273674Y-61565452D01*
X262287000Y-61700756D01*
X262287000Y-62251243D01*
X262273674Y-62386548D01*
X262221010Y-62560157D01*
X262135489Y-62720156D01*
X262020396Y-62860396D01*
X261880156Y-62975489D01*
X261861314Y-62985560D01*
X261720158Y-63061010D01*
X261673551Y-63075148D01*
X261546548Y-63113674D01*
X261366000Y-63131456D01*
X261185453Y-63113674D01*
X261058450Y-63075148D01*
X261011843Y-63061010D01*
X260870687Y-62985560D01*
X260851845Y-62975489D01*
X260711605Y-62860396D01*
X260596512Y-62720156D01*
X260556703Y-62645680D01*
X260510990Y-62560158D01*
X260482561Y-62466440D01*
X260458326Y-62386548D01*
X260445000Y-62251244D01*
X260445000Y-61700757D01*
X260458326Y-61565453D01*
X260510990Y-61391844D01*
X260510990Y-61391843D01*
X260542183Y-61333486D01*
X260596511Y-61231845D01*
X260711604Y-61091604D01*
X260851844Y-60976511D01*
X260988685Y-60903368D01*
X261011842Y-60890990D01*
X261069713Y-60873435D01*
X261185452Y-60838326D01*
X261366000Y-60820544D01*
X261546547Y-60838326D01*
X261546547Y-60838326D01*
G37*
G36*
X259605560Y-60828966D02*
X259638383Y-60838923D01*
X259668632Y-60855092D01*
X259695148Y-60876852D01*
X259716908Y-60903368D01*
X259733077Y-60933617D01*
X259743034Y-60966440D01*
X259747000Y-61006712D01*
X259747000Y-62945288D01*
X259743034Y-62985560D01*
X259733077Y-63018383D01*
X259716908Y-63048632D01*
X259695148Y-63075148D01*
X259668632Y-63096908D01*
X259638383Y-63113077D01*
X259605560Y-63123034D01*
X259565288Y-63127000D01*
X258086712Y-63127000D01*
X258046440Y-63123034D01*
X258013617Y-63113077D01*
X257983368Y-63096908D01*
X257956852Y-63075148D01*
X257935092Y-63048632D01*
X257918923Y-63018383D01*
X257908966Y-62985560D01*
X257905000Y-62945288D01*
X257905000Y-61006712D01*
X257908966Y-60966440D01*
X257918923Y-60933617D01*
X257935092Y-60903368D01*
X257956852Y-60876852D01*
X257983368Y-60855092D01*
X258013617Y-60838923D01*
X258046440Y-60828966D01*
X258086712Y-60825000D01*
X259565288Y-60825000D01*
X259605560Y-60828966D01*
X259605560Y-60828966D01*
G37*
G36*
X51374345Y-59789442D02*
X51464548Y-59798326D01*
X51580287Y-59833435D01*
X51638158Y-59850990D01*
X51705512Y-59886992D01*
X51798156Y-59936511D01*
X51798158Y-59936512D01*
X51798157Y-59936512D01*
X51938396Y-60051604D01*
X52053488Y-60191843D01*
X52139010Y-60351842D01*
X52139010Y-60351843D01*
X52191674Y-60525452D01*
X52209456Y-60706000D01*
X52191674Y-60886548D01*
X52164383Y-60976513D01*
X52139010Y-61060158D01*
X52114681Y-61105674D01*
X52053489Y-61220156D01*
X51938396Y-61360396D01*
X51798156Y-61475489D01*
X51723679Y-61515298D01*
X51638158Y-61561010D01*
X51580287Y-61578565D01*
X51464548Y-61613674D01*
X51374345Y-61622558D01*
X51329245Y-61627000D01*
X50778755Y-61627000D01*
X50733655Y-61622558D01*
X50643452Y-61613674D01*
X50527713Y-61578565D01*
X50469842Y-61561010D01*
X50384321Y-61515298D01*
X50309844Y-61475489D01*
X50169604Y-61360396D01*
X50054511Y-61220156D01*
X49993319Y-61105674D01*
X49968990Y-61060158D01*
X49943617Y-60976513D01*
X49916326Y-60886548D01*
X49898544Y-60706000D01*
X49916326Y-60525452D01*
X49968990Y-60351843D01*
X49968990Y-60351842D01*
X50054512Y-60191843D01*
X50169604Y-60051604D01*
X50309843Y-59936512D01*
X50309842Y-59936512D01*
X50309844Y-59936511D01*
X50402488Y-59886992D01*
X50469842Y-59850990D01*
X50527713Y-59833435D01*
X50643452Y-59798326D01*
X50733655Y-59789442D01*
X50778755Y-59785000D01*
X51329245Y-59785000D01*
X51374345Y-59789442D01*
X51374345Y-59789442D01*
G37*
G36*
X83124345Y-59281442D02*
X83214548Y-59290326D01*
X83330287Y-59325435D01*
X83388158Y-59342990D01*
X83473679Y-59388702D01*
X83548156Y-59428511D01*
X83548158Y-59428512D01*
X83548157Y-59428512D01*
X83688396Y-59543604D01*
X83803488Y-59683843D01*
X83889010Y-59843842D01*
X83889010Y-59843843D01*
X83941674Y-60017452D01*
X83959456Y-60198000D01*
X83941674Y-60378548D01*
X83906565Y-60494287D01*
X83889010Y-60552158D01*
X83843298Y-60637679D01*
X83803489Y-60712156D01*
X83688396Y-60852396D01*
X83548156Y-60967489D01*
X83531273Y-60976513D01*
X83388158Y-61053010D01*
X83330287Y-61070565D01*
X83214548Y-61105674D01*
X83124345Y-61114558D01*
X83079245Y-61119000D01*
X82528755Y-61119000D01*
X82483655Y-61114558D01*
X82393452Y-61105674D01*
X82277713Y-61070565D01*
X82219842Y-61053010D01*
X82076727Y-60976513D01*
X82059844Y-60967489D01*
X81919604Y-60852396D01*
X81804511Y-60712156D01*
X81764702Y-60637679D01*
X81718990Y-60552158D01*
X81701435Y-60494287D01*
X81666326Y-60378548D01*
X81648544Y-60198000D01*
X81666326Y-60017452D01*
X81718990Y-59843843D01*
X81718990Y-59843842D01*
X81804512Y-59683843D01*
X81919604Y-59543604D01*
X82059843Y-59428512D01*
X82059842Y-59428512D01*
X82059844Y-59428511D01*
X82134321Y-59388702D01*
X82219842Y-59342990D01*
X82277713Y-59325435D01*
X82393452Y-59290326D01*
X82483655Y-59281442D01*
X82528755Y-59277000D01*
X83079245Y-59277000D01*
X83124345Y-59281442D01*
X83124345Y-59281442D01*
G37*
G36*
X211952626Y-58196037D02*
X212065852Y-58230384D01*
X212122466Y-58247557D01*
X212278989Y-58331221D01*
X212416186Y-58443814D01*
X212478838Y-58520157D01*
X212528778Y-58581009D01*
X212528779Y-58581011D01*
X212612443Y-58737533D01*
X212629616Y-58794147D01*
X212663963Y-58907373D01*
X212677000Y-59039742D01*
X212677000Y-59428257D01*
X212663963Y-59560626D01*
X212612443Y-59730466D01*
X212528778Y-59886991D01*
X212528777Y-59886992D01*
X212416186Y-60024186D01*
X212314729Y-60107448D01*
X212278991Y-60136778D01*
X212278989Y-60136779D01*
X212122467Y-60220443D01*
X212065853Y-60237616D01*
X211952627Y-60271963D01*
X211776000Y-60289359D01*
X211599374Y-60271963D01*
X211486148Y-60237616D01*
X211429534Y-60220443D01*
X211273012Y-60136779D01*
X211273010Y-60136778D01*
X211135816Y-60024186D01*
X211135812Y-60024183D01*
X211023222Y-59886992D01*
X210939557Y-59730467D01*
X210922384Y-59673853D01*
X210888037Y-59560627D01*
X210875000Y-59428258D01*
X210875000Y-59039743D01*
X210888037Y-58907374D01*
X210939557Y-58737535D01*
X210939557Y-58737534D01*
X211023221Y-58581011D01*
X211135814Y-58443814D01*
X211237271Y-58360552D01*
X211273009Y-58331222D01*
X211308230Y-58312396D01*
X211429533Y-58247557D01*
X211486147Y-58230384D01*
X211599373Y-58196037D01*
X211776000Y-58178641D01*
X211952626Y-58196037D01*
X211952626Y-58196037D01*
G37*
G36*
X206952626Y-58196037D02*
X207065852Y-58230384D01*
X207122466Y-58247557D01*
X207278989Y-58331221D01*
X207416186Y-58443814D01*
X207478838Y-58520157D01*
X207528778Y-58581009D01*
X207528779Y-58581011D01*
X207612443Y-58737533D01*
X207629616Y-58794147D01*
X207663963Y-58907373D01*
X207677000Y-59039742D01*
X207677000Y-59428257D01*
X207663963Y-59560626D01*
X207612443Y-59730466D01*
X207528778Y-59886991D01*
X207528777Y-59886992D01*
X207416186Y-60024186D01*
X207314729Y-60107448D01*
X207278991Y-60136778D01*
X207278989Y-60136779D01*
X207122467Y-60220443D01*
X207065853Y-60237616D01*
X206952627Y-60271963D01*
X206776000Y-60289359D01*
X206599374Y-60271963D01*
X206486148Y-60237616D01*
X206429534Y-60220443D01*
X206273012Y-60136779D01*
X206273010Y-60136778D01*
X206135816Y-60024186D01*
X206135812Y-60024183D01*
X206023222Y-59886992D01*
X205939557Y-59730467D01*
X205922384Y-59673853D01*
X205888037Y-59560627D01*
X205875000Y-59428258D01*
X205875000Y-59039743D01*
X205888037Y-58907374D01*
X205939557Y-58737535D01*
X205939557Y-58737534D01*
X206023221Y-58581011D01*
X206135814Y-58443814D01*
X206237271Y-58360552D01*
X206273009Y-58331222D01*
X206308230Y-58312396D01*
X206429533Y-58247557D01*
X206486147Y-58230384D01*
X206599373Y-58196037D01*
X206776000Y-58178641D01*
X206952626Y-58196037D01*
X206952626Y-58196037D01*
G37*
G36*
X51374345Y-57249442D02*
X51464548Y-57258326D01*
X51580287Y-57293435D01*
X51638158Y-57310990D01*
X51723679Y-57356702D01*
X51798156Y-57396511D01*
X51798158Y-57396512D01*
X51798157Y-57396512D01*
X51938396Y-57511604D01*
X52053488Y-57651843D01*
X52139010Y-57811842D01*
X52139010Y-57811843D01*
X52191674Y-57985452D01*
X52209456Y-58166000D01*
X52191674Y-58346548D01*
X52162168Y-58443815D01*
X52139010Y-58520158D01*
X52106483Y-58581011D01*
X52053489Y-58680156D01*
X51938396Y-58820396D01*
X51798156Y-58935489D01*
X51723679Y-58975298D01*
X51638158Y-59021010D01*
X51580287Y-59038565D01*
X51464548Y-59073674D01*
X51374345Y-59082558D01*
X51329245Y-59087000D01*
X50778755Y-59087000D01*
X50733655Y-59082558D01*
X50643452Y-59073674D01*
X50527713Y-59038565D01*
X50469842Y-59021010D01*
X50384321Y-58975298D01*
X50309844Y-58935489D01*
X50169604Y-58820396D01*
X50054511Y-58680156D01*
X50001517Y-58581011D01*
X49968990Y-58520158D01*
X49945832Y-58443815D01*
X49916326Y-58346548D01*
X49898544Y-58166000D01*
X49916326Y-57985452D01*
X49968990Y-57811843D01*
X49968990Y-57811842D01*
X50054512Y-57651843D01*
X50169604Y-57511604D01*
X50309843Y-57396512D01*
X50309842Y-57396512D01*
X50309844Y-57396511D01*
X50384321Y-57356702D01*
X50469842Y-57310990D01*
X50527713Y-57293435D01*
X50643452Y-57258326D01*
X50733655Y-57249442D01*
X50778755Y-57245000D01*
X51329245Y-57245000D01*
X51374345Y-57249442D01*
X51374345Y-57249442D01*
G37*
G36*
X83124345Y-56741442D02*
X83214548Y-56750326D01*
X83330287Y-56785435D01*
X83388158Y-56802990D01*
X83473679Y-56848702D01*
X83548156Y-56888511D01*
X83548158Y-56888512D01*
X83548157Y-56888512D01*
X83688396Y-57003604D01*
X83803488Y-57143843D01*
X83889010Y-57303842D01*
X83889010Y-57303843D01*
X83941674Y-57477452D01*
X83959456Y-57658000D01*
X83941674Y-57838548D01*
X83906565Y-57954287D01*
X83889010Y-58012158D01*
X83843298Y-58097679D01*
X83803489Y-58172156D01*
X83688396Y-58312396D01*
X83548156Y-58427489D01*
X83517612Y-58443815D01*
X83388158Y-58513010D01*
X83330287Y-58530565D01*
X83214548Y-58565674D01*
X83124345Y-58574558D01*
X83079245Y-58579000D01*
X82528755Y-58579000D01*
X82483655Y-58574558D01*
X82393452Y-58565674D01*
X82277713Y-58530565D01*
X82219842Y-58513010D01*
X82090388Y-58443815D01*
X82059844Y-58427489D01*
X81919604Y-58312396D01*
X81804511Y-58172156D01*
X81764702Y-58097679D01*
X81718990Y-58012158D01*
X81701435Y-57954287D01*
X81666326Y-57838548D01*
X81648544Y-57658000D01*
X81666326Y-57477452D01*
X81718990Y-57303843D01*
X81718990Y-57303842D01*
X81804512Y-57143843D01*
X81919604Y-57003604D01*
X82059843Y-56888512D01*
X82059842Y-56888512D01*
X82059844Y-56888511D01*
X82134321Y-56848702D01*
X82219842Y-56802990D01*
X82277713Y-56785435D01*
X82393452Y-56750326D01*
X82483655Y-56741442D01*
X82528755Y-56737000D01*
X83079245Y-56737000D01*
X83124345Y-56741442D01*
X83124345Y-56741442D01*
G37*
M02*
