G04 #@! TF.GenerationSoftware,KiCad,Pcbnew,(5.0.1-3-g963ef8bb5)*
G04 #@! TF.CreationDate,2019-11-20T19:59:20+01:00*
G04 #@! TF.ProjectId,RushBox2,52757368426F78322E6B696361645F70,rev?*
G04 #@! TF.SameCoordinates,Original*
G04 #@! TF.FileFunction,Legend,Bot*
G04 #@! TF.FilePolarity,Positive*
%FSLAX46Y46*%
G04 Gerber Fmt 4.6, Leading zero omitted, Abs format (unit mm)*
G04 Created by KiCad (PCBNEW (5.0.1-3-g963ef8bb5)) date 2019 November 20, Wednesday 19:59:20*
%MOMM*%
%LPD*%
G01*
G04 APERTURE LIST*
%ADD10C,0.254000*%
%ADD11C,0.300000*%
%ADD12C,0.150000*%
%ADD13C,0.120000*%
G04 APERTURE END LIST*
D10*
X51701095Y-65151000D02*
X51797857Y-65102619D01*
X51943000Y-65102619D01*
X52088142Y-65151000D01*
X52184904Y-65247761D01*
X52233285Y-65344523D01*
X52281666Y-65538047D01*
X52281666Y-65683190D01*
X52233285Y-65876714D01*
X52184904Y-65973476D01*
X52088142Y-66070238D01*
X51943000Y-66118619D01*
X51846238Y-66118619D01*
X51701095Y-66070238D01*
X51652714Y-66021857D01*
X51652714Y-65683190D01*
X51846238Y-65683190D01*
X51217285Y-66118619D02*
X51217285Y-65102619D01*
X50636714Y-66118619D01*
X50636714Y-65102619D01*
X50152904Y-66118619D02*
X50152904Y-65102619D01*
X49911000Y-65102619D01*
X49765857Y-65151000D01*
X49669095Y-65247761D01*
X49620714Y-65344523D01*
X49572333Y-65538047D01*
X49572333Y-65683190D01*
X49620714Y-65876714D01*
X49669095Y-65973476D01*
X49765857Y-66070238D01*
X49911000Y-66118619D01*
X50152904Y-66118619D01*
X83578095Y-64897000D02*
X83674857Y-64848619D01*
X83820000Y-64848619D01*
X83965142Y-64897000D01*
X84061904Y-64993761D01*
X84110285Y-65090523D01*
X84158666Y-65284047D01*
X84158666Y-65429190D01*
X84110285Y-65622714D01*
X84061904Y-65719476D01*
X83965142Y-65816238D01*
X83820000Y-65864619D01*
X83723238Y-65864619D01*
X83578095Y-65816238D01*
X83529714Y-65767857D01*
X83529714Y-65429190D01*
X83723238Y-65429190D01*
X83094285Y-65864619D02*
X83094285Y-64848619D01*
X82513714Y-65864619D01*
X82513714Y-64848619D01*
X82029904Y-65864619D02*
X82029904Y-64848619D01*
X81788000Y-64848619D01*
X81642857Y-64897000D01*
X81546095Y-64993761D01*
X81497714Y-65090523D01*
X81449333Y-65284047D01*
X81449333Y-65429190D01*
X81497714Y-65622714D01*
X81546095Y-65719476D01*
X81642857Y-65816238D01*
X81788000Y-65864619D01*
X82029904Y-65864619D01*
D11*
X170361428Y-128614714D02*
X170966190Y-128614714D01*
X170966190Y-124986142D01*
X170361428Y-124986142D01*
X166370000Y-127768047D02*
X166370000Y-126437571D01*
X166490952Y-126195666D01*
X166732857Y-126074714D01*
X167216666Y-126074714D01*
X167458571Y-126195666D01*
X166370000Y-127647095D02*
X166611904Y-127768047D01*
X167216666Y-127768047D01*
X167458571Y-127647095D01*
X167579523Y-127405190D01*
X167579523Y-127163285D01*
X167458571Y-126921380D01*
X167216666Y-126800428D01*
X166611904Y-126800428D01*
X166370000Y-126679476D01*
X163225238Y-126074714D02*
X163225238Y-127768047D01*
X163225238Y-126316619D02*
X163104285Y-126195666D01*
X162862380Y-126074714D01*
X162499523Y-126074714D01*
X162257619Y-126195666D01*
X162136666Y-126437571D01*
X162136666Y-127768047D01*
X159233809Y-126074714D02*
X158629047Y-127768047D01*
X158024285Y-126074714D02*
X158629047Y-127768047D01*
X158870952Y-128372809D01*
X158991904Y-128493761D01*
X159233809Y-128614714D01*
X155121428Y-127768047D02*
X155121428Y-126074714D01*
X155121428Y-126316619D02*
X155000476Y-126195666D01*
X154758571Y-126074714D01*
X154395714Y-126074714D01*
X154153809Y-126195666D01*
X154032857Y-126437571D01*
X154032857Y-127768047D01*
X154032857Y-126437571D02*
X153911904Y-126195666D01*
X153670000Y-126074714D01*
X153307142Y-126074714D01*
X153065238Y-126195666D01*
X152944285Y-126437571D01*
X152944285Y-127768047D01*
X148710952Y-127768047D02*
X148710952Y-126437571D01*
X148831904Y-126195666D01*
X149073809Y-126074714D01*
X149557619Y-126074714D01*
X149799523Y-126195666D01*
X148710952Y-127647095D02*
X148952857Y-127768047D01*
X149557619Y-127768047D01*
X149799523Y-127647095D01*
X149920476Y-127405190D01*
X149920476Y-127163285D01*
X149799523Y-126921380D01*
X149557619Y-126800428D01*
X148952857Y-126800428D01*
X148710952Y-126679476D01*
X144961428Y-128614714D02*
X144961428Y-124986142D01*
X139760476Y-127768047D02*
X140607142Y-126558523D01*
X141211904Y-127768047D02*
X141211904Y-125228047D01*
X140244285Y-125228047D01*
X140002380Y-125349000D01*
X139881428Y-125469952D01*
X139760476Y-125711857D01*
X139760476Y-126074714D01*
X139881428Y-126316619D01*
X140002380Y-126437571D01*
X140244285Y-126558523D01*
X141211904Y-126558523D01*
X138671904Y-125228047D02*
X138671904Y-127284238D01*
X138550952Y-127526142D01*
X138430000Y-127647095D01*
X138188095Y-127768047D01*
X137704285Y-127768047D01*
X137462380Y-127647095D01*
X137341428Y-127526142D01*
X137220476Y-127284238D01*
X137220476Y-125228047D01*
X136131904Y-127647095D02*
X135769047Y-127768047D01*
X135164285Y-127768047D01*
X134922380Y-127647095D01*
X134801428Y-127526142D01*
X134680476Y-127284238D01*
X134680476Y-127042333D01*
X134801428Y-126800428D01*
X134922380Y-126679476D01*
X135164285Y-126558523D01*
X135648095Y-126437571D01*
X135890000Y-126316619D01*
X136010952Y-126195666D01*
X136131904Y-125953761D01*
X136131904Y-125711857D01*
X136010952Y-125469952D01*
X135890000Y-125349000D01*
X135648095Y-125228047D01*
X135043333Y-125228047D01*
X134680476Y-125349000D01*
X133591904Y-127768047D02*
X133591904Y-125228047D01*
X133591904Y-126437571D02*
X132140476Y-126437571D01*
X132140476Y-127768047D02*
X132140476Y-125228047D01*
X130084285Y-126437571D02*
X129721428Y-126558523D01*
X129600476Y-126679476D01*
X129479523Y-126921380D01*
X129479523Y-127284238D01*
X129600476Y-127526142D01*
X129721428Y-127647095D01*
X129963333Y-127768047D01*
X130930952Y-127768047D01*
X130930952Y-125228047D01*
X130084285Y-125228047D01*
X129842380Y-125349000D01*
X129721428Y-125469952D01*
X129600476Y-125711857D01*
X129600476Y-125953761D01*
X129721428Y-126195666D01*
X129842380Y-126316619D01*
X130084285Y-126437571D01*
X130930952Y-126437571D01*
X127907142Y-125228047D02*
X127423333Y-125228047D01*
X127181428Y-125349000D01*
X126939523Y-125590904D01*
X126818571Y-126074714D01*
X126818571Y-126921380D01*
X126939523Y-127405190D01*
X127181428Y-127647095D01*
X127423333Y-127768047D01*
X127907142Y-127768047D01*
X128149047Y-127647095D01*
X128390952Y-127405190D01*
X128511904Y-126921380D01*
X128511904Y-126074714D01*
X128390952Y-125590904D01*
X128149047Y-125349000D01*
X127907142Y-125228047D01*
X125971904Y-125228047D02*
X124278571Y-127768047D01*
X124278571Y-125228047D02*
X125971904Y-127768047D01*
X121617619Y-127768047D02*
X120287142Y-126074714D01*
X121617619Y-126074714D02*
X120287142Y-127768047D01*
X119440476Y-125469952D02*
X119319523Y-125349000D01*
X119077619Y-125228047D01*
X118472857Y-125228047D01*
X118230952Y-125349000D01*
X118109999Y-125469952D01*
X117989047Y-125711857D01*
X117989047Y-125953761D01*
X118109999Y-126316619D01*
X119561428Y-127768047D01*
X117989047Y-127768047D01*
X116900476Y-127526142D02*
X116779523Y-127647095D01*
X116900476Y-127768047D01*
X117021428Y-127647095D01*
X116900476Y-127526142D01*
X116900476Y-127768047D01*
X115207142Y-125228047D02*
X114965238Y-125228047D01*
X114723333Y-125349000D01*
X114602380Y-125469952D01*
X114481428Y-125711857D01*
X114360476Y-126195666D01*
X114360476Y-126800428D01*
X114481428Y-127284238D01*
X114602380Y-127526142D01*
X114723333Y-127647095D01*
X114965238Y-127768047D01*
X115207142Y-127768047D01*
X115449047Y-127647095D01*
X115569999Y-127526142D01*
X115690952Y-127284238D01*
X115811904Y-126800428D01*
X115811904Y-126195666D01*
X115690952Y-125711857D01*
X115569999Y-125469952D01*
X115449047Y-125349000D01*
X115207142Y-125228047D01*
X111578571Y-128614714D02*
X110973809Y-128614714D01*
X110973809Y-124986142D01*
X111578571Y-124986142D01*
X264648142Y-59920428D02*
X264648142Y-61063285D01*
X265219571Y-60491857D02*
X264076714Y-60491857D01*
X263719571Y-62491857D02*
X263719571Y-61777571D01*
X264433857Y-61706142D01*
X264362428Y-61777571D01*
X264291000Y-61920428D01*
X264291000Y-62277571D01*
X264362428Y-62420428D01*
X264433857Y-62491857D01*
X264576714Y-62563285D01*
X264933857Y-62563285D01*
X265076714Y-62491857D01*
X265148142Y-62420428D01*
X265219571Y-62277571D01*
X265219571Y-61920428D01*
X265148142Y-61777571D01*
X265076714Y-61706142D01*
X263719571Y-62991857D02*
X265219571Y-63491857D01*
X263719571Y-63991857D01*
X78275571Y-56416285D02*
X76775571Y-56416285D01*
X76775571Y-56773428D01*
X76847000Y-56987714D01*
X76989857Y-57130571D01*
X77132714Y-57202000D01*
X77418428Y-57273428D01*
X77632714Y-57273428D01*
X77918428Y-57202000D01*
X78061285Y-57130571D01*
X78204142Y-56987714D01*
X78275571Y-56773428D01*
X78275571Y-56416285D01*
X78275571Y-57916285D02*
X76775571Y-57916285D01*
X77847000Y-58416285D01*
X76775571Y-58916285D01*
X78275571Y-58916285D01*
X76775571Y-59487714D02*
X78275571Y-60487714D01*
X76775571Y-60487714D02*
X78275571Y-59487714D01*
X77704142Y-61059142D02*
X77704142Y-62202000D01*
X78275571Y-62916285D02*
X76775571Y-62916285D01*
X78275571Y-63630571D02*
X76775571Y-63630571D01*
X78275571Y-64487714D01*
X76775571Y-64487714D01*
X49672714Y-94587142D02*
X49458428Y-94658571D01*
X49101285Y-94658571D01*
X48958428Y-94587142D01*
X48887000Y-94515714D01*
X48815571Y-94372857D01*
X48815571Y-94230000D01*
X48887000Y-94087142D01*
X48958428Y-94015714D01*
X49101285Y-93944285D01*
X49387000Y-93872857D01*
X49529857Y-93801428D01*
X49601285Y-93730000D01*
X49672714Y-93587142D01*
X49672714Y-93444285D01*
X49601285Y-93301428D01*
X49529857Y-93230000D01*
X49387000Y-93158571D01*
X49029857Y-93158571D01*
X48815571Y-93230000D01*
X48315571Y-93158571D02*
X47958428Y-94658571D01*
X47672714Y-93587142D01*
X47387000Y-94658571D01*
X47029857Y-93158571D01*
X46779571Y-56178285D02*
X45279571Y-56178285D01*
X45279571Y-56535428D01*
X45351000Y-56749714D01*
X45493857Y-56892571D01*
X45636714Y-56964000D01*
X45922428Y-57035428D01*
X46136714Y-57035428D01*
X46422428Y-56964000D01*
X46565285Y-56892571D01*
X46708142Y-56749714D01*
X46779571Y-56535428D01*
X46779571Y-56178285D01*
X46779571Y-57678285D02*
X45279571Y-57678285D01*
X46351000Y-58178285D01*
X45279571Y-58678285D01*
X46779571Y-58678285D01*
X45279571Y-59249714D02*
X46779571Y-60249714D01*
X45279571Y-60249714D02*
X46779571Y-59249714D01*
X46208142Y-60821142D02*
X46208142Y-61964000D01*
X45279571Y-62964000D02*
X45279571Y-63249714D01*
X45351000Y-63392571D01*
X45493857Y-63535428D01*
X45779571Y-63606857D01*
X46279571Y-63606857D01*
X46565285Y-63535428D01*
X46708142Y-63392571D01*
X46779571Y-63249714D01*
X46779571Y-62964000D01*
X46708142Y-62821142D01*
X46565285Y-62678285D01*
X46279571Y-62606857D01*
X45779571Y-62606857D01*
X45493857Y-62678285D01*
X45351000Y-62821142D01*
X45279571Y-62964000D01*
X45279571Y-64249714D02*
X46493857Y-64249714D01*
X46636714Y-64321142D01*
X46708142Y-64392571D01*
X46779571Y-64535428D01*
X46779571Y-64821142D01*
X46708142Y-64964000D01*
X46636714Y-65035428D01*
X46493857Y-65106857D01*
X45279571Y-65106857D01*
X45279571Y-65606857D02*
X45279571Y-66464000D01*
X46779571Y-66035428D02*
X45279571Y-66035428D01*
D12*
G04 #@! TO.C,U4*
X219310000Y-107696000D02*
X247250000Y-107696000D01*
X247250000Y-107696000D02*
X247250000Y-56896000D01*
X247250000Y-56896000D02*
X219310000Y-56896000D01*
X219310000Y-56896000D02*
X219310000Y-107696000D01*
X229470000Y-56896000D02*
X229470000Y-63246000D01*
X229470000Y-63246000D02*
X238360000Y-63246000D01*
X238360000Y-63246000D02*
X238360000Y-56896000D01*
X238360000Y-56896000D02*
X229470000Y-56896000D01*
X226186051Y-60706000D02*
G75*
G03X226186051Y-60706000I-1796051J0D01*
G01*
X245236051Y-60706000D02*
G75*
G03X245236051Y-60706000I-1796051J0D01*
G01*
D13*
G04 #@! TO.C,J2*
X85234000Y-56858000D02*
X85834000Y-56858000D01*
X85234000Y-58458000D02*
X85234000Y-56858000D01*
X85834000Y-58458000D02*
X85234000Y-58458000D01*
X85234000Y-59398000D02*
X85834000Y-59398000D01*
X85234000Y-60998000D02*
X85234000Y-59398000D01*
X85834000Y-60998000D02*
X85234000Y-60998000D01*
X85234000Y-61938000D02*
X85834000Y-61938000D01*
X85234000Y-63538000D02*
X85234000Y-61938000D01*
X85834000Y-63538000D02*
X85234000Y-63538000D01*
X79814000Y-57908000D02*
X80814000Y-57908000D01*
X79814000Y-62488000D02*
X80814000Y-62488000D01*
X81344000Y-57908000D02*
X80814000Y-57658000D01*
X81344000Y-62488000D02*
X81344000Y-57908000D01*
X80814000Y-62738000D02*
X81344000Y-62488000D01*
X80814000Y-57658000D02*
X79814000Y-57658000D01*
X80814000Y-62738000D02*
X80814000Y-57658000D01*
X79814000Y-62738000D02*
X80814000Y-62738000D01*
X84804000Y-64408000D02*
X80804000Y-64408000D01*
X85834000Y-56278000D02*
X85834000Y-64118000D01*
X79814000Y-56278000D02*
X85834000Y-56278000D01*
X79814000Y-64118000D02*
X79814000Y-56278000D01*
X85834000Y-64118000D02*
X79814000Y-64118000D01*
G04 #@! TO.C,J3*
X54084000Y-64626000D02*
X48064000Y-64626000D01*
X48064000Y-64626000D02*
X48064000Y-56786000D01*
X48064000Y-56786000D02*
X54084000Y-56786000D01*
X54084000Y-56786000D02*
X54084000Y-64626000D01*
X53054000Y-64916000D02*
X49054000Y-64916000D01*
X48064000Y-63246000D02*
X49064000Y-63246000D01*
X49064000Y-63246000D02*
X49064000Y-58166000D01*
X49064000Y-58166000D02*
X48064000Y-58166000D01*
X49064000Y-63246000D02*
X49594000Y-62996000D01*
X49594000Y-62996000D02*
X49594000Y-58416000D01*
X49594000Y-58416000D02*
X49064000Y-58166000D01*
X48064000Y-62996000D02*
X49064000Y-62996000D01*
X48064000Y-58416000D02*
X49064000Y-58416000D01*
X54084000Y-64046000D02*
X53484000Y-64046000D01*
X53484000Y-64046000D02*
X53484000Y-62446000D01*
X53484000Y-62446000D02*
X54084000Y-62446000D01*
X54084000Y-61506000D02*
X53484000Y-61506000D01*
X53484000Y-61506000D02*
X53484000Y-59906000D01*
X53484000Y-59906000D02*
X54084000Y-59906000D01*
X54084000Y-58966000D02*
X53484000Y-58966000D01*
X53484000Y-58966000D02*
X53484000Y-57366000D01*
X53484000Y-57366000D02*
X54084000Y-57366000D01*
G04 #@! TO.C,J4*
X257446000Y-65006000D02*
X257446000Y-58986000D01*
X257446000Y-58986000D02*
X262746000Y-58986000D01*
X262746000Y-58986000D02*
X262746000Y-65006000D01*
X262746000Y-65006000D02*
X257446000Y-65006000D01*
X257156000Y-63976000D02*
X257156000Y-59976000D01*
X258826000Y-58986000D02*
X258826000Y-59986000D01*
X258826000Y-59986000D02*
X261366000Y-59986000D01*
X261366000Y-59986000D02*
X261366000Y-58986000D01*
X258826000Y-59986000D02*
X259076000Y-60516000D01*
X259076000Y-60516000D02*
X261116000Y-60516000D01*
X261116000Y-60516000D02*
X261366000Y-59986000D01*
X259076000Y-58986000D02*
X259076000Y-59986000D01*
X261116000Y-58986000D02*
X261116000Y-59986000D01*
X258026000Y-65006000D02*
X258026000Y-64406000D01*
X258026000Y-64406000D02*
X259626000Y-64406000D01*
X259626000Y-64406000D02*
X259626000Y-65006000D01*
X260566000Y-65006000D02*
X260566000Y-64406000D01*
X260566000Y-64406000D02*
X262166000Y-64406000D01*
X262166000Y-64406000D02*
X262166000Y-65006000D01*
G04 #@! TO.C,J5*
X46190000Y-86470000D02*
X46190000Y-85870000D01*
X47790000Y-86470000D02*
X46190000Y-86470000D01*
X47790000Y-85870000D02*
X47790000Y-86470000D01*
X48730000Y-86470000D02*
X48730000Y-85870000D01*
X50330000Y-86470000D02*
X48730000Y-86470000D01*
X50330000Y-85870000D02*
X50330000Y-86470000D01*
X47240000Y-91890000D02*
X47240000Y-90890000D01*
X49280000Y-91890000D02*
X49280000Y-90890000D01*
X47240000Y-90360000D02*
X46990000Y-90890000D01*
X49280000Y-90360000D02*
X47240000Y-90360000D01*
X49530000Y-90890000D02*
X49280000Y-90360000D01*
X46990000Y-90890000D02*
X46990000Y-91890000D01*
X49530000Y-90890000D02*
X46990000Y-90890000D01*
X49530000Y-91890000D02*
X49530000Y-90890000D01*
X51200000Y-86900000D02*
X51200000Y-90900000D01*
X45610000Y-85870000D02*
X50910000Y-85870000D01*
X45610000Y-91890000D02*
X45610000Y-85870000D01*
X50910000Y-91890000D02*
X45610000Y-91890000D01*
X50910000Y-85870000D02*
X50910000Y-91890000D01*
D12*
G04 #@! TO.C,U6*
X94874000Y-84252000D02*
X94899000Y-84252000D01*
X94874000Y-88402000D02*
X94979000Y-88402000D01*
X105024000Y-88402000D02*
X104919000Y-88402000D01*
X105024000Y-84252000D02*
X104919000Y-84252000D01*
X94874000Y-84252000D02*
X94874000Y-88402000D01*
X105024000Y-84252000D02*
X105024000Y-88402000D01*
X94899000Y-84252000D02*
X94899000Y-82877000D01*
G04 #@! TO.C,U7*
X205262000Y-88095000D02*
X205262000Y-86720000D01*
X215387000Y-88095000D02*
X215387000Y-92245000D01*
X205237000Y-88095000D02*
X205237000Y-92245000D01*
X215387000Y-88095000D02*
X215282000Y-88095000D01*
X215387000Y-92245000D02*
X215282000Y-92245000D01*
X205237000Y-92245000D02*
X205342000Y-92245000D01*
X205237000Y-88095000D02*
X205262000Y-88095000D01*
G04 #@! TO.C,U4*
X234441904Y-65238380D02*
X234441904Y-66047904D01*
X234394285Y-66143142D01*
X234346666Y-66190761D01*
X234251428Y-66238380D01*
X234060952Y-66238380D01*
X233965714Y-66190761D01*
X233918095Y-66143142D01*
X233870476Y-66047904D01*
X233870476Y-65238380D01*
X232965714Y-65571714D02*
X232965714Y-66238380D01*
X233203809Y-65190761D02*
X233441904Y-65905047D01*
X232822857Y-65905047D01*
G04 #@! TO.C,J2*
X86376380Y-59864666D02*
X87090666Y-59864666D01*
X87233523Y-59817047D01*
X87328761Y-59721809D01*
X87376380Y-59578952D01*
X87376380Y-59483714D01*
X86471619Y-60293238D02*
X86424000Y-60340857D01*
X86376380Y-60436095D01*
X86376380Y-60674190D01*
X86424000Y-60769428D01*
X86471619Y-60817047D01*
X86566857Y-60864666D01*
X86662095Y-60864666D01*
X86804952Y-60817047D01*
X87376380Y-60245619D01*
X87376380Y-60864666D01*
G04 #@! TO.C,J3*
X54626380Y-60372666D02*
X55340666Y-60372666D01*
X55483523Y-60325047D01*
X55578761Y-60229809D01*
X55626380Y-60086952D01*
X55626380Y-59991714D01*
X54626380Y-60753619D02*
X54626380Y-61372666D01*
X55007333Y-61039333D01*
X55007333Y-61182190D01*
X55054952Y-61277428D01*
X55102571Y-61325047D01*
X55197809Y-61372666D01*
X55435904Y-61372666D01*
X55531142Y-61325047D01*
X55578761Y-61277428D01*
X55626380Y-61182190D01*
X55626380Y-60896476D01*
X55578761Y-60801238D01*
X55531142Y-60753619D01*
G04 #@! TO.C,J4*
X260429333Y-65548380D02*
X260429333Y-66262666D01*
X260476952Y-66405523D01*
X260572190Y-66500761D01*
X260715047Y-66548380D01*
X260810285Y-66548380D01*
X259524571Y-65881714D02*
X259524571Y-66548380D01*
X259762666Y-65500761D02*
X260000761Y-66215047D01*
X259381714Y-66215047D01*
G04 #@! TO.C,J5*
X48593333Y-84232380D02*
X48593333Y-84946666D01*
X48640952Y-85089523D01*
X48736190Y-85184761D01*
X48879047Y-85232380D01*
X48974285Y-85232380D01*
X47640952Y-84232380D02*
X48117142Y-84232380D01*
X48164761Y-84708571D01*
X48117142Y-84660952D01*
X48021904Y-84613333D01*
X47783809Y-84613333D01*
X47688571Y-84660952D01*
X47640952Y-84708571D01*
X47593333Y-84803809D01*
X47593333Y-85041904D01*
X47640952Y-85137142D01*
X47688571Y-85184761D01*
X47783809Y-85232380D01*
X48021904Y-85232380D01*
X48117142Y-85184761D01*
X48164761Y-85137142D01*
G04 #@! TO.C,U6*
X93401380Y-85565095D02*
X94210904Y-85565095D01*
X94306142Y-85612714D01*
X94353761Y-85660333D01*
X94401380Y-85755571D01*
X94401380Y-85946047D01*
X94353761Y-86041285D01*
X94306142Y-86088904D01*
X94210904Y-86136523D01*
X93401380Y-86136523D01*
X93401380Y-87041285D02*
X93401380Y-86850809D01*
X93449000Y-86755571D01*
X93496619Y-86707952D01*
X93639476Y-86612714D01*
X93829952Y-86565095D01*
X94210904Y-86565095D01*
X94306142Y-86612714D01*
X94353761Y-86660333D01*
X94401380Y-86755571D01*
X94401380Y-86946047D01*
X94353761Y-87041285D01*
X94306142Y-87088904D01*
X94210904Y-87136523D01*
X93972809Y-87136523D01*
X93877571Y-87088904D01*
X93829952Y-87041285D01*
X93782333Y-86946047D01*
X93782333Y-86755571D01*
X93829952Y-86660333D01*
X93877571Y-86612714D01*
X93972809Y-86565095D01*
G04 #@! TO.C,U7*
X203764380Y-89408095D02*
X204573904Y-89408095D01*
X204669142Y-89455714D01*
X204716761Y-89503333D01*
X204764380Y-89598571D01*
X204764380Y-89789047D01*
X204716761Y-89884285D01*
X204669142Y-89931904D01*
X204573904Y-89979523D01*
X203764380Y-89979523D01*
X203764380Y-90360476D02*
X203764380Y-91027142D01*
X204764380Y-90598571D01*
G04 #@! TD*
M02*
